<svg width="390" height="271" viewBox="0 0 390 271" fill="none" xmlns="http://www.w3.org/2000/svg">
<g filter="url(#filter0_d_16_144)">
<rect x="21.5" y="19.5" width="347" height="228" rx="8.5" stroke="#488AA8" stroke-width="3" shape-rendering="crispEdges"/>
</g>
<rect x="56" y="82" width="25" height="25" fill="#488AA8"/>
<path d="M117.873 96.2148H122.127V102.517C121.805 102.622 121.479 102.716 121.151 102.798C120.823 102.88 120.486 102.947 120.141 103C119.795 103.059 119.432 103.103 119.051 103.132C118.67 103.161 118.26 103.176 117.82 103.176C116.9 103.176 116.086 103.023 115.377 102.719C114.668 102.408 114.07 101.969 113.584 101.4C113.098 100.826 112.729 100.132 112.477 99.3174C112.225 98.4971 112.099 97.5771 112.099 96.5576C112.099 95.5498 112.236 94.6387 112.512 93.8242C112.793 93.0098 113.2 92.3184 113.733 91.75C114.267 91.1758 114.923 90.7363 115.702 90.4316C116.487 90.1211 117.381 89.9658 118.383 89.9658C119.033 89.9658 119.657 90.0303 120.255 90.1592C120.853 90.2881 121.409 90.4756 121.925 90.7217L121.292 92.1455C121.081 92.0459 120.853 91.9521 120.606 91.8643C120.366 91.7764 120.117 91.7002 119.859 91.6357C119.602 91.5654 119.335 91.5098 119.06 91.4688C118.79 91.4277 118.521 91.4072 118.251 91.4072C117.536 91.4072 116.903 91.5273 116.353 91.7676C115.802 92.002 115.339 92.3418 114.964 92.7871C114.595 93.2324 114.313 93.7744 114.12 94.4131C113.927 95.0518 113.83 95.7725 113.83 96.5752C113.83 97.3369 113.909 98.0342 114.067 98.667C114.231 99.2998 114.489 99.8447 114.841 100.302C115.192 100.759 115.646 101.113 116.203 101.365C116.76 101.617 117.431 101.743 118.216 101.743C118.474 101.743 118.708 101.737 118.919 101.726C119.136 101.708 119.335 101.688 119.517 101.664C119.698 101.641 119.868 101.614 120.026 101.585C120.19 101.55 120.349 101.518 120.501 101.488V97.6562H117.873V96.2148ZM130.397 103L130.072 101.664H130.002C129.809 101.928 129.615 102.156 129.422 102.35C129.229 102.537 129.018 102.692 128.789 102.815C128.561 102.938 128.306 103.029 128.024 103.088C127.743 103.146 127.418 103.176 127.049 103.176C126.645 103.176 126.272 103.117 125.933 103C125.593 102.889 125.297 102.716 125.045 102.481C124.799 102.241 124.605 101.942 124.465 101.585C124.324 101.222 124.254 100.794 124.254 100.302C124.254 99.3408 124.591 98.6025 125.265 98.0869C125.944 97.5713 126.976 97.29 128.358 97.2432L129.976 97.1816V96.5752C129.976 96.1826 129.932 95.8545 129.844 95.5908C129.762 95.3271 129.639 95.1162 129.475 94.958C129.316 94.7939 129.117 94.6768 128.877 94.6064C128.643 94.5361 128.373 94.501 128.068 94.501C127.582 94.501 127.128 94.5713 126.706 94.7119C126.29 94.8525 125.889 95.0225 125.502 95.2217L124.939 94.0176C125.373 93.7832 125.856 93.584 126.39 93.4199C126.923 93.2559 127.482 93.1738 128.068 93.1738C128.666 93.1738 129.182 93.2354 129.615 93.3584C130.055 93.4756 130.415 93.666 130.696 93.9297C130.983 94.1875 131.197 94.5186 131.338 94.9229C131.479 95.3271 131.549 95.8164 131.549 96.3906V103H130.397ZM127.462 101.884C127.819 101.884 128.15 101.828 128.455 101.717C128.76 101.605 129.023 101.438 129.246 101.216C129.469 100.987 129.642 100.703 129.765 100.363C129.894 100.018 129.958 99.6133 129.958 99.1504V98.2803L128.701 98.3418C128.174 98.3652 127.731 98.4238 127.374 98.5176C127.017 98.6113 126.729 98.7432 126.513 98.9131C126.302 99.0771 126.149 99.2793 126.056 99.5195C125.962 99.7539 125.915 100.021 125.915 100.319C125.915 100.858 126.056 101.254 126.337 101.506C126.624 101.758 126.999 101.884 127.462 101.884ZM140.294 100.354C140.294 100.823 140.209 101.233 140.039 101.585C139.869 101.937 139.623 102.232 139.301 102.473C138.984 102.707 138.601 102.883 138.149 103C137.698 103.117 137.191 103.176 136.629 103.176C135.99 103.176 135.442 103.123 134.985 103.018C134.528 102.918 134.127 102.769 133.781 102.569V101.11C133.963 101.204 134.165 101.298 134.388 101.392C134.61 101.479 134.845 101.559 135.091 101.629C135.337 101.699 135.589 101.758 135.847 101.805C136.11 101.846 136.371 101.866 136.629 101.866C137.01 101.866 137.332 101.834 137.596 101.77C137.865 101.705 138.082 101.614 138.246 101.497C138.416 101.374 138.539 101.228 138.615 101.058C138.691 100.882 138.729 100.688 138.729 100.478C138.729 100.296 138.7 100.132 138.642 99.9854C138.583 99.8389 138.475 99.6953 138.316 99.5547C138.164 99.4082 137.953 99.2617 137.684 99.1152C137.414 98.9688 137.068 98.8047 136.646 98.623C136.225 98.4414 135.844 98.2627 135.504 98.0869C135.17 97.9111 134.886 97.7148 134.651 97.498C134.417 97.2812 134.235 97.0322 134.106 96.751C133.983 96.4639 133.922 96.124 133.922 95.7314C133.922 95.3213 134.001 94.958 134.159 94.6416C134.323 94.3193 134.552 94.0498 134.845 93.833C135.138 93.6162 135.489 93.4521 135.899 93.3408C136.31 93.2295 136.767 93.1738 137.271 93.1738C137.839 93.1738 138.357 93.2354 138.826 93.3584C139.301 93.4814 139.749 93.6426 140.171 93.8418L139.617 95.1338C139.236 94.9639 138.844 94.8174 138.439 94.6943C138.041 94.5654 137.634 94.501 137.218 94.501C136.62 94.501 136.178 94.6006 135.891 94.7998C135.604 94.9932 135.46 95.2715 135.46 95.6348C135.46 95.8398 135.492 96.0186 135.557 96.1709C135.627 96.3232 135.744 96.4668 135.908 96.6016C136.072 96.7363 136.292 96.874 136.567 97.0146C136.843 97.1494 137.186 97.3018 137.596 97.4717C138.018 97.6475 138.393 97.8232 138.721 97.999C139.055 98.1748 139.339 98.374 139.573 98.5967C139.808 98.8135 139.986 99.0625 140.109 99.3438C140.232 99.625 140.294 99.9619 140.294 100.354ZM145.559 101.866C145.664 101.866 145.781 101.86 145.91 101.849C146.045 101.837 146.174 101.822 146.297 101.805C146.42 101.787 146.531 101.767 146.631 101.743C146.736 101.72 146.815 101.699 146.868 101.682V102.895C146.792 102.93 146.695 102.965 146.578 103C146.461 103.035 146.332 103.064 146.191 103.088C146.051 103.117 145.904 103.138 145.752 103.149C145.6 103.167 145.45 103.176 145.304 103.176C144.94 103.176 144.604 103.129 144.293 103.035C143.982 102.941 143.713 102.78 143.484 102.552C143.262 102.323 143.086 102.016 142.957 101.629C142.828 101.236 142.764 100.744 142.764 100.152V94.5537H141.401V93.8418L142.764 93.1562L143.449 91.1348H144.372V93.3496H146.798V94.5537H144.372V100.152C144.372 100.721 144.463 101.148 144.645 101.436C144.832 101.723 145.137 101.866 145.559 101.866ZM152.915 93.1738C153.085 93.1738 153.275 93.1826 153.486 93.2002C153.697 93.2119 153.879 93.2324 154.031 93.2617L153.82 94.7383C153.656 94.709 153.486 94.6855 153.311 94.668C153.141 94.6445 152.979 94.6328 152.827 94.6328C152.458 94.6328 152.121 94.709 151.816 94.8613C151.512 95.0078 151.248 95.2217 151.025 95.5029C150.809 95.7783 150.639 96.1123 150.516 96.5049C150.398 96.8916 150.34 97.3223 150.34 97.7969V103H148.74V93.3496H150.041L150.234 95.1162H150.305C150.451 94.8643 150.606 94.6211 150.771 94.3867C150.94 94.1523 151.128 93.9473 151.333 93.7715C151.544 93.5898 151.778 93.4463 152.036 93.3408C152.294 93.2295 152.587 93.1738 152.915 93.1738ZM163.796 98.1572C163.796 98.96 163.696 99.6748 163.497 100.302C163.304 100.923 163.022 101.447 162.653 101.875C162.29 102.297 161.848 102.619 161.326 102.842C160.805 103.064 160.219 103.176 159.568 103.176C158.965 103.176 158.408 103.064 157.898 102.842C157.389 102.619 156.946 102.297 156.571 101.875C156.202 101.447 155.912 100.923 155.701 100.302C155.496 99.6748 155.394 98.96 155.394 98.1572C155.394 97.3604 155.49 96.6543 155.684 96.0391C155.883 95.418 156.164 94.8965 156.527 94.4746C156.891 94.0469 157.333 93.7246 157.854 93.5078C158.382 93.2852 158.971 93.1738 159.621 93.1738C160.225 93.1738 160.781 93.2852 161.291 93.5078C161.801 93.7246 162.24 94.0469 162.609 94.4746C162.984 94.8965 163.274 95.418 163.479 96.0391C163.69 96.6543 163.796 97.3604 163.796 98.1572ZM157.046 98.1572C157.046 99.3818 157.245 100.305 157.644 100.926C158.048 101.541 158.701 101.849 159.604 101.849C160.506 101.849 161.153 101.541 161.546 100.926C161.944 100.305 162.144 99.3818 162.144 98.1572C162.144 96.9326 161.941 96.0186 161.537 95.415C161.139 94.8057 160.488 94.501 159.586 94.501C158.684 94.501 158.033 94.8057 157.635 95.415C157.242 96.0186 157.046 96.9326 157.046 98.1572ZM170.133 103.176C169.488 103.176 168.899 103.067 168.366 102.851C167.833 102.634 167.373 102.317 166.986 101.901C166.605 101.485 166.31 100.97 166.099 100.354C165.888 99.7393 165.782 99.0361 165.782 98.2451C165.782 97.4482 165.879 96.7363 166.072 96.1094C166.266 95.4824 166.538 94.9521 166.89 94.5186C167.241 94.0791 167.66 93.7451 168.146 93.5166C168.639 93.2881 169.181 93.1738 169.772 93.1738C170.353 93.1738 170.874 93.2793 171.337 93.4902C171.8 93.6953 172.192 93.9883 172.515 94.3691C172.837 94.7441 173.083 95.1982 173.253 95.7314C173.429 96.2588 173.517 96.8447 173.517 97.4893V98.4824H167.435C167.464 99.6133 167.701 100.445 168.146 100.979C168.598 101.512 169.266 101.778 170.15 101.778C170.449 101.778 170.725 101.764 170.977 101.734C171.234 101.705 171.48 101.664 171.715 101.611C171.955 101.553 172.187 101.482 172.409 101.4C172.632 101.312 172.857 101.216 173.086 101.11V102.534C172.852 102.646 172.62 102.742 172.392 102.824C172.169 102.906 171.938 102.974 171.697 103.026C171.463 103.079 171.217 103.117 170.959 103.141C170.707 103.164 170.432 103.176 170.133 103.176ZM169.737 94.501C169.069 94.501 168.539 94.7295 168.146 95.1865C167.76 95.6436 167.534 96.3086 167.47 97.1816H171.794C171.794 96.7832 171.753 96.4199 171.671 96.0918C171.595 95.7578 171.472 95.4736 171.302 95.2393C171.138 95.0049 170.927 94.8232 170.669 94.6943C170.411 94.5654 170.101 94.501 169.737 94.501ZM181.98 103V96.7861C181.98 96.0244 181.825 95.4531 181.515 95.0723C181.21 94.6914 180.729 94.501 180.073 94.501C179.599 94.501 179.2 94.5771 178.878 94.7295C178.556 94.8818 178.295 95.1074 178.096 95.4062C177.902 95.7051 177.762 96.0713 177.674 96.5049C177.592 96.9385 177.551 97.4365 177.551 97.999V103H175.951V93.3496H177.252L177.48 94.6504H177.568C177.715 94.3984 177.888 94.1816 178.087 94C178.292 93.8125 178.515 93.6572 178.755 93.5342C178.995 93.4111 179.25 93.3203 179.52 93.2617C179.789 93.2031 180.064 93.1738 180.346 93.1738C181.418 93.1738 182.224 93.4551 182.763 94.0176C183.308 94.5742 183.58 95.4678 183.58 96.6982V103H181.98ZM189.469 101.866C189.574 101.866 189.691 101.86 189.82 101.849C189.955 101.837 190.084 101.822 190.207 101.805C190.33 101.787 190.441 101.767 190.541 101.743C190.646 101.72 190.726 101.699 190.778 101.682V102.895C190.702 102.93 190.605 102.965 190.488 103C190.371 103.035 190.242 103.064 190.102 103.088C189.961 103.117 189.814 103.138 189.662 103.149C189.51 103.167 189.36 103.176 189.214 103.176C188.851 103.176 188.514 103.129 188.203 103.035C187.893 102.941 187.623 102.78 187.395 102.552C187.172 102.323 186.996 102.016 186.867 101.629C186.738 101.236 186.674 100.744 186.674 100.152V94.5537H185.312V93.8418L186.674 93.1562L187.359 91.1348H188.282V93.3496H190.708V94.5537H188.282V100.152C188.282 100.721 188.373 101.148 188.555 101.436C188.742 101.723 189.047 101.866 189.469 101.866ZM196.465 103.176C195.82 103.176 195.231 103.067 194.698 102.851C194.165 102.634 193.705 102.317 193.318 101.901C192.938 101.485 192.642 100.97 192.431 100.354C192.22 99.7393 192.114 99.0361 192.114 98.2451C192.114 97.4482 192.211 96.7363 192.404 96.1094C192.598 95.4824 192.87 94.9521 193.222 94.5186C193.573 94.0791 193.992 93.7451 194.479 93.5166C194.971 93.2881 195.513 93.1738 196.104 93.1738C196.685 93.1738 197.206 93.2793 197.669 93.4902C198.132 93.6953 198.524 93.9883 198.847 94.3691C199.169 94.7441 199.415 95.1982 199.585 95.7314C199.761 96.2588 199.849 96.8447 199.849 97.4893V98.4824H193.767C193.796 99.6133 194.033 100.445 194.479 100.979C194.93 101.512 195.598 101.778 196.482 101.778C196.781 101.778 197.057 101.764 197.309 101.734C197.566 101.705 197.812 101.664 198.047 101.611C198.287 101.553 198.519 101.482 198.741 101.4C198.964 101.312 199.189 101.216 199.418 101.11V102.534C199.184 102.646 198.952 102.742 198.724 102.824C198.501 102.906 198.27 102.974 198.029 103.026C197.795 103.079 197.549 103.117 197.291 103.141C197.039 103.164 196.764 103.176 196.465 103.176ZM196.069 94.501C195.401 94.501 194.871 94.7295 194.479 95.1865C194.092 95.6436 193.866 96.3086 193.802 97.1816H198.126C198.126 96.7832 198.085 96.4199 198.003 96.0918C197.927 95.7578 197.804 95.4736 197.634 95.2393C197.47 95.0049 197.259 94.8232 197.001 94.6943C196.743 94.5654 196.433 94.501 196.069 94.501ZM206.458 93.1738C206.628 93.1738 206.818 93.1826 207.029 93.2002C207.24 93.2119 207.422 93.2324 207.574 93.2617L207.363 94.7383C207.199 94.709 207.029 94.6855 206.854 94.668C206.684 94.6445 206.522 94.6328 206.37 94.6328C206.001 94.6328 205.664 94.709 205.359 94.8613C205.055 95.0078 204.791 95.2217 204.568 95.5029C204.352 95.7783 204.182 96.1123 204.059 96.5049C203.941 96.8916 203.883 97.3223 203.883 97.7969V103H202.283V93.3496H203.584L203.777 95.1162H203.848C203.994 94.8643 204.149 94.6211 204.313 94.3867C204.483 94.1523 204.671 93.9473 204.876 93.7715C205.087 93.5898 205.321 93.4463 205.579 93.3408C205.837 93.2295 206.13 93.1738 206.458 93.1738ZM217.339 98.1572C217.339 98.96 217.239 99.6748 217.04 100.302C216.847 100.923 216.565 101.447 216.196 101.875C215.833 102.297 215.391 102.619 214.869 102.842C214.348 103.064 213.762 103.176 213.111 103.176C212.508 103.176 211.951 103.064 211.441 102.842C210.932 102.619 210.489 102.297 210.114 101.875C209.745 101.447 209.455 100.923 209.244 100.302C209.039 99.6748 208.937 98.96 208.937 98.1572C208.937 97.3604 209.033 96.6543 209.227 96.0391C209.426 95.418 209.707 94.8965 210.07 94.4746C210.434 94.0469 210.876 93.7246 211.397 93.5078C211.925 93.2852 212.514 93.1738 213.164 93.1738C213.768 93.1738 214.324 93.2852 214.834 93.5078C215.344 93.7246 215.783 94.0469 216.152 94.4746C216.527 94.8965 216.817 95.418 217.022 96.0391C217.233 96.6543 217.339 97.3604 217.339 98.1572ZM210.589 98.1572C210.589 99.3818 210.788 100.305 211.187 100.926C211.591 101.541 212.244 101.849 213.146 101.849C214.049 101.849 214.696 101.541 215.089 100.926C215.487 100.305 215.687 99.3818 215.687 98.1572C215.687 96.9326 215.484 96.0186 215.08 95.415C214.682 94.8057 214.031 94.501 213.129 94.501C212.227 94.501 211.576 94.8057 211.178 95.415C210.785 96.0186 210.589 96.9326 210.589 98.1572ZM221.461 103H219.861V89.3242H221.461V103ZM232.386 98.1572C232.386 98.96 232.286 99.6748 232.087 100.302C231.894 100.923 231.612 101.447 231.243 101.875C230.88 102.297 230.438 102.619 229.916 102.842C229.395 103.064 228.809 103.176 228.158 103.176C227.555 103.176 226.998 103.064 226.488 102.842C225.979 102.619 225.536 102.297 225.161 101.875C224.792 101.447 224.502 100.923 224.291 100.302C224.086 99.6748 223.983 98.96 223.983 98.1572C223.983 97.3604 224.08 96.6543 224.273 96.0391C224.473 95.418 224.754 94.8965 225.117 94.4746C225.48 94.0469 225.923 93.7246 226.444 93.5078C226.972 93.2852 227.561 93.1738 228.211 93.1738C228.814 93.1738 229.371 93.2852 229.881 93.5078C230.391 93.7246 230.83 94.0469 231.199 94.4746C231.574 94.8965 231.864 95.418 232.069 96.0391C232.28 96.6543 232.386 97.3604 232.386 98.1572ZM225.636 98.1572C225.636 99.3818 225.835 100.305 226.233 100.926C226.638 101.541 227.291 101.849 228.193 101.849C229.096 101.849 229.743 101.541 230.136 100.926C230.534 100.305 230.733 99.3818 230.733 98.1572C230.733 96.9326 230.531 96.0186 230.127 95.415C229.729 94.8057 229.078 94.501 228.176 94.501C227.273 94.501 226.623 94.8057 226.225 95.415C225.832 96.0186 225.636 96.9326 225.636 98.1572ZM242.344 93.3496V94.3428L240.612 94.5801C240.776 94.7852 240.914 95.0488 241.025 95.3711C241.137 95.6875 241.192 96.0479 241.192 96.4521C241.192 96.8975 241.122 97.3105 240.981 97.6914C240.847 98.0664 240.639 98.3916 240.357 98.667C240.082 98.9424 239.739 99.1592 239.329 99.3174C238.919 99.4697 238.441 99.5459 237.896 99.5459C237.768 99.5459 237.639 99.5459 237.51 99.5459C237.381 99.54 237.275 99.5283 237.193 99.5107C237.094 99.5693 236.994 99.6367 236.895 99.7129C236.801 99.7832 236.713 99.8652 236.631 99.959C236.555 100.053 236.49 100.158 236.438 100.275C236.391 100.393 236.367 100.521 236.367 100.662C236.367 100.82 236.402 100.949 236.473 101.049C236.543 101.143 236.637 101.216 236.754 101.269C236.877 101.321 237.021 101.356 237.185 101.374C237.349 101.392 237.521 101.4 237.703 101.4H239.25C239.795 101.4 240.255 101.471 240.63 101.611C241.005 101.746 241.31 101.931 241.544 102.165C241.784 102.399 241.957 102.678 242.062 103C242.168 103.316 242.221 103.653 242.221 104.011C242.221 104.526 242.124 104.989 241.931 105.399C241.743 105.81 241.453 106.155 241.061 106.437C240.668 106.724 240.17 106.943 239.566 107.096C238.969 107.248 238.263 107.324 237.448 107.324C236.821 107.324 236.273 107.263 235.805 107.14C235.336 107.017 234.946 106.838 234.636 106.604C234.325 106.369 234.091 106.085 233.933 105.751C233.78 105.423 233.704 105.051 233.704 104.635C233.704 104.283 233.76 103.973 233.871 103.703C233.988 103.439 234.144 103.211 234.337 103.018C234.53 102.824 234.753 102.666 235.005 102.543C235.263 102.42 235.529 102.326 235.805 102.262C235.559 102.15 235.356 101.975 235.198 101.734C235.04 101.494 234.961 101.219 234.961 100.908C234.961 100.551 235.055 100.243 235.242 99.9854C235.43 99.7217 235.726 99.4668 236.13 99.2207C235.878 99.1152 235.646 98.9717 235.436 98.79C235.23 98.6025 235.055 98.3916 234.908 98.1572C234.768 97.917 234.656 97.6562 234.574 97.375C234.498 97.0938 234.46 96.8037 234.46 96.5049C234.46 95.9834 234.533 95.5176 234.68 95.1074C234.826 94.6973 235.043 94.3486 235.33 94.0615C235.617 93.7744 235.975 93.5547 236.402 93.4023C236.83 93.25 237.328 93.1738 237.896 93.1738C238.113 93.1738 238.336 93.1914 238.564 93.2266C238.799 93.2559 238.995 93.2969 239.153 93.3496H242.344ZM235.216 104.582C235.216 104.799 235.254 105.001 235.33 105.188C235.406 105.376 235.529 105.537 235.699 105.672C235.875 105.807 236.104 105.912 236.385 105.988C236.672 106.07 237.026 106.111 237.448 106.111C238.538 106.111 239.353 105.941 239.892 105.602C240.437 105.268 240.709 104.784 240.709 104.151C240.709 103.882 240.674 103.662 240.604 103.492C240.533 103.322 240.416 103.188 240.252 103.088C240.094 102.994 239.883 102.93 239.619 102.895C239.355 102.859 239.033 102.842 238.652 102.842H237.105C236.9 102.842 236.687 102.865 236.464 102.912C236.241 102.959 236.036 103.047 235.849 103.176C235.667 103.305 235.515 103.48 235.392 103.703C235.274 103.932 235.216 104.225 235.216 104.582ZM236.024 96.4521C236.024 97.126 236.183 97.627 236.499 97.9551C236.815 98.2832 237.264 98.4473 237.844 98.4473C238.43 98.4473 238.872 98.2861 239.171 97.9639C239.476 97.6357 239.628 97.123 239.628 96.4258C239.628 95.7051 239.473 95.1748 239.162 94.835C238.857 94.4951 238.412 94.3252 237.826 94.3252C237.246 94.3252 236.801 94.501 236.49 94.8525C236.18 95.2041 236.024 95.7373 236.024 96.4521ZM245.842 103H244.242V93.3496H245.842V103ZM244.119 90.7393C244.119 90.3877 244.207 90.1328 244.383 89.9746C244.564 89.8164 244.787 89.7373 245.051 89.7373C245.18 89.7373 245.3 89.7578 245.411 89.7988C245.528 89.834 245.628 89.8926 245.71 89.9746C245.798 90.0566 245.865 90.1621 245.912 90.291C245.965 90.4141 245.991 90.5635 245.991 90.7393C245.991 91.0791 245.897 91.334 245.71 91.5039C245.528 91.668 245.309 91.75 245.051 91.75C244.787 91.75 244.564 91.668 244.383 91.5039C244.207 91.3398 244.119 91.085 244.119 90.7393ZM254.675 100.354C254.675 100.823 254.59 101.233 254.42 101.585C254.25 101.937 254.004 102.232 253.682 102.473C253.365 102.707 252.981 102.883 252.53 103C252.079 103.117 251.572 103.176 251.01 103.176C250.371 103.176 249.823 103.123 249.366 103.018C248.909 102.918 248.508 102.769 248.162 102.569V101.11C248.344 101.204 248.546 101.298 248.769 101.392C248.991 101.479 249.226 101.559 249.472 101.629C249.718 101.699 249.97 101.758 250.228 101.805C250.491 101.846 250.752 101.866 251.01 101.866C251.391 101.866 251.713 101.834 251.977 101.77C252.246 101.705 252.463 101.614 252.627 101.497C252.797 101.374 252.92 101.228 252.996 101.058C253.072 100.882 253.11 100.688 253.11 100.478C253.11 100.296 253.081 100.132 253.022 99.9854C252.964 99.8389 252.855 99.6953 252.697 99.5547C252.545 99.4082 252.334 99.2617 252.064 99.1152C251.795 98.9688 251.449 98.8047 251.027 98.623C250.605 98.4414 250.225 98.2627 249.885 98.0869C249.551 97.9111 249.267 97.7148 249.032 97.498C248.798 97.2812 248.616 97.0322 248.487 96.751C248.364 96.4639 248.303 96.124 248.303 95.7314C248.303 95.3213 248.382 94.958 248.54 94.6416C248.704 94.3193 248.933 94.0498 249.226 93.833C249.519 93.6162 249.87 93.4521 250.28 93.3408C250.69 93.2295 251.147 93.1738 251.651 93.1738C252.22 93.1738 252.738 93.2354 253.207 93.3584C253.682 93.4814 254.13 93.6426 254.552 93.8418L253.998 95.1338C253.617 94.9639 253.225 94.8174 252.82 94.6943C252.422 94.5654 252.015 94.501 251.599 94.501C251.001 94.501 250.559 94.6006 250.271 94.7998C249.984 94.9932 249.841 95.2715 249.841 95.6348C249.841 95.8398 249.873 96.0186 249.938 96.1709C250.008 96.3232 250.125 96.4668 250.289 96.6016C250.453 96.7363 250.673 96.874 250.948 97.0146C251.224 97.1494 251.566 97.3018 251.977 97.4717C252.398 97.6475 252.773 97.8232 253.102 97.999C253.436 98.1748 253.72 98.374 253.954 98.5967C254.188 98.8135 254.367 99.0625 254.49 99.3438C254.613 99.625 254.675 99.9619 254.675 100.354ZM259.939 101.866C260.045 101.866 260.162 101.86 260.291 101.849C260.426 101.837 260.555 101.822 260.678 101.805C260.801 101.787 260.912 101.767 261.012 101.743C261.117 101.72 261.196 101.699 261.249 101.682V102.895C261.173 102.93 261.076 102.965 260.959 103C260.842 103.035 260.713 103.064 260.572 103.088C260.432 103.117 260.285 103.138 260.133 103.149C259.98 103.167 259.831 103.176 259.685 103.176C259.321 103.176 258.984 103.129 258.674 103.035C258.363 102.941 258.094 102.78 257.865 102.552C257.643 102.323 257.467 102.016 257.338 101.629C257.209 101.236 257.145 100.744 257.145 100.152V94.5537H255.782V93.8418L257.145 93.1562L257.83 91.1348H258.753V93.3496H261.179V94.5537H258.753V100.152C258.753 100.721 258.844 101.148 259.025 101.436C259.213 101.723 259.518 101.866 259.939 101.866Z" fill="black"/>
<rect x="56" y="121" width="25" height="25" fill="#488AA8"/>
<path d="M122.373 142H120.483L114.164 131.365H114.094C114.129 131.816 114.158 132.265 114.182 132.71C114.205 133.091 114.223 133.489 114.234 133.905C114.252 134.321 114.261 134.696 114.261 135.03V142H112.749V129.15H114.621L120.914 139.732H120.976C120.958 139.287 120.938 138.848 120.914 138.414C120.908 138.227 120.899 138.036 120.888 137.843C120.882 137.644 120.873 137.447 120.861 137.254C120.855 137.055 120.85 136.864 120.844 136.683C120.844 136.501 120.844 136.334 120.844 136.182V129.15H122.373V142ZM131.909 142L131.672 140.708H131.584C131.438 140.96 131.262 141.18 131.057 141.367C130.857 141.549 130.638 141.701 130.397 141.824C130.157 141.941 129.902 142.029 129.633 142.088C129.363 142.146 129.088 142.176 128.807 142.176C128.273 142.176 127.805 142.108 127.4 141.974C126.996 141.839 126.659 141.628 126.39 141.341C126.12 141.054 125.915 140.688 125.774 140.242C125.64 139.797 125.572 139.267 125.572 138.651V132.35H127.172V138.563C127.172 139.325 127.327 139.896 127.638 140.277C127.948 140.658 128.429 140.849 129.079 140.849C129.554 140.849 129.952 140.772 130.274 140.62C130.597 140.468 130.854 140.245 131.048 139.952C131.247 139.653 131.388 139.287 131.47 138.854C131.558 138.42 131.602 137.922 131.602 137.359V132.35H133.201V142H131.909ZM139.178 140.866C139.283 140.866 139.4 140.86 139.529 140.849C139.664 140.837 139.793 140.822 139.916 140.805C140.039 140.787 140.15 140.767 140.25 140.743C140.355 140.72 140.435 140.699 140.487 140.682V141.895C140.411 141.93 140.314 141.965 140.197 142C140.08 142.035 139.951 142.064 139.811 142.088C139.67 142.117 139.523 142.138 139.371 142.149C139.219 142.167 139.069 142.176 138.923 142.176C138.56 142.176 138.223 142.129 137.912 142.035C137.602 141.941 137.332 141.78 137.104 141.552C136.881 141.323 136.705 141.016 136.576 140.629C136.447 140.236 136.383 139.744 136.383 139.152V133.554H135.021V132.842L136.383 132.156L137.068 130.135H137.991V132.35H140.417V133.554H137.991V139.152C137.991 139.721 138.082 140.148 138.264 140.436C138.451 140.723 138.756 140.866 139.178 140.866ZM146.534 132.174C146.704 132.174 146.895 132.183 147.105 132.2C147.316 132.212 147.498 132.232 147.65 132.262L147.439 133.738C147.275 133.709 147.105 133.686 146.93 133.668C146.76 133.645 146.599 133.633 146.446 133.633C146.077 133.633 145.74 133.709 145.436 133.861C145.131 134.008 144.867 134.222 144.645 134.503C144.428 134.778 144.258 135.112 144.135 135.505C144.018 135.892 143.959 136.322 143.959 136.797V142H142.359V132.35H143.66L143.854 134.116H143.924C144.07 133.864 144.226 133.621 144.39 133.387C144.56 133.152 144.747 132.947 144.952 132.771C145.163 132.59 145.397 132.446 145.655 132.341C145.913 132.229 146.206 132.174 146.534 132.174ZM151.148 142H149.549V132.35H151.148V142ZM149.426 129.739C149.426 129.388 149.514 129.133 149.689 128.975C149.871 128.816 150.094 128.737 150.357 128.737C150.486 128.737 150.606 128.758 150.718 128.799C150.835 128.834 150.935 128.893 151.017 128.975C151.104 129.057 151.172 129.162 151.219 129.291C151.271 129.414 151.298 129.563 151.298 129.739C151.298 130.079 151.204 130.334 151.017 130.504C150.835 130.668 150.615 130.75 150.357 130.75C150.094 130.75 149.871 130.668 149.689 130.504C149.514 130.34 149.426 130.085 149.426 129.739ZM157.125 140.866C157.23 140.866 157.348 140.86 157.477 140.849C157.611 140.837 157.74 140.822 157.863 140.805C157.986 140.787 158.098 140.767 158.197 140.743C158.303 140.72 158.382 140.699 158.435 140.682V141.895C158.358 141.93 158.262 141.965 158.145 142C158.027 142.035 157.898 142.064 157.758 142.088C157.617 142.117 157.471 142.138 157.318 142.149C157.166 142.167 157.017 142.176 156.87 142.176C156.507 142.176 156.17 142.129 155.859 142.035C155.549 141.941 155.279 141.78 155.051 141.552C154.828 141.323 154.652 141.016 154.523 140.629C154.395 140.236 154.33 139.744 154.33 139.152V133.554H152.968V132.842L154.33 132.156L155.016 130.135H155.938V132.35H158.364V133.554H155.938V139.152C155.938 139.721 156.029 140.148 156.211 140.436C156.398 140.723 156.703 140.866 157.125 140.866ZM161.906 142H160.307V132.35H161.906V142ZM160.184 129.739C160.184 129.388 160.271 129.133 160.447 128.975C160.629 128.816 160.852 128.737 161.115 128.737C161.244 128.737 161.364 128.758 161.476 128.799C161.593 128.834 161.692 128.893 161.774 128.975C161.862 129.057 161.93 129.162 161.977 129.291C162.029 129.414 162.056 129.563 162.056 129.739C162.056 130.079 161.962 130.334 161.774 130.504C161.593 130.668 161.373 130.75 161.115 130.75C160.852 130.75 160.629 130.668 160.447 130.504C160.271 130.34 160.184 130.085 160.184 129.739ZM172.831 137.157C172.831 137.96 172.731 138.675 172.532 139.302C172.339 139.923 172.058 140.447 171.688 140.875C171.325 141.297 170.883 141.619 170.361 141.842C169.84 142.064 169.254 142.176 168.604 142.176C168 142.176 167.443 142.064 166.934 141.842C166.424 141.619 165.981 141.297 165.606 140.875C165.237 140.447 164.947 139.923 164.736 139.302C164.531 138.675 164.429 137.96 164.429 137.157C164.429 136.36 164.525 135.654 164.719 135.039C164.918 134.418 165.199 133.896 165.562 133.475C165.926 133.047 166.368 132.725 166.89 132.508C167.417 132.285 168.006 132.174 168.656 132.174C169.26 132.174 169.816 132.285 170.326 132.508C170.836 132.725 171.275 133.047 171.645 133.475C172.02 133.896 172.31 134.418 172.515 135.039C172.726 135.654 172.831 136.36 172.831 137.157ZM166.081 137.157C166.081 138.382 166.28 139.305 166.679 139.926C167.083 140.541 167.736 140.849 168.639 140.849C169.541 140.849 170.188 140.541 170.581 139.926C170.979 139.305 171.179 138.382 171.179 137.157C171.179 135.933 170.977 135.019 170.572 134.415C170.174 133.806 169.523 133.501 168.621 133.501C167.719 133.501 167.068 133.806 166.67 134.415C166.277 135.019 166.081 135.933 166.081 137.157ZM181.383 142V135.786C181.383 135.024 181.228 134.453 180.917 134.072C180.612 133.691 180.132 133.501 179.476 133.501C179.001 133.501 178.603 133.577 178.28 133.729C177.958 133.882 177.697 134.107 177.498 134.406C177.305 134.705 177.164 135.071 177.076 135.505C176.994 135.938 176.953 136.437 176.953 136.999V142H175.354V132.35H176.654L176.883 133.65H176.971C177.117 133.398 177.29 133.182 177.489 133C177.694 132.812 177.917 132.657 178.157 132.534C178.397 132.411 178.652 132.32 178.922 132.262C179.191 132.203 179.467 132.174 179.748 132.174C180.82 132.174 181.626 132.455 182.165 133.018C182.71 133.574 182.982 134.468 182.982 135.698V142H181.383ZM187.553 142H185.953V132.35H187.553V142ZM185.83 129.739C185.83 129.388 185.918 129.133 186.094 128.975C186.275 128.816 186.498 128.737 186.762 128.737C186.891 128.737 187.011 128.758 187.122 128.799C187.239 128.834 187.339 128.893 187.421 128.975C187.509 129.057 187.576 129.162 187.623 129.291C187.676 129.414 187.702 129.563 187.702 129.739C187.702 130.079 187.608 130.334 187.421 130.504C187.239 130.668 187.02 130.75 186.762 130.75C186.498 130.75 186.275 130.668 186.094 130.504C185.918 130.34 185.83 130.085 185.83 129.739ZM196.386 139.354C196.386 139.823 196.301 140.233 196.131 140.585C195.961 140.937 195.715 141.232 195.393 141.473C195.076 141.707 194.692 141.883 194.241 142C193.79 142.117 193.283 142.176 192.721 142.176C192.082 142.176 191.534 142.123 191.077 142.018C190.62 141.918 190.219 141.769 189.873 141.569V140.11C190.055 140.204 190.257 140.298 190.479 140.392C190.702 140.479 190.937 140.559 191.183 140.629C191.429 140.699 191.681 140.758 191.938 140.805C192.202 140.846 192.463 140.866 192.721 140.866C193.102 140.866 193.424 140.834 193.688 140.77C193.957 140.705 194.174 140.614 194.338 140.497C194.508 140.374 194.631 140.228 194.707 140.058C194.783 139.882 194.821 139.688 194.821 139.478C194.821 139.296 194.792 139.132 194.733 138.985C194.675 138.839 194.566 138.695 194.408 138.555C194.256 138.408 194.045 138.262 193.775 138.115C193.506 137.969 193.16 137.805 192.738 137.623C192.316 137.441 191.936 137.263 191.596 137.087C191.262 136.911 190.978 136.715 190.743 136.498C190.509 136.281 190.327 136.032 190.198 135.751C190.075 135.464 190.014 135.124 190.014 134.731C190.014 134.321 190.093 133.958 190.251 133.642C190.415 133.319 190.644 133.05 190.937 132.833C191.229 132.616 191.581 132.452 191.991 132.341C192.401 132.229 192.858 132.174 193.362 132.174C193.931 132.174 194.449 132.235 194.918 132.358C195.393 132.481 195.841 132.643 196.263 132.842L195.709 134.134C195.328 133.964 194.936 133.817 194.531 133.694C194.133 133.565 193.726 133.501 193.31 133.501C192.712 133.501 192.27 133.601 191.982 133.8C191.695 133.993 191.552 134.271 191.552 134.635C191.552 134.84 191.584 135.019 191.648 135.171C191.719 135.323 191.836 135.467 192 135.602C192.164 135.736 192.384 135.874 192.659 136.015C192.935 136.149 193.277 136.302 193.688 136.472C194.109 136.647 194.484 136.823 194.812 136.999C195.146 137.175 195.431 137.374 195.665 137.597C195.899 137.813 196.078 138.062 196.201 138.344C196.324 138.625 196.386 138.962 196.386 139.354ZM201.65 140.866C201.756 140.866 201.873 140.86 202.002 140.849C202.137 140.837 202.266 140.822 202.389 140.805C202.512 140.787 202.623 140.767 202.723 140.743C202.828 140.72 202.907 140.699 202.96 140.682V141.895C202.884 141.93 202.787 141.965 202.67 142C202.553 142.035 202.424 142.064 202.283 142.088C202.143 142.117 201.996 142.138 201.844 142.149C201.691 142.167 201.542 142.176 201.396 142.176C201.032 142.176 200.695 142.129 200.385 142.035C200.074 141.941 199.805 141.78 199.576 141.552C199.354 141.323 199.178 141.016 199.049 140.629C198.92 140.236 198.855 139.744 198.855 139.152V133.554H197.493V132.842L198.855 132.156L199.541 130.135H200.464V132.35H202.89V133.554H200.464V139.152C200.464 139.721 200.555 140.148 200.736 140.436C200.924 140.723 201.229 140.866 201.65 140.866Z" fill="black"/>
<rect x="56.5" y="160.5" width="24" height="24" stroke="#488AA8"/>
<path d="M120.448 171.912C120.448 172.445 120.366 172.958 120.202 173.45C120.044 173.942 119.78 174.379 119.411 174.76C119.042 175.135 118.553 175.437 117.943 175.665C117.34 175.888 116.593 175.999 115.702 175.999H114.384V181H112.749V168.15H115.931C116.716 168.15 117.393 168.235 117.961 168.405C118.529 168.569 118.998 168.812 119.367 169.135C119.736 169.451 120.009 169.844 120.185 170.312C120.36 170.781 120.448 171.314 120.448 171.912ZM114.384 174.61H115.518C116.062 174.61 116.537 174.563 116.941 174.47C117.352 174.376 117.688 174.227 117.952 174.021C118.222 173.811 118.424 173.541 118.559 173.213C118.693 172.879 118.761 172.475 118.761 172C118.761 171.168 118.521 170.553 118.04 170.154C117.56 169.75 116.81 169.548 115.79 169.548H114.384V174.61ZM128.675 178.354C128.675 178.823 128.59 179.233 128.42 179.585C128.25 179.937 128.004 180.232 127.682 180.473C127.365 180.707 126.981 180.883 126.53 181C126.079 181.117 125.572 181.176 125.01 181.176C124.371 181.176 123.823 181.123 123.366 181.018C122.909 180.918 122.508 180.769 122.162 180.569V179.11C122.344 179.204 122.546 179.298 122.769 179.392C122.991 179.479 123.226 179.559 123.472 179.629C123.718 179.699 123.97 179.758 124.228 179.805C124.491 179.846 124.752 179.866 125.01 179.866C125.391 179.866 125.713 179.834 125.977 179.77C126.246 179.705 126.463 179.614 126.627 179.497C126.797 179.374 126.92 179.228 126.996 179.058C127.072 178.882 127.11 178.688 127.11 178.478C127.11 178.296 127.081 178.132 127.022 177.985C126.964 177.839 126.855 177.695 126.697 177.555C126.545 177.408 126.334 177.262 126.064 177.115C125.795 176.969 125.449 176.805 125.027 176.623C124.605 176.441 124.225 176.263 123.885 176.087C123.551 175.911 123.267 175.715 123.032 175.498C122.798 175.281 122.616 175.032 122.487 174.751C122.364 174.464 122.303 174.124 122.303 173.731C122.303 173.321 122.382 172.958 122.54 172.642C122.704 172.319 122.933 172.05 123.226 171.833C123.519 171.616 123.87 171.452 124.28 171.341C124.69 171.229 125.147 171.174 125.651 171.174C126.22 171.174 126.738 171.235 127.207 171.358C127.682 171.481 128.13 171.643 128.552 171.842L127.998 173.134C127.617 172.964 127.225 172.817 126.82 172.694C126.422 172.565 126.015 172.501 125.599 172.501C125.001 172.501 124.559 172.601 124.271 172.8C123.984 172.993 123.841 173.271 123.841 173.635C123.841 173.84 123.873 174.019 123.938 174.171C124.008 174.323 124.125 174.467 124.289 174.602C124.453 174.736 124.673 174.874 124.948 175.015C125.224 175.149 125.566 175.302 125.977 175.472C126.398 175.647 126.773 175.823 127.102 175.999C127.436 176.175 127.72 176.374 127.954 176.597C128.188 176.813 128.367 177.062 128.49 177.344C128.613 177.625 128.675 177.962 128.675 178.354ZM129.58 171.35H131.241L133.131 176.737C133.213 176.972 133.295 177.218 133.377 177.476C133.465 177.733 133.544 177.991 133.614 178.249C133.69 178.507 133.755 178.756 133.808 178.996C133.86 179.236 133.898 179.459 133.922 179.664H133.975C134.004 179.518 134.051 179.318 134.115 179.066C134.18 178.814 134.25 178.548 134.326 178.267C134.408 177.979 134.49 177.698 134.572 177.423C134.66 177.147 134.736 176.913 134.801 176.72L136.55 171.35H138.202L134.388 182.257C134.224 182.731 134.045 183.156 133.852 183.531C133.664 183.912 133.444 184.234 133.192 184.498C132.94 184.762 132.645 184.964 132.305 185.104C131.965 185.251 131.561 185.324 131.092 185.324C130.787 185.324 130.523 185.307 130.301 185.271C130.078 185.242 129.888 185.21 129.729 185.175V183.9C129.853 183.93 130.008 183.953 130.195 183.971C130.383 183.994 130.579 184.006 130.784 184.006C131.065 184.006 131.309 183.971 131.514 183.9C131.719 183.836 131.897 183.739 132.05 183.61C132.202 183.481 132.331 183.323 132.437 183.136C132.548 182.948 132.647 182.734 132.735 182.494L133.236 181.088L129.58 171.35ZM143.52 181.176C142.928 181.176 142.374 181.085 141.858 180.903C141.343 180.716 140.895 180.423 140.514 180.024C140.133 179.62 139.834 179.107 139.617 178.486C139.4 177.859 139.292 177.106 139.292 176.228C139.292 175.308 139.403 174.528 139.626 173.89C139.849 173.245 140.153 172.724 140.54 172.325C140.933 171.921 141.39 171.628 141.911 171.446C142.433 171.265 142.992 171.174 143.59 171.174C144.047 171.174 144.492 171.224 144.926 171.323C145.365 171.423 145.731 171.546 146.024 171.692L145.55 173.046C145.415 172.987 145.266 172.932 145.102 172.879C144.938 172.82 144.768 172.771 144.592 172.729C144.416 172.683 144.243 172.647 144.073 172.624C143.903 172.595 143.742 172.58 143.59 172.58C142.67 172.58 141.999 172.876 141.577 173.468C141.155 174.054 140.944 174.968 140.944 176.21C140.944 177.446 141.155 178.352 141.577 178.926C142.005 179.494 142.652 179.778 143.52 179.778C143.994 179.778 144.422 179.726 144.803 179.62C145.189 179.509 145.541 179.38 145.857 179.233V180.657C145.541 180.827 145.201 180.956 144.838 181.044C144.48 181.132 144.041 181.176 143.52 181.176ZM154.189 181V174.786C154.189 174.024 154.034 173.453 153.724 173.072C153.419 172.691 152.938 172.501 152.282 172.501C151.808 172.501 151.409 172.577 151.087 172.729C150.765 172.882 150.504 173.107 150.305 173.406C150.111 173.705 149.971 174.071 149.883 174.505C149.801 174.938 149.76 175.437 149.76 175.999V181H148.16V167.324H149.76V171.385L149.689 172.65H149.777C149.924 172.398 150.097 172.182 150.296 172C150.501 171.812 150.724 171.657 150.964 171.534C151.204 171.411 151.459 171.32 151.729 171.262C151.998 171.203 152.273 171.174 152.555 171.174C153.627 171.174 154.433 171.455 154.972 172.018C155.517 172.574 155.789 173.468 155.789 174.698V181H154.189ZM166.626 176.157C166.626 176.96 166.526 177.675 166.327 178.302C166.134 178.923 165.853 179.447 165.483 179.875C165.12 180.297 164.678 180.619 164.156 180.842C163.635 181.064 163.049 181.176 162.398 181.176C161.795 181.176 161.238 181.064 160.729 180.842C160.219 180.619 159.776 180.297 159.401 179.875C159.032 179.447 158.742 178.923 158.531 178.302C158.326 177.675 158.224 176.96 158.224 176.157C158.224 175.36 158.32 174.654 158.514 174.039C158.713 173.418 158.994 172.896 159.357 172.475C159.721 172.047 160.163 171.725 160.685 171.508C161.212 171.285 161.801 171.174 162.451 171.174C163.055 171.174 163.611 171.285 164.121 171.508C164.631 171.725 165.07 172.047 165.439 172.475C165.814 172.896 166.104 173.418 166.31 174.039C166.521 174.654 166.626 175.36 166.626 176.157ZM159.876 176.157C159.876 177.382 160.075 178.305 160.474 178.926C160.878 179.541 161.531 179.849 162.434 179.849C163.336 179.849 163.983 179.541 164.376 178.926C164.774 178.305 164.974 177.382 164.974 176.157C164.974 174.933 164.771 174.019 164.367 173.415C163.969 172.806 163.318 172.501 162.416 172.501C161.514 172.501 160.863 172.806 160.465 173.415C160.072 174.019 159.876 174.933 159.876 176.157ZM170.748 181H169.148V167.324H170.748V181ZM181.673 176.157C181.673 176.96 181.573 177.675 181.374 178.302C181.181 178.923 180.899 179.447 180.53 179.875C180.167 180.297 179.725 180.619 179.203 180.842C178.682 181.064 178.096 181.176 177.445 181.176C176.842 181.176 176.285 181.064 175.775 180.842C175.266 180.619 174.823 180.297 174.448 179.875C174.079 179.447 173.789 178.923 173.578 178.302C173.373 177.675 173.271 176.96 173.271 176.157C173.271 175.36 173.367 174.654 173.561 174.039C173.76 173.418 174.041 172.896 174.404 172.475C174.768 172.047 175.21 171.725 175.731 171.508C176.259 171.285 176.848 171.174 177.498 171.174C178.102 171.174 178.658 171.285 179.168 171.508C179.678 171.725 180.117 172.047 180.486 172.475C180.861 172.896 181.151 173.418 181.356 174.039C181.567 174.654 181.673 175.36 181.673 176.157ZM174.923 176.157C174.923 177.382 175.122 178.305 175.521 178.926C175.925 179.541 176.578 179.849 177.48 179.849C178.383 179.849 179.03 179.541 179.423 178.926C179.821 178.305 180.021 177.382 180.021 176.157C180.021 174.933 179.818 174.019 179.414 173.415C179.016 172.806 178.365 172.501 177.463 172.501C176.561 172.501 175.91 172.806 175.512 173.415C175.119 174.019 174.923 174.933 174.923 176.157ZM191.631 171.35V172.343L189.899 172.58C190.063 172.785 190.201 173.049 190.312 173.371C190.424 173.688 190.479 174.048 190.479 174.452C190.479 174.897 190.409 175.311 190.269 175.691C190.134 176.066 189.926 176.392 189.645 176.667C189.369 176.942 189.026 177.159 188.616 177.317C188.206 177.47 187.729 177.546 187.184 177.546C187.055 177.546 186.926 177.546 186.797 177.546C186.668 177.54 186.562 177.528 186.48 177.511C186.381 177.569 186.281 177.637 186.182 177.713C186.088 177.783 186 177.865 185.918 177.959C185.842 178.053 185.777 178.158 185.725 178.275C185.678 178.393 185.654 178.521 185.654 178.662C185.654 178.82 185.689 178.949 185.76 179.049C185.83 179.143 185.924 179.216 186.041 179.269C186.164 179.321 186.308 179.356 186.472 179.374C186.636 179.392 186.809 179.4 186.99 179.4H188.537C189.082 179.4 189.542 179.471 189.917 179.611C190.292 179.746 190.597 179.931 190.831 180.165C191.071 180.399 191.244 180.678 191.35 181C191.455 181.316 191.508 181.653 191.508 182.011C191.508 182.526 191.411 182.989 191.218 183.399C191.03 183.81 190.74 184.155 190.348 184.437C189.955 184.724 189.457 184.943 188.854 185.096C188.256 185.248 187.55 185.324 186.735 185.324C186.108 185.324 185.561 185.263 185.092 185.14C184.623 185.017 184.233 184.838 183.923 184.604C183.612 184.369 183.378 184.085 183.22 183.751C183.067 183.423 182.991 183.051 182.991 182.635C182.991 182.283 183.047 181.973 183.158 181.703C183.275 181.439 183.431 181.211 183.624 181.018C183.817 180.824 184.04 180.666 184.292 180.543C184.55 180.42 184.816 180.326 185.092 180.262C184.846 180.15 184.644 179.975 184.485 179.734C184.327 179.494 184.248 179.219 184.248 178.908C184.248 178.551 184.342 178.243 184.529 177.985C184.717 177.722 185.013 177.467 185.417 177.221C185.165 177.115 184.934 176.972 184.723 176.79C184.518 176.603 184.342 176.392 184.195 176.157C184.055 175.917 183.943 175.656 183.861 175.375C183.785 175.094 183.747 174.804 183.747 174.505C183.747 173.983 183.82 173.518 183.967 173.107C184.113 172.697 184.33 172.349 184.617 172.062C184.904 171.774 185.262 171.555 185.689 171.402C186.117 171.25 186.615 171.174 187.184 171.174C187.4 171.174 187.623 171.191 187.852 171.227C188.086 171.256 188.282 171.297 188.44 171.35H191.631ZM184.503 182.582C184.503 182.799 184.541 183.001 184.617 183.188C184.693 183.376 184.816 183.537 184.986 183.672C185.162 183.807 185.391 183.912 185.672 183.988C185.959 184.07 186.313 184.111 186.735 184.111C187.825 184.111 188.64 183.941 189.179 183.602C189.724 183.268 189.996 182.784 189.996 182.151C189.996 181.882 189.961 181.662 189.891 181.492C189.82 181.322 189.703 181.188 189.539 181.088C189.381 180.994 189.17 180.93 188.906 180.895C188.643 180.859 188.32 180.842 187.939 180.842H186.393C186.188 180.842 185.974 180.865 185.751 180.912C185.528 180.959 185.323 181.047 185.136 181.176C184.954 181.305 184.802 181.48 184.679 181.703C184.562 181.932 184.503 182.225 184.503 182.582ZM185.312 174.452C185.312 175.126 185.47 175.627 185.786 175.955C186.103 176.283 186.551 176.447 187.131 176.447C187.717 176.447 188.159 176.286 188.458 175.964C188.763 175.636 188.915 175.123 188.915 174.426C188.915 173.705 188.76 173.175 188.449 172.835C188.145 172.495 187.699 172.325 187.113 172.325C186.533 172.325 186.088 172.501 185.777 172.853C185.467 173.204 185.312 173.737 185.312 174.452ZM195.129 181H193.529V171.35H195.129V181ZM193.406 168.739C193.406 168.388 193.494 168.133 193.67 167.975C193.852 167.816 194.074 167.737 194.338 167.737C194.467 167.737 194.587 167.758 194.698 167.799C194.815 167.834 194.915 167.893 194.997 167.975C195.085 168.057 195.152 168.162 195.199 168.291C195.252 168.414 195.278 168.563 195.278 168.739C195.278 169.079 195.185 169.334 194.997 169.504C194.815 169.668 194.596 169.75 194.338 169.75C194.074 169.75 193.852 169.668 193.67 169.504C193.494 169.34 193.406 169.085 193.406 168.739ZM203.962 178.354C203.962 178.823 203.877 179.233 203.707 179.585C203.537 179.937 203.291 180.232 202.969 180.473C202.652 180.707 202.269 180.883 201.817 181C201.366 181.117 200.859 181.176 200.297 181.176C199.658 181.176 199.11 181.123 198.653 181.018C198.196 180.918 197.795 180.769 197.449 180.569V179.11C197.631 179.204 197.833 179.298 198.056 179.392C198.278 179.479 198.513 179.559 198.759 179.629C199.005 179.699 199.257 179.758 199.515 179.805C199.778 179.846 200.039 179.866 200.297 179.866C200.678 179.866 201 179.834 201.264 179.77C201.533 179.705 201.75 179.614 201.914 179.497C202.084 179.374 202.207 179.228 202.283 179.058C202.359 178.882 202.397 178.688 202.397 178.478C202.397 178.296 202.368 178.132 202.31 177.985C202.251 177.839 202.143 177.695 201.984 177.555C201.832 177.408 201.621 177.262 201.352 177.115C201.082 176.969 200.736 176.805 200.314 176.623C199.893 176.441 199.512 176.263 199.172 176.087C198.838 175.911 198.554 175.715 198.319 175.498C198.085 175.281 197.903 175.032 197.774 174.751C197.651 174.464 197.59 174.124 197.59 173.731C197.59 173.321 197.669 172.958 197.827 172.642C197.991 172.319 198.22 172.05 198.513 171.833C198.806 171.616 199.157 171.452 199.567 171.341C199.978 171.229 200.435 171.174 200.938 171.174C201.507 171.174 202.025 171.235 202.494 171.358C202.969 171.481 203.417 171.643 203.839 171.842L203.285 173.134C202.904 172.964 202.512 172.817 202.107 172.694C201.709 172.565 201.302 172.501 200.886 172.501C200.288 172.501 199.846 172.601 199.559 172.8C199.271 172.993 199.128 173.271 199.128 173.635C199.128 173.84 199.16 174.019 199.225 174.171C199.295 174.323 199.412 174.467 199.576 174.602C199.74 174.736 199.96 174.874 200.235 175.015C200.511 175.149 200.854 175.302 201.264 175.472C201.686 175.647 202.061 175.823 202.389 175.999C202.723 176.175 203.007 176.374 203.241 176.597C203.476 176.813 203.654 177.062 203.777 177.344C203.9 177.625 203.962 177.962 203.962 178.354ZM209.227 179.866C209.332 179.866 209.449 179.86 209.578 179.849C209.713 179.837 209.842 179.822 209.965 179.805C210.088 179.787 210.199 179.767 210.299 179.743C210.404 179.72 210.483 179.699 210.536 179.682V180.895C210.46 180.93 210.363 180.965 210.246 181C210.129 181.035 210 181.064 209.859 181.088C209.719 181.117 209.572 181.138 209.42 181.149C209.268 181.167 209.118 181.176 208.972 181.176C208.608 181.176 208.271 181.129 207.961 181.035C207.65 180.941 207.381 180.78 207.152 180.552C206.93 180.323 206.754 180.016 206.625 179.629C206.496 179.236 206.432 178.744 206.432 178.152V172.554H205.069V171.842L206.432 171.156L207.117 169.135H208.04V171.35H210.466V172.554H208.04V178.152C208.04 178.721 208.131 179.148 208.312 179.436C208.5 179.723 208.805 179.866 209.227 179.866Z" fill="black"/>
<rect x="56.5" y="199.5" width="24" height="24" stroke="#488AA8"/>
<path d="M120.448 210.912C120.448 211.445 120.366 211.958 120.202 212.45C120.044 212.942 119.78 213.379 119.411 213.76C119.042 214.135 118.553 214.437 117.943 214.665C117.34 214.888 116.593 214.999 115.702 214.999H114.384V220H112.749V207.15H115.931C116.716 207.15 117.393 207.235 117.961 207.405C118.529 207.569 118.998 207.812 119.367 208.135C119.736 208.451 120.009 208.844 120.185 209.312C120.36 209.781 120.448 210.314 120.448 210.912ZM114.384 213.61H115.518C116.062 213.61 116.537 213.563 116.941 213.47C117.352 213.376 117.688 213.227 117.952 213.021C118.222 212.811 118.424 212.541 118.559 212.213C118.693 211.879 118.761 211.475 118.761 211C118.761 210.168 118.521 209.553 118.04 209.154C117.56 208.75 116.81 208.548 115.79 208.548H114.384V213.61ZM128.93 220V213.786C128.93 213.024 128.774 212.453 128.464 212.072C128.159 211.691 127.679 211.501 127.022 211.501C126.548 211.501 126.149 211.577 125.827 211.729C125.505 211.882 125.244 212.107 125.045 212.406C124.852 212.705 124.711 213.071 124.623 213.505C124.541 213.938 124.5 214.437 124.5 214.999V220H122.9V206.324H124.5V210.385L124.43 211.65H124.518C124.664 211.398 124.837 211.182 125.036 211C125.241 210.812 125.464 210.657 125.704 210.534C125.944 210.411 126.199 210.32 126.469 210.262C126.738 210.203 127.014 210.174 127.295 210.174C128.367 210.174 129.173 210.455 129.712 211.018C130.257 211.574 130.529 212.468 130.529 213.698V220H128.93ZM132.059 210.35H133.72L135.609 215.737C135.691 215.972 135.773 216.218 135.855 216.476C135.943 216.733 136.022 216.991 136.093 217.249C136.169 217.507 136.233 217.756 136.286 217.996C136.339 218.236 136.377 218.459 136.4 218.664H136.453C136.482 218.518 136.529 218.318 136.594 218.066C136.658 217.814 136.729 217.548 136.805 217.267C136.887 216.979 136.969 216.698 137.051 216.423C137.139 216.147 137.215 215.913 137.279 215.72L139.028 210.35H140.681L136.866 221.257C136.702 221.731 136.523 222.156 136.33 222.531C136.143 222.912 135.923 223.234 135.671 223.498C135.419 223.762 135.123 223.964 134.783 224.104C134.443 224.251 134.039 224.324 133.57 224.324C133.266 224.324 133.002 224.307 132.779 224.271C132.557 224.242 132.366 224.21 132.208 224.175V222.9C132.331 222.93 132.486 222.953 132.674 222.971C132.861 222.994 133.058 223.006 133.263 223.006C133.544 223.006 133.787 222.971 133.992 222.9C134.197 222.836 134.376 222.739 134.528 222.61C134.681 222.481 134.81 222.323 134.915 222.136C135.026 221.948 135.126 221.734 135.214 221.494L135.715 220.088L132.059 210.35ZM148.081 217.354C148.081 217.823 147.996 218.233 147.826 218.585C147.656 218.937 147.41 219.232 147.088 219.473C146.771 219.707 146.388 219.883 145.937 220C145.485 220.117 144.979 220.176 144.416 220.176C143.777 220.176 143.229 220.123 142.772 220.018C142.315 219.918 141.914 219.769 141.568 219.569V218.11C141.75 218.204 141.952 218.298 142.175 218.392C142.397 218.479 142.632 218.559 142.878 218.629C143.124 218.699 143.376 218.758 143.634 218.805C143.897 218.846 144.158 218.866 144.416 218.866C144.797 218.866 145.119 218.834 145.383 218.77C145.652 218.705 145.869 218.614 146.033 218.497C146.203 218.374 146.326 218.228 146.402 218.058C146.479 217.882 146.517 217.688 146.517 217.478C146.517 217.296 146.487 217.132 146.429 216.985C146.37 216.839 146.262 216.695 146.104 216.555C145.951 216.408 145.74 216.262 145.471 216.115C145.201 215.969 144.855 215.805 144.434 215.623C144.012 215.441 143.631 215.263 143.291 215.087C142.957 214.911 142.673 214.715 142.438 214.498C142.204 214.281 142.022 214.032 141.894 213.751C141.771 213.464 141.709 213.124 141.709 212.731C141.709 212.321 141.788 211.958 141.946 211.642C142.11 211.319 142.339 211.05 142.632 210.833C142.925 210.616 143.276 210.452 143.687 210.341C144.097 210.229 144.554 210.174 145.058 210.174C145.626 210.174 146.145 210.235 146.613 210.358C147.088 210.481 147.536 210.643 147.958 210.842L147.404 212.134C147.023 211.964 146.631 211.817 146.227 211.694C145.828 211.565 145.421 211.501 145.005 211.501C144.407 211.501 143.965 211.601 143.678 211.8C143.391 211.993 143.247 212.271 143.247 212.635C143.247 212.84 143.279 213.019 143.344 213.171C143.414 213.323 143.531 213.467 143.695 213.602C143.859 213.736 144.079 213.874 144.354 214.015C144.63 214.149 144.973 214.302 145.383 214.472C145.805 214.647 146.18 214.823 146.508 214.999C146.842 215.175 147.126 215.374 147.36 215.597C147.595 215.813 147.773 216.062 147.896 216.344C148.02 216.625 148.081 216.962 148.081 217.354ZM152.027 220H150.428V210.35H152.027V220ZM150.305 207.739C150.305 207.388 150.393 207.133 150.568 206.975C150.75 206.816 150.973 206.737 151.236 206.737C151.365 206.737 151.485 206.758 151.597 206.799C151.714 206.834 151.813 206.893 151.896 206.975C151.983 207.057 152.051 207.162 152.098 207.291C152.15 207.414 152.177 207.563 152.177 207.739C152.177 208.079 152.083 208.334 151.896 208.504C151.714 208.668 151.494 208.75 151.236 208.75C150.973 208.75 150.75 208.668 150.568 208.504C150.393 208.34 150.305 208.085 150.305 207.739ZM162.952 215.157C162.952 215.96 162.853 216.675 162.653 217.302C162.46 217.923 162.179 218.447 161.81 218.875C161.446 219.297 161.004 219.619 160.482 219.842C159.961 220.064 159.375 220.176 158.725 220.176C158.121 220.176 157.564 220.064 157.055 219.842C156.545 219.619 156.103 219.297 155.728 218.875C155.358 218.447 155.068 217.923 154.857 217.302C154.652 216.675 154.55 215.96 154.55 215.157C154.55 214.36 154.646 213.654 154.84 213.039C155.039 212.418 155.32 211.896 155.684 211.475C156.047 211.047 156.489 210.725 157.011 210.508C157.538 210.285 158.127 210.174 158.777 210.174C159.381 210.174 159.938 210.285 160.447 210.508C160.957 210.725 161.396 211.047 161.766 211.475C162.141 211.896 162.431 212.418 162.636 213.039C162.847 213.654 162.952 214.36 162.952 215.157ZM156.202 215.157C156.202 216.382 156.401 217.305 156.8 217.926C157.204 218.541 157.857 218.849 158.76 218.849C159.662 218.849 160.31 218.541 160.702 217.926C161.101 217.305 161.3 216.382 161.3 215.157C161.3 213.933 161.098 213.019 160.693 212.415C160.295 211.806 159.645 211.501 158.742 211.501C157.84 211.501 157.189 211.806 156.791 212.415C156.398 213.019 156.202 213.933 156.202 215.157ZM168.393 218.866C168.498 218.866 168.615 218.86 168.744 218.849C168.879 218.837 169.008 218.822 169.131 218.805C169.254 218.787 169.365 218.767 169.465 218.743C169.57 218.72 169.649 218.699 169.702 218.682V219.895C169.626 219.93 169.529 219.965 169.412 220C169.295 220.035 169.166 220.064 169.025 220.088C168.885 220.117 168.738 220.138 168.586 220.149C168.434 220.167 168.284 220.176 168.138 220.176C167.774 220.176 167.438 220.129 167.127 220.035C166.816 219.941 166.547 219.78 166.318 219.552C166.096 219.323 165.92 219.016 165.791 218.629C165.662 218.236 165.598 217.744 165.598 217.152V211.554H164.235V210.842L165.598 210.156L166.283 208.135H167.206V210.35H169.632V211.554H167.206V217.152C167.206 217.721 167.297 218.148 167.479 218.436C167.666 218.723 167.971 218.866 168.393 218.866ZM177.604 220V213.786C177.604 213.024 177.448 212.453 177.138 212.072C176.833 211.691 176.353 211.501 175.696 211.501C175.222 211.501 174.823 211.577 174.501 211.729C174.179 211.882 173.918 212.107 173.719 212.406C173.525 212.705 173.385 213.071 173.297 213.505C173.215 213.938 173.174 214.437 173.174 214.999V220H171.574V206.324H173.174V210.385L173.104 211.65H173.191C173.338 211.398 173.511 211.182 173.71 211C173.915 210.812 174.138 210.657 174.378 210.534C174.618 210.411 174.873 210.32 175.143 210.262C175.412 210.203 175.688 210.174 175.969 210.174C177.041 210.174 177.847 210.455 178.386 211.018C178.931 211.574 179.203 212.468 179.203 213.698V220H177.604ZM185.988 220.176C185.344 220.176 184.755 220.067 184.222 219.851C183.688 219.634 183.229 219.317 182.842 218.901C182.461 218.485 182.165 217.97 181.954 217.354C181.743 216.739 181.638 216.036 181.638 215.245C181.638 214.448 181.734 213.736 181.928 213.109C182.121 212.482 182.394 211.952 182.745 211.519C183.097 211.079 183.516 210.745 184.002 210.517C184.494 210.288 185.036 210.174 185.628 210.174C186.208 210.174 186.729 210.279 187.192 210.49C187.655 210.695 188.048 210.988 188.37 211.369C188.692 211.744 188.938 212.198 189.108 212.731C189.284 213.259 189.372 213.845 189.372 214.489V215.482H183.29C183.319 216.613 183.557 217.445 184.002 217.979C184.453 218.512 185.121 218.778 186.006 218.778C186.305 218.778 186.58 218.764 186.832 218.734C187.09 218.705 187.336 218.664 187.57 218.611C187.811 218.553 188.042 218.482 188.265 218.4C188.487 218.312 188.713 218.216 188.941 218.11V219.534C188.707 219.646 188.476 219.742 188.247 219.824C188.024 219.906 187.793 219.974 187.553 220.026C187.318 220.079 187.072 220.117 186.814 220.141C186.562 220.164 186.287 220.176 185.988 220.176ZM185.593 211.501C184.925 211.501 184.395 211.729 184.002 212.187C183.615 212.644 183.39 213.309 183.325 214.182H187.649C187.649 213.783 187.608 213.42 187.526 213.092C187.45 212.758 187.327 212.474 187.157 212.239C186.993 212.005 186.782 211.823 186.524 211.694C186.267 211.565 185.956 211.501 185.593 211.501ZM195.981 210.174C196.151 210.174 196.342 210.183 196.553 210.2C196.764 210.212 196.945 210.232 197.098 210.262L196.887 211.738C196.723 211.709 196.553 211.686 196.377 211.668C196.207 211.645 196.046 211.633 195.894 211.633C195.524 211.633 195.188 211.709 194.883 211.861C194.578 212.008 194.314 212.222 194.092 212.503C193.875 212.778 193.705 213.112 193.582 213.505C193.465 213.892 193.406 214.322 193.406 214.797V220H191.807V210.35H193.107L193.301 212.116H193.371C193.518 211.864 193.673 211.621 193.837 211.387C194.007 211.152 194.194 210.947 194.399 210.771C194.61 210.59 194.845 210.446 195.103 210.341C195.36 210.229 195.653 210.174 195.981 210.174ZM204.261 220L203.936 218.664H203.865C203.672 218.928 203.479 219.156 203.285 219.35C203.092 219.537 202.881 219.692 202.652 219.815C202.424 219.938 202.169 220.029 201.888 220.088C201.606 220.146 201.281 220.176 200.912 220.176C200.508 220.176 200.136 220.117 199.796 220C199.456 219.889 199.16 219.716 198.908 219.481C198.662 219.241 198.469 218.942 198.328 218.585C198.188 218.222 198.117 217.794 198.117 217.302C198.117 216.341 198.454 215.603 199.128 215.087C199.808 214.571 200.839 214.29 202.222 214.243L203.839 214.182V213.575C203.839 213.183 203.795 212.854 203.707 212.591C203.625 212.327 203.502 212.116 203.338 211.958C203.18 211.794 202.98 211.677 202.74 211.606C202.506 211.536 202.236 211.501 201.932 211.501C201.445 211.501 200.991 211.571 200.569 211.712C200.153 211.853 199.752 212.022 199.365 212.222L198.803 211.018C199.236 210.783 199.72 210.584 200.253 210.42C200.786 210.256 201.346 210.174 201.932 210.174C202.529 210.174 203.045 210.235 203.479 210.358C203.918 210.476 204.278 210.666 204.56 210.93C204.847 211.188 205.061 211.519 205.201 211.923C205.342 212.327 205.412 212.816 205.412 213.391V220H204.261ZM201.325 218.884C201.683 218.884 202.014 218.828 202.318 218.717C202.623 218.605 202.887 218.438 203.109 218.216C203.332 217.987 203.505 217.703 203.628 217.363C203.757 217.018 203.821 216.613 203.821 216.15V215.28L202.564 215.342C202.037 215.365 201.595 215.424 201.237 215.518C200.88 215.611 200.593 215.743 200.376 215.913C200.165 216.077 200.013 216.279 199.919 216.52C199.825 216.754 199.778 217.021 199.778 217.319C199.778 217.858 199.919 218.254 200.2 218.506C200.487 218.758 200.862 218.884 201.325 218.884ZM212.742 220.176C212.396 220.176 212.083 220.138 211.802 220.062C211.521 219.985 211.266 219.886 211.037 219.763C210.814 219.634 210.615 219.484 210.439 219.314C210.27 219.145 210.117 218.966 209.982 218.778H209.877C209.895 218.978 209.912 219.168 209.93 219.35C209.941 219.502 209.953 219.66 209.965 219.824C209.977 219.982 209.982 220.108 209.982 220.202V224.324H208.383V210.35H209.684L209.912 211.65H209.982C210.117 211.445 210.27 211.255 210.439 211.079C210.609 210.897 210.806 210.742 211.028 210.613C211.257 210.479 211.512 210.373 211.793 210.297C212.074 210.215 212.391 210.174 212.742 210.174C213.293 210.174 213.794 210.279 214.245 210.49C214.696 210.701 215.08 211.018 215.396 211.439C215.719 211.855 215.968 212.374 216.144 212.995C216.319 213.616 216.407 214.337 216.407 215.157C216.407 215.983 216.319 216.71 216.144 217.337C215.968 217.958 215.719 218.479 215.396 218.901C215.08 219.323 214.696 219.643 214.245 219.859C213.794 220.07 213.293 220.176 212.742 220.176ZM212.435 211.501C211.989 211.501 211.611 211.568 211.301 211.703C210.996 211.838 210.747 212.043 210.554 212.318C210.366 212.594 210.226 212.937 210.132 213.347C210.044 213.757 209.994 214.24 209.982 214.797V215.157C209.982 215.749 210.021 216.276 210.097 216.739C210.179 217.196 210.313 217.583 210.501 217.899C210.694 218.21 210.949 218.447 211.266 218.611C211.582 218.77 211.978 218.849 212.452 218.849C213.243 218.849 213.823 218.529 214.192 217.891C214.567 217.252 214.755 216.335 214.755 215.14C214.755 213.921 214.567 213.01 214.192 212.406C213.823 211.803 213.237 211.501 212.435 211.501ZM220.529 220H218.93V210.35H220.529V220ZM218.807 207.739C218.807 207.388 218.895 207.133 219.07 206.975C219.252 206.816 219.475 206.737 219.738 206.737C219.867 206.737 219.987 206.758 220.099 206.799C220.216 206.834 220.315 206.893 220.397 206.975C220.485 207.057 220.553 207.162 220.6 207.291C220.652 207.414 220.679 207.563 220.679 207.739C220.679 208.079 220.585 208.334 220.397 208.504C220.216 208.668 219.996 208.75 219.738 208.75C219.475 208.75 219.252 208.668 219.07 208.504C218.895 208.34 218.807 208.085 218.807 207.739ZM229.362 217.354C229.362 217.823 229.277 218.233 229.107 218.585C228.938 218.937 228.691 219.232 228.369 219.473C228.053 219.707 227.669 219.883 227.218 220C226.767 220.117 226.26 220.176 225.697 220.176C225.059 220.176 224.511 220.123 224.054 220.018C223.597 219.918 223.195 219.769 222.85 219.569V218.11C223.031 218.204 223.233 218.298 223.456 218.392C223.679 218.479 223.913 218.559 224.159 218.629C224.405 218.699 224.657 218.758 224.915 218.805C225.179 218.846 225.439 218.866 225.697 218.866C226.078 218.866 226.4 218.834 226.664 218.77C226.934 218.705 227.15 218.614 227.314 218.497C227.484 218.374 227.607 218.228 227.684 218.058C227.76 217.882 227.798 217.688 227.798 217.478C227.798 217.296 227.769 217.132 227.71 216.985C227.651 216.839 227.543 216.695 227.385 216.555C227.232 216.408 227.021 216.262 226.752 216.115C226.482 215.969 226.137 215.805 225.715 215.623C225.293 215.441 224.912 215.263 224.572 215.087C224.238 214.911 223.954 214.715 223.72 214.498C223.485 214.281 223.304 214.032 223.175 213.751C223.052 213.464 222.99 213.124 222.99 212.731C222.99 212.321 223.069 211.958 223.228 211.642C223.392 211.319 223.62 211.05 223.913 210.833C224.206 210.616 224.558 210.452 224.968 210.341C225.378 210.229 225.835 210.174 226.339 210.174C226.907 210.174 227.426 210.235 227.895 210.358C228.369 210.481 228.817 210.643 229.239 210.842L228.686 212.134C228.305 211.964 227.912 211.817 227.508 211.694C227.109 211.565 226.702 211.501 226.286 211.501C225.688 211.501 225.246 211.601 224.959 211.8C224.672 211.993 224.528 212.271 224.528 212.635C224.528 212.84 224.561 213.019 224.625 213.171C224.695 213.323 224.812 213.467 224.977 213.602C225.141 213.736 225.36 213.874 225.636 214.015C225.911 214.149 226.254 214.302 226.664 214.472C227.086 214.647 227.461 214.823 227.789 214.999C228.123 215.175 228.407 215.374 228.642 215.597C228.876 215.813 229.055 216.062 229.178 216.344C229.301 216.625 229.362 216.962 229.362 217.354ZM234.627 218.866C234.732 218.866 234.85 218.86 234.979 218.849C235.113 218.837 235.242 218.822 235.365 218.805C235.488 218.787 235.6 218.767 235.699 218.743C235.805 218.72 235.884 218.699 235.937 218.682V219.895C235.86 219.93 235.764 219.965 235.646 220C235.529 220.035 235.4 220.064 235.26 220.088C235.119 220.117 234.973 220.138 234.82 220.149C234.668 220.167 234.519 220.176 234.372 220.176C234.009 220.176 233.672 220.129 233.361 220.035C233.051 219.941 232.781 219.78 232.553 219.552C232.33 219.323 232.154 219.016 232.025 218.629C231.896 218.236 231.832 217.744 231.832 217.152V211.554H230.47V210.842L231.832 210.156L232.518 208.135H233.44V210.35H235.866V211.554H233.44V217.152C233.44 217.721 233.531 218.148 233.713 218.436C233.9 218.723 234.205 218.866 234.627 218.866Z" fill="black"/>
<path d="M48.318 38.318C46.5607 40.0754 46.5607 42.9246 48.318 44.682L56.0001 52.364L63.682 44.682C65.4393 42.9246 65.4393 40.0754 63.682 38.318C61.9246 36.5607 59.0754 36.5607 57.318 38.318L56.0001 39.6361L54.682 38.318C52.9246 36.5607 50.0754 36.5607 48.318 38.318Z" fill="#488AA8" stroke="#488AA8" stroke-width="2" stroke-linecap="round" stroke-linejoin="round"/>
<path d="M88.96 38.8C89.8267 38.8 90.5933 38.9267 91.26 39.18C91.94 39.4333 92.58 39.8133 93.18 40.32L91.62 42.18C91.2067 41.86 90.8 41.62 90.4 41.46C90 41.3 89.5733 41.22 89.12 41.22C88.1867 41.22 87.4467 41.6133 86.9 42.4C86.3667 43.1867 86.1 44.4 86.1 46.04C86.1 47.6533 86.3667 48.8533 86.9 49.64C87.4467 50.4133 88.2 50.8 89.16 50.8C89.6667 50.8 90.1267 50.7067 90.54 50.52C90.9533 50.32 91.4 50.04 91.88 49.68L93.34 51.56C92.82 52.08 92.1867 52.5067 91.44 52.84C90.7067 53.1733 89.8933 53.34 89 53.34C87.72 53.34 86.6067 53.06 85.66 52.5C84.7133 51.94 83.9733 51.1133 83.44 50.02C82.92 48.9133 82.66 47.5867 82.66 46.04C82.66 44.5333 82.9267 43.2333 83.46 42.14C84.0067 41.0467 84.7533 40.22 85.7 39.66C86.66 39.0867 87.7467 38.8 88.96 38.8ZM98.9533 42.04C100.58 42.04 101.853 42.54 102.773 43.54C103.693 44.5267 104.153 45.9133 104.153 47.7C104.153 48.8333 103.94 49.8267 103.513 50.68C103.1 51.52 102.5 52.1733 101.713 52.64C100.94 53.1067 100.02 53.34 98.9533 53.34C97.3399 53.34 96.0666 52.8467 95.1333 51.86C94.2133 50.86 93.7533 49.4667 93.7533 47.68C93.7533 46.5467 93.9599 45.56 94.3733 44.72C94.7999 43.8667 95.3999 43.2067 96.1733 42.74C96.9599 42.2733 97.8866 42.04 98.9533 42.04ZM98.9533 44.36C98.3133 44.36 97.8333 44.6333 97.5133 45.18C97.1933 45.7133 97.0333 46.5467 97.0333 47.68C97.0333 48.84 97.1866 49.6867 97.4933 50.22C97.8133 50.7533 98.2999 51.02 98.9533 51.02C99.5933 51.02 100.073 50.7533 100.393 50.22C100.713 49.6733 100.873 48.8333 100.873 47.7C100.873 46.54 100.713 45.6933 100.393 45.16C100.087 44.6267 99.6066 44.36 98.9533 44.36ZM112.253 42.04C113.173 42.04 113.893 42.32 114.413 42.88C114.933 43.44 115.193 44.2267 115.193 45.24V53H112.033V45.78C112.033 45.2467 111.946 44.88 111.773 44.68C111.613 44.4667 111.366 44.36 111.033 44.36C110.393 44.36 109.78 44.82 109.193 45.74V53H106.033V42.38H108.793L109.013 43.64C109.466 43.1067 109.953 42.7067 110.473 42.44C111.006 42.1733 111.6 42.04 112.253 42.04ZM121.316 42.04C122.076 42.04 122.789 42.1533 123.456 42.38C124.123 42.6067 124.709 42.9267 125.216 43.34L124.056 45.12C123.189 44.5733 122.316 44.3 121.436 44.3C121.023 44.3 120.703 44.3733 120.476 44.52C120.263 44.6533 120.156 44.8467 120.156 45.1C120.156 45.3 120.203 45.4667 120.296 45.6C120.403 45.72 120.609 45.8467 120.916 45.98C121.223 46.1133 121.696 46.2733 122.336 46.46C123.443 46.78 124.263 47.2 124.796 47.72C125.343 48.2267 125.616 48.9333 125.616 49.84C125.616 50.56 125.409 51.1867 124.996 51.72C124.583 52.24 124.016 52.64 123.296 52.92C122.576 53.2 121.776 53.34 120.896 53.34C120.003 53.34 119.169 53.2 118.396 52.92C117.636 52.64 116.989 52.2533 116.456 51.76L117.996 50.04C118.889 50.7333 119.829 51.08 120.816 51.08C121.296 51.08 121.669 50.9933 121.936 50.82C122.216 50.6467 122.356 50.4 122.356 50.08C122.356 49.8267 122.303 49.6267 122.196 49.48C122.089 49.3333 121.883 49.2 121.576 49.08C121.269 48.9467 120.783 48.7867 120.116 48.6C119.063 48.2933 118.276 47.8667 117.756 47.32C117.236 46.7733 116.976 46.0933 116.976 45.28C116.976 44.6667 117.149 44.12 117.496 43.64C117.856 43.1467 118.363 42.76 119.016 42.48C119.683 42.1867 120.449 42.04 121.316 42.04ZM136.204 53H133.464L133.324 51.66C132.551 52.78 131.477 53.34 130.104 53.34C129.131 53.34 128.391 53.0467 127.884 52.46C127.391 51.8733 127.144 51.0533 127.144 50V42.38H130.304V49.6C130.304 50.12 130.384 50.4867 130.544 50.7C130.717 50.9 130.977 51 131.324 51C131.991 51 132.564 50.5867 133.044 49.76V42.38H136.204V53ZM141.509 53.34C140.589 53.34 139.869 53.08 139.349 52.56C138.843 52.0267 138.589 51.2733 138.589 50.3V38.16L141.749 37.82V50.18C141.749 50.62 141.929 50.84 142.289 50.84C142.476 50.84 142.649 50.8067 142.809 50.74L143.429 52.98C142.856 53.22 142.216 53.34 141.509 53.34ZM151.287 52.5C150.9 52.7667 150.447 52.9733 149.927 53.12C149.42 53.2667 148.913 53.34 148.407 53.34C146.087 53.3267 144.927 52.0467 144.927 49.5V44.58H143.427V42.38H144.927V40.08L148.087 39.72V42.38H150.527L150.187 44.58H148.087V49.46C148.087 49.9533 148.167 50.3067 148.327 50.52C148.487 50.7333 148.74 50.84 149.087 50.84C149.447 50.84 149.827 50.7267 150.227 50.5L151.287 52.5ZM160.547 49.92C160.547 50.32 160.601 50.6133 160.707 50.8C160.827 50.9867 161.014 51.1267 161.267 51.22L160.607 53.28C159.954 53.2267 159.421 53.0867 159.007 52.86C158.594 52.62 158.274 52.2467 158.047 51.74C157.354 52.8067 156.287 53.34 154.847 53.34C153.794 53.34 152.954 53.0333 152.327 52.42C151.701 51.8067 151.387 51.0067 151.387 50.02C151.387 48.86 151.814 47.9733 152.667 47.36C153.521 46.7467 154.754 46.44 156.367 46.44H157.447V45.98C157.447 45.3533 157.314 44.9267 157.047 44.7C156.781 44.46 156.314 44.34 155.647 44.34C155.301 44.34 154.881 44.3933 154.387 44.5C153.894 44.5933 153.387 44.7267 152.867 44.9L152.147 42.82C152.814 42.5667 153.494 42.3733 154.187 42.24C154.894 42.1067 155.547 42.04 156.147 42.04C157.667 42.04 158.781 42.3533 159.487 42.98C160.194 43.6067 160.547 44.5467 160.547 45.8V49.92ZM155.767 51.08C156.487 51.08 157.047 50.74 157.447 50.06V48.18H156.667C155.947 48.18 155.407 48.3067 155.047 48.56C154.701 48.8133 154.527 49.2067 154.527 49.74C154.527 50.1667 154.634 50.5 154.847 50.74C155.074 50.9667 155.381 51.08 155.767 51.08ZM169.724 52.5C169.338 52.7667 168.884 52.9733 168.364 53.12C167.858 53.2667 167.351 53.34 166.844 53.34C164.524 53.3267 163.364 52.0467 163.364 49.5V44.58H161.864V42.38H163.364V40.08L166.524 39.72V42.38H168.964L168.624 44.58H166.524V49.46C166.524 49.9533 166.604 50.3067 166.764 50.52C166.924 50.7333 167.178 50.84 167.524 50.84C167.884 50.84 168.264 50.7267 168.664 50.5L169.724 52.5ZM173.939 42.38V53H170.779V42.38H173.939ZM172.339 36.78C172.886 36.78 173.332 36.9533 173.679 37.3C174.039 37.6333 174.219 38.06 174.219 38.58C174.219 39.1 174.039 39.5333 173.679 39.88C173.332 40.2133 172.886 40.38 172.339 40.38C171.792 40.38 171.346 40.2133 170.999 39.88C170.652 39.5333 170.479 39.1 170.479 38.58C170.479 38.06 170.652 37.6333 170.999 37.3C171.346 36.9533 171.792 36.78 172.339 36.78ZM181.024 42.04C182.65 42.04 183.924 42.54 184.844 43.54C185.764 44.5267 186.224 45.9133 186.224 47.7C186.224 48.8333 186.01 49.8267 185.584 50.68C185.17 51.52 184.57 52.1733 183.784 52.64C183.01 53.1067 182.09 53.34 181.024 53.34C179.41 53.34 178.137 52.8467 177.204 51.86C176.284 50.86 175.824 49.4667 175.824 47.68C175.824 46.5467 176.03 45.56 176.444 44.72C176.87 43.8667 177.47 43.2067 178.244 42.74C179.03 42.2733 179.957 42.04 181.024 42.04ZM181.024 44.36C180.384 44.36 179.904 44.6333 179.584 45.18C179.264 45.7133 179.104 46.5467 179.104 47.68C179.104 48.84 179.257 49.6867 179.564 50.22C179.884 50.7533 180.37 51.02 181.024 51.02C181.664 51.02 182.144 50.7533 182.464 50.22C182.784 49.6733 182.944 48.8333 182.944 47.7C182.944 46.54 182.784 45.6933 182.464 45.16C182.157 44.6267 181.677 44.36 181.024 44.36ZM194.323 42.04C195.243 42.04 195.963 42.32 196.483 42.88C197.003 43.44 197.263 44.2267 197.263 45.24V53H194.103V45.78C194.103 45.2467 194.017 44.88 193.843 44.68C193.683 44.4667 193.437 44.36 193.103 44.36C192.463 44.36 191.85 44.82 191.263 45.74V53H188.103V42.38H190.863L191.083 43.64C191.537 43.1067 192.023 42.7067 192.543 42.44C193.077 42.1733 193.67 42.04 194.323 42.04ZM210.112 38.8C210.979 38.8 211.746 38.9267 212.412 39.18C213.092 39.4333 213.732 39.8133 214.332 40.32L212.772 42.18C212.359 41.86 211.952 41.62 211.552 41.46C211.152 41.3 210.726 41.22 210.272 41.22C209.339 41.22 208.599 41.6133 208.052 42.4C207.519 43.1867 207.252 44.4 207.252 46.04C207.252 47.6533 207.519 48.8533 208.052 49.64C208.599 50.4133 209.352 50.8 210.312 50.8C210.819 50.8 211.279 50.7067 211.692 50.52C212.106 50.32 212.552 50.04 213.032 49.68L214.492 51.56C213.972 52.08 213.339 52.5067 212.592 52.84C211.859 53.1733 211.046 53.34 210.152 53.34C208.872 53.34 207.759 53.06 206.812 52.5C205.866 51.94 205.126 51.1133 204.592 50.02C204.072 48.9133 203.812 47.5867 203.812 46.04C203.812 44.5333 204.079 43.2333 204.612 42.14C205.159 41.0467 205.906 40.22 206.852 39.66C207.812 39.0867 208.899 38.8 210.112 38.8ZM221.921 42.04C222.841 42.04 223.561 42.32 224.081 42.88C224.601 43.44 224.861 44.2267 224.861 45.24V53H221.701V45.78C221.701 45.2467 221.614 44.88 221.441 44.68C221.268 44.4667 221.021 44.36 220.701 44.36C220.061 44.36 219.448 44.8133 218.861 45.72V53H215.701V38.16L218.861 37.84V43.52C219.301 43.0267 219.768 42.66 220.261 42.42C220.754 42.1667 221.308 42.04 221.921 42.04ZM236.504 47.48C236.504 47.92 236.484 48.3 236.444 48.62H229.864C229.971 49.5133 230.224 50.14 230.624 50.5C231.024 50.86 231.577 51.04 232.284 51.04C232.711 51.04 233.124 50.9667 233.524 50.82C233.924 50.66 234.357 50.42 234.824 50.1L236.124 51.86C234.884 52.8467 233.504 53.34 231.984 53.34C230.264 53.34 228.944 52.8333 228.024 51.82C227.104 50.8067 226.644 49.4467 226.644 47.74C226.644 46.66 226.837 45.6933 227.224 44.84C227.611 43.9733 228.177 43.2933 228.924 42.8C229.671 42.2933 230.564 42.04 231.604 42.04C233.137 42.04 234.337 42.52 235.204 43.48C236.071 44.44 236.504 45.7733 236.504 47.48ZM233.404 46.58C233.377 44.9533 232.804 44.14 231.684 44.14C231.137 44.14 230.711 44.34 230.404 44.74C230.111 45.14 229.931 45.8 229.864 46.72H233.404V46.58ZM242.879 42.04C243.612 42.04 244.272 42.1467 244.859 42.36C245.446 42.5733 245.999 42.9 246.519 43.34L245.159 45.22C244.492 44.7133 243.819 44.46 243.139 44.46C242.432 44.46 241.899 44.72 241.539 45.24C241.179 45.76 240.999 46.6 240.999 47.76C240.999 48.88 241.179 49.6733 241.539 50.14C241.899 50.6067 242.419 50.84 243.099 50.84C243.459 50.84 243.786 50.7867 244.079 50.68C244.372 50.56 244.726 50.3733 245.139 50.12L246.519 52.08C245.466 52.92 244.272 53.34 242.939 53.34C241.859 53.34 240.926 53.1133 240.139 52.66C239.352 52.1933 238.746 51.5467 238.319 50.72C237.892 49.88 237.679 48.9 237.679 47.78C237.679 46.66 237.892 45.6667 238.319 44.8C238.746 43.9333 239.352 43.26 240.139 42.78C240.926 42.2867 241.839 42.04 242.879 42.04ZM251.009 37.82V53H247.849V38.16L251.009 37.82ZM257.569 42.38L254.349 47.04L257.829 53H254.269L251.109 47.2L254.349 42.38H257.569ZM261.705 53.34C260.785 53.34 260.065 53.08 259.545 52.56C259.038 52.0267 258.785 51.2733 258.785 50.3V38.16L261.945 37.82V50.18C261.945 50.62 262.125 50.84 262.485 50.84C262.671 50.84 262.845 50.8067 263.005 50.74L263.625 52.98C263.051 53.22 262.411 53.34 261.705 53.34ZM267.982 42.38V53H264.822V42.38H267.982ZM266.382 36.78C266.929 36.78 267.375 36.9533 267.722 37.3C268.082 37.6333 268.262 38.06 268.262 38.58C268.262 39.1 268.082 39.5333 267.722 39.88C267.375 40.2133 266.929 40.38 266.382 40.38C265.835 40.38 265.389 40.2133 265.042 39.88C264.695 39.5333 264.522 39.1 264.522 38.58C264.522 38.06 264.695 37.6333 265.042 37.3C265.389 36.9533 265.835 36.78 266.382 36.78ZM274.207 42.04C274.967 42.04 275.68 42.1533 276.347 42.38C277.013 42.6067 277.6 42.9267 278.107 43.34L276.947 45.12C276.08 44.5733 275.207 44.3 274.327 44.3C273.913 44.3 273.593 44.3733 273.367 44.52C273.153 44.6533 273.047 44.8467 273.047 45.1C273.047 45.3 273.093 45.4667 273.187 45.6C273.293 45.72 273.5 45.8467 273.807 45.98C274.113 46.1133 274.587 46.2733 275.227 46.46C276.333 46.78 277.153 47.2 277.687 47.72C278.233 48.2267 278.507 48.9333 278.507 49.84C278.507 50.56 278.3 51.1867 277.887 51.72C277.473 52.24 276.907 52.64 276.187 52.92C275.467 53.2 274.667 53.34 273.787 53.34C272.893 53.34 272.06 53.2 271.287 52.92C270.527 52.64 269.88 52.2533 269.347 51.76L270.887 50.04C271.78 50.7333 272.72 51.08 273.707 51.08C274.187 51.08 274.56 50.9933 274.827 50.82C275.107 50.6467 275.247 50.4 275.247 50.08C275.247 49.8267 275.193 49.6267 275.087 49.48C274.98 49.3333 274.773 49.2 274.467 49.08C274.16 48.9467 273.673 48.7867 273.007 48.6C271.953 48.2933 271.167 47.8667 270.647 47.32C270.127 46.7733 269.867 46.0933 269.867 45.28C269.867 44.6667 270.04 44.12 270.387 43.64C270.747 43.1467 271.253 42.76 271.907 42.48C272.573 42.1867 273.34 42.04 274.207 42.04ZM286.795 52.5C286.408 52.7667 285.955 52.9733 285.435 53.12C284.928 53.2667 284.421 53.34 283.915 53.34C281.595 53.3267 280.435 52.0467 280.435 49.5V44.58H278.935V42.38H280.435V40.08L283.595 39.72V42.38H286.035L285.695 44.58H283.595V49.46C283.595 49.9533 283.675 50.3067 283.835 50.52C283.995 50.7333 284.248 50.84 284.595 50.84C284.955 50.84 285.335 50.7267 285.735 50.5L286.795 52.5Z" fill="#488AA8"/>
<defs>
<filter id="filter0_d_16_144" x="0" y="0" width="390" height="271" filterUnits="userSpaceOnUse" color-interpolation-filters="sRGB">
<feFlood flood-opacity="0" result="BackgroundImageFix"/>
<feColorMatrix in="SourceAlpha" type="matrix" values="0 0 0 0 0 0 0 0 0 0 0 0 0 0 0 0 0 0 127 0" result="hardAlpha"/>
<feOffset dy="2"/>
<feGaussianBlur stdDeviation="10"/>
<feComposite in2="hardAlpha" operator="out"/>
<feColorMatrix type="matrix" values="0 0 0 0 0 0 0 0 0 0 0 0 0 0 0 0 0 0 0.07 0"/>
<feBlend mode="normal" in2="BackgroundImageFix" result="effect1_dropShadow_16_144"/>
<feBlend mode="normal" in="SourceGraphic" in2="effect1_dropShadow_16_144" result="shape"/>
</filter>
</defs>
</svg>
