<svg width="368" height="134" viewBox="0 0 368 134" fill="none" xmlns="http://www.w3.org/2000/svg">
<rect width="368" height="134" rx="15" fill="#F2F6F6"/>
<path d="M85.8438 42H82.8066L82.8262 40.0566H85.8438C86.7227 40.0566 87.4583 39.8646 88.0508 39.4805C88.6497 39.0964 89.099 38.5462 89.3984 37.8301C89.7044 37.1139 89.8574 36.2611 89.8574 35.2715V34.5C89.8574 33.7318 89.7695 33.0514 89.5938 32.459C89.4245 31.8665 89.1706 31.3685 88.832 30.9648C88.5 30.5612 88.0898 30.2552 87.6016 30.0469C87.1198 29.8385 86.5632 29.7344 85.9316 29.7344H82.748V27.7812H85.9316C86.8757 27.7812 87.7383 27.9408 88.5195 28.2598C89.3008 28.5723 89.9746 29.0247 90.541 29.6172C91.1139 30.2096 91.5534 30.9193 91.8594 31.7461C92.1654 32.5729 92.3184 33.4974 92.3184 34.5195V35.2715C92.3184 36.2936 92.1654 37.2181 91.8594 38.0449C91.5534 38.8717 91.1139 39.5814 90.541 40.1738C89.9681 40.7598 89.2845 41.2122 88.4902 41.5312C87.7025 41.8438 86.8203 42 85.8438 42ZM84.1641 27.7812V42H81.7129V27.7812H84.1641ZM96.9082 33.4453V42H94.5547V31.4336H96.8008L96.9082 33.4453ZM100.141 31.3652L100.121 33.5527C99.9779 33.5267 99.8216 33.5072 99.6523 33.4941C99.4896 33.4811 99.3268 33.4746 99.1641 33.4746C98.7604 33.4746 98.4056 33.5332 98.0996 33.6504C97.7936 33.7611 97.5365 33.9238 97.3281 34.1387C97.1263 34.347 96.9701 34.6009 96.8594 34.9004C96.7487 35.1999 96.6836 35.5352 96.6641 35.9062L96.127 35.9453C96.127 35.2812 96.1921 34.666 96.3223 34.0996C96.4525 33.5332 96.6478 33.0352 96.9082 32.6055C97.1751 32.1758 97.5072 31.8405 97.9043 31.5996C98.3079 31.3587 98.7734 31.2383 99.3008 31.2383C99.444 31.2383 99.597 31.2513 99.7598 31.2773C99.929 31.3034 100.056 31.3327 100.141 31.3652ZM100.326 40.8281C100.326 40.4635 100.45 40.1576 100.697 39.9102C100.945 39.6562 101.28 39.5293 101.703 39.5293C102.133 39.5293 102.468 39.6562 102.709 39.9102C102.956 40.1576 103.08 40.4635 103.08 40.8281C103.08 41.1927 102.956 41.4987 102.709 41.7461C102.468 41.9935 102.133 42.1172 101.703 42.1172C101.28 42.1172 100.945 41.9935 100.697 41.7461C100.45 41.4987 100.326 41.1927 100.326 40.8281ZM116.342 35.5742H112.719L112.699 33.7871H115.863C116.397 33.7871 116.85 33.709 117.221 33.5527C117.598 33.39 117.885 33.1589 118.08 32.8594C118.275 32.5534 118.373 32.1855 118.373 31.7559C118.373 31.2806 118.282 30.8932 118.1 30.5938C117.917 30.2943 117.637 30.0762 117.26 29.9395C116.889 29.8027 116.413 29.7344 115.834 29.7344H113.461V42H111.01V27.7812H115.834C116.615 27.7812 117.312 27.8561 117.924 28.0059C118.542 28.1556 119.066 28.39 119.496 28.709C119.932 29.0215 120.261 29.4186 120.482 29.9004C120.71 30.3822 120.824 30.9551 120.824 31.6191C120.824 32.2051 120.684 32.7422 120.404 33.2305C120.124 33.7122 119.711 34.1061 119.164 34.4121C118.617 34.7181 117.937 34.9004 117.123 34.959L116.342 35.5742ZM116.234 42H111.947L113.051 40.0566H116.234C116.788 40.0566 117.25 39.9655 117.621 39.7832C117.992 39.5944 118.269 39.3372 118.451 39.0117C118.64 38.6797 118.734 38.2923 118.734 37.8496C118.734 37.3874 118.653 36.987 118.49 36.6484C118.327 36.3034 118.07 36.0397 117.719 35.8574C117.367 35.6686 116.908 35.5742 116.342 35.5742H113.588L113.607 33.7871H117.191L117.748 34.4609C118.529 34.487 119.171 34.6595 119.672 34.9785C120.18 35.2975 120.557 35.7109 120.805 36.2188C121.052 36.7266 121.176 37.2734 121.176 37.8594C121.176 38.7643 120.977 39.5228 120.58 40.1348C120.189 40.7467 119.626 41.2122 118.891 41.5312C118.155 41.8438 117.27 42 116.234 42ZM125.775 33.4453V42H123.422V31.4336H125.668L125.775 33.4453ZM129.008 31.3652L128.988 33.5527C128.845 33.5267 128.689 33.5072 128.52 33.4941C128.357 33.4811 128.194 33.4746 128.031 33.4746C127.628 33.4746 127.273 33.5332 126.967 33.6504C126.661 33.7611 126.404 33.9238 126.195 34.1387C125.993 34.347 125.837 34.6009 125.727 34.9004C125.616 35.1999 125.551 35.5352 125.531 35.9062L124.994 35.9453C124.994 35.2812 125.059 34.666 125.189 34.0996C125.32 33.5332 125.515 33.0352 125.775 32.6055C126.042 32.1758 126.374 31.8405 126.771 31.5996C127.175 31.3587 127.641 31.2383 128.168 31.2383C128.311 31.2383 128.464 31.2513 128.627 31.2773C128.796 31.3034 128.923 31.3327 129.008 31.3652ZM129.779 36.834V36.6094C129.779 35.8477 129.89 35.1413 130.111 34.4902C130.333 33.8327 130.652 33.263 131.068 32.7812C131.492 32.293 132.006 31.9154 132.611 31.6484C133.223 31.375 133.913 31.2383 134.682 31.2383C135.456 31.2383 136.146 31.375 136.752 31.6484C137.364 31.9154 137.882 32.293 138.305 32.7812C138.728 33.263 139.05 33.8327 139.271 34.4902C139.493 35.1413 139.604 35.8477 139.604 36.6094V36.834C139.604 37.5957 139.493 38.3021 139.271 38.9531C139.05 39.6042 138.728 40.1738 138.305 40.6621C137.882 41.1439 137.367 41.5215 136.762 41.7949C136.156 42.0618 135.469 42.1953 134.701 42.1953C133.926 42.1953 133.233 42.0618 132.621 41.7949C132.016 41.5215 131.501 41.1439 131.078 40.6621C130.655 40.1738 130.333 39.6042 130.111 38.9531C129.89 38.3021 129.779 37.5957 129.779 36.834ZM132.133 36.6094V36.834C132.133 37.3092 132.182 37.7585 132.279 38.1816C132.377 38.6048 132.53 38.9759 132.738 39.2949C132.947 39.6139 133.214 39.8646 133.539 40.0469C133.865 40.2292 134.252 40.3203 134.701 40.3203C135.137 40.3203 135.515 40.2292 135.834 40.0469C136.16 39.8646 136.426 39.6139 136.635 39.2949C136.843 38.9759 136.996 38.6048 137.094 38.1816C137.198 37.7585 137.25 37.3092 137.25 36.834V36.6094C137.25 36.1406 137.198 35.6979 137.094 35.2812C136.996 34.8581 136.84 34.4837 136.625 34.1582C136.417 33.8327 136.15 33.5788 135.824 33.3965C135.505 33.2077 135.124 33.1133 134.682 33.1133C134.239 33.1133 133.855 33.2077 133.529 33.3965C133.21 33.5788 132.947 33.8327 132.738 34.1582C132.53 34.4837 132.377 34.8581 132.279 35.2812C132.182 35.6979 132.133 36.1406 132.133 36.6094ZM144.447 39.6562L146.889 31.4336H148.393L147.982 33.8945L145.521 42H144.174L144.447 39.6562ZM143.012 31.4336L144.916 39.6953L145.072 42H143.568L140.707 31.4336H143.012ZM150.678 39.5977L152.523 31.4336H154.818L151.967 42H150.463L150.678 39.5977ZM148.646 31.4336L151.059 39.5586L151.361 42H150.014L147.523 33.8848L147.113 31.4336H148.646ZM158.754 33.6895V42H156.4V31.4336H158.617L158.754 33.6895ZM158.334 36.3262L157.572 36.3164C157.579 35.5677 157.683 34.8809 157.885 34.2559C158.093 33.6309 158.38 33.0938 158.744 32.6445C159.115 32.1953 159.558 31.8503 160.072 31.6094C160.587 31.362 161.16 31.2383 161.791 31.2383C162.299 31.2383 162.758 31.3099 163.168 31.4531C163.585 31.5898 163.939 31.8145 164.232 32.127C164.532 32.4395 164.76 32.8464 164.916 33.3477C165.072 33.8424 165.15 34.4512 165.15 35.1738V42H162.787V35.1641C162.787 34.6562 162.712 34.2559 162.562 33.9629C162.419 33.6634 162.208 33.4518 161.928 33.3281C161.654 33.1979 161.312 33.1328 160.902 33.1328C160.499 33.1328 160.137 33.2174 159.818 33.3867C159.499 33.556 159.229 33.7871 159.008 34.0801C158.793 34.373 158.627 34.7116 158.51 35.0957C158.393 35.4798 158.334 35.89 158.334 36.3262ZM180.248 38.3379C180.248 38.0449 180.202 37.7845 180.111 37.5566C180.027 37.3288 179.874 37.1204 179.652 36.9316C179.431 36.7428 179.118 36.5605 178.715 36.3848C178.318 36.2025 177.81 36.0169 177.191 35.8281C176.514 35.6198 175.889 35.3887 175.316 35.1348C174.75 34.8743 174.255 34.5749 173.832 34.2363C173.409 33.8913 173.08 33.4974 172.846 33.0547C172.611 32.6055 172.494 32.0879 172.494 31.502C172.494 30.9225 172.615 30.3952 172.855 29.9199C173.103 29.4447 173.451 29.0345 173.9 28.6895C174.356 28.3379 174.893 28.0677 175.512 27.8789C176.13 27.6836 176.814 27.5859 177.562 27.5859C178.617 27.5859 179.525 27.7812 180.287 28.1719C181.055 28.5625 181.645 29.0866 182.055 29.7441C182.471 30.4017 182.68 31.1276 182.68 31.9219H180.248C180.248 31.4531 180.147 31.0397 179.945 30.6816C179.75 30.3171 179.451 30.0306 179.047 29.8223C178.65 29.6139 178.145 29.5098 177.533 29.5098C176.954 29.5098 176.472 29.5977 176.088 29.7734C175.704 29.9492 175.417 30.1868 175.229 30.4863C175.04 30.7858 174.945 31.1243 174.945 31.502C174.945 31.7689 175.007 32.013 175.131 32.2344C175.255 32.4492 175.443 32.651 175.697 32.8398C175.951 33.0221 176.27 33.1947 176.654 33.3574C177.038 33.5202 177.491 33.6764 178.012 33.8262C178.799 34.0605 179.486 34.321 180.072 34.6074C180.658 34.8874 181.146 35.2064 181.537 35.5645C181.928 35.9225 182.221 36.3294 182.416 36.7852C182.611 37.2344 182.709 37.7454 182.709 38.3184C182.709 38.9173 182.589 39.4577 182.348 39.9395C182.107 40.4147 181.762 40.8216 181.312 41.1602C180.87 41.4922 180.336 41.7493 179.711 41.9316C179.092 42.1074 178.402 42.1953 177.641 42.1953C176.957 42.1953 176.283 42.1042 175.619 41.9219C174.962 41.7396 174.363 41.4629 173.822 41.0918C173.282 40.7142 172.852 40.2454 172.533 39.6855C172.214 39.1191 172.055 38.4583 172.055 37.7031H174.506C174.506 38.1654 174.584 38.5592 174.74 38.8848C174.903 39.2103 175.128 39.4772 175.414 39.6855C175.701 39.8874 176.033 40.0371 176.41 40.1348C176.794 40.2324 177.204 40.2812 177.641 40.2812C178.214 40.2812 178.692 40.1999 179.076 40.0371C179.467 39.8743 179.76 39.6465 179.955 39.3535C180.15 39.0605 180.248 38.722 180.248 38.3379ZM186.967 27V42H184.623V27H186.967ZM186.557 36.3262L185.795 36.3164C185.801 35.5872 185.902 34.9134 186.098 34.2949C186.299 33.6764 186.579 33.1393 186.938 32.6836C187.302 32.2214 187.738 31.8665 188.246 31.6191C188.754 31.3652 189.317 31.2383 189.936 31.2383C190.456 31.2383 190.925 31.3099 191.342 31.4531C191.765 31.5964 192.13 31.8275 192.436 32.1465C192.742 32.459 192.973 32.8691 193.129 33.377C193.292 33.8783 193.373 34.4902 193.373 35.2129V42H191.01V35.1934C191.01 34.6855 190.935 34.2819 190.785 33.9824C190.642 33.6829 190.43 33.4681 190.15 33.3379C189.87 33.2012 189.529 33.1328 189.125 33.1328C188.702 33.1328 188.327 33.2174 188.002 33.3867C187.683 33.556 187.416 33.7871 187.201 34.0801C186.986 34.373 186.824 34.7116 186.713 35.0957C186.609 35.4798 186.557 35.89 186.557 36.3262ZM198.275 31.4336V42H195.912V31.4336H198.275ZM195.756 28.6602C195.756 28.3021 195.873 28.0059 196.107 27.7715C196.348 27.5306 196.68 27.4102 197.104 27.4102C197.52 27.4102 197.849 27.5306 198.09 27.7715C198.331 28.0059 198.451 28.3021 198.451 28.6602C198.451 29.0117 198.331 29.3047 198.09 29.5391C197.849 29.7734 197.52 29.8906 197.104 29.8906C196.68 29.8906 196.348 29.7734 196.107 29.5391C195.873 29.3047 195.756 29.0117 195.756 28.6602ZM205.512 42.1953C204.73 42.1953 204.024 42.0684 203.393 41.8145C202.768 41.554 202.234 41.1927 201.791 40.7305C201.355 40.2682 201.02 39.7246 200.785 39.0996C200.551 38.4746 200.434 37.8008 200.434 37.0781V36.6875C200.434 35.8607 200.554 35.112 200.795 34.4414C201.036 33.7708 201.371 33.1979 201.801 32.7227C202.23 32.2409 202.738 31.873 203.324 31.6191C203.91 31.3652 204.545 31.2383 205.229 31.2383C205.984 31.2383 206.645 31.3652 207.211 31.6191C207.777 31.873 208.246 32.2311 208.617 32.6934C208.995 33.1491 209.275 33.6927 209.457 34.3242C209.646 34.9557 209.74 35.6523 209.74 36.4141V37.4199H201.576V35.7305H207.416V35.5449C207.403 35.1217 207.318 34.7246 207.162 34.3535C207.012 33.9824 206.781 33.6829 206.469 33.4551C206.156 33.2272 205.74 33.1133 205.219 33.1133C204.828 33.1133 204.48 33.1979 204.174 33.3672C203.874 33.5299 203.624 33.7676 203.422 34.0801C203.22 34.3926 203.064 34.7702 202.953 35.2129C202.849 35.6491 202.797 36.1406 202.797 36.6875V37.0781C202.797 37.5404 202.859 37.9701 202.982 38.3672C203.113 38.7578 203.301 39.0996 203.549 39.3926C203.796 39.6855 204.096 39.9167 204.447 40.0859C204.799 40.2487 205.199 40.3301 205.648 40.3301C206.215 40.3301 206.719 40.2161 207.162 39.9883C207.605 39.7604 207.989 39.4382 208.314 39.0215L209.555 40.2227C209.327 40.5547 209.031 40.8737 208.666 41.1797C208.301 41.4792 207.855 41.7233 207.328 41.9121C206.807 42.1009 206.202 42.1953 205.512 42.1953ZM214.096 27V42H211.732V27H214.096ZM223.119 39.8125V27H225.482V42H223.344L223.119 39.8125ZM216.244 36.834V36.6289C216.244 35.8281 216.339 35.099 216.527 34.4414C216.716 33.7773 216.99 33.2077 217.348 32.7324C217.706 32.2507 218.142 31.8828 218.656 31.6289C219.171 31.3685 219.75 31.2383 220.395 31.2383C221.033 31.2383 221.592 31.362 222.074 31.6094C222.556 31.8568 222.966 32.2116 223.305 32.6738C223.643 33.1296 223.913 33.6764 224.115 34.3145C224.317 34.946 224.46 35.6491 224.545 36.4238V37.0781C224.46 37.8333 224.317 38.5234 224.115 39.1484C223.913 39.7734 223.643 40.3138 223.305 40.7695C222.966 41.2253 222.553 41.5768 222.064 41.8242C221.583 42.0716 221.02 42.1953 220.375 42.1953C219.737 42.1953 219.161 42.0618 218.646 41.7949C218.139 41.528 217.706 41.1536 217.348 40.6719C216.99 40.1901 216.716 39.6237 216.527 38.9727C216.339 38.3151 216.244 37.6022 216.244 36.834ZM218.598 36.6289V36.834C218.598 37.3158 218.64 37.765 218.725 38.1816C218.816 38.5983 218.956 38.9661 219.145 39.2852C219.333 39.5977 219.577 39.8451 219.877 40.0273C220.183 40.2031 220.548 40.291 220.971 40.291C221.505 40.291 221.944 40.1738 222.289 39.9395C222.634 39.7051 222.904 39.3893 223.1 38.9922C223.301 38.5885 223.438 38.1393 223.51 37.6445V35.877C223.471 35.4928 223.389 35.1348 223.266 34.8027C223.148 34.4707 222.989 34.181 222.787 33.9336C222.585 33.6797 222.335 33.4844 222.035 33.3477C221.742 33.2044 221.394 33.1328 220.99 33.1328C220.561 33.1328 220.196 33.224 219.896 33.4062C219.597 33.5885 219.35 33.8392 219.154 34.1582C218.965 34.4772 218.826 34.8483 218.734 35.2715C218.643 35.6947 218.598 36.1471 218.598 36.6289Z" fill="black"/>
<path opacity="0.65" d="M87.4551 62.2871H88.5801C88.5215 62.8262 88.3672 63.3086 88.1172 63.7344C87.8672 64.1602 87.5137 64.498 87.0566 64.748C86.5996 64.9941 86.0293 65.1172 85.3457 65.1172C84.8457 65.1172 84.3906 65.0234 83.9805 64.8359C83.5742 64.6484 83.2246 64.3828 82.9316 64.0391C82.6387 63.6914 82.4121 63.2754 82.252 62.791C82.0957 62.3027 82.0176 61.7598 82.0176 61.1621V60.3125C82.0176 59.7148 82.0957 59.1738 82.252 58.6895C82.4121 58.2012 82.6406 57.7832 82.9375 57.4355C83.2383 57.0879 83.5996 56.8203 84.0215 56.6328C84.4434 56.4453 84.918 56.3516 85.4453 56.3516C86.0898 56.3516 86.6348 56.4727 87.0801 56.7148C87.5254 56.957 87.8711 57.293 88.1172 57.7227C88.3672 58.1484 88.5215 58.6426 88.5801 59.2051H87.4551C87.4004 58.8066 87.2988 58.4648 87.1504 58.1797C87.002 57.8906 86.791 57.668 86.5176 57.5117C86.2441 57.3555 85.8867 57.2773 85.4453 57.2773C85.0664 57.2773 84.7324 57.3496 84.4434 57.4941C84.1582 57.6387 83.918 57.8438 83.7227 58.1094C83.5312 58.375 83.3867 58.6934 83.2891 59.0645C83.1914 59.4355 83.1426 59.8477 83.1426 60.3008V61.1621C83.1426 61.5801 83.1855 61.9727 83.2715 62.3398C83.3613 62.707 83.4961 63.0293 83.6758 63.3066C83.8555 63.584 84.084 63.8027 84.3613 63.9629C84.6387 64.1191 84.9668 64.1973 85.3457 64.1973C85.8262 64.1973 86.209 64.1211 86.4941 63.9688C86.7793 63.8164 86.9941 63.5977 87.1387 63.3125C87.2871 63.0273 87.3926 62.6855 87.4551 62.2871ZM93.6953 63.916V60.6523C93.6953 60.4023 93.6445 60.1855 93.543 60.002C93.4453 59.8145 93.2969 59.6699 93.0977 59.5684C92.8984 59.4668 92.6523 59.416 92.3594 59.416C92.0859 59.416 91.8457 59.4629 91.6387 59.5566C91.4355 59.6504 91.2754 59.7734 91.1582 59.9258C91.0449 60.0781 90.9883 60.2422 90.9883 60.418H89.9043C89.9043 60.1914 89.9629 59.9668 90.0801 59.7441C90.1973 59.5215 90.3652 59.3203 90.584 59.1406C90.8066 58.957 91.0723 58.8125 91.3809 58.707C91.6934 58.5977 92.041 58.543 92.4238 58.543C92.8848 58.543 93.291 58.6211 93.6426 58.7773C93.998 58.9336 94.2754 59.1699 94.4746 59.4863C94.6777 59.7988 94.7793 60.1914 94.7793 60.6641V63.6172C94.7793 63.8281 94.7969 64.0527 94.832 64.291C94.8711 64.5293 94.9277 64.7344 95.002 64.9062V65H93.8711C93.8164 64.875 93.7734 64.709 93.7422 64.502C93.7109 64.291 93.6953 64.0957 93.6953 63.916ZM93.8828 61.1562L93.8945 61.918H92.7988C92.4902 61.918 92.2148 61.9434 91.9727 61.9941C91.7305 62.041 91.5273 62.1133 91.3633 62.2109C91.1992 62.3086 91.0742 62.4316 90.9883 62.5801C90.9023 62.7246 90.8594 62.8945 90.8594 63.0898C90.8594 63.2891 90.9043 63.4707 90.9941 63.6348C91.084 63.7988 91.2188 63.9297 91.3984 64.0273C91.582 64.1211 91.8066 64.168 92.0723 64.168C92.4043 64.168 92.6973 64.0977 92.9512 63.957C93.2051 63.8164 93.4062 63.6445 93.5547 63.4414C93.707 63.2383 93.7891 63.041 93.8008 62.8496L94.2637 63.3711C94.2363 63.5352 94.1621 63.7168 94.041 63.916C93.9199 64.1152 93.7578 64.3066 93.5547 64.4902C93.3555 64.6699 93.1172 64.8203 92.8398 64.9414C92.5664 65.0586 92.2578 65.1172 91.9141 65.1172C91.4844 65.1172 91.1074 65.0332 90.7832 64.8652C90.4629 64.6973 90.2129 64.4727 90.0332 64.1914C89.8574 63.9062 89.7695 63.5879 89.7695 63.2363C89.7695 62.8965 89.8359 62.5977 89.9688 62.3398C90.1016 62.0781 90.293 61.8613 90.543 61.6895C90.793 61.5137 91.0938 61.3809 91.4453 61.291C91.7969 61.2012 92.1895 61.1562 92.623 61.1562H93.8828ZM97.5684 59.6562V65H96.4844V58.6602H97.5391L97.5684 59.6562ZM99.5488 58.625L99.543 59.6328C99.4531 59.6133 99.3672 59.6016 99.2852 59.5977C99.207 59.5898 99.1172 59.5859 99.0156 59.5859C98.7656 59.5859 98.5449 59.625 98.3535 59.7031C98.1621 59.7812 98 59.8906 97.8672 60.0312C97.7344 60.1719 97.6289 60.3398 97.5508 60.5352C97.4766 60.7266 97.4277 60.9375 97.4043 61.168L97.0996 61.3438C97.0996 60.9609 97.1367 60.6016 97.2109 60.2656C97.2891 59.9297 97.4082 59.6328 97.5684 59.375C97.7285 59.1133 97.9316 58.9102 98.1777 58.7656C98.4277 58.6172 98.7246 58.543 99.0684 58.543C99.1465 58.543 99.2363 58.5527 99.3379 58.5723C99.4395 58.5879 99.5098 58.6055 99.5488 58.625ZM104.43 63.7695V56H105.52V65H104.523L104.43 63.7695ZM100.164 61.9004V61.7773C100.164 61.293 100.223 60.8535 100.34 60.459C100.461 60.0605 100.631 59.7188 100.85 59.4336C101.072 59.1484 101.336 58.9297 101.641 58.7773C101.949 58.6211 102.293 58.543 102.672 58.543C103.07 58.543 103.418 58.6133 103.715 58.7539C104.016 58.8906 104.27 59.0918 104.477 59.3574C104.688 59.6191 104.854 59.9355 104.975 60.3066C105.096 60.6777 105.18 61.0977 105.227 61.5664V62.1055C105.184 62.5703 105.1 62.9883 104.975 63.3594C104.854 63.7305 104.688 64.0469 104.477 64.3086C104.27 64.5703 104.016 64.7715 103.715 64.9121C103.414 65.0488 103.062 65.1172 102.66 65.1172C102.289 65.1172 101.949 65.0371 101.641 64.877C101.336 64.7168 101.072 64.4922 100.85 64.2031C100.631 63.9141 100.461 63.5742 100.34 63.1836C100.223 62.7891 100.164 62.3613 100.164 61.9004ZM101.254 61.7773V61.9004C101.254 62.2168 101.285 62.5137 101.348 62.791C101.414 63.0684 101.516 63.3125 101.652 63.5234C101.789 63.7344 101.963 63.9004 102.174 64.0215C102.385 64.1387 102.637 64.1973 102.93 64.1973C103.289 64.1973 103.584 64.1211 103.814 63.9688C104.049 63.8164 104.236 63.6152 104.377 63.3652C104.518 63.1152 104.627 62.8438 104.705 62.5508V61.1387C104.658 60.9238 104.59 60.7168 104.5 60.5176C104.414 60.3145 104.301 60.1348 104.16 59.9785C104.023 59.8184 103.854 59.6914 103.65 59.5977C103.451 59.5039 103.215 59.457 102.941 59.457C102.645 59.457 102.389 59.5195 102.174 59.6445C101.963 59.7656 101.789 59.9336 101.652 60.1484C101.516 60.3594 101.414 60.6055 101.348 60.8867C101.285 61.1641 101.254 61.4609 101.254 61.7773ZM108.385 58.6602V65H107.295V58.6602H108.385ZM107.213 56.9785C107.213 56.8027 107.266 56.6543 107.371 56.5332C107.48 56.4121 107.641 56.3516 107.852 56.3516C108.059 56.3516 108.217 56.4121 108.326 56.5332C108.439 56.6543 108.496 56.8027 108.496 56.9785C108.496 57.1465 108.439 57.291 108.326 57.4121C108.217 57.5293 108.059 57.5879 107.852 57.5879C107.641 57.5879 107.48 57.5293 107.371 57.4121C107.266 57.291 107.213 57.1465 107.213 56.9785ZM109.838 61.9004V61.7656C109.838 61.3086 109.904 60.8848 110.037 60.4941C110.17 60.0996 110.361 59.7578 110.611 59.4688C110.861 59.1758 111.164 58.9492 111.52 58.7891C111.875 58.625 112.273 58.543 112.715 58.543C113.16 58.543 113.561 58.625 113.916 58.7891C114.275 58.9492 114.58 59.1758 114.83 59.4688C115.084 59.7578 115.277 60.0996 115.41 60.4941C115.543 60.8848 115.609 61.3086 115.609 61.7656V61.9004C115.609 62.3574 115.543 62.7812 115.41 63.1719C115.277 63.5625 115.084 63.9043 114.83 64.1973C114.58 64.4863 114.277 64.7129 113.922 64.877C113.57 65.0371 113.172 65.1172 112.727 65.1172C112.281 65.1172 111.881 65.0371 111.525 64.877C111.17 64.7129 110.865 64.4863 110.611 64.1973C110.361 63.9043 110.17 63.5625 110.037 63.1719C109.904 62.7812 109.838 62.3574 109.838 61.9004ZM110.922 61.7656V61.9004C110.922 62.2168 110.959 62.5156 111.033 62.7969C111.107 63.0742 111.219 63.3203 111.367 63.5352C111.52 63.75 111.709 63.9199 111.936 64.0449C112.162 64.166 112.426 64.2266 112.727 64.2266C113.023 64.2266 113.283 64.166 113.506 64.0449C113.732 63.9199 113.92 63.75 114.068 63.5352C114.217 63.3203 114.328 63.0742 114.402 62.7969C114.48 62.5156 114.52 62.2168 114.52 61.9004V61.7656C114.52 61.4531 114.48 61.1582 114.402 60.8809C114.328 60.5996 114.215 60.3516 114.062 60.1367C113.914 59.918 113.727 59.7461 113.5 59.6211C113.277 59.4961 113.016 59.4336 112.715 59.4336C112.418 59.4336 112.156 59.4961 111.93 59.6211C111.707 59.7461 111.52 59.918 111.367 60.1367C111.219 60.3516 111.107 60.5996 111.033 60.8809C110.959 61.1582 110.922 61.4531 110.922 61.7656ZM118.146 56V65H117.057V56H118.146ZM119.6 61.9004V61.7656C119.6 61.3086 119.666 60.8848 119.799 60.4941C119.932 60.0996 120.123 59.7578 120.373 59.4688C120.623 59.1758 120.926 58.9492 121.281 58.7891C121.637 58.625 122.035 58.543 122.477 58.543C122.922 58.543 123.322 58.625 123.678 58.7891C124.037 58.9492 124.342 59.1758 124.592 59.4688C124.846 59.7578 125.039 60.0996 125.172 60.4941C125.305 60.8848 125.371 61.3086 125.371 61.7656V61.9004C125.371 62.3574 125.305 62.7812 125.172 63.1719C125.039 63.5625 124.846 63.9043 124.592 64.1973C124.342 64.4863 124.039 64.7129 123.684 64.877C123.332 65.0371 122.934 65.1172 122.488 65.1172C122.043 65.1172 121.643 65.0371 121.287 64.877C120.932 64.7129 120.627 64.4863 120.373 64.1973C120.123 63.9043 119.932 63.5625 119.799 63.1719C119.666 62.7812 119.6 62.3574 119.6 61.9004ZM120.684 61.7656V61.9004C120.684 62.2168 120.721 62.5156 120.795 62.7969C120.869 63.0742 120.98 63.3203 121.129 63.5352C121.281 63.75 121.471 63.9199 121.697 64.0449C121.924 64.166 122.188 64.2266 122.488 64.2266C122.785 64.2266 123.045 64.166 123.268 64.0449C123.494 63.9199 123.682 63.75 123.83 63.5352C123.979 63.3203 124.09 63.0742 124.164 62.7969C124.242 62.5156 124.281 62.2168 124.281 61.9004V61.7656C124.281 61.4531 124.242 61.1582 124.164 60.8809C124.09 60.5996 123.977 60.3516 123.824 60.1367C123.676 59.918 123.488 59.7461 123.262 59.6211C123.039 59.4961 122.777 59.4336 122.477 59.4336C122.18 59.4336 121.918 59.4961 121.691 59.6211C121.469 59.7461 121.281 59.918 121.129 60.1367C120.98 60.3516 120.869 60.5996 120.795 60.8809C120.721 61.1582 120.684 61.4531 120.684 61.7656ZM130.838 58.6602H131.822V64.8652C131.822 65.4238 131.709 65.9004 131.482 66.2949C131.256 66.6895 130.939 66.9883 130.533 67.1914C130.131 67.3984 129.666 67.502 129.139 67.502C128.92 67.502 128.662 67.4668 128.365 67.3965C128.072 67.3301 127.783 67.2148 127.498 67.0508C127.217 66.8906 126.98 66.6738 126.789 66.4004L127.357 65.7559C127.623 66.0762 127.9 66.2988 128.189 66.4238C128.482 66.5488 128.771 66.6113 129.057 66.6113C129.4 66.6113 129.697 66.5469 129.947 66.418C130.197 66.2891 130.391 66.0977 130.527 65.8438C130.668 65.5938 130.738 65.2852 130.738 64.918V60.0547L130.838 58.6602ZM126.473 61.9004V61.7773C126.473 61.293 126.529 60.8535 126.643 60.459C126.76 60.0605 126.926 59.7188 127.141 59.4336C127.359 59.1484 127.623 58.9297 127.932 58.7773C128.24 58.6211 128.588 58.543 128.975 58.543C129.373 58.543 129.721 58.6133 130.018 58.7539C130.318 58.8906 130.572 59.0918 130.779 59.3574C130.99 59.6191 131.156 59.9355 131.277 60.3066C131.398 60.6777 131.482 61.0977 131.529 61.5664V62.1055C131.486 62.5703 131.402 62.9883 131.277 63.3594C131.156 63.7305 130.99 64.0469 130.779 64.3086C130.572 64.5703 130.318 64.7715 130.018 64.9121C129.717 65.0488 129.365 65.1172 128.963 65.1172C128.584 65.1172 128.24 65.0371 127.932 64.877C127.627 64.7168 127.365 64.4922 127.146 64.2031C126.928 63.9141 126.76 63.5742 126.643 63.1836C126.529 62.7891 126.473 62.3613 126.473 61.9004ZM127.557 61.7773V61.9004C127.557 62.2168 127.588 62.5137 127.65 62.791C127.717 63.0684 127.816 63.3125 127.949 63.5234C128.086 63.7344 128.26 63.9004 128.471 64.0215C128.682 64.1387 128.934 64.1973 129.227 64.1973C129.586 64.1973 129.883 64.1211 130.117 63.9688C130.352 63.8164 130.537 63.6152 130.674 63.3652C130.814 63.1152 130.924 62.8438 131.002 62.5508V61.1387C130.959 60.9238 130.893 60.7168 130.803 60.5176C130.717 60.3145 130.604 60.1348 130.463 59.9785C130.326 59.8184 130.156 59.6914 129.953 59.5977C129.75 59.5039 129.512 59.457 129.238 59.457C128.941 59.457 128.686 59.5195 128.471 59.6445C128.26 59.7656 128.086 59.9336 127.949 60.1484C127.816 60.3594 127.717 60.6055 127.65 60.8867C127.588 61.1641 127.557 61.4609 127.557 61.7773ZM134.646 58.6602V65H133.557V58.6602H134.646ZM133.475 56.9785C133.475 56.8027 133.527 56.6543 133.633 56.5332C133.742 56.4121 133.902 56.3516 134.113 56.3516C134.32 56.3516 134.479 56.4121 134.588 56.5332C134.701 56.6543 134.758 56.8027 134.758 56.9785C134.758 57.1465 134.701 57.291 134.588 57.4121C134.479 57.5293 134.32 57.5879 134.113 57.5879C133.902 57.5879 133.742 57.5293 133.633 57.4121C133.527 57.291 133.475 57.1465 133.475 56.9785ZM140.078 63.3184C140.078 63.1621 140.043 63.0176 139.973 62.8848C139.906 62.748 139.768 62.625 139.557 62.5156C139.35 62.4023 139.037 62.3047 138.619 62.2227C138.268 62.1484 137.949 62.0605 137.664 61.959C137.383 61.8574 137.143 61.7344 136.943 61.5898C136.748 61.4453 136.598 61.2754 136.492 61.0801C136.387 60.8848 136.334 60.6562 136.334 60.3945C136.334 60.1445 136.389 59.9082 136.498 59.6855C136.611 59.4629 136.77 59.2656 136.973 59.0938C137.18 58.9219 137.428 58.7871 137.717 58.6895C138.006 58.5918 138.328 58.543 138.684 58.543C139.191 58.543 139.625 58.6328 139.984 58.8125C140.344 58.9922 140.619 59.2324 140.811 59.5332C141.002 59.8301 141.098 60.1602 141.098 60.5234H140.014C140.014 60.3477 139.961 60.1777 139.855 60.0137C139.754 59.8457 139.604 59.707 139.404 59.5977C139.209 59.4883 138.969 59.4336 138.684 59.4336C138.383 59.4336 138.139 59.4805 137.951 59.5742C137.768 59.6641 137.633 59.7793 137.547 59.9199C137.465 60.0605 137.424 60.209 137.424 60.3652C137.424 60.4824 137.443 60.5879 137.482 60.6816C137.525 60.7715 137.6 60.8555 137.705 60.9336C137.811 61.0078 137.959 61.0781 138.15 61.1445C138.342 61.2109 138.586 61.2773 138.883 61.3438C139.402 61.4609 139.83 61.6016 140.166 61.7656C140.502 61.9297 140.752 62.1309 140.916 62.3691C141.08 62.6074 141.162 62.8965 141.162 63.2363C141.162 63.5137 141.104 63.7676 140.986 63.998C140.873 64.2285 140.707 64.4277 140.488 64.5957C140.273 64.7598 140.016 64.8887 139.715 64.9824C139.418 65.0723 139.084 65.1172 138.713 65.1172C138.154 65.1172 137.682 65.0176 137.295 64.8184C136.908 64.6191 136.615 64.3613 136.416 64.0449C136.217 63.7285 136.117 63.3945 136.117 63.043H137.207C137.223 63.3398 137.309 63.5762 137.465 63.752C137.621 63.9238 137.812 64.0469 138.039 64.1211C138.266 64.1914 138.49 64.2266 138.713 64.2266C139.01 64.2266 139.258 64.1875 139.457 64.1094C139.66 64.0312 139.814 63.9238 139.92 63.7871C140.025 63.6504 140.078 63.4941 140.078 63.3184ZM145.24 58.6602V59.4922H141.812V58.6602H145.24ZM142.973 57.1191H144.057V63.4297C144.057 63.6445 144.09 63.8066 144.156 63.916C144.223 64.0254 144.309 64.0977 144.414 64.1328C144.52 64.168 144.633 64.1855 144.754 64.1855C144.844 64.1855 144.938 64.1777 145.035 64.1621C145.137 64.1426 145.213 64.127 145.264 64.1152L145.27 65C145.184 65.0273 145.07 65.0527 144.93 65.0762C144.793 65.1035 144.627 65.1172 144.432 65.1172C144.166 65.1172 143.922 65.0645 143.699 64.959C143.477 64.8535 143.299 64.6777 143.166 64.4316C143.037 64.1816 142.973 63.8457 142.973 63.4238V57.1191Z" fill="black"/>
<path opacity="0.65" d="M316.789 61.1094V62H311.205V61.2207L314 58.1094C314.344 57.7266 314.609 57.4023 314.797 57.1367C314.988 56.8672 315.121 56.627 315.195 56.416C315.273 56.2012 315.312 55.9824 315.312 55.7598C315.312 55.4785 315.254 55.2246 315.137 54.998C315.023 54.7676 314.855 54.584 314.633 54.4473C314.41 54.3105 314.141 54.2422 313.824 54.2422C313.445 54.2422 313.129 54.3164 312.875 54.4648C312.625 54.6094 312.438 54.8125 312.312 55.0742C312.188 55.3359 312.125 55.6367 312.125 55.9766H311.041C311.041 55.4961 311.146 55.0566 311.357 54.6582C311.568 54.2598 311.881 53.9434 312.295 53.709C312.709 53.4707 313.219 53.3516 313.824 53.3516C314.363 53.3516 314.824 53.4473 315.207 53.6387C315.59 53.8262 315.883 54.0918 316.086 54.4355C316.293 54.7754 316.396 55.1738 316.396 55.6309C316.396 55.8809 316.354 56.1348 316.268 56.3926C316.186 56.6465 316.07 56.9004 315.922 57.1543C315.777 57.4082 315.607 57.6582 315.412 57.9043C315.221 58.1504 315.016 58.3926 314.797 58.6309L312.512 61.1094H316.789ZM318.084 61.4258C318.084 61.2422 318.141 61.0879 318.254 60.9629C318.371 60.834 318.539 60.7695 318.758 60.7695C318.977 60.7695 319.143 60.834 319.256 60.9629C319.373 61.0879 319.432 61.2422 319.432 61.4258C319.432 61.6055 319.373 61.7578 319.256 61.8828C319.143 62.0078 318.977 62.0703 318.758 62.0703C318.539 62.0703 318.371 62.0078 318.254 61.8828C318.141 61.7578 318.084 61.6055 318.084 61.4258ZM322.695 57.2012H323.469C323.848 57.2012 324.16 57.1387 324.406 57.0137C324.656 56.8848 324.842 56.7109 324.963 56.4922C325.088 56.2695 325.15 56.0195 325.15 55.7422C325.15 55.4141 325.096 55.1387 324.986 54.916C324.877 54.6934 324.713 54.5254 324.494 54.4121C324.275 54.2988 323.998 54.2422 323.662 54.2422C323.357 54.2422 323.088 54.3027 322.854 54.4238C322.623 54.541 322.441 54.709 322.309 54.9277C322.18 55.1465 322.115 55.4043 322.115 55.7012H321.031C321.031 55.2676 321.141 54.873 321.359 54.5176C321.578 54.1621 321.885 53.8789 322.279 53.668C322.678 53.457 323.139 53.3516 323.662 53.3516C324.178 53.3516 324.629 53.4434 325.016 53.627C325.402 53.8066 325.703 54.0762 325.918 54.4355C326.133 54.791 326.24 55.2344 326.24 55.7656C326.24 55.9805 326.189 56.2109 326.088 56.457C325.99 56.6992 325.836 56.9258 325.625 57.1367C325.418 57.3477 325.148 57.5215 324.816 57.6582C324.484 57.791 324.086 57.8574 323.621 57.8574H322.695V57.2012ZM322.695 58.0918V57.4414H323.621C324.164 57.4414 324.613 57.5059 324.969 57.6348C325.324 57.7637 325.604 57.9355 325.807 58.1504C326.014 58.3652 326.158 58.6016 326.24 58.8594C326.326 59.1133 326.369 59.3672 326.369 59.6211C326.369 60.0195 326.301 60.373 326.164 60.6816C326.031 60.9902 325.842 61.252 325.596 61.4668C325.354 61.6816 325.068 61.8438 324.74 61.9531C324.412 62.0625 324.055 62.1172 323.668 62.1172C323.297 62.1172 322.947 62.0645 322.619 61.959C322.295 61.8535 322.008 61.7012 321.758 61.502C321.508 61.2988 321.312 61.0508 321.172 60.7578C321.031 60.4609 320.961 60.123 320.961 59.7441H322.045C322.045 60.041 322.109 60.3008 322.238 60.5234C322.371 60.7461 322.559 60.9199 322.801 61.0449C323.047 61.166 323.336 61.2266 323.668 61.2266C324 61.2266 324.285 61.1699 324.523 61.0566C324.766 60.9395 324.951 60.7637 325.08 60.5293C325.213 60.2949 325.279 60 325.279 59.6445C325.279 59.2891 325.205 58.998 325.057 58.7715C324.908 58.541 324.697 58.3711 324.424 58.2617C324.154 58.1484 323.836 58.0918 323.469 58.0918H322.695ZM329.445 57.2012H330.219C330.598 57.2012 330.91 57.1387 331.156 57.0137C331.406 56.8848 331.592 56.7109 331.713 56.4922C331.838 56.2695 331.9 56.0195 331.9 55.7422C331.9 55.4141 331.846 55.1387 331.736 54.916C331.627 54.6934 331.463 54.5254 331.244 54.4121C331.025 54.2988 330.748 54.2422 330.412 54.2422C330.107 54.2422 329.838 54.3027 329.604 54.4238C329.373 54.541 329.191 54.709 329.059 54.9277C328.93 55.1465 328.865 55.4043 328.865 55.7012H327.781C327.781 55.2676 327.891 54.873 328.109 54.5176C328.328 54.1621 328.635 53.8789 329.029 53.668C329.428 53.457 329.889 53.3516 330.412 53.3516C330.928 53.3516 331.379 53.4434 331.766 53.627C332.152 53.8066 332.453 54.0762 332.668 54.4355C332.883 54.791 332.99 55.2344 332.99 55.7656C332.99 55.9805 332.939 56.2109 332.838 56.457C332.74 56.6992 332.586 56.9258 332.375 57.1367C332.168 57.3477 331.898 57.5215 331.566 57.6582C331.234 57.791 330.836 57.8574 330.371 57.8574H329.445V57.2012ZM329.445 58.0918V57.4414H330.371C330.914 57.4414 331.363 57.5059 331.719 57.6348C332.074 57.7637 332.354 57.9355 332.557 58.1504C332.764 58.3652 332.908 58.6016 332.99 58.8594C333.076 59.1133 333.119 59.3672 333.119 59.6211C333.119 60.0195 333.051 60.373 332.914 60.6816C332.781 60.9902 332.592 61.252 332.346 61.4668C332.104 61.6816 331.818 61.8438 331.49 61.9531C331.162 62.0625 330.805 62.1172 330.418 62.1172C330.047 62.1172 329.697 62.0645 329.369 61.959C329.045 61.8535 328.758 61.7012 328.508 61.502C328.258 61.2988 328.062 61.0508 327.922 60.7578C327.781 60.4609 327.711 60.123 327.711 59.7441H328.795C328.795 60.041 328.859 60.3008 328.988 60.5234C329.121 60.7461 329.309 60.9199 329.551 61.0449C329.797 61.166 330.086 61.2266 330.418 61.2266C330.75 61.2266 331.035 61.1699 331.273 61.0566C331.516 60.9395 331.701 60.7637 331.83 60.5293C331.963 60.2949 332.029 60 332.029 59.6445C332.029 59.2891 331.955 58.998 331.807 58.7715C331.658 58.541 331.447 58.3711 331.174 58.2617C330.904 58.1484 330.586 58.0918 330.219 58.0918H329.445ZM335.82 53V62H334.73V53H335.82ZM339.693 55.6602L336.928 58.6191L335.381 60.2246L335.293 59.0703L336.4 57.7461L338.369 55.6602H339.693ZM338.703 62L336.441 58.9766L337.004 58.0098L339.98 62H338.703ZM341.891 56.9199V62H340.801V55.6602H341.832L341.891 56.9199ZM341.668 58.5898L341.164 58.5723C341.168 58.1387 341.225 57.7383 341.334 57.3711C341.443 57 341.605 56.6777 341.82 56.4043C342.035 56.1309 342.303 55.9199 342.623 55.7715C342.943 55.6191 343.314 55.543 343.736 55.543C344.033 55.543 344.307 55.5859 344.557 55.6719C344.807 55.7539 345.023 55.8848 345.207 56.0645C345.391 56.2441 345.533 56.4746 345.635 56.7559C345.736 57.0371 345.787 57.377 345.787 57.7754V62H344.703V57.8281C344.703 57.4961 344.646 57.2305 344.533 57.0312C344.424 56.832 344.268 56.6875 344.064 56.5977C343.861 56.5039 343.623 56.457 343.35 56.457C343.029 56.457 342.762 56.5137 342.547 56.627C342.332 56.7402 342.16 56.8965 342.031 57.0957C341.902 57.2949 341.809 57.5234 341.75 57.7812C341.695 58.0352 341.668 58.3047 341.668 58.5898ZM345.775 57.9922L345.049 58.2148C345.053 57.8672 345.109 57.5332 345.219 57.2129C345.332 56.8926 345.494 56.6074 345.705 56.3574C345.92 56.1074 346.184 55.9102 346.496 55.7656C346.809 55.6172 347.166 55.543 347.568 55.543C347.908 55.543 348.209 55.5879 348.471 55.6777C348.736 55.7676 348.959 55.9062 349.139 56.0938C349.322 56.2773 349.461 56.5137 349.555 56.8027C349.648 57.0918 349.695 57.4355 349.695 57.834V62H348.605V57.8223C348.605 57.4668 348.549 57.1914 348.436 56.9961C348.326 56.7969 348.17 56.6582 347.967 56.5801C347.768 56.498 347.529 56.457 347.252 56.457C347.014 56.457 346.803 56.498 346.619 56.5801C346.436 56.6621 346.281 56.7754 346.156 56.9199C346.031 57.0605 345.936 57.2227 345.869 57.4062C345.807 57.5898 345.775 57.7852 345.775 57.9922Z" fill="black"/>
<path opacity="0.65" d="M97.3457 75.4219V84H96.2617V76.7754L94.0762 77.5723V76.5938L97.1758 75.4219H97.3457ZM105.912 81.6914C105.912 82.2109 105.791 82.6523 105.549 83.0156C105.311 83.375 104.986 83.6484 104.576 83.8359C104.17 84.0234 103.711 84.1172 103.199 84.1172C102.688 84.1172 102.227 84.0234 101.816 83.8359C101.406 83.6484 101.082 83.375 100.844 83.0156C100.605 82.6523 100.486 82.2109 100.486 81.6914C100.486 81.3516 100.551 81.041 100.68 80.7598C100.812 80.4746 100.998 80.2266 101.236 80.0156C101.479 79.8047 101.764 79.6426 102.092 79.5293C102.424 79.4121 102.789 79.3535 103.188 79.3535C103.711 79.3535 104.178 79.4551 104.588 79.6582C104.998 79.8574 105.32 80.1328 105.555 80.4844C105.793 80.8359 105.912 81.2383 105.912 81.6914ZM104.822 81.668C104.822 81.3516 104.754 81.0723 104.617 80.8301C104.48 80.584 104.289 80.3926 104.043 80.2559C103.797 80.1191 103.512 80.0508 103.188 80.0508C102.855 80.0508 102.568 80.1191 102.326 80.2559C102.088 80.3926 101.902 80.584 101.77 80.8301C101.637 81.0723 101.57 81.3516 101.57 81.668C101.57 81.9961 101.635 82.2773 101.764 82.5117C101.896 82.7422 102.084 82.9199 102.326 83.0449C102.572 83.166 102.863 83.2266 103.199 83.2266C103.535 83.2266 103.824 83.166 104.066 83.0449C104.309 82.9199 104.494 82.7422 104.623 82.5117C104.756 82.2773 104.822 81.9961 104.822 81.668ZM105.713 77.6895C105.713 78.1035 105.604 78.4766 105.385 78.8086C105.166 79.1406 104.867 79.4023 104.488 79.5938C104.109 79.7852 103.68 79.8809 103.199 79.8809C102.711 79.8809 102.275 79.7852 101.893 79.5938C101.514 79.4023 101.217 79.1406 101.002 78.8086C100.787 78.4766 100.68 78.1035 100.68 77.6895C100.68 77.1934 100.787 76.7715 101.002 76.4238C101.221 76.0762 101.52 75.8105 101.898 75.627C102.277 75.4434 102.709 75.3516 103.193 75.3516C103.682 75.3516 104.115 75.4434 104.494 75.627C104.873 75.8105 105.17 76.0762 105.385 76.4238C105.604 76.7715 105.713 77.1934 105.713 77.6895ZM104.629 77.707C104.629 77.4219 104.568 77.1699 104.447 76.9512C104.326 76.7324 104.158 76.5605 103.943 76.4355C103.729 76.3066 103.479 76.2422 103.193 76.2422C102.908 76.2422 102.658 76.3027 102.443 76.4238C102.232 76.541 102.066 76.709 101.945 76.9277C101.828 77.1465 101.77 77.4062 101.77 77.707C101.77 78 101.828 78.2559 101.945 78.4746C102.066 78.6934 102.234 78.8633 102.449 78.9844C102.664 79.1055 102.914 79.166 103.199 79.166C103.484 79.166 103.732 79.1055 103.943 78.9844C104.158 78.8633 104.326 78.6934 104.447 78.4746C104.568 78.2559 104.629 78 104.629 77.707ZM108.654 79.9395L107.787 79.7168L108.215 75.4688H112.592V76.4707H109.135L108.877 78.791C109.033 78.7012 109.23 78.6172 109.469 78.5391C109.711 78.4609 109.988 78.4219 110.301 78.4219C110.695 78.4219 111.049 78.4902 111.361 78.627C111.674 78.7598 111.939 78.9512 112.158 79.2012C112.381 79.4512 112.551 79.752 112.668 80.1035C112.785 80.4551 112.844 80.8477 112.844 81.2812C112.844 81.6914 112.787 82.0684 112.674 82.4121C112.564 82.7559 112.398 83.0566 112.176 83.3145C111.953 83.5684 111.672 83.7656 111.332 83.9062C110.996 84.0469 110.6 84.1172 110.143 84.1172C109.799 84.1172 109.473 84.0703 109.164 83.9766C108.859 83.8789 108.586 83.7324 108.344 83.5371C108.105 83.3379 107.91 83.0918 107.758 82.7988C107.609 82.502 107.516 82.1543 107.477 81.7559H108.508C108.555 82.0762 108.648 82.3457 108.789 82.5645C108.93 82.7832 109.113 82.9492 109.34 83.0625C109.57 83.1719 109.838 83.2266 110.143 83.2266C110.4 83.2266 110.629 83.1816 110.828 83.0918C111.027 83.002 111.195 82.873 111.332 82.7051C111.469 82.5371 111.572 82.334 111.643 82.0957C111.717 81.8574 111.754 81.5898 111.754 81.293C111.754 81.0234 111.717 80.7734 111.643 80.543C111.568 80.3125 111.457 80.1113 111.309 79.9395C111.164 79.7676 110.986 79.6348 110.775 79.541C110.564 79.4434 110.322 79.3945 110.049 79.3945C109.686 79.3945 109.41 79.4434 109.223 79.541C109.039 79.6387 108.85 79.7715 108.654 79.9395ZM120.449 76.2246L117.625 84H116.471L119.723 75.4688H120.467L120.449 76.2246ZM122.816 84L119.986 76.2246L119.969 75.4688H120.713L123.977 84H122.816ZM122.67 80.8418V81.7676H117.877V80.8418H122.67ZM127.504 77.6602V78.4922H124.076V77.6602H127.504ZM125.236 76.1191H126.32V82.4297C126.32 82.6445 126.354 82.8066 126.42 82.916C126.486 83.0254 126.572 83.0977 126.678 83.1328C126.783 83.168 126.896 83.1855 127.018 83.1855C127.107 83.1855 127.201 83.1777 127.299 83.1621C127.4 83.1426 127.477 83.127 127.527 83.1152L127.533 84C127.447 84.0273 127.334 84.0527 127.193 84.0762C127.057 84.1035 126.891 84.1172 126.695 84.1172C126.43 84.1172 126.186 84.0645 125.963 83.959C125.74 83.8535 125.562 83.6777 125.43 83.4316C125.301 83.1816 125.236 82.8457 125.236 82.4238V76.1191ZM131.43 77.6602V78.4922H128.002V77.6602H131.43ZM129.162 76.1191H130.246V82.4297C130.246 82.6445 130.279 82.8066 130.346 82.916C130.412 83.0254 130.498 83.0977 130.604 83.1328C130.709 83.168 130.822 83.1855 130.943 83.1855C131.033 83.1855 131.127 83.1777 131.225 83.1621C131.326 83.1426 131.402 83.127 131.453 83.1152L131.459 84C131.373 84.0273 131.26 84.0527 131.119 84.0762C130.982 84.1035 130.816 84.1172 130.621 84.1172C130.355 84.1172 130.111 84.0645 129.889 83.959C129.666 83.8535 129.488 83.6777 129.355 83.4316C129.227 83.1816 129.162 82.8457 129.162 82.4238V76.1191ZM136.439 82.916V79.6523C136.439 79.4023 136.389 79.1855 136.287 79.002C136.189 78.8145 136.041 78.6699 135.842 78.5684C135.643 78.4668 135.396 78.416 135.104 78.416C134.83 78.416 134.59 78.4629 134.383 78.5566C134.18 78.6504 134.02 78.7734 133.902 78.9258C133.789 79.0781 133.732 79.2422 133.732 79.418H132.648C132.648 79.1914 132.707 78.9668 132.824 78.7441C132.941 78.5215 133.109 78.3203 133.328 78.1406C133.551 77.957 133.816 77.8125 134.125 77.707C134.438 77.5977 134.785 77.543 135.168 77.543C135.629 77.543 136.035 77.6211 136.387 77.7773C136.742 77.9336 137.02 78.1699 137.219 78.4863C137.422 78.7988 137.523 79.1914 137.523 79.6641V82.6172C137.523 82.8281 137.541 83.0527 137.576 83.291C137.615 83.5293 137.672 83.7344 137.746 83.9062V84H136.615C136.561 83.875 136.518 83.709 136.486 83.502C136.455 83.291 136.439 83.0957 136.439 82.916ZM136.627 80.1562L136.639 80.918H135.543C135.234 80.918 134.959 80.9434 134.717 80.9941C134.475 81.041 134.271 81.1133 134.107 81.2109C133.943 81.3086 133.818 81.4316 133.732 81.5801C133.646 81.7246 133.604 81.8945 133.604 82.0898C133.604 82.2891 133.648 82.4707 133.738 82.6348C133.828 82.7988 133.963 82.9297 134.143 83.0273C134.326 83.1211 134.551 83.168 134.816 83.168C135.148 83.168 135.441 83.0977 135.695 82.957C135.949 82.8164 136.15 82.6445 136.299 82.4414C136.451 82.2383 136.533 82.041 136.545 81.8496L137.008 82.3711C136.98 82.5352 136.906 82.7168 136.785 82.916C136.664 83.1152 136.502 83.3066 136.299 83.4902C136.1 83.6699 135.861 83.8203 135.584 83.9414C135.311 84.0586 135.002 84.1172 134.658 84.1172C134.229 84.1172 133.852 84.0332 133.527 83.8652C133.207 83.6973 132.957 83.4727 132.777 83.1914C132.602 82.9062 132.514 82.5879 132.514 82.2363C132.514 81.8965 132.58 81.5977 132.713 81.3398C132.846 81.0781 133.037 80.8613 133.287 80.6895C133.537 80.5137 133.838 80.3809 134.189 80.291C134.541 80.2012 134.934 80.1562 135.367 80.1562H136.627ZM140.834 82.875L142.463 77.6602H143.178L143.037 78.6973L141.379 84H140.682L140.834 82.875ZM139.738 77.6602L141.127 82.9336L141.227 84H140.494L138.654 77.6602H139.738ZM144.736 82.8926L146.061 77.6602H147.139L145.299 84H144.572L144.736 82.8926ZM143.336 77.6602L144.93 82.7871L145.111 84H144.42L142.715 78.6855L142.574 77.6602H143.336ZM151.99 82.916V79.6523C151.99 79.4023 151.939 79.1855 151.838 79.002C151.74 78.8145 151.592 78.6699 151.393 78.5684C151.193 78.4668 150.947 78.416 150.654 78.416C150.381 78.416 150.141 78.4629 149.934 78.5566C149.73 78.6504 149.57 78.7734 149.453 78.9258C149.34 79.0781 149.283 79.2422 149.283 79.418H148.199C148.199 79.1914 148.258 78.9668 148.375 78.7441C148.492 78.5215 148.66 78.3203 148.879 78.1406C149.102 77.957 149.367 77.8125 149.676 77.707C149.988 77.5977 150.336 77.543 150.719 77.543C151.18 77.543 151.586 77.6211 151.938 77.7773C152.293 77.9336 152.57 78.1699 152.77 78.4863C152.973 78.7988 153.074 79.1914 153.074 79.6641V82.6172C153.074 82.8281 153.092 83.0527 153.127 83.291C153.166 83.5293 153.223 83.7344 153.297 83.9062V84H152.166C152.111 83.875 152.068 83.709 152.037 83.502C152.006 83.291 151.99 83.0957 151.99 82.916ZM152.178 80.1562L152.189 80.918H151.094C150.785 80.918 150.51 80.9434 150.268 80.9941C150.025 81.041 149.822 81.1133 149.658 81.2109C149.494 81.3086 149.369 81.4316 149.283 81.5801C149.197 81.7246 149.154 81.8945 149.154 82.0898C149.154 82.2891 149.199 82.4707 149.289 82.6348C149.379 82.7988 149.514 82.9297 149.693 83.0273C149.877 83.1211 150.102 83.168 150.367 83.168C150.699 83.168 150.992 83.0977 151.246 82.957C151.5 82.8164 151.701 82.6445 151.85 82.4414C152.002 82.2383 152.084 82.041 152.096 81.8496L152.559 82.3711C152.531 82.5352 152.457 82.7168 152.336 82.916C152.215 83.1152 152.053 83.3066 151.85 83.4902C151.65 83.6699 151.412 83.8203 151.135 83.9414C150.861 84.0586 150.553 84.1172 150.209 84.1172C149.779 84.1172 149.402 84.0332 149.078 83.8652C148.758 83.6973 148.508 83.4727 148.328 83.1914C148.152 82.9062 148.064 82.5879 148.064 82.2363C148.064 81.8965 148.131 81.5977 148.264 81.3398C148.396 81.0781 148.588 80.8613 148.838 80.6895C149.088 80.5137 149.389 80.3809 149.74 80.291C150.092 80.2012 150.484 80.1562 150.918 80.1562H152.178ZM156.467 83.3438L158.23 77.6602H159.391L156.848 84.9785C156.789 85.1348 156.711 85.3027 156.613 85.4824C156.52 85.666 156.398 85.8398 156.25 86.0039C156.102 86.168 155.922 86.3008 155.711 86.4023C155.504 86.5078 155.256 86.5605 154.967 86.5605C154.881 86.5605 154.771 86.5488 154.639 86.5254C154.506 86.502 154.412 86.4824 154.357 86.4668L154.352 85.5879C154.383 85.5918 154.432 85.5957 154.498 85.5996C154.568 85.6074 154.617 85.6113 154.645 85.6113C154.891 85.6113 155.1 85.5781 155.271 85.5117C155.443 85.4492 155.588 85.3418 155.705 85.1895C155.826 85.041 155.93 84.8359 156.016 84.5742L156.467 83.3438ZM155.172 77.6602L156.818 82.582L157.1 83.7246L156.32 84.123L153.988 77.6602H155.172ZM168.057 81.8438C168.057 81.6445 168.025 81.4688 167.963 81.3164C167.904 81.1602 167.799 81.0195 167.646 80.8945C167.498 80.7695 167.291 80.6504 167.025 80.5371C166.764 80.4238 166.432 80.3086 166.029 80.1914C165.607 80.0664 165.227 79.9277 164.887 79.7754C164.547 79.6191 164.256 79.4414 164.014 79.2422C163.771 79.043 163.586 78.8145 163.457 78.5566C163.328 78.2988 163.264 78.0039 163.264 77.6719C163.264 77.3398 163.332 77.0332 163.469 76.752C163.605 76.4707 163.801 76.2266 164.055 76.0195C164.312 75.8086 164.619 75.6445 164.975 75.5273C165.33 75.4102 165.727 75.3516 166.164 75.3516C166.805 75.3516 167.348 75.4746 167.793 75.7207C168.242 75.9629 168.584 76.2812 168.818 76.6758C169.053 77.0664 169.17 77.4844 169.17 77.9297H168.045C168.045 77.6094 167.977 77.3262 167.84 77.0801C167.703 76.8301 167.496 76.6348 167.219 76.4941C166.941 76.3496 166.59 76.2773 166.164 76.2773C165.762 76.2773 165.43 76.3379 165.168 76.459C164.906 76.5801 164.711 76.7441 164.582 76.9512C164.457 77.1582 164.395 77.3945 164.395 77.6602C164.395 77.8398 164.432 78.0039 164.506 78.1523C164.584 78.2969 164.703 78.4316 164.863 78.5566C165.027 78.6816 165.234 78.7969 165.484 78.9023C165.738 79.0078 166.041 79.1094 166.393 79.207C166.877 79.3438 167.295 79.4961 167.646 79.6641C167.998 79.832 168.287 80.0215 168.514 80.2324C168.744 80.4395 168.914 80.6758 169.023 80.9414C169.137 81.2031 169.193 81.5 169.193 81.832C169.193 82.1797 169.123 82.4941 168.982 82.7754C168.842 83.0566 168.641 83.2969 168.379 83.4961C168.117 83.6953 167.803 83.8496 167.436 83.959C167.072 84.0645 166.666 84.1172 166.217 84.1172C165.822 84.1172 165.434 84.0625 165.051 83.9531C164.672 83.8438 164.326 83.6797 164.014 83.4609C163.705 83.2422 163.457 82.9727 163.27 82.6523C163.086 82.3281 162.994 81.9531 162.994 81.5273H164.119C164.119 81.8203 164.176 82.0723 164.289 82.2832C164.402 82.4902 164.557 82.6621 164.752 82.7988C164.951 82.9355 165.176 83.0371 165.426 83.1035C165.68 83.166 165.943 83.1973 166.217 83.1973C166.611 83.1973 166.945 83.1426 167.219 83.0332C167.492 82.9238 167.699 82.7676 167.84 82.5645C167.984 82.3613 168.057 82.1211 168.057 81.8438ZM173.125 77.6602V78.4922H169.697V77.6602H173.125ZM170.857 76.1191H171.941V82.4297C171.941 82.6445 171.975 82.8066 172.041 82.916C172.107 83.0254 172.193 83.0977 172.299 83.1328C172.404 83.168 172.518 83.1855 172.639 83.1855C172.729 83.1855 172.822 83.1777 172.92 83.1621C173.021 83.1426 173.098 83.127 173.148 83.1152L173.154 84C173.068 84.0273 172.955 84.0527 172.814 84.0762C172.678 84.1035 172.512 84.1172 172.316 84.1172C172.051 84.1172 171.807 84.0645 171.584 83.959C171.361 83.8535 171.184 83.6777 171.051 83.4316C170.922 83.1816 170.857 82.8457 170.857 82.4238V76.1191ZM175.48 78.6562V84H174.396V77.6602H175.451L175.48 78.6562ZM177.461 77.625L177.455 78.6328C177.365 78.6133 177.279 78.6016 177.197 78.5977C177.119 78.5898 177.029 78.5859 176.928 78.5859C176.678 78.5859 176.457 78.625 176.266 78.7031C176.074 78.7812 175.912 78.8906 175.779 79.0312C175.646 79.1719 175.541 79.3398 175.463 79.5352C175.389 79.7266 175.34 79.9375 175.316 80.168L175.012 80.3438C175.012 79.9609 175.049 79.6016 175.123 79.2656C175.201 78.9297 175.32 78.6328 175.48 78.375C175.641 78.1133 175.844 77.9102 176.09 77.7656C176.34 77.6172 176.637 77.543 176.98 77.543C177.059 77.543 177.148 77.5527 177.25 77.5723C177.352 77.5879 177.422 77.6055 177.461 77.625ZM180.977 84.1172C180.535 84.1172 180.135 84.043 179.775 83.8945C179.42 83.7422 179.113 83.5293 178.855 83.2559C178.602 82.9824 178.406 82.6582 178.27 82.2832C178.133 81.9082 178.064 81.498 178.064 81.0527V80.8066C178.064 80.291 178.141 79.832 178.293 79.4297C178.445 79.0234 178.652 78.6797 178.914 78.3984C179.176 78.1172 179.473 77.9043 179.805 77.7598C180.137 77.6152 180.48 77.543 180.836 77.543C181.289 77.543 181.68 77.6211 182.008 77.7773C182.34 77.9336 182.611 78.1523 182.822 78.4336C183.033 78.7109 183.189 79.0391 183.291 79.418C183.393 79.793 183.443 80.2031 183.443 80.6484V81.1348H178.709V80.25H182.359V80.168C182.344 79.8867 182.285 79.6133 182.184 79.3477C182.086 79.082 181.93 78.8633 181.715 78.6914C181.5 78.5195 181.207 78.4336 180.836 78.4336C180.59 78.4336 180.363 78.4863 180.156 78.5918C179.949 78.6934 179.771 78.8457 179.623 79.0488C179.475 79.252 179.359 79.5 179.277 79.793C179.195 80.0859 179.154 80.4238 179.154 80.8066V81.0527C179.154 81.3535 179.195 81.6367 179.277 81.9023C179.363 82.1641 179.486 82.3945 179.646 82.5938C179.811 82.793 180.008 82.9492 180.238 83.0625C180.473 83.1758 180.738 83.2324 181.035 83.2324C181.418 83.2324 181.742 83.1543 182.008 82.998C182.273 82.8418 182.506 82.6328 182.705 82.3711L183.361 82.8926C183.225 83.0996 183.051 83.2969 182.84 83.4844C182.629 83.6719 182.369 83.8242 182.061 83.9414C181.756 84.0586 181.395 84.1172 180.977 84.1172ZM187.34 84.1172C186.898 84.1172 186.498 84.043 186.139 83.8945C185.783 83.7422 185.477 83.5293 185.219 83.2559C184.965 82.9824 184.77 82.6582 184.633 82.2832C184.496 81.9082 184.428 81.498 184.428 81.0527V80.8066C184.428 80.291 184.504 79.832 184.656 79.4297C184.809 79.0234 185.016 78.6797 185.277 78.3984C185.539 78.1172 185.836 77.9043 186.168 77.7598C186.5 77.6152 186.844 77.543 187.199 77.543C187.652 77.543 188.043 77.6211 188.371 77.7773C188.703 77.9336 188.975 78.1523 189.186 78.4336C189.396 78.7109 189.553 79.0391 189.654 79.418C189.756 79.793 189.807 80.2031 189.807 80.6484V81.1348H185.072V80.25H188.723V80.168C188.707 79.8867 188.648 79.6133 188.547 79.3477C188.449 79.082 188.293 78.8633 188.078 78.6914C187.863 78.5195 187.57 78.4336 187.199 78.4336C186.953 78.4336 186.727 78.4863 186.52 78.5918C186.312 78.6934 186.135 78.8457 185.986 79.0488C185.838 79.252 185.723 79.5 185.641 79.793C185.559 80.0859 185.518 80.4238 185.518 80.8066V81.0527C185.518 81.3535 185.559 81.6367 185.641 81.9023C185.727 82.1641 185.85 82.3945 186.01 82.5938C186.174 82.793 186.371 82.9492 186.602 83.0625C186.836 83.1758 187.102 83.2324 187.398 83.2324C187.781 83.2324 188.105 83.1543 188.371 82.998C188.637 82.8418 188.869 82.6328 189.068 82.3711L189.725 82.8926C189.588 83.0996 189.414 83.2969 189.203 83.4844C188.992 83.6719 188.732 83.8242 188.424 83.9414C188.119 84.0586 187.758 84.1172 187.34 84.1172ZM193.727 77.6602V78.4922H190.299V77.6602H193.727ZM191.459 76.1191H192.543V82.4297C192.543 82.6445 192.576 82.8066 192.643 82.916C192.709 83.0254 192.795 83.0977 192.9 83.1328C193.006 83.168 193.119 83.1855 193.24 83.1855C193.33 83.1855 193.424 83.1777 193.521 83.1621C193.623 83.1426 193.699 83.127 193.75 83.1152L193.756 84C193.67 84.0273 193.557 84.0527 193.416 84.0762C193.279 84.1035 193.113 84.1172 192.918 84.1172C192.652 84.1172 192.408 84.0645 192.186 83.959C191.963 83.8535 191.785 83.6777 191.652 83.4316C191.523 83.1816 191.459 82.8457 191.459 82.4238V76.1191ZM195.982 82.7109V83.584C195.982 83.9395 195.893 84.3145 195.713 84.709C195.533 85.1074 195.281 85.4395 194.957 85.7051L194.342 85.2773C194.467 85.1055 194.572 84.9297 194.658 84.75C194.744 84.5742 194.809 84.3906 194.852 84.1992C194.898 84.0117 194.922 83.8125 194.922 83.6016V82.7109H195.982ZM203.424 75.4688V84H202.311V75.4688H203.424ZM206.166 75.4688V76.3945H199.574V75.4688H206.166ZM206.395 80.9004V80.7656C206.395 80.3086 206.461 79.8848 206.594 79.4941C206.727 79.0996 206.918 78.7578 207.168 78.4688C207.418 78.1758 207.721 77.9492 208.076 77.7891C208.432 77.625 208.83 77.543 209.271 77.543C209.717 77.543 210.117 77.625 210.473 77.7891C210.832 77.9492 211.137 78.1758 211.387 78.4688C211.641 78.7578 211.834 79.0996 211.967 79.4941C212.1 79.8848 212.166 80.3086 212.166 80.7656V80.9004C212.166 81.3574 212.1 81.7812 211.967 82.1719C211.834 82.5625 211.641 82.9043 211.387 83.1973C211.137 83.4863 210.834 83.7129 210.479 83.877C210.127 84.0371 209.729 84.1172 209.283 84.1172C208.838 84.1172 208.438 84.0371 208.082 83.877C207.727 83.7129 207.422 83.4863 207.168 83.1973C206.918 82.9043 206.727 82.5625 206.594 82.1719C206.461 81.7812 206.395 81.3574 206.395 80.9004ZM207.479 80.7656V80.9004C207.479 81.2168 207.516 81.5156 207.59 81.7969C207.664 82.0742 207.775 82.3203 207.924 82.5352C208.076 82.75 208.266 82.9199 208.492 83.0449C208.719 83.166 208.982 83.2266 209.283 83.2266C209.58 83.2266 209.84 83.166 210.062 83.0449C210.289 82.9199 210.477 82.75 210.625 82.5352C210.773 82.3203 210.885 82.0742 210.959 81.7969C211.037 81.5156 211.076 81.2168 211.076 80.9004V80.7656C211.076 80.4531 211.037 80.1582 210.959 79.8809C210.885 79.5996 210.771 79.3516 210.619 79.1367C210.471 78.918 210.283 78.7461 210.057 78.6211C209.834 78.4961 209.572 78.4336 209.271 78.4336C208.975 78.4336 208.713 78.4961 208.486 78.6211C208.264 78.7461 208.076 78.918 207.924 79.1367C207.775 79.3516 207.664 79.5996 207.59 79.8809C207.516 80.1582 207.479 80.4531 207.479 80.7656ZM214.609 78.6562V84H213.525V77.6602H214.58L214.609 78.6562ZM216.59 77.625L216.584 78.6328C216.494 78.6133 216.408 78.6016 216.326 78.5977C216.248 78.5898 216.158 78.5859 216.057 78.5859C215.807 78.5859 215.586 78.625 215.395 78.7031C215.203 78.7812 215.041 78.8906 214.908 79.0312C214.775 79.1719 214.67 79.3398 214.592 79.5352C214.518 79.7266 214.469 79.9375 214.445 80.168L214.141 80.3438C214.141 79.9609 214.178 79.6016 214.252 79.2656C214.33 78.9297 214.449 78.6328 214.609 78.375C214.77 78.1133 214.973 77.9102 215.219 77.7656C215.469 77.6172 215.766 77.543 216.109 77.543C216.188 77.543 216.277 77.5527 216.379 77.5723C216.48 77.5879 216.551 77.6055 216.59 77.625ZM217.188 80.9004V80.7656C217.188 80.3086 217.254 79.8848 217.387 79.4941C217.52 79.0996 217.711 78.7578 217.961 78.4688C218.211 78.1758 218.514 77.9492 218.869 77.7891C219.225 77.625 219.623 77.543 220.064 77.543C220.51 77.543 220.91 77.625 221.266 77.7891C221.625 77.9492 221.93 78.1758 222.18 78.4688C222.434 78.7578 222.627 79.0996 222.76 79.4941C222.893 79.8848 222.959 80.3086 222.959 80.7656V80.9004C222.959 81.3574 222.893 81.7812 222.76 82.1719C222.627 82.5625 222.434 82.9043 222.18 83.1973C221.93 83.4863 221.627 83.7129 221.271 83.877C220.92 84.0371 220.521 84.1172 220.076 84.1172C219.631 84.1172 219.23 84.0371 218.875 83.877C218.52 83.7129 218.215 83.4863 217.961 83.1973C217.711 82.9043 217.52 82.5625 217.387 82.1719C217.254 81.7812 217.188 81.3574 217.188 80.9004ZM218.271 80.7656V80.9004C218.271 81.2168 218.309 81.5156 218.383 81.7969C218.457 82.0742 218.568 82.3203 218.717 82.5352C218.869 82.75 219.059 82.9199 219.285 83.0449C219.512 83.166 219.775 83.2266 220.076 83.2266C220.373 83.2266 220.633 83.166 220.855 83.0449C221.082 82.9199 221.27 82.75 221.418 82.5352C221.566 82.3203 221.678 82.0742 221.752 81.7969C221.83 81.5156 221.869 81.2168 221.869 80.9004V80.7656C221.869 80.4531 221.83 80.1582 221.752 79.8809C221.678 79.5996 221.564 79.3516 221.412 79.1367C221.264 78.918 221.076 78.7461 220.85 78.6211C220.627 78.4961 220.365 78.4336 220.064 78.4336C219.768 78.4336 219.506 78.4961 219.279 78.6211C219.057 78.7461 218.869 78.918 218.717 79.1367C218.568 79.3516 218.457 79.5996 218.383 79.8809C218.309 80.1582 218.271 80.4531 218.271 80.7656ZM225.402 79.0137V84H224.318V77.6602H225.344L225.402 79.0137ZM225.145 80.5898L224.693 80.5723C224.697 80.1387 224.762 79.7383 224.887 79.3711C225.012 79 225.188 78.6777 225.414 78.4043C225.641 78.1309 225.91 77.9199 226.223 77.7715C226.539 77.6191 226.889 77.543 227.271 77.543C227.584 77.543 227.865 77.5859 228.115 77.6719C228.365 77.7539 228.578 77.8867 228.754 78.0703C228.934 78.2539 229.07 78.4922 229.164 78.7852C229.258 79.0742 229.305 79.4277 229.305 79.8457V84H228.215V79.834C228.215 79.502 228.166 79.2363 228.068 79.0371C227.971 78.834 227.828 78.6875 227.641 78.5977C227.453 78.5039 227.223 78.457 226.949 78.457C226.68 78.457 226.434 78.5137 226.211 78.627C225.992 78.7402 225.803 78.8965 225.643 79.0957C225.486 79.2949 225.363 79.5234 225.273 79.7812C225.188 80.0352 225.145 80.3047 225.145 80.5898ZM233.605 77.6602V78.4922H230.178V77.6602H233.605ZM231.338 76.1191H232.422V82.4297C232.422 82.6445 232.455 82.8066 232.521 82.916C232.588 83.0254 232.674 83.0977 232.779 83.1328C232.885 83.168 232.998 83.1855 233.119 83.1855C233.209 83.1855 233.303 83.1777 233.4 83.1621C233.502 83.1426 233.578 83.127 233.629 83.1152L233.635 84C233.549 84.0273 233.436 84.0527 233.295 84.0762C233.158 84.1035 232.992 84.1172 232.797 84.1172C232.531 84.1172 232.287 84.0645 232.064 83.959C231.842 83.8535 231.664 83.6777 231.531 83.4316C231.402 83.1816 231.338 82.8457 231.338 82.4238V76.1191ZM234.473 80.9004V80.7656C234.473 80.3086 234.539 79.8848 234.672 79.4941C234.805 79.0996 234.996 78.7578 235.246 78.4688C235.496 78.1758 235.799 77.9492 236.154 77.7891C236.51 77.625 236.908 77.543 237.35 77.543C237.795 77.543 238.195 77.625 238.551 77.7891C238.91 77.9492 239.215 78.1758 239.465 78.4688C239.719 78.7578 239.912 79.0996 240.045 79.4941C240.178 79.8848 240.244 80.3086 240.244 80.7656V80.9004C240.244 81.3574 240.178 81.7812 240.045 82.1719C239.912 82.5625 239.719 82.9043 239.465 83.1973C239.215 83.4863 238.912 83.7129 238.557 83.877C238.205 84.0371 237.807 84.1172 237.361 84.1172C236.916 84.1172 236.516 84.0371 236.16 83.877C235.805 83.7129 235.5 83.4863 235.246 83.1973C234.996 82.9043 234.805 82.5625 234.672 82.1719C234.539 81.7812 234.473 81.3574 234.473 80.9004ZM235.557 80.7656V80.9004C235.557 81.2168 235.594 81.5156 235.668 81.7969C235.742 82.0742 235.854 82.3203 236.002 82.5352C236.154 82.75 236.344 82.9199 236.57 83.0449C236.797 83.166 237.061 83.2266 237.361 83.2266C237.658 83.2266 237.918 83.166 238.141 83.0449C238.367 82.9199 238.555 82.75 238.703 82.5352C238.852 82.3203 238.963 82.0742 239.037 81.7969C239.115 81.5156 239.154 81.2168 239.154 80.9004V80.7656C239.154 80.4531 239.115 80.1582 239.037 79.8809C238.963 79.5996 238.85 79.3516 238.697 79.1367C238.549 78.918 238.361 78.7461 238.135 78.6211C237.912 78.4961 237.65 78.4336 237.35 78.4336C237.053 78.4336 236.791 78.4961 236.564 78.6211C236.342 78.7461 236.154 78.918 236.002 79.1367C235.854 79.3516 235.742 79.5996 235.668 79.8809C235.594 80.1582 235.557 80.4531 235.557 80.7656ZM242.588 82.7109V83.584C242.588 83.9395 242.498 84.3145 242.318 84.709C242.139 85.1074 241.887 85.4395 241.562 85.7051L240.947 85.2773C241.072 85.1055 241.178 84.9297 241.264 84.75C241.35 84.5742 241.414 84.3906 241.457 84.1992C241.504 84.0117 241.527 83.8125 241.527 83.6016V82.7109H242.588ZM252.262 81.2871H253.387C253.328 81.8262 253.174 82.3086 252.924 82.7344C252.674 83.1602 252.32 83.498 251.863 83.748C251.406 83.9941 250.836 84.1172 250.152 84.1172C249.652 84.1172 249.197 84.0234 248.787 83.8359C248.381 83.6484 248.031 83.3828 247.738 83.0391C247.445 82.6914 247.219 82.2754 247.059 81.791C246.902 81.3027 246.824 80.7598 246.824 80.1621V79.3125C246.824 78.7148 246.902 78.1738 247.059 77.6895C247.219 77.2012 247.447 76.7832 247.744 76.4355C248.045 76.0879 248.406 75.8203 248.828 75.6328C249.25 75.4453 249.725 75.3516 250.252 75.3516C250.896 75.3516 251.441 75.4727 251.887 75.7148C252.332 75.957 252.678 76.293 252.924 76.7227C253.174 77.1484 253.328 77.6426 253.387 78.2051H252.262C252.207 77.8066 252.105 77.4648 251.957 77.1797C251.809 76.8906 251.598 76.668 251.324 76.5117C251.051 76.3555 250.693 76.2773 250.252 76.2773C249.873 76.2773 249.539 76.3496 249.25 76.4941C248.965 76.6387 248.725 76.8438 248.529 77.1094C248.338 77.375 248.193 77.6934 248.096 78.0645C247.998 78.4355 247.949 78.8477 247.949 79.3008V80.1621C247.949 80.5801 247.992 80.9727 248.078 81.3398C248.168 81.707 248.303 82.0293 248.482 82.3066C248.662 82.584 248.891 82.8027 249.168 82.9629C249.445 83.1191 249.773 83.1973 250.152 83.1973C250.633 83.1973 251.016 83.1211 251.301 82.9688C251.586 82.8164 251.801 82.5977 251.945 82.3125C252.094 82.0273 252.199 81.6855 252.262 81.2871ZM258.502 82.916V79.6523C258.502 79.4023 258.451 79.1855 258.35 79.002C258.252 78.8145 258.104 78.6699 257.904 78.5684C257.705 78.4668 257.459 78.416 257.166 78.416C256.893 78.416 256.652 78.4629 256.445 78.5566C256.242 78.6504 256.082 78.7734 255.965 78.9258C255.852 79.0781 255.795 79.2422 255.795 79.418H254.711C254.711 79.1914 254.77 78.9668 254.887 78.7441C255.004 78.5215 255.172 78.3203 255.391 78.1406C255.613 77.957 255.879 77.8125 256.188 77.707C256.5 77.5977 256.848 77.543 257.23 77.543C257.691 77.543 258.098 77.6211 258.449 77.7773C258.805 77.9336 259.082 78.1699 259.281 78.4863C259.484 78.7988 259.586 79.1914 259.586 79.6641V82.6172C259.586 82.8281 259.604 83.0527 259.639 83.291C259.678 83.5293 259.734 83.7344 259.809 83.9062V84H258.678C258.623 83.875 258.58 83.709 258.549 83.502C258.518 83.291 258.502 83.0957 258.502 82.916ZM258.689 80.1562L258.701 80.918H257.605C257.297 80.918 257.021 80.9434 256.779 80.9941C256.537 81.041 256.334 81.1133 256.17 81.2109C256.006 81.3086 255.881 81.4316 255.795 81.5801C255.709 81.7246 255.666 81.8945 255.666 82.0898C255.666 82.2891 255.711 82.4707 255.801 82.6348C255.891 82.7988 256.025 82.9297 256.205 83.0273C256.389 83.1211 256.613 83.168 256.879 83.168C257.211 83.168 257.504 83.0977 257.758 82.957C258.012 82.8164 258.213 82.6445 258.361 82.4414C258.514 82.2383 258.596 82.041 258.607 81.8496L259.07 82.3711C259.043 82.5352 258.969 82.7168 258.848 82.916C258.727 83.1152 258.564 83.3066 258.361 83.4902C258.162 83.6699 257.924 83.8203 257.646 83.9414C257.373 84.0586 257.064 84.1172 256.721 84.1172C256.291 84.1172 255.914 84.0332 255.59 83.8652C255.27 83.6973 255.02 83.4727 254.84 83.1914C254.664 82.9062 254.576 82.5879 254.576 82.2363C254.576 81.8965 254.643 81.5977 254.775 81.3398C254.908 81.0781 255.1 80.8613 255.35 80.6895C255.6 80.5137 255.9 80.3809 256.252 80.291C256.604 80.2012 256.996 80.1562 257.43 80.1562H258.689ZM262.375 79.0137V84H261.291V77.6602H262.316L262.375 79.0137ZM262.117 80.5898L261.666 80.5723C261.67 80.1387 261.734 79.7383 261.859 79.3711C261.984 79 262.16 78.6777 262.387 78.4043C262.613 78.1309 262.883 77.9199 263.195 77.7715C263.512 77.6191 263.861 77.543 264.244 77.543C264.557 77.543 264.838 77.5859 265.088 77.6719C265.338 77.7539 265.551 77.8867 265.727 78.0703C265.906 78.2539 266.043 78.4922 266.137 78.7852C266.23 79.0742 266.277 79.4277 266.277 79.8457V84H265.188V79.834C265.188 79.502 265.139 79.2363 265.041 79.0371C264.943 78.834 264.801 78.6875 264.613 78.5977C264.426 78.5039 264.195 78.457 263.922 78.457C263.652 78.457 263.406 78.5137 263.184 78.627C262.965 78.7402 262.775 78.8965 262.615 79.0957C262.459 79.2949 262.336 79.5234 262.246 79.7812C262.16 80.0352 262.117 80.3047 262.117 80.5898ZM271.662 82.916V79.6523C271.662 79.4023 271.611 79.1855 271.51 79.002C271.412 78.8145 271.264 78.6699 271.064 78.5684C270.865 78.4668 270.619 78.416 270.326 78.416C270.053 78.416 269.812 78.4629 269.605 78.5566C269.402 78.6504 269.242 78.7734 269.125 78.9258C269.012 79.0781 268.955 79.2422 268.955 79.418H267.871C267.871 79.1914 267.93 78.9668 268.047 78.7441C268.164 78.5215 268.332 78.3203 268.551 78.1406C268.773 77.957 269.039 77.8125 269.348 77.707C269.66 77.5977 270.008 77.543 270.391 77.543C270.852 77.543 271.258 77.6211 271.609 77.7773C271.965 77.9336 272.242 78.1699 272.441 78.4863C272.645 78.7988 272.746 79.1914 272.746 79.6641V82.6172C272.746 82.8281 272.764 83.0527 272.799 83.291C272.838 83.5293 272.895 83.7344 272.969 83.9062V84H271.838C271.783 83.875 271.74 83.709 271.709 83.502C271.678 83.291 271.662 83.0957 271.662 82.916ZM271.85 80.1562L271.861 80.918H270.766C270.457 80.918 270.182 80.9434 269.939 80.9941C269.697 81.041 269.494 81.1133 269.33 81.2109C269.166 81.3086 269.041 81.4316 268.955 81.5801C268.869 81.7246 268.826 81.8945 268.826 82.0898C268.826 82.2891 268.871 82.4707 268.961 82.6348C269.051 82.7988 269.186 82.9297 269.365 83.0273C269.549 83.1211 269.773 83.168 270.039 83.168C270.371 83.168 270.664 83.0977 270.918 82.957C271.172 82.8164 271.373 82.6445 271.521 82.4414C271.674 82.2383 271.756 82.041 271.768 81.8496L272.23 82.3711C272.203 82.5352 272.129 82.7168 272.008 82.916C271.887 83.1152 271.725 83.3066 271.521 83.4902C271.322 83.6699 271.084 83.8203 270.807 83.9414C270.533 84.0586 270.225 84.1172 269.881 84.1172C269.451 84.1172 269.074 84.0332 268.75 83.8652C268.43 83.6973 268.18 83.4727 268 83.1914C267.824 82.9062 267.736 82.5879 267.736 82.2363C267.736 81.8965 267.803 81.5977 267.936 81.3398C268.068 81.0781 268.26 80.8613 268.51 80.6895C268.76 80.5137 269.061 80.3809 269.412 80.291C269.764 80.2012 270.156 80.1562 270.59 80.1562H271.85ZM278.447 82.7695V75H279.537V84H278.541L278.447 82.7695ZM274.182 80.9004V80.7773C274.182 80.293 274.24 79.8535 274.357 79.459C274.479 79.0605 274.648 78.7188 274.867 78.4336C275.09 78.1484 275.354 77.9297 275.658 77.7773C275.967 77.6211 276.311 77.543 276.689 77.543C277.088 77.543 277.436 77.6133 277.732 77.7539C278.033 77.8906 278.287 78.0918 278.494 78.3574C278.705 78.6191 278.871 78.9355 278.992 79.3066C279.113 79.6777 279.197 80.0977 279.244 80.5664V81.1055C279.201 81.5703 279.117 81.9883 278.992 82.3594C278.871 82.7305 278.705 83.0469 278.494 83.3086C278.287 83.5703 278.033 83.7715 277.732 83.9121C277.432 84.0488 277.08 84.1172 276.678 84.1172C276.307 84.1172 275.967 84.0371 275.658 83.877C275.354 83.7168 275.09 83.4922 274.867 83.2031C274.648 82.9141 274.479 82.5742 274.357 82.1836C274.24 81.7891 274.182 81.3613 274.182 80.9004ZM275.271 80.7773V80.9004C275.271 81.2168 275.303 81.5137 275.365 81.791C275.432 82.0684 275.533 82.3125 275.67 82.5234C275.807 82.7344 275.98 82.9004 276.191 83.0215C276.402 83.1387 276.654 83.1973 276.947 83.1973C277.307 83.1973 277.602 83.1211 277.832 82.9688C278.066 82.8164 278.254 82.6152 278.395 82.3652C278.535 82.1152 278.645 81.8438 278.723 81.5508V80.1387C278.676 79.9238 278.607 79.7168 278.518 79.5176C278.432 79.3145 278.318 79.1348 278.178 78.9785C278.041 78.8184 277.871 78.6914 277.668 78.5977C277.469 78.5039 277.232 78.457 276.959 78.457C276.662 78.457 276.406 78.5195 276.191 78.6445C275.98 78.7656 275.807 78.9336 275.67 79.1484C275.533 79.3594 275.432 79.6055 275.365 79.8867C275.303 80.1641 275.271 80.4609 275.271 80.7773ZM284.963 82.916V79.6523C284.963 79.4023 284.912 79.1855 284.811 79.002C284.713 78.8145 284.564 78.6699 284.365 78.5684C284.166 78.4668 283.92 78.416 283.627 78.416C283.354 78.416 283.113 78.4629 282.906 78.5566C282.703 78.6504 282.543 78.7734 282.426 78.9258C282.312 79.0781 282.256 79.2422 282.256 79.418H281.172C281.172 79.1914 281.23 78.9668 281.348 78.7441C281.465 78.5215 281.633 78.3203 281.852 78.1406C282.074 77.957 282.34 77.8125 282.648 77.707C282.961 77.5977 283.309 77.543 283.691 77.543C284.152 77.543 284.559 77.6211 284.91 77.7773C285.266 77.9336 285.543 78.1699 285.742 78.4863C285.945 78.7988 286.047 79.1914 286.047 79.6641V82.6172C286.047 82.8281 286.064 83.0527 286.1 83.291C286.139 83.5293 286.195 83.7344 286.27 83.9062V84H285.139C285.084 83.875 285.041 83.709 285.01 83.502C284.979 83.291 284.963 83.0957 284.963 82.916ZM285.15 80.1562L285.162 80.918H284.066C283.758 80.918 283.482 80.9434 283.24 80.9941C282.998 81.041 282.795 81.1133 282.631 81.2109C282.467 81.3086 282.342 81.4316 282.256 81.5801C282.17 81.7246 282.127 81.8945 282.127 82.0898C282.127 82.2891 282.172 82.4707 282.262 82.6348C282.352 82.7988 282.486 82.9297 282.666 83.0273C282.85 83.1211 283.074 83.168 283.34 83.168C283.672 83.168 283.965 83.0977 284.219 82.957C284.473 82.8164 284.674 82.6445 284.822 82.4414C284.975 82.2383 285.057 82.041 285.068 81.8496L285.531 82.3711C285.504 82.5352 285.43 82.7168 285.309 82.916C285.188 83.1152 285.025 83.3066 284.822 83.4902C284.623 83.6699 284.385 83.8203 284.107 83.9414C283.834 84.0586 283.525 84.1172 283.182 84.1172C282.752 84.1172 282.375 84.0332 282.051 83.8652C281.73 83.6973 281.48 83.4727 281.301 83.1914C281.125 82.9062 281.037 82.5879 281.037 82.2363C281.037 81.8965 281.104 81.5977 281.236 81.3398C281.369 81.0781 281.561 80.8613 281.811 80.6895C282.061 80.5137 282.361 80.3809 282.713 80.291C283.064 80.2012 283.457 80.1562 283.891 80.1562H285.15Z" fill="black"/>
<g opacity="0.65">
<path d="M84.6875 79.625C84.9479 79.625 85.1692 79.5338 85.3513 79.3513C85.5338 79.1692 85.625 78.9479 85.625 78.6875C85.625 78.4271 85.5338 78.2058 85.3513 78.0237C85.1692 77.8412 84.9479 77.75 84.6875 77.75C84.4271 77.75 84.2058 77.8412 84.0237 78.0237C83.8412 78.2058 83.75 78.4271 83.75 78.6875C83.75 78.9479 83.8412 79.1692 84.0237 79.3513C84.2058 79.5338 84.4271 79.625 84.6875 79.625ZM84.6875 85.0938C85.9896 83.9583 86.9921 82.8229 87.695 81.6875C88.3983 80.5521 88.75 79.5937 88.75 78.8125C88.75 77.5833 88.3569 76.5781 87.5706 75.7969C86.784 75.0156 85.8229 74.625 84.6875 74.625C83.5521 74.625 82.5913 75.0156 81.805 75.7969C81.0183 76.5781 80.625 77.5833 80.625 78.8125C80.625 79.5937 80.9767 80.5521 81.68 81.6875C82.3829 82.8229 83.3854 83.9583 84.6875 85.0938ZM84.6875 85.9531C83.1042 84.5469 81.9271 83.2448 81.1562 82.0469C80.3854 80.849 80 79.7708 80 78.8125C80 77.3437 80.4715 76.1746 81.4144 75.305C82.3569 74.435 83.4479 74 84.6875 74C85.9271 74 87.0183 74.435 87.9613 75.305C88.9038 76.1746 89.375 77.3437 89.375 78.8125C89.375 79.7708 88.9896 80.849 88.2187 82.0469C87.4479 83.2448 86.2708 84.5469 84.6875 85.9531Z" fill="#1C1B1F"/>
</g>
<mask id="mask0_105_474" style="mask-type:alpha" maskUnits="userSpaceOnUse" x="78" y="90" width="20" height="20">
<rect x="78" y="90" width="20" height="20" fill="#D9D9D9"/>
</mask>
<g mask="url(#mask0_105_474)">
<path d="M84.1042 106.604L85.1458 102.167L81.7083 99.2083L86.2292 98.8125L88 94.625L89.7708 98.8125L94.2917 99.2083L90.8542 102.167L91.8958 106.604L88 104.25L84.1042 106.604Z" fill="#CEC609"/>
</g>
<mask id="mask1_105_474" style="mask-type:alpha" maskUnits="userSpaceOnUse" x="92" y="90" width="20" height="20">
<rect x="92" y="90" width="20" height="20" fill="#D9D9D9"/>
</mask>
<g mask="url(#mask1_105_474)">
<path d="M98.1042 106.604L99.1458 102.167L95.7083 99.2083L100.229 98.8125L102 94.625L103.771 98.8125L108.292 99.2083L104.854 102.167L105.896 106.604L102 104.25L98.1042 106.604Z" fill="#CEC609"/>
</g>
<path d="M112.104 106.604L113.146 102.167L109.708 99.2083L114.229 98.8125L116 94.625L117.771 98.8125L122.292 99.2083L118.854 102.167L119.896 106.604L116 104.25L112.104 106.604Z" fill="#CEC609"/>
<mask id="mask2_105_474" style="mask-type:alpha" maskUnits="userSpaceOnUse" x="120" y="90" width="20" height="20">
<rect x="120" y="90" width="20" height="20" fill="#D9D9D9"/>
</mask>
<g mask="url(#mask2_105_474)">
<path d="M126.104 106.604L127.146 102.167L123.708 99.2083L128.229 98.8125L130 94.625L131.771 98.8125L136.292 99.2083L132.854 102.167L133.896 106.604L130 104.25L126.104 106.604Z" fill="#CEC609"/>
</g>
<path d="M144 96.7708V103.271L146.625 104.875L145.937 101.875L148.25 99.875L145.208 99.6042L144 96.7708ZM140.104 106.604L141.146 102.167L137.708 99.2083L142.229 98.8125L144 94.625L145.771 98.8125L150.292 99.2083L146.854 102.167L147.896 106.604L144 104.25L140.104 106.604Z" fill="#CEC609"/>
<rect x="286" y="95" width="65" height="17" rx="8.5" fill="#488AA8"/>
<path opacity="0.65" d="M299.586 103.675H297.784L297.774 102.918H299.41C299.68 102.918 299.916 102.872 300.118 102.781C300.32 102.69 300.476 102.56 300.587 102.391C300.701 102.218 300.758 102.013 300.758 101.775C300.758 101.515 300.707 101.303 300.606 101.141C300.509 100.975 300.357 100.854 300.152 100.779C299.951 100.701 299.693 100.662 299.381 100.662H297.994V107H297.052V99.8906H299.381C299.745 99.8906 300.071 99.9281 300.357 100.003C300.644 100.075 300.886 100.188 301.085 100.345C301.287 100.498 301.44 100.693 301.544 100.931C301.648 101.168 301.7 101.453 301.7 101.785C301.7 102.078 301.625 102.343 301.476 102.581C301.326 102.815 301.118 103.007 300.851 103.157C300.587 103.307 300.278 103.403 299.923 103.445L299.586 103.675ZM299.542 107H297.413L297.945 106.233H299.542C299.841 106.233 300.095 106.181 300.304 106.077C300.515 105.973 300.676 105.826 300.787 105.638C300.898 105.446 300.953 105.219 300.953 104.959C300.953 104.695 300.906 104.467 300.812 104.275C300.717 104.083 300.569 103.935 300.367 103.831C300.165 103.727 299.905 103.675 299.586 103.675H298.243L298.253 102.918H300.089L300.289 103.191C300.631 103.221 300.921 103.318 301.158 103.484C301.396 103.647 301.576 103.855 301.7 104.109C301.827 104.363 301.891 104.643 301.891 104.949C301.891 105.392 301.793 105.766 301.598 106.072C301.406 106.375 301.134 106.606 300.782 106.766C300.431 106.922 300.017 107 299.542 107ZM302.906 104.417V104.305C302.906 103.924 302.962 103.571 303.072 103.245C303.183 102.916 303.342 102.632 303.551 102.391C303.759 102.146 304.011 101.958 304.308 101.824C304.604 101.688 304.936 101.619 305.304 101.619C305.675 101.619 306.008 101.688 306.305 101.824C306.604 101.958 306.858 102.146 307.066 102.391C307.278 102.632 307.439 102.916 307.55 103.245C307.66 103.571 307.716 103.924 307.716 104.305V104.417C307.716 104.798 307.66 105.151 307.55 105.477C307.439 105.802 307.278 106.087 307.066 106.331C306.858 106.572 306.606 106.761 306.31 106.897C306.017 107.031 305.685 107.098 305.313 107.098C304.942 107.098 304.609 107.031 304.312 106.897C304.016 106.761 303.762 106.572 303.551 106.331C303.342 106.087 303.183 105.802 303.072 105.477C302.962 105.151 302.906 104.798 302.906 104.417ZM303.81 104.305V104.417C303.81 104.681 303.84 104.93 303.902 105.164C303.964 105.395 304.057 105.6 304.181 105.779C304.308 105.958 304.465 106.1 304.654 106.204C304.843 106.305 305.063 106.355 305.313 106.355C305.561 106.355 305.777 106.305 305.963 106.204C306.152 106.1 306.308 105.958 306.432 105.779C306.555 105.6 306.648 105.395 306.71 105.164C306.775 104.93 306.808 104.681 306.808 104.417V104.305C306.808 104.044 306.775 103.799 306.71 103.567C306.648 103.333 306.554 103.126 306.427 102.947C306.303 102.765 306.147 102.622 305.958 102.518C305.772 102.413 305.554 102.361 305.304 102.361C305.056 102.361 304.838 102.413 304.649 102.518C304.464 102.622 304.308 102.765 304.181 102.947C304.057 103.126 303.964 103.333 303.902 103.567C303.84 103.799 303.81 104.044 303.81 104.305ZM308.609 104.417V104.305C308.609 103.924 308.665 103.571 308.775 103.245C308.886 102.916 309.046 102.632 309.254 102.391C309.462 102.146 309.715 101.958 310.011 101.824C310.307 101.688 310.639 101.619 311.007 101.619C311.378 101.619 311.712 101.688 312.008 101.824C312.307 101.958 312.561 102.146 312.77 102.391C312.981 102.632 313.142 102.916 313.253 103.245C313.364 103.571 313.419 103.924 313.419 104.305V104.417C313.419 104.798 313.364 105.151 313.253 105.477C313.142 105.802 312.981 106.087 312.77 106.331C312.561 106.572 312.309 106.761 312.013 106.897C311.72 107.031 311.388 107.098 311.017 107.098C310.646 107.098 310.312 107.031 310.016 106.897C309.719 106.761 309.465 106.572 309.254 106.331C309.046 106.087 308.886 105.802 308.775 105.477C308.665 105.151 308.609 104.798 308.609 104.417ZM309.513 104.305V104.417C309.513 104.681 309.544 104.93 309.605 105.164C309.667 105.395 309.76 105.6 309.884 105.779C310.011 105.958 310.169 106.1 310.357 106.204C310.546 106.305 310.766 106.355 311.017 106.355C311.264 106.355 311.48 106.305 311.666 106.204C311.855 106.1 312.011 105.958 312.135 105.779C312.258 105.6 312.351 105.395 312.413 105.164C312.478 104.93 312.511 104.681 312.511 104.417V104.305C312.511 104.044 312.478 103.799 312.413 103.567C312.351 103.333 312.257 103.126 312.13 102.947C312.006 102.765 311.85 102.622 311.661 102.518C311.476 102.413 311.257 102.361 311.007 102.361C310.759 102.361 310.541 102.413 310.353 102.518C310.167 102.622 310.011 102.765 309.884 102.947C309.76 103.126 309.667 103.333 309.605 103.567C309.544 103.799 309.513 104.044 309.513 104.305ZM315.46 99.5V107H314.552V99.5H315.46ZM318.688 101.717L316.383 104.183L315.094 105.521L315.021 104.559L315.943 103.455L317.584 101.717H318.688ZM317.862 107L315.978 104.48L316.446 103.675L318.927 107H317.862ZM327.706 99.8906V107H326.759L323.18 101.517V107H322.237V99.8906H323.18L326.773 105.389V99.8906H327.706ZM329 104.417V104.305C329 103.924 329.055 103.571 329.166 103.245C329.277 102.916 329.436 102.632 329.645 102.391C329.853 102.146 330.105 101.958 330.401 101.824C330.698 101.688 331.03 101.619 331.397 101.619C331.769 101.619 332.102 101.688 332.398 101.824C332.698 101.958 332.952 102.146 333.16 102.391C333.372 102.632 333.533 102.916 333.644 103.245C333.754 103.571 333.81 103.924 333.81 104.305V104.417C333.81 104.798 333.754 105.151 333.644 105.477C333.533 105.802 333.372 106.087 333.16 106.331C332.952 106.572 332.7 106.761 332.403 106.897C332.11 107.031 331.778 107.098 331.407 107.098C331.036 107.098 330.702 107.031 330.406 106.897C330.11 106.761 329.856 106.572 329.645 106.331C329.436 106.087 329.277 105.802 329.166 105.477C329.055 105.151 329 104.798 329 104.417ZM329.903 104.305V104.417C329.903 104.681 329.934 104.93 329.996 105.164C330.058 105.395 330.151 105.6 330.274 105.779C330.401 105.958 330.559 106.1 330.748 106.204C330.937 106.305 331.157 106.355 331.407 106.355C331.655 106.355 331.871 106.305 332.057 106.204C332.245 106.1 332.402 105.958 332.525 105.779C332.649 105.6 332.742 105.395 332.804 105.164C332.869 104.93 332.901 104.681 332.901 104.417V104.305C332.901 104.044 332.869 103.799 332.804 103.567C332.742 103.333 332.647 103.126 332.521 102.947C332.397 102.765 332.241 102.622 332.052 102.518C331.866 102.413 331.648 102.361 331.397 102.361C331.15 102.361 330.932 102.413 330.743 102.518C330.558 102.622 330.401 102.765 330.274 102.947C330.151 103.126 330.058 103.333 329.996 103.567C329.934 103.799 329.903 104.044 329.903 104.305ZM336.28 106.062L337.638 101.717H338.233L338.116 102.581L336.734 107H336.153L336.28 106.062ZM335.367 101.717L336.524 106.111L336.607 107H335.997L334.464 101.717H335.367ZM339.532 106.077L340.636 101.717H341.534L340.001 107H339.396L339.532 106.077ZM338.365 101.717L339.693 105.989L339.845 107H339.269L337.848 102.571L337.73 101.717H338.365Z" fill="white"/>
<path d="M25.3438 54.8333C27.1146 53.5139 29.0417 52.4722 31.125 51.7083C33.2083 50.9444 35.4306 50.5625 37.7917 50.5625C40.1528 50.5625 42.375 50.9444 44.4583 51.7083C46.5417 52.4722 48.4688 53.5139 50.2396 54.8333C51.5243 53.4097 52.5486 51.7604 53.3125 49.8854C54.0764 48.0104 54.4583 45.9792 54.4583 43.7917C54.4583 39.1736 52.8354 35.241 49.5896 31.9938C46.3424 28.7479 42.4097 27.125 37.7917 27.125C33.1736 27.125 29.2417 28.7479 25.9958 31.9938C22.7486 35.241 21.125 39.1736 21.125 43.7917C21.125 45.9792 21.5069 48.0104 22.2708 49.8854C23.0347 51.7604 24.059 53.4097 25.3438 54.8333ZM37.7917 45.3542C35.8819 45.3542 34.2764 44.7028 32.975 43.4C31.6722 42.0986 31.0208 40.4931 31.0208 38.5833C31.0208 36.6736 31.6722 35.0681 32.975 33.7667C34.2764 32.4639 35.8819 31.8125 37.7917 31.8125C39.7014 31.8125 41.3069 32.4639 42.6083 33.7667C43.9111 35.0681 44.5625 36.6736 44.5625 38.5833C44.5625 40.4931 43.9111 42.0986 42.6083 43.4C41.3069 44.7028 39.7014 45.3542 37.7917 45.3542ZM37.7917 63.5833C35.0486 63.5833 32.4708 63.0625 30.0583 62.0208C27.6444 60.9792 25.5521 59.5729 23.7813 57.8021C22.0104 56.0313 20.6042 53.9389 19.5625 51.525C18.5208 49.1125 18 46.5347 18 43.7917C18 41.0486 18.5208 38.4701 19.5625 36.0563C20.6042 33.6438 22.0104 31.5521 23.7813 29.7813C25.5521 28.0104 27.6444 26.6042 30.0583 25.5625C32.4708 24.5208 35.0486 24 37.7917 24C40.5347 24 43.1132 24.5208 45.5271 25.5625C47.9396 26.6042 50.0313 28.0104 51.8021 29.7813C53.5729 31.5521 54.9792 33.6438 56.0208 36.0563C57.0625 38.4701 57.5833 41.0486 57.5833 43.7917C57.5833 46.5347 57.0625 49.1125 56.0208 51.525C54.9792 53.9389 53.5729 56.0313 51.8021 57.8021C50.0313 59.5729 47.9396 60.9792 45.5271 62.0208C43.1132 63.0625 40.5347 63.5833 37.7917 63.5833ZM37.7917 60.4583C39.6667 60.4583 41.4813 60.1542 43.2354 59.5458C44.9882 58.9389 46.5417 58.0972 47.8958 57.0208C46.5417 55.9792 45.0049 55.1632 43.2854 54.5729C41.5674 53.9826 39.7361 53.6875 37.7917 53.6875C35.8472 53.6875 34.016 53.9743 32.2979 54.5479C30.5785 55.1201 29.0417 55.9444 27.6875 57.0208C29.0417 58.0972 30.5951 58.9389 32.3479 59.5458C34.1021 60.1542 35.9167 60.4583 37.7917 60.4583ZM37.7917 42.2292C38.8333 42.2292 39.7014 41.8819 40.3958 41.1875C41.0903 40.4931 41.4375 39.625 41.4375 38.5833C41.4375 37.5417 41.0903 36.6736 40.3958 35.9792C39.7014 35.2847 38.8333 34.9375 37.7917 34.9375C36.75 34.9375 35.8819 35.2847 35.1875 35.9792C34.4931 36.6736 34.1458 37.5417 34.1458 38.5833C34.1458 39.625 34.4931 40.4931 35.1875 41.1875C35.8819 41.8819 36.75 42.2292 37.7917 42.2292Z" fill="#488AA8"/>
</svg>
