<svg width="368" height="134" viewBox="0 0 368 134" fill="none" xmlns="http://www.w3.org/2000/svg">
<path d="M0 15C0 6.71573 6.71573 0 15 0H353C361.284 0 368 6.71573 368 15V119C368 127.284 361.284 134 353 134H15C6.71573 134 0 127.284 0 119V15Z" fill="#F2F6F6"/>
<path d="M85.7734 39H82.7363L82.7559 37.0566H85.7734C86.6523 37.0566 87.388 36.8646 87.9805 36.4805C88.5794 36.0964 89.0286 35.5462 89.3281 34.8301C89.6341 34.1139 89.7871 33.2611 89.7871 32.2715V31.5C89.7871 30.7318 89.6992 30.0514 89.5234 29.459C89.3542 28.8665 89.1003 28.3685 88.7617 27.9648C88.4297 27.5612 88.0195 27.2552 87.5312 27.0469C87.0495 26.8385 86.4928 26.7344 85.8613 26.7344H82.6777V24.7812H85.8613C86.8053 24.7812 87.668 24.9408 88.4492 25.2598C89.2305 25.5723 89.9043 26.0247 90.4707 26.6172C91.0436 27.2096 91.4831 27.9193 91.7891 28.7461C92.0951 29.5729 92.248 30.4974 92.248 31.5195V32.2715C92.248 33.2936 92.0951 34.2181 91.7891 35.0449C91.4831 35.8717 91.0436 36.5814 90.4707 37.1738C89.8978 37.7598 89.2142 38.2122 88.4199 38.5312C87.6322 38.8438 86.75 39 85.7734 39ZM84.0938 24.7812V39H81.6426V24.7812H84.0938ZM96.8379 30.4453V39H94.4844V28.4336H96.7305L96.8379 30.4453ZM100.07 28.3652L100.051 30.5527C99.9076 30.5267 99.7513 30.5072 99.582 30.4941C99.4193 30.4811 99.2565 30.4746 99.0938 30.4746C98.6901 30.4746 98.3353 30.5332 98.0293 30.6504C97.7233 30.7611 97.4661 30.9238 97.2578 31.1387C97.056 31.347 96.8997 31.6009 96.7891 31.9004C96.6784 32.1999 96.6133 32.5352 96.5938 32.9062L96.0566 32.9453C96.0566 32.2812 96.1217 31.666 96.252 31.0996C96.3822 30.5332 96.5775 30.0352 96.8379 29.6055C97.1048 29.1758 97.4368 28.8405 97.834 28.5996C98.2376 28.3587 98.7031 28.2383 99.2305 28.2383C99.3737 28.2383 99.5267 28.2513 99.6895 28.2773C99.8587 28.3034 99.9857 28.3327 100.07 28.3652ZM100.256 37.8281C100.256 37.4635 100.38 37.1576 100.627 36.9102C100.874 36.6562 101.21 36.5293 101.633 36.5293C102.062 36.5293 102.398 36.6562 102.639 36.9102C102.886 37.1576 103.01 37.4635 103.01 37.8281C103.01 38.1927 102.886 38.4987 102.639 38.7461C102.398 38.9935 102.062 39.1172 101.633 39.1172C101.21 39.1172 100.874 38.9935 100.627 38.7461C100.38 38.4987 100.256 38.1927 100.256 37.8281ZM114.504 35.8066L117.336 24.7812H118.82L118.654 27.623L115.627 39H114.084L114.504 35.8066ZM112.385 24.7812L114.68 35.7188L114.885 39H113.244L109.953 24.7812H112.385ZM122.033 35.6895L124.299 24.7812H126.74L123.449 39H121.809L122.033 35.6895ZM119.396 24.7812L122.199 35.8359L122.609 39H121.066L118.088 27.623L117.932 24.7812H119.396ZM130.842 28.4336V39H128.479V28.4336H130.842ZM128.322 25.6602C128.322 25.3021 128.439 25.0059 128.674 24.7715C128.915 24.5306 129.247 24.4102 129.67 24.4102C130.087 24.4102 130.415 24.5306 130.656 24.7715C130.897 25.0059 131.018 25.3021 131.018 25.6602C131.018 26.0117 130.897 26.3047 130.656 26.5391C130.415 26.7734 130.087 26.8906 129.67 26.8906C129.247 26.8906 128.915 26.7734 128.674 26.5391C128.439 26.3047 128.322 26.0117 128.322 25.6602ZM135.939 24V39H133.576V24H135.939ZM141.037 24V39H138.674V24H141.037ZM160.168 31.5V32.2812C160.168 33.3555 160.028 34.319 159.748 35.1719C159.468 36.0247 159.068 36.7507 158.547 37.3496C158.033 37.9486 157.414 38.4076 156.691 38.7266C155.969 39.0391 155.168 39.1953 154.289 39.1953C153.417 39.1953 152.619 39.0391 151.896 38.7266C151.18 38.4076 150.559 37.9486 150.031 37.3496C149.504 36.7507 149.094 36.0247 148.801 35.1719C148.514 34.319 148.371 33.3555 148.371 32.2812V31.5C148.371 30.4258 148.514 29.4655 148.801 28.6191C149.087 27.7663 149.491 27.0404 150.012 26.4414C150.539 25.8359 151.161 25.377 151.877 25.0645C152.6 24.7454 153.397 24.5859 154.27 24.5859C155.148 24.5859 155.949 24.7454 156.672 25.0645C157.395 25.377 158.016 25.8359 158.537 26.4414C159.058 27.0404 159.458 27.7663 159.738 28.6191C160.025 29.4655 160.168 30.4258 160.168 31.5ZM157.717 32.2812V31.4805C157.717 30.6862 157.639 29.9863 157.482 29.3809C157.333 28.7689 157.108 28.2578 156.809 27.8477C156.516 27.431 156.154 27.1185 155.725 26.9102C155.295 26.6953 154.81 26.5879 154.27 26.5879C153.729 26.5879 153.247 26.6953 152.824 26.9102C152.401 27.1185 152.04 27.431 151.74 27.8477C151.447 28.2578 151.223 28.7689 151.066 29.3809C150.91 29.9863 150.832 30.6862 150.832 31.4805V32.2812C150.832 33.0755 150.91 33.7786 151.066 34.3906C151.223 35.0026 151.451 35.5202 151.75 35.9434C152.056 36.36 152.421 36.6758 152.844 36.8906C153.267 37.099 153.749 37.2031 154.289 37.2031C154.836 37.2031 155.321 37.099 155.744 36.8906C156.167 36.6758 156.525 36.36 156.818 35.9434C157.111 35.5202 157.333 35.0026 157.482 34.3906C157.639 33.7786 157.717 33.0755 157.717 32.2812ZM168.312 36.1387C168.312 35.9043 168.254 35.6927 168.137 35.5039C168.02 35.3086 167.795 35.1328 167.463 34.9766C167.137 34.8203 166.656 34.6771 166.018 34.5469C165.458 34.4232 164.943 34.2767 164.475 34.1074C164.012 33.9316 163.615 33.7201 163.283 33.4727C162.951 33.2253 162.694 32.9323 162.512 32.5938C162.329 32.2552 162.238 31.8646 162.238 31.4219C162.238 30.9922 162.333 30.5853 162.521 30.2012C162.71 29.8171 162.98 29.4785 163.332 29.1855C163.684 28.8926 164.11 28.6615 164.611 28.4922C165.119 28.3229 165.686 28.2383 166.311 28.2383C167.196 28.2383 167.954 28.388 168.586 28.6875C169.224 28.9805 169.712 29.3809 170.051 29.8887C170.389 30.39 170.559 30.9564 170.559 31.5879H168.205C168.205 31.3079 168.133 31.0475 167.99 30.8066C167.854 30.5592 167.645 30.3607 167.365 30.2109C167.085 30.0547 166.734 29.9766 166.311 29.9766C165.907 29.9766 165.572 30.0417 165.305 30.1719C165.044 30.2956 164.849 30.4583 164.719 30.6602C164.595 30.862 164.533 31.0833 164.533 31.3242C164.533 31.5 164.566 31.6595 164.631 31.8027C164.702 31.9395 164.82 32.0664 164.982 32.1836C165.145 32.2943 165.367 32.3984 165.646 32.4961C165.933 32.5938 166.291 32.6882 166.721 32.7793C167.528 32.9486 168.221 33.1667 168.801 33.4336C169.387 33.694 169.836 34.0326 170.148 34.4492C170.461 34.8594 170.617 35.3802 170.617 36.0117C170.617 36.4805 170.516 36.9102 170.314 37.3008C170.119 37.6849 169.833 38.0202 169.455 38.3066C169.077 38.5866 168.625 38.8047 168.098 38.9609C167.577 39.1172 166.991 39.1953 166.34 39.1953C165.383 39.1953 164.572 39.026 163.908 38.6875C163.244 38.3424 162.74 37.903 162.395 37.3691C162.056 36.8288 161.887 36.2689 161.887 35.6895H164.162C164.188 36.1257 164.309 36.474 164.523 36.7344C164.745 36.9883 165.018 37.1738 165.344 37.291C165.676 37.4017 166.018 37.457 166.369 37.457C166.792 37.457 167.147 37.4017 167.434 37.291C167.72 37.1738 167.938 37.0176 168.088 36.8223C168.238 36.6204 168.312 36.3926 168.312 36.1387ZM175.031 30.582V39H172.678V28.4336H174.895L175.031 30.582ZM174.65 33.3262L173.85 33.3164C173.85 32.5872 173.941 31.9134 174.123 31.2949C174.305 30.6764 174.572 30.1393 174.924 29.6836C175.275 29.2214 175.712 28.8665 176.232 28.6191C176.76 28.3652 177.368 28.2383 178.059 28.2383C178.54 28.2383 178.98 28.3099 179.377 28.4531C179.781 28.5898 180.129 28.8079 180.422 29.1074C180.721 29.4069 180.949 29.791 181.105 30.2598C181.268 30.7285 181.35 31.2949 181.35 31.959V39H178.996V32.1641C178.996 31.6497 178.918 31.2461 178.762 30.9531C178.612 30.6602 178.394 30.4518 178.107 30.3281C177.827 30.1979 177.492 30.1328 177.102 30.1328C176.659 30.1328 176.281 30.2174 175.969 30.3867C175.663 30.556 175.412 30.7871 175.217 31.0801C175.021 31.373 174.878 31.7116 174.787 32.0957C174.696 32.4798 174.65 32.89 174.65 33.3262ZM181.203 32.7012L180.1 32.9453C180.1 32.3073 180.188 31.7051 180.363 31.1387C180.546 30.5658 180.809 30.0645 181.154 29.6348C181.506 29.1986 181.939 28.8568 182.453 28.6094C182.967 28.362 183.557 28.2383 184.221 28.2383C184.761 28.2383 185.243 28.3132 185.666 28.4629C186.096 28.6061 186.46 28.834 186.76 29.1465C187.059 29.459 187.287 29.8659 187.443 30.3672C187.6 30.862 187.678 31.4609 187.678 32.1641V39H185.314V32.1543C185.314 31.6204 185.236 31.207 185.08 30.9141C184.93 30.6211 184.715 30.4193 184.436 30.3086C184.156 30.1914 183.82 30.1328 183.43 30.1328C183.065 30.1328 182.743 30.2012 182.463 30.3379C182.189 30.4681 181.958 30.6536 181.77 30.8945C181.581 31.1289 181.438 31.3991 181.34 31.7051C181.249 32.0111 181.203 32.3431 181.203 32.7012ZM196.057 36.8809V31.8418C196.057 31.4642 195.988 31.1387 195.852 30.8652C195.715 30.5918 195.507 30.3802 195.227 30.2305C194.953 30.0807 194.608 30.0059 194.191 30.0059C193.807 30.0059 193.475 30.071 193.195 30.2012C192.915 30.3314 192.697 30.5072 192.541 30.7285C192.385 30.9499 192.307 31.2005 192.307 31.4805H189.963C189.963 31.0638 190.064 30.6602 190.266 30.2695C190.467 29.8789 190.76 29.5306 191.145 29.2246C191.529 28.9186 191.988 28.6777 192.521 28.502C193.055 28.3262 193.654 28.2383 194.318 28.2383C195.113 28.2383 195.816 28.3717 196.428 28.6387C197.046 28.9056 197.531 29.3092 197.883 29.8496C198.241 30.3835 198.42 31.054 198.42 31.8613V36.5586C198.42 37.0404 198.452 37.4733 198.518 37.8574C198.589 38.235 198.69 38.5638 198.82 38.8438V39H196.408C196.298 38.7461 196.21 38.4238 196.145 38.0332C196.086 37.6361 196.057 37.252 196.057 36.8809ZM196.398 32.5742L196.418 34.0293H194.729C194.292 34.0293 193.908 34.0716 193.576 34.1562C193.244 34.2344 192.967 34.3516 192.746 34.5078C192.525 34.6641 192.359 34.8529 192.248 35.0742C192.137 35.2956 192.082 35.5462 192.082 35.8262C192.082 36.1061 192.147 36.3633 192.277 36.5977C192.408 36.8255 192.596 37.0046 192.844 37.1348C193.098 37.265 193.404 37.3301 193.762 37.3301C194.243 37.3301 194.663 37.2324 195.021 37.0371C195.386 36.8353 195.673 36.5911 195.881 36.3047C196.089 36.0117 196.2 35.735 196.213 35.4746L196.975 36.5195C196.896 36.7865 196.763 37.0729 196.574 37.3789C196.385 37.6849 196.138 37.9779 195.832 38.2578C195.533 38.5312 195.171 38.7559 194.748 38.9316C194.331 39.1074 193.85 39.1953 193.303 39.1953C192.613 39.1953 191.997 39.0586 191.457 38.7852C190.917 38.5052 190.493 38.1309 190.188 37.6621C189.882 37.1868 189.729 36.6497 189.729 36.0508C189.729 35.4909 189.833 34.9961 190.041 34.5664C190.256 34.1302 190.568 33.7656 190.979 33.4727C191.395 33.1797 191.903 32.9583 192.502 32.8086C193.101 32.6523 193.785 32.5742 194.553 32.5742H196.398ZM203.215 30.6895V39H200.861V28.4336H203.078L203.215 30.6895ZM202.795 33.3262L202.033 33.3164C202.04 32.5677 202.144 31.8809 202.346 31.2559C202.554 30.6309 202.84 30.0938 203.205 29.6445C203.576 29.1953 204.019 28.8503 204.533 28.6094C205.048 28.362 205.62 28.2383 206.252 28.2383C206.76 28.2383 207.219 28.3099 207.629 28.4531C208.046 28.5898 208.4 28.8145 208.693 29.127C208.993 29.4395 209.221 29.8464 209.377 30.3477C209.533 30.8424 209.611 31.4512 209.611 32.1738V39H207.248V32.1641C207.248 31.6562 207.173 31.2559 207.023 30.9629C206.88 30.6634 206.669 30.4518 206.389 30.3281C206.115 30.1979 205.773 30.1328 205.363 30.1328C204.96 30.1328 204.598 30.2174 204.279 30.3867C203.96 30.556 203.69 30.7871 203.469 31.0801C203.254 31.373 203.088 31.7116 202.971 32.0957C202.854 32.4798 202.795 32.89 202.795 33.3262Z" fill="black"/>
<path opacity="0.65" d="M82.4668 58.6543H80.1875V57.7344H82.4668C82.9082 57.7344 83.2656 57.6641 83.5391 57.5234C83.8125 57.3828 84.0117 57.1875 84.1367 56.9375C84.2656 56.6875 84.3301 56.4023 84.3301 56.082C84.3301 55.7891 84.2656 55.5137 84.1367 55.2559C84.0117 54.998 83.8125 54.791 83.5391 54.6348C83.2656 54.4746 82.9082 54.3945 82.4668 54.3945H80.4512V62H79.3203V53.4688H82.4668C83.1113 53.4688 83.6562 53.5801 84.1016 53.8027C84.5469 54.0254 84.8848 54.334 85.1152 54.7285C85.3457 55.1191 85.4609 55.5664 85.4609 56.0703C85.4609 56.6172 85.3457 57.084 85.1152 57.4707C84.8848 57.8574 84.5469 58.1523 84.1016 58.3555C83.6562 58.5547 83.1113 58.6543 82.4668 58.6543ZM89.2754 62.1172C88.834 62.1172 88.4336 62.043 88.0742 61.8945C87.7188 61.7422 87.4121 61.5293 87.1543 61.2559C86.9004 60.9824 86.7051 60.6582 86.5684 60.2832C86.4316 59.9082 86.3633 59.498 86.3633 59.0527V58.8066C86.3633 58.291 86.4395 57.832 86.5918 57.4297C86.7441 57.0234 86.9512 56.6797 87.2129 56.3984C87.4746 56.1172 87.7715 55.9043 88.1035 55.7598C88.4355 55.6152 88.7793 55.543 89.1348 55.543C89.5879 55.543 89.9785 55.6211 90.3066 55.7773C90.6387 55.9336 90.9102 56.1523 91.1211 56.4336C91.332 56.7109 91.4883 57.0391 91.5898 57.418C91.6914 57.793 91.7422 58.2031 91.7422 58.6484V59.1348H87.0078V58.25H90.6582V58.168C90.6426 57.8867 90.584 57.6133 90.4824 57.3477C90.3848 57.082 90.2285 56.8633 90.0137 56.6914C89.7988 56.5195 89.5059 56.4336 89.1348 56.4336C88.8887 56.4336 88.6621 56.4863 88.4551 56.5918C88.248 56.6934 88.0703 56.8457 87.9219 57.0488C87.7734 57.252 87.6582 57.5 87.5762 57.793C87.4941 58.0859 87.4531 58.4238 87.4531 58.8066V59.0527C87.4531 59.3535 87.4941 59.6367 87.5762 59.9023C87.6621 60.1641 87.7852 60.3945 87.9453 60.5938C88.1094 60.793 88.3066 60.9492 88.5371 61.0625C88.7715 61.1758 89.0371 61.2324 89.334 61.2324C89.7168 61.2324 90.041 61.1543 90.3066 60.998C90.5723 60.8418 90.8047 60.6328 91.0039 60.3711L91.6602 60.8926C91.5234 61.0996 91.3496 61.2969 91.1387 61.4844C90.9277 61.6719 90.668 61.8242 90.3594 61.9414C90.0547 62.0586 89.6934 62.1172 89.2754 62.1172ZM97.0039 60.7695V53H98.0938V62H97.0977L97.0039 60.7695ZM92.7383 58.9004V58.7773C92.7383 58.293 92.7969 57.8535 92.9141 57.459C93.0352 57.0605 93.2051 56.7188 93.4238 56.4336C93.6465 56.1484 93.9102 55.9297 94.2148 55.7773C94.5234 55.6211 94.8672 55.543 95.2461 55.543C95.6445 55.543 95.9922 55.6133 96.2891 55.7539C96.5898 55.8906 96.8438 56.0918 97.0508 56.3574C97.2617 56.6191 97.4277 56.9355 97.5488 57.3066C97.6699 57.6777 97.7539 58.0977 97.8008 58.5664V59.1055C97.7578 59.5703 97.6738 59.9883 97.5488 60.3594C97.4277 60.7305 97.2617 61.0469 97.0508 61.3086C96.8438 61.5703 96.5898 61.7715 96.2891 61.9121C95.9883 62.0488 95.6367 62.1172 95.2344 62.1172C94.8633 62.1172 94.5234 62.0371 94.2148 61.877C93.9102 61.7168 93.6465 61.4922 93.4238 61.2031C93.2051 60.9141 93.0352 60.5742 92.9141 60.1836C92.7969 59.7891 92.7383 59.3613 92.7383 58.9004ZM93.8281 58.7773V58.9004C93.8281 59.2168 93.8594 59.5137 93.9219 59.791C93.9883 60.0684 94.0898 60.3125 94.2266 60.5234C94.3633 60.7344 94.5371 60.9004 94.748 61.0215C94.959 61.1387 95.2109 61.1973 95.5039 61.1973C95.8633 61.1973 96.1582 61.1211 96.3887 60.9688C96.623 60.8164 96.8105 60.6152 96.9512 60.3652C97.0918 60.1152 97.2012 59.8438 97.2793 59.5508V58.1387C97.2324 57.9238 97.1641 57.7168 97.0742 57.5176C96.9883 57.3145 96.875 57.1348 96.7344 56.9785C96.5977 56.8184 96.4277 56.6914 96.2246 56.5977C96.0254 56.5039 95.7891 56.457 95.5156 56.457C95.2188 56.457 94.9629 56.5195 94.748 56.6445C94.5371 56.7656 94.3633 56.9336 94.2266 57.1484C94.0898 57.3594 93.9883 57.6055 93.9219 57.8867C93.8594 58.1641 93.8281 58.4609 93.8281 58.7773ZM100.959 55.6602V62H99.8691V55.6602H100.959ZM99.7871 53.9785C99.7871 53.8027 99.8398 53.6543 99.9453 53.5332C100.055 53.4121 100.215 53.3516 100.426 53.3516C100.633 53.3516 100.791 53.4121 100.9 53.5332C101.014 53.6543 101.07 53.8027 101.07 53.9785C101.07 54.1465 101.014 54.291 100.9 54.4121C100.791 54.5293 100.633 54.5879 100.426 54.5879C100.215 54.5879 100.055 54.5293 99.9453 54.4121C99.8398 54.291 99.7871 54.1465 99.7871 53.9785ZM106.438 60.916V57.6523C106.438 57.4023 106.387 57.1855 106.285 57.002C106.188 56.8145 106.039 56.6699 105.84 56.5684C105.641 56.4668 105.395 56.416 105.102 56.416C104.828 56.416 104.588 56.4629 104.381 56.5566C104.178 56.6504 104.018 56.7734 103.9 56.9258C103.787 57.0781 103.73 57.2422 103.73 57.418H102.646C102.646 57.1914 102.705 56.9668 102.822 56.7441C102.939 56.5215 103.107 56.3203 103.326 56.1406C103.549 55.957 103.814 55.8125 104.123 55.707C104.436 55.5977 104.783 55.543 105.166 55.543C105.627 55.543 106.033 55.6211 106.385 55.7773C106.74 55.9336 107.018 56.1699 107.217 56.4863C107.42 56.7988 107.521 57.1914 107.521 57.6641V60.6172C107.521 60.8281 107.539 61.0527 107.574 61.291C107.613 61.5293 107.67 61.7344 107.744 61.9062V62H106.613C106.559 61.875 106.516 61.709 106.484 61.502C106.453 61.291 106.438 61.0957 106.438 60.916ZM106.625 58.1562L106.637 58.918H105.541C105.232 58.918 104.957 58.9434 104.715 58.9941C104.473 59.041 104.27 59.1133 104.105 59.2109C103.941 59.3086 103.816 59.4316 103.73 59.5801C103.645 59.7246 103.602 59.8945 103.602 60.0898C103.602 60.2891 103.646 60.4707 103.736 60.6348C103.826 60.7988 103.961 60.9297 104.141 61.0273C104.324 61.1211 104.549 61.168 104.814 61.168C105.146 61.168 105.439 61.0977 105.693 60.957C105.947 60.8164 106.148 60.6445 106.297 60.4414C106.449 60.2383 106.531 60.041 106.543 59.8496L107.006 60.3711C106.979 60.5352 106.904 60.7168 106.783 60.916C106.662 61.1152 106.5 61.3066 106.297 61.4902C106.098 61.6699 105.859 61.8203 105.582 61.9414C105.309 62.0586 105 62.1172 104.656 62.1172C104.227 62.1172 103.85 62.0332 103.525 61.8652C103.205 61.6973 102.955 61.4727 102.775 61.1914C102.6 60.9062 102.512 60.5879 102.512 60.2363C102.512 59.8965 102.578 59.5977 102.711 59.3398C102.844 59.0781 103.035 58.8613 103.285 58.6895C103.535 58.5137 103.836 58.3809 104.188 58.291C104.539 58.2012 104.932 58.1562 105.365 58.1562H106.625ZM111.881 55.6602V56.4922H108.453V55.6602H111.881ZM109.613 54.1191H110.697V60.4297C110.697 60.6445 110.73 60.8066 110.797 60.916C110.863 61.0254 110.949 61.0977 111.055 61.1328C111.16 61.168 111.273 61.1855 111.395 61.1855C111.484 61.1855 111.578 61.1777 111.676 61.1621C111.777 61.1426 111.854 61.127 111.904 61.1152L111.91 62C111.824 62.0273 111.711 62.0527 111.57 62.0762C111.434 62.1035 111.268 62.1172 111.072 62.1172C110.807 62.1172 110.562 62.0645 110.34 61.959C110.117 61.8535 109.939 61.6777 109.807 61.4316C109.678 61.1816 109.613 60.8457 109.613 60.4238V54.1191ZM114.236 56.6562V62H113.152V55.6602H114.207L114.236 56.6562ZM116.217 55.625L116.211 56.6328C116.121 56.6133 116.035 56.6016 115.953 56.5977C115.875 56.5898 115.785 56.5859 115.684 56.5859C115.434 56.5859 115.213 56.625 115.021 56.7031C114.83 56.7812 114.668 56.8906 114.535 57.0312C114.402 57.1719 114.297 57.3398 114.219 57.5352C114.145 57.7266 114.096 57.9375 114.072 58.168L113.768 58.3438C113.768 57.9609 113.805 57.6016 113.879 57.2656C113.957 56.9297 114.076 56.6328 114.236 56.375C114.396 56.1133 114.6 55.9102 114.846 55.7656C115.096 55.6172 115.393 55.543 115.736 55.543C115.814 55.543 115.904 55.5527 116.006 55.5723C116.107 55.5879 116.178 55.6055 116.217 55.625ZM118.396 55.6602V62H117.307V55.6602H118.396ZM117.225 53.9785C117.225 53.8027 117.277 53.6543 117.383 53.5332C117.492 53.4121 117.652 53.3516 117.863 53.3516C118.07 53.3516 118.229 53.4121 118.338 53.5332C118.451 53.6543 118.508 53.8027 118.508 53.9785C118.508 54.1465 118.451 54.291 118.338 54.4121C118.229 54.5293 118.07 54.5879 117.863 54.5879C117.652 54.5879 117.492 54.5293 117.383 54.4121C117.277 54.291 117.225 54.1465 117.225 53.9785ZM122.674 61.2266C122.932 61.2266 123.17 61.1738 123.389 61.0684C123.607 60.9629 123.787 60.8184 123.928 60.6348C124.068 60.4473 124.148 60.2344 124.168 59.9961H125.199C125.18 60.3711 125.053 60.7207 124.818 61.0449C124.588 61.3652 124.285 61.625 123.91 61.8242C123.535 62.0195 123.123 62.1172 122.674 62.1172C122.197 62.1172 121.781 62.0332 121.426 61.8652C121.074 61.6973 120.781 61.4668 120.547 61.1738C120.316 60.8809 120.143 60.5449 120.025 60.166C119.912 59.7832 119.855 59.3789 119.855 58.9531V58.707C119.855 58.2812 119.912 57.8789 120.025 57.5C120.143 57.1172 120.316 56.7793 120.547 56.4863C120.781 56.1934 121.074 55.9629 121.426 55.7949C121.781 55.627 122.197 55.543 122.674 55.543C123.17 55.543 123.604 55.6445 123.975 55.8477C124.346 56.0469 124.637 56.3203 124.848 56.668C125.062 57.0117 125.18 57.4023 125.199 57.8398H124.168C124.148 57.5781 124.074 57.3418 123.945 57.1309C123.82 56.9199 123.648 56.752 123.43 56.627C123.215 56.498 122.963 56.4336 122.674 56.4336C122.342 56.4336 122.062 56.5 121.836 56.6328C121.613 56.7617 121.436 56.9375 121.303 57.1602C121.174 57.3789 121.08 57.623 121.021 57.8926C120.967 58.1582 120.939 58.4297 120.939 58.707V58.9531C120.939 59.2305 120.967 59.5039 121.021 59.7734C121.076 60.043 121.168 60.2871 121.297 60.5059C121.43 60.7246 121.607 60.9004 121.83 61.0332C122.057 61.1621 122.338 61.2266 122.674 61.2266ZM127.596 55.6602V62H126.506V55.6602H127.596ZM126.424 53.9785C126.424 53.8027 126.477 53.6543 126.582 53.5332C126.691 53.4121 126.852 53.3516 127.062 53.3516C127.27 53.3516 127.428 53.4121 127.537 53.5332C127.65 53.6543 127.707 53.8027 127.707 53.9785C127.707 54.1465 127.65 54.291 127.537 54.4121C127.428 54.5293 127.27 54.5879 127.062 54.5879C126.852 54.5879 126.691 54.5293 126.582 54.4121C126.477 54.291 126.424 54.1465 126.424 53.9785ZM133.074 60.916V57.6523C133.074 57.4023 133.023 57.1855 132.922 57.002C132.824 56.8145 132.676 56.6699 132.477 56.5684C132.277 56.4668 132.031 56.416 131.738 56.416C131.465 56.416 131.225 56.4629 131.018 56.5566C130.814 56.6504 130.654 56.7734 130.537 56.9258C130.424 57.0781 130.367 57.2422 130.367 57.418H129.283C129.283 57.1914 129.342 56.9668 129.459 56.7441C129.576 56.5215 129.744 56.3203 129.963 56.1406C130.186 55.957 130.451 55.8125 130.76 55.707C131.072 55.5977 131.42 55.543 131.803 55.543C132.264 55.543 132.67 55.6211 133.021 55.7773C133.377 55.9336 133.654 56.1699 133.854 56.4863C134.057 56.7988 134.158 57.1914 134.158 57.6641V60.6172C134.158 60.8281 134.176 61.0527 134.211 61.291C134.25 61.5293 134.307 61.7344 134.381 61.9062V62H133.25C133.195 61.875 133.152 61.709 133.121 61.502C133.09 61.291 133.074 61.0957 133.074 60.916ZM133.262 58.1562L133.273 58.918H132.178C131.869 58.918 131.594 58.9434 131.352 58.9941C131.109 59.041 130.906 59.1133 130.742 59.2109C130.578 59.3086 130.453 59.4316 130.367 59.5801C130.281 59.7246 130.238 59.8945 130.238 60.0898C130.238 60.2891 130.283 60.4707 130.373 60.6348C130.463 60.7988 130.598 60.9297 130.777 61.0273C130.961 61.1211 131.186 61.168 131.451 61.168C131.783 61.168 132.076 61.0977 132.33 60.957C132.584 60.8164 132.785 60.6445 132.934 60.4414C133.086 60.2383 133.168 60.041 133.18 59.8496L133.643 60.3711C133.615 60.5352 133.541 60.7168 133.42 60.916C133.299 61.1152 133.137 61.3066 132.934 61.4902C132.734 61.6699 132.496 61.8203 132.219 61.9414C131.945 62.0586 131.637 62.1172 131.293 62.1172C130.863 62.1172 130.486 62.0332 130.162 61.8652C129.842 61.6973 129.592 61.4727 129.412 61.1914C129.236 60.9062 129.148 60.5879 129.148 60.2363C129.148 59.8965 129.215 59.5977 129.348 59.3398C129.48 59.0781 129.672 58.8613 129.922 58.6895C130.172 58.5137 130.473 58.3809 130.824 58.291C131.176 58.2012 131.568 58.1562 132.002 58.1562H133.262ZM136.947 57.0137V62H135.863V55.6602H136.889L136.947 57.0137ZM136.689 58.5898L136.238 58.5723C136.242 58.1387 136.307 57.7383 136.432 57.3711C136.557 57 136.732 56.6777 136.959 56.4043C137.186 56.1309 137.455 55.9199 137.768 55.7715C138.084 55.6191 138.434 55.543 138.816 55.543C139.129 55.543 139.41 55.5859 139.66 55.6719C139.91 55.7539 140.123 55.8867 140.299 56.0703C140.479 56.2539 140.615 56.4922 140.709 56.7852C140.803 57.0742 140.85 57.4277 140.85 57.8457V62H139.76V57.834C139.76 57.502 139.711 57.2363 139.613 57.0371C139.516 56.834 139.373 56.6875 139.186 56.5977C138.998 56.5039 138.768 56.457 138.494 56.457C138.225 56.457 137.979 56.5137 137.756 56.627C137.537 56.7402 137.348 56.8965 137.188 57.0957C137.031 57.2949 136.908 57.5234 136.818 57.7812C136.732 58.0352 136.689 58.3047 136.689 58.5898Z" fill="black"/>
<path opacity="0.65" d="M316.789 61.1094V62H311.205V61.2207L314 58.1094C314.344 57.7266 314.609 57.4023 314.797 57.1367C314.988 56.8672 315.121 56.627 315.195 56.416C315.273 56.2012 315.312 55.9824 315.312 55.7598C315.312 55.4785 315.254 55.2246 315.137 54.998C315.023 54.7676 314.855 54.584 314.633 54.4473C314.41 54.3105 314.141 54.2422 313.824 54.2422C313.445 54.2422 313.129 54.3164 312.875 54.4648C312.625 54.6094 312.438 54.8125 312.312 55.0742C312.188 55.3359 312.125 55.6367 312.125 55.9766H311.041C311.041 55.4961 311.146 55.0566 311.357 54.6582C311.568 54.2598 311.881 53.9434 312.295 53.709C312.709 53.4707 313.219 53.3516 313.824 53.3516C314.363 53.3516 314.824 53.4473 315.207 53.6387C315.59 53.8262 315.883 54.0918 316.086 54.4355C316.293 54.7754 316.396 55.1738 316.396 55.6309C316.396 55.8809 316.354 56.1348 316.268 56.3926C316.186 56.6465 316.07 56.9004 315.922 57.1543C315.777 57.4082 315.607 57.6582 315.412 57.9043C315.221 58.1504 315.016 58.3926 314.797 58.6309L312.512 61.1094H316.789ZM318.084 61.4258C318.084 61.2422 318.141 61.0879 318.254 60.9629C318.371 60.834 318.539 60.7695 318.758 60.7695C318.977 60.7695 319.143 60.834 319.256 60.9629C319.373 61.0879 319.432 61.2422 319.432 61.4258C319.432 61.6055 319.373 61.7578 319.256 61.8828C319.143 62.0078 318.977 62.0703 318.758 62.0703C318.539 62.0703 318.371 62.0078 318.254 61.8828C318.141 61.7578 318.084 61.6055 318.084 61.4258ZM322.695 57.2012H323.469C323.848 57.2012 324.16 57.1387 324.406 57.0137C324.656 56.8848 324.842 56.7109 324.963 56.4922C325.088 56.2695 325.15 56.0195 325.15 55.7422C325.15 55.4141 325.096 55.1387 324.986 54.916C324.877 54.6934 324.713 54.5254 324.494 54.4121C324.275 54.2988 323.998 54.2422 323.662 54.2422C323.357 54.2422 323.088 54.3027 322.854 54.4238C322.623 54.541 322.441 54.709 322.309 54.9277C322.18 55.1465 322.115 55.4043 322.115 55.7012H321.031C321.031 55.2676 321.141 54.873 321.359 54.5176C321.578 54.1621 321.885 53.8789 322.279 53.668C322.678 53.457 323.139 53.3516 323.662 53.3516C324.178 53.3516 324.629 53.4434 325.016 53.627C325.402 53.8066 325.703 54.0762 325.918 54.4355C326.133 54.791 326.24 55.2344 326.24 55.7656C326.24 55.9805 326.189 56.2109 326.088 56.457C325.99 56.6992 325.836 56.9258 325.625 57.1367C325.418 57.3477 325.148 57.5215 324.816 57.6582C324.484 57.791 324.086 57.8574 323.621 57.8574H322.695V57.2012ZM322.695 58.0918V57.4414H323.621C324.164 57.4414 324.613 57.5059 324.969 57.6348C325.324 57.7637 325.604 57.9355 325.807 58.1504C326.014 58.3652 326.158 58.6016 326.24 58.8594C326.326 59.1133 326.369 59.3672 326.369 59.6211C326.369 60.0195 326.301 60.373 326.164 60.6816C326.031 60.9902 325.842 61.252 325.596 61.4668C325.354 61.6816 325.068 61.8438 324.74 61.9531C324.412 62.0625 324.055 62.1172 323.668 62.1172C323.297 62.1172 322.947 62.0645 322.619 61.959C322.295 61.8535 322.008 61.7012 321.758 61.502C321.508 61.2988 321.312 61.0508 321.172 60.7578C321.031 60.4609 320.961 60.123 320.961 59.7441H322.045C322.045 60.041 322.109 60.3008 322.238 60.5234C322.371 60.7461 322.559 60.9199 322.801 61.0449C323.047 61.166 323.336 61.2266 323.668 61.2266C324 61.2266 324.285 61.1699 324.523 61.0566C324.766 60.9395 324.951 60.7637 325.08 60.5293C325.213 60.2949 325.279 60 325.279 59.6445C325.279 59.2891 325.205 58.998 325.057 58.7715C324.908 58.541 324.697 58.3711 324.424 58.2617C324.154 58.1484 323.836 58.0918 323.469 58.0918H322.695ZM329.445 57.2012H330.219C330.598 57.2012 330.91 57.1387 331.156 57.0137C331.406 56.8848 331.592 56.7109 331.713 56.4922C331.838 56.2695 331.9 56.0195 331.9 55.7422C331.9 55.4141 331.846 55.1387 331.736 54.916C331.627 54.6934 331.463 54.5254 331.244 54.4121C331.025 54.2988 330.748 54.2422 330.412 54.2422C330.107 54.2422 329.838 54.3027 329.604 54.4238C329.373 54.541 329.191 54.709 329.059 54.9277C328.93 55.1465 328.865 55.4043 328.865 55.7012H327.781C327.781 55.2676 327.891 54.873 328.109 54.5176C328.328 54.1621 328.635 53.8789 329.029 53.668C329.428 53.457 329.889 53.3516 330.412 53.3516C330.928 53.3516 331.379 53.4434 331.766 53.627C332.152 53.8066 332.453 54.0762 332.668 54.4355C332.883 54.791 332.99 55.2344 332.99 55.7656C332.99 55.9805 332.939 56.2109 332.838 56.457C332.74 56.6992 332.586 56.9258 332.375 57.1367C332.168 57.3477 331.898 57.5215 331.566 57.6582C331.234 57.791 330.836 57.8574 330.371 57.8574H329.445V57.2012ZM329.445 58.0918V57.4414H330.371C330.914 57.4414 331.363 57.5059 331.719 57.6348C332.074 57.7637 332.354 57.9355 332.557 58.1504C332.764 58.3652 332.908 58.6016 332.99 58.8594C333.076 59.1133 333.119 59.3672 333.119 59.6211C333.119 60.0195 333.051 60.373 332.914 60.6816C332.781 60.9902 332.592 61.252 332.346 61.4668C332.104 61.6816 331.818 61.8438 331.49 61.9531C331.162 62.0625 330.805 62.1172 330.418 62.1172C330.047 62.1172 329.697 62.0645 329.369 61.959C329.045 61.8535 328.758 61.7012 328.508 61.502C328.258 61.2988 328.062 61.0508 327.922 60.7578C327.781 60.4609 327.711 60.123 327.711 59.7441H328.795C328.795 60.041 328.859 60.3008 328.988 60.5234C329.121 60.7461 329.309 60.9199 329.551 61.0449C329.797 61.166 330.086 61.2266 330.418 61.2266C330.75 61.2266 331.035 61.1699 331.273 61.0566C331.516 60.9395 331.701 60.7637 331.83 60.5293C331.963 60.2949 332.029 60 332.029 59.6445C332.029 59.2891 331.955 58.998 331.807 58.7715C331.658 58.541 331.447 58.3711 331.174 58.2617C330.904 58.1484 330.586 58.0918 330.219 58.0918H329.445ZM335.82 53V62H334.73V53H335.82ZM339.693 55.6602L336.928 58.6191L335.381 60.2246L335.293 59.0703L336.4 57.7461L338.369 55.6602H339.693ZM338.703 62L336.441 58.9766L337.004 58.0098L339.98 62H338.703ZM341.891 56.9199V62H340.801V55.6602H341.832L341.891 56.9199ZM341.668 58.5898L341.164 58.5723C341.168 58.1387 341.225 57.7383 341.334 57.3711C341.443 57 341.605 56.6777 341.82 56.4043C342.035 56.1309 342.303 55.9199 342.623 55.7715C342.943 55.6191 343.314 55.543 343.736 55.543C344.033 55.543 344.307 55.5859 344.557 55.6719C344.807 55.7539 345.023 55.8848 345.207 56.0645C345.391 56.2441 345.533 56.4746 345.635 56.7559C345.736 57.0371 345.787 57.377 345.787 57.7754V62H344.703V57.8281C344.703 57.4961 344.646 57.2305 344.533 57.0312C344.424 56.832 344.268 56.6875 344.064 56.5977C343.861 56.5039 343.623 56.457 343.35 56.457C343.029 56.457 342.762 56.5137 342.547 56.627C342.332 56.7402 342.16 56.8965 342.031 57.0957C341.902 57.2949 341.809 57.5234 341.75 57.7812C341.695 58.0352 341.668 58.3047 341.668 58.5898ZM345.775 57.9922L345.049 58.2148C345.053 57.8672 345.109 57.5332 345.219 57.2129C345.332 56.8926 345.494 56.6074 345.705 56.3574C345.92 56.1074 346.184 55.9102 346.496 55.7656C346.809 55.6172 347.166 55.543 347.568 55.543C347.908 55.543 348.209 55.5879 348.471 55.6777C348.736 55.7676 348.959 55.9062 349.139 56.0938C349.322 56.2773 349.461 56.5137 349.555 56.8027C349.648 57.0918 349.695 57.4355 349.695 57.834V62H348.605V57.8223C348.605 57.4668 348.549 57.1914 348.436 56.9961C348.326 56.7969 348.17 56.6582 347.967 56.5801C347.768 56.498 347.529 56.457 347.252 56.457C347.014 56.457 346.803 56.498 346.619 56.5801C346.436 56.6621 346.281 56.7754 346.156 56.9199C346.031 57.0605 345.936 57.2227 345.869 57.4062C345.807 57.5898 345.775 57.7852 345.775 57.9922Z" fill="black"/>
<path opacity="0.65" d="M97.3457 75.4219V84H96.2617V76.7754L94.0762 77.5723V76.5938L97.1758 75.4219H97.3457ZM105.912 81.6914C105.912 82.2109 105.791 82.6523 105.549 83.0156C105.311 83.375 104.986 83.6484 104.576 83.8359C104.17 84.0234 103.711 84.1172 103.199 84.1172C102.688 84.1172 102.227 84.0234 101.816 83.8359C101.406 83.6484 101.082 83.375 100.844 83.0156C100.605 82.6523 100.486 82.2109 100.486 81.6914C100.486 81.3516 100.551 81.041 100.68 80.7598C100.812 80.4746 100.998 80.2266 101.236 80.0156C101.479 79.8047 101.764 79.6426 102.092 79.5293C102.424 79.4121 102.789 79.3535 103.188 79.3535C103.711 79.3535 104.178 79.4551 104.588 79.6582C104.998 79.8574 105.32 80.1328 105.555 80.4844C105.793 80.8359 105.912 81.2383 105.912 81.6914ZM104.822 81.668C104.822 81.3516 104.754 81.0723 104.617 80.8301C104.48 80.584 104.289 80.3926 104.043 80.2559C103.797 80.1191 103.512 80.0508 103.188 80.0508C102.855 80.0508 102.568 80.1191 102.326 80.2559C102.088 80.3926 101.902 80.584 101.77 80.8301C101.637 81.0723 101.57 81.3516 101.57 81.668C101.57 81.9961 101.635 82.2773 101.764 82.5117C101.896 82.7422 102.084 82.9199 102.326 83.0449C102.572 83.166 102.863 83.2266 103.199 83.2266C103.535 83.2266 103.824 83.166 104.066 83.0449C104.309 82.9199 104.494 82.7422 104.623 82.5117C104.756 82.2773 104.822 81.9961 104.822 81.668ZM105.713 77.6895C105.713 78.1035 105.604 78.4766 105.385 78.8086C105.166 79.1406 104.867 79.4023 104.488 79.5938C104.109 79.7852 103.68 79.8809 103.199 79.8809C102.711 79.8809 102.275 79.7852 101.893 79.5938C101.514 79.4023 101.217 79.1406 101.002 78.8086C100.787 78.4766 100.68 78.1035 100.68 77.6895C100.68 77.1934 100.787 76.7715 101.002 76.4238C101.221 76.0762 101.52 75.8105 101.898 75.627C102.277 75.4434 102.709 75.3516 103.193 75.3516C103.682 75.3516 104.115 75.4434 104.494 75.627C104.873 75.8105 105.17 76.0762 105.385 76.4238C105.604 76.7715 105.713 77.1934 105.713 77.6895ZM104.629 77.707C104.629 77.4219 104.568 77.1699 104.447 76.9512C104.326 76.7324 104.158 76.5605 103.943 76.4355C103.729 76.3066 103.479 76.2422 103.193 76.2422C102.908 76.2422 102.658 76.3027 102.443 76.4238C102.232 76.541 102.066 76.709 101.945 76.9277C101.828 77.1465 101.77 77.4062 101.77 77.707C101.77 78 101.828 78.2559 101.945 78.4746C102.066 78.6934 102.234 78.8633 102.449 78.9844C102.664 79.1055 102.914 79.166 103.199 79.166C103.484 79.166 103.732 79.1055 103.943 78.9844C104.158 78.8633 104.326 78.6934 104.447 78.4746C104.568 78.2559 104.629 78 104.629 77.707ZM108.654 79.9395L107.787 79.7168L108.215 75.4688H112.592V76.4707H109.135L108.877 78.791C109.033 78.7012 109.23 78.6172 109.469 78.5391C109.711 78.4609 109.988 78.4219 110.301 78.4219C110.695 78.4219 111.049 78.4902 111.361 78.627C111.674 78.7598 111.939 78.9512 112.158 79.2012C112.381 79.4512 112.551 79.752 112.668 80.1035C112.785 80.4551 112.844 80.8477 112.844 81.2812C112.844 81.6914 112.787 82.0684 112.674 82.4121C112.564 82.7559 112.398 83.0566 112.176 83.3145C111.953 83.5684 111.672 83.7656 111.332 83.9062C110.996 84.0469 110.6 84.1172 110.143 84.1172C109.799 84.1172 109.473 84.0703 109.164 83.9766C108.859 83.8789 108.586 83.7324 108.344 83.5371C108.105 83.3379 107.91 83.0918 107.758 82.7988C107.609 82.502 107.516 82.1543 107.477 81.7559H108.508C108.555 82.0762 108.648 82.3457 108.789 82.5645C108.93 82.7832 109.113 82.9492 109.34 83.0625C109.57 83.1719 109.838 83.2266 110.143 83.2266C110.4 83.2266 110.629 83.1816 110.828 83.0918C111.027 83.002 111.195 82.873 111.332 82.7051C111.469 82.5371 111.572 82.334 111.643 82.0957C111.717 81.8574 111.754 81.5898 111.754 81.293C111.754 81.0234 111.717 80.7734 111.643 80.543C111.568 80.3125 111.457 80.1113 111.309 79.9395C111.164 79.7676 110.986 79.6348 110.775 79.541C110.564 79.4434 110.322 79.3945 110.049 79.3945C109.686 79.3945 109.41 79.4434 109.223 79.541C109.039 79.6387 108.85 79.7715 108.654 79.9395ZM120.449 76.2246L117.625 84H116.471L119.723 75.4688H120.467L120.449 76.2246ZM122.816 84L119.986 76.2246L119.969 75.4688H120.713L123.977 84H122.816ZM122.67 80.8418V81.7676H117.877V80.8418H122.67ZM127.504 77.6602V78.4922H124.076V77.6602H127.504ZM125.236 76.1191H126.32V82.4297C126.32 82.6445 126.354 82.8066 126.42 82.916C126.486 83.0254 126.572 83.0977 126.678 83.1328C126.783 83.168 126.896 83.1855 127.018 83.1855C127.107 83.1855 127.201 83.1777 127.299 83.1621C127.4 83.1426 127.477 83.127 127.527 83.1152L127.533 84C127.447 84.0273 127.334 84.0527 127.193 84.0762C127.057 84.1035 126.891 84.1172 126.695 84.1172C126.43 84.1172 126.186 84.0645 125.963 83.959C125.74 83.8535 125.562 83.6777 125.43 83.4316C125.301 83.1816 125.236 82.8457 125.236 82.4238V76.1191ZM131.43 77.6602V78.4922H128.002V77.6602H131.43ZM129.162 76.1191H130.246V82.4297C130.246 82.6445 130.279 82.8066 130.346 82.916C130.412 83.0254 130.498 83.0977 130.604 83.1328C130.709 83.168 130.822 83.1855 130.943 83.1855C131.033 83.1855 131.127 83.1777 131.225 83.1621C131.326 83.1426 131.402 83.127 131.453 83.1152L131.459 84C131.373 84.0273 131.26 84.0527 131.119 84.0762C130.982 84.1035 130.816 84.1172 130.621 84.1172C130.355 84.1172 130.111 84.0645 129.889 83.959C129.666 83.8535 129.488 83.6777 129.355 83.4316C129.227 83.1816 129.162 82.8457 129.162 82.4238V76.1191ZM136.439 82.916V79.6523C136.439 79.4023 136.389 79.1855 136.287 79.002C136.189 78.8145 136.041 78.6699 135.842 78.5684C135.643 78.4668 135.396 78.416 135.104 78.416C134.83 78.416 134.59 78.4629 134.383 78.5566C134.18 78.6504 134.02 78.7734 133.902 78.9258C133.789 79.0781 133.732 79.2422 133.732 79.418H132.648C132.648 79.1914 132.707 78.9668 132.824 78.7441C132.941 78.5215 133.109 78.3203 133.328 78.1406C133.551 77.957 133.816 77.8125 134.125 77.707C134.438 77.5977 134.785 77.543 135.168 77.543C135.629 77.543 136.035 77.6211 136.387 77.7773C136.742 77.9336 137.02 78.1699 137.219 78.4863C137.422 78.7988 137.523 79.1914 137.523 79.6641V82.6172C137.523 82.8281 137.541 83.0527 137.576 83.291C137.615 83.5293 137.672 83.7344 137.746 83.9062V84H136.615C136.561 83.875 136.518 83.709 136.486 83.502C136.455 83.291 136.439 83.0957 136.439 82.916ZM136.627 80.1562L136.639 80.918H135.543C135.234 80.918 134.959 80.9434 134.717 80.9941C134.475 81.041 134.271 81.1133 134.107 81.2109C133.943 81.3086 133.818 81.4316 133.732 81.5801C133.646 81.7246 133.604 81.8945 133.604 82.0898C133.604 82.2891 133.648 82.4707 133.738 82.6348C133.828 82.7988 133.963 82.9297 134.143 83.0273C134.326 83.1211 134.551 83.168 134.816 83.168C135.148 83.168 135.441 83.0977 135.695 82.957C135.949 82.8164 136.15 82.6445 136.299 82.4414C136.451 82.2383 136.533 82.041 136.545 81.8496L137.008 82.3711C136.98 82.5352 136.906 82.7168 136.785 82.916C136.664 83.1152 136.502 83.3066 136.299 83.4902C136.1 83.6699 135.861 83.8203 135.584 83.9414C135.311 84.0586 135.002 84.1172 134.658 84.1172C134.229 84.1172 133.852 84.0332 133.527 83.8652C133.207 83.6973 132.957 83.4727 132.777 83.1914C132.602 82.9062 132.514 82.5879 132.514 82.2363C132.514 81.8965 132.58 81.5977 132.713 81.3398C132.846 81.0781 133.037 80.8613 133.287 80.6895C133.537 80.5137 133.838 80.3809 134.189 80.291C134.541 80.2012 134.934 80.1562 135.367 80.1562H136.627ZM140.834 82.875L142.463 77.6602H143.178L143.037 78.6973L141.379 84H140.682L140.834 82.875ZM139.738 77.6602L141.127 82.9336L141.227 84H140.494L138.654 77.6602H139.738ZM144.736 82.8926L146.061 77.6602H147.139L145.299 84H144.572L144.736 82.8926ZM143.336 77.6602L144.93 82.7871L145.111 84H144.42L142.715 78.6855L142.574 77.6602H143.336ZM151.99 82.916V79.6523C151.99 79.4023 151.939 79.1855 151.838 79.002C151.74 78.8145 151.592 78.6699 151.393 78.5684C151.193 78.4668 150.947 78.416 150.654 78.416C150.381 78.416 150.141 78.4629 149.934 78.5566C149.73 78.6504 149.57 78.7734 149.453 78.9258C149.34 79.0781 149.283 79.2422 149.283 79.418H148.199C148.199 79.1914 148.258 78.9668 148.375 78.7441C148.492 78.5215 148.66 78.3203 148.879 78.1406C149.102 77.957 149.367 77.8125 149.676 77.707C149.988 77.5977 150.336 77.543 150.719 77.543C151.18 77.543 151.586 77.6211 151.938 77.7773C152.293 77.9336 152.57 78.1699 152.77 78.4863C152.973 78.7988 153.074 79.1914 153.074 79.6641V82.6172C153.074 82.8281 153.092 83.0527 153.127 83.291C153.166 83.5293 153.223 83.7344 153.297 83.9062V84H152.166C152.111 83.875 152.068 83.709 152.037 83.502C152.006 83.291 151.99 83.0957 151.99 82.916ZM152.178 80.1562L152.189 80.918H151.094C150.785 80.918 150.51 80.9434 150.268 80.9941C150.025 81.041 149.822 81.1133 149.658 81.2109C149.494 81.3086 149.369 81.4316 149.283 81.5801C149.197 81.7246 149.154 81.8945 149.154 82.0898C149.154 82.2891 149.199 82.4707 149.289 82.6348C149.379 82.7988 149.514 82.9297 149.693 83.0273C149.877 83.1211 150.102 83.168 150.367 83.168C150.699 83.168 150.992 83.0977 151.246 82.957C151.5 82.8164 151.701 82.6445 151.85 82.4414C152.002 82.2383 152.084 82.041 152.096 81.8496L152.559 82.3711C152.531 82.5352 152.457 82.7168 152.336 82.916C152.215 83.1152 152.053 83.3066 151.85 83.4902C151.65 83.6699 151.412 83.8203 151.135 83.9414C150.861 84.0586 150.553 84.1172 150.209 84.1172C149.779 84.1172 149.402 84.0332 149.078 83.8652C148.758 83.6973 148.508 83.4727 148.328 83.1914C148.152 82.9062 148.064 82.5879 148.064 82.2363C148.064 81.8965 148.131 81.5977 148.264 81.3398C148.396 81.0781 148.588 80.8613 148.838 80.6895C149.088 80.5137 149.389 80.3809 149.74 80.291C150.092 80.2012 150.484 80.1562 150.918 80.1562H152.178ZM156.467 83.3438L158.23 77.6602H159.391L156.848 84.9785C156.789 85.1348 156.711 85.3027 156.613 85.4824C156.52 85.666 156.398 85.8398 156.25 86.0039C156.102 86.168 155.922 86.3008 155.711 86.4023C155.504 86.5078 155.256 86.5605 154.967 86.5605C154.881 86.5605 154.771 86.5488 154.639 86.5254C154.506 86.502 154.412 86.4824 154.357 86.4668L154.352 85.5879C154.383 85.5918 154.432 85.5957 154.498 85.5996C154.568 85.6074 154.617 85.6113 154.645 85.6113C154.891 85.6113 155.1 85.5781 155.271 85.5117C155.443 85.4492 155.588 85.3418 155.705 85.1895C155.826 85.041 155.93 84.8359 156.016 84.5742L156.467 83.3438ZM155.172 77.6602L156.818 82.582L157.1 83.7246L156.32 84.123L153.988 77.6602H155.172ZM168.057 81.8438C168.057 81.6445 168.025 81.4688 167.963 81.3164C167.904 81.1602 167.799 81.0195 167.646 80.8945C167.498 80.7695 167.291 80.6504 167.025 80.5371C166.764 80.4238 166.432 80.3086 166.029 80.1914C165.607 80.0664 165.227 79.9277 164.887 79.7754C164.547 79.6191 164.256 79.4414 164.014 79.2422C163.771 79.043 163.586 78.8145 163.457 78.5566C163.328 78.2988 163.264 78.0039 163.264 77.6719C163.264 77.3398 163.332 77.0332 163.469 76.752C163.605 76.4707 163.801 76.2266 164.055 76.0195C164.312 75.8086 164.619 75.6445 164.975 75.5273C165.33 75.4102 165.727 75.3516 166.164 75.3516C166.805 75.3516 167.348 75.4746 167.793 75.7207C168.242 75.9629 168.584 76.2812 168.818 76.6758C169.053 77.0664 169.17 77.4844 169.17 77.9297H168.045C168.045 77.6094 167.977 77.3262 167.84 77.0801C167.703 76.8301 167.496 76.6348 167.219 76.4941C166.941 76.3496 166.59 76.2773 166.164 76.2773C165.762 76.2773 165.43 76.3379 165.168 76.459C164.906 76.5801 164.711 76.7441 164.582 76.9512C164.457 77.1582 164.395 77.3945 164.395 77.6602C164.395 77.8398 164.432 78.0039 164.506 78.1523C164.584 78.2969 164.703 78.4316 164.863 78.5566C165.027 78.6816 165.234 78.7969 165.484 78.9023C165.738 79.0078 166.041 79.1094 166.393 79.207C166.877 79.3438 167.295 79.4961 167.646 79.6641C167.998 79.832 168.287 80.0215 168.514 80.2324C168.744 80.4395 168.914 80.6758 169.023 80.9414C169.137 81.2031 169.193 81.5 169.193 81.832C169.193 82.1797 169.123 82.4941 168.982 82.7754C168.842 83.0566 168.641 83.2969 168.379 83.4961C168.117 83.6953 167.803 83.8496 167.436 83.959C167.072 84.0645 166.666 84.1172 166.217 84.1172C165.822 84.1172 165.434 84.0625 165.051 83.9531C164.672 83.8438 164.326 83.6797 164.014 83.4609C163.705 83.2422 163.457 82.9727 163.27 82.6523C163.086 82.3281 162.994 81.9531 162.994 81.5273H164.119C164.119 81.8203 164.176 82.0723 164.289 82.2832C164.402 82.4902 164.557 82.6621 164.752 82.7988C164.951 82.9355 165.176 83.0371 165.426 83.1035C165.68 83.166 165.943 83.1973 166.217 83.1973C166.611 83.1973 166.945 83.1426 167.219 83.0332C167.492 82.9238 167.699 82.7676 167.84 82.5645C167.984 82.3613 168.057 82.1211 168.057 81.8438ZM173.125 77.6602V78.4922H169.697V77.6602H173.125ZM170.857 76.1191H171.941V82.4297C171.941 82.6445 171.975 82.8066 172.041 82.916C172.107 83.0254 172.193 83.0977 172.299 83.1328C172.404 83.168 172.518 83.1855 172.639 83.1855C172.729 83.1855 172.822 83.1777 172.92 83.1621C173.021 83.1426 173.098 83.127 173.148 83.1152L173.154 84C173.068 84.0273 172.955 84.0527 172.814 84.0762C172.678 84.1035 172.512 84.1172 172.316 84.1172C172.051 84.1172 171.807 84.0645 171.584 83.959C171.361 83.8535 171.184 83.6777 171.051 83.4316C170.922 83.1816 170.857 82.8457 170.857 82.4238V76.1191ZM175.48 78.6562V84H174.396V77.6602H175.451L175.48 78.6562ZM177.461 77.625L177.455 78.6328C177.365 78.6133 177.279 78.6016 177.197 78.5977C177.119 78.5898 177.029 78.5859 176.928 78.5859C176.678 78.5859 176.457 78.625 176.266 78.7031C176.074 78.7812 175.912 78.8906 175.779 79.0312C175.646 79.1719 175.541 79.3398 175.463 79.5352C175.389 79.7266 175.34 79.9375 175.316 80.168L175.012 80.3438C175.012 79.9609 175.049 79.6016 175.123 79.2656C175.201 78.9297 175.32 78.6328 175.48 78.375C175.641 78.1133 175.844 77.9102 176.09 77.7656C176.34 77.6172 176.637 77.543 176.98 77.543C177.059 77.543 177.148 77.5527 177.25 77.5723C177.352 77.5879 177.422 77.6055 177.461 77.625ZM180.977 84.1172C180.535 84.1172 180.135 84.043 179.775 83.8945C179.42 83.7422 179.113 83.5293 178.855 83.2559C178.602 82.9824 178.406 82.6582 178.27 82.2832C178.133 81.9082 178.064 81.498 178.064 81.0527V80.8066C178.064 80.291 178.141 79.832 178.293 79.4297C178.445 79.0234 178.652 78.6797 178.914 78.3984C179.176 78.1172 179.473 77.9043 179.805 77.7598C180.137 77.6152 180.48 77.543 180.836 77.543C181.289 77.543 181.68 77.6211 182.008 77.7773C182.34 77.9336 182.611 78.1523 182.822 78.4336C183.033 78.7109 183.189 79.0391 183.291 79.418C183.393 79.793 183.443 80.2031 183.443 80.6484V81.1348H178.709V80.25H182.359V80.168C182.344 79.8867 182.285 79.6133 182.184 79.3477C182.086 79.082 181.93 78.8633 181.715 78.6914C181.5 78.5195 181.207 78.4336 180.836 78.4336C180.59 78.4336 180.363 78.4863 180.156 78.5918C179.949 78.6934 179.771 78.8457 179.623 79.0488C179.475 79.252 179.359 79.5 179.277 79.793C179.195 80.0859 179.154 80.4238 179.154 80.8066V81.0527C179.154 81.3535 179.195 81.6367 179.277 81.9023C179.363 82.1641 179.486 82.3945 179.646 82.5938C179.811 82.793 180.008 82.9492 180.238 83.0625C180.473 83.1758 180.738 83.2324 181.035 83.2324C181.418 83.2324 181.742 83.1543 182.008 82.998C182.273 82.8418 182.506 82.6328 182.705 82.3711L183.361 82.8926C183.225 83.0996 183.051 83.2969 182.84 83.4844C182.629 83.6719 182.369 83.8242 182.061 83.9414C181.756 84.0586 181.395 84.1172 180.977 84.1172ZM187.34 84.1172C186.898 84.1172 186.498 84.043 186.139 83.8945C185.783 83.7422 185.477 83.5293 185.219 83.2559C184.965 82.9824 184.77 82.6582 184.633 82.2832C184.496 81.9082 184.428 81.498 184.428 81.0527V80.8066C184.428 80.291 184.504 79.832 184.656 79.4297C184.809 79.0234 185.016 78.6797 185.277 78.3984C185.539 78.1172 185.836 77.9043 186.168 77.7598C186.5 77.6152 186.844 77.543 187.199 77.543C187.652 77.543 188.043 77.6211 188.371 77.7773C188.703 77.9336 188.975 78.1523 189.186 78.4336C189.396 78.7109 189.553 79.0391 189.654 79.418C189.756 79.793 189.807 80.2031 189.807 80.6484V81.1348H185.072V80.25H188.723V80.168C188.707 79.8867 188.648 79.6133 188.547 79.3477C188.449 79.082 188.293 78.8633 188.078 78.6914C187.863 78.5195 187.57 78.4336 187.199 78.4336C186.953 78.4336 186.727 78.4863 186.52 78.5918C186.312 78.6934 186.135 78.8457 185.986 79.0488C185.838 79.252 185.723 79.5 185.641 79.793C185.559 80.0859 185.518 80.4238 185.518 80.8066V81.0527C185.518 81.3535 185.559 81.6367 185.641 81.9023C185.727 82.1641 185.85 82.3945 186.01 82.5938C186.174 82.793 186.371 82.9492 186.602 83.0625C186.836 83.1758 187.102 83.2324 187.398 83.2324C187.781 83.2324 188.105 83.1543 188.371 82.998C188.637 82.8418 188.869 82.6328 189.068 82.3711L189.725 82.8926C189.588 83.0996 189.414 83.2969 189.203 83.4844C188.992 83.6719 188.732 83.8242 188.424 83.9414C188.119 84.0586 187.758 84.1172 187.34 84.1172ZM193.727 77.6602V78.4922H190.299V77.6602H193.727ZM191.459 76.1191H192.543V82.4297C192.543 82.6445 192.576 82.8066 192.643 82.916C192.709 83.0254 192.795 83.0977 192.9 83.1328C193.006 83.168 193.119 83.1855 193.24 83.1855C193.33 83.1855 193.424 83.1777 193.521 83.1621C193.623 83.1426 193.699 83.127 193.75 83.1152L193.756 84C193.67 84.0273 193.557 84.0527 193.416 84.0762C193.279 84.1035 193.113 84.1172 192.918 84.1172C192.652 84.1172 192.408 84.0645 192.186 83.959C191.963 83.8535 191.785 83.6777 191.652 83.4316C191.523 83.1816 191.459 82.8457 191.459 82.4238V76.1191ZM195.982 82.7109V83.584C195.982 83.9395 195.893 84.3145 195.713 84.709C195.533 85.1074 195.281 85.4395 194.957 85.7051L194.342 85.2773C194.467 85.1055 194.572 84.9297 194.658 84.75C194.744 84.5742 194.809 84.3906 194.852 84.1992C194.898 84.0117 194.922 83.8125 194.922 83.6016V82.7109H195.982ZM203.424 75.4688V84H202.311V75.4688H203.424ZM206.166 75.4688V76.3945H199.574V75.4688H206.166ZM206.395 80.9004V80.7656C206.395 80.3086 206.461 79.8848 206.594 79.4941C206.727 79.0996 206.918 78.7578 207.168 78.4688C207.418 78.1758 207.721 77.9492 208.076 77.7891C208.432 77.625 208.83 77.543 209.271 77.543C209.717 77.543 210.117 77.625 210.473 77.7891C210.832 77.9492 211.137 78.1758 211.387 78.4688C211.641 78.7578 211.834 79.0996 211.967 79.4941C212.1 79.8848 212.166 80.3086 212.166 80.7656V80.9004C212.166 81.3574 212.1 81.7812 211.967 82.1719C211.834 82.5625 211.641 82.9043 211.387 83.1973C211.137 83.4863 210.834 83.7129 210.479 83.877C210.127 84.0371 209.729 84.1172 209.283 84.1172C208.838 84.1172 208.438 84.0371 208.082 83.877C207.727 83.7129 207.422 83.4863 207.168 83.1973C206.918 82.9043 206.727 82.5625 206.594 82.1719C206.461 81.7812 206.395 81.3574 206.395 80.9004ZM207.479 80.7656V80.9004C207.479 81.2168 207.516 81.5156 207.59 81.7969C207.664 82.0742 207.775 82.3203 207.924 82.5352C208.076 82.75 208.266 82.9199 208.492 83.0449C208.719 83.166 208.982 83.2266 209.283 83.2266C209.58 83.2266 209.84 83.166 210.062 83.0449C210.289 82.9199 210.477 82.75 210.625 82.5352C210.773 82.3203 210.885 82.0742 210.959 81.7969C211.037 81.5156 211.076 81.2168 211.076 80.9004V80.7656C211.076 80.4531 211.037 80.1582 210.959 79.8809C210.885 79.5996 210.771 79.3516 210.619 79.1367C210.471 78.918 210.283 78.7461 210.057 78.6211C209.834 78.4961 209.572 78.4336 209.271 78.4336C208.975 78.4336 208.713 78.4961 208.486 78.6211C208.264 78.7461 208.076 78.918 207.924 79.1367C207.775 79.3516 207.664 79.5996 207.59 79.8809C207.516 80.1582 207.479 80.4531 207.479 80.7656ZM214.609 78.6562V84H213.525V77.6602H214.58L214.609 78.6562ZM216.59 77.625L216.584 78.6328C216.494 78.6133 216.408 78.6016 216.326 78.5977C216.248 78.5898 216.158 78.5859 216.057 78.5859C215.807 78.5859 215.586 78.625 215.395 78.7031C215.203 78.7812 215.041 78.8906 214.908 79.0312C214.775 79.1719 214.67 79.3398 214.592 79.5352C214.518 79.7266 214.469 79.9375 214.445 80.168L214.141 80.3438C214.141 79.9609 214.178 79.6016 214.252 79.2656C214.33 78.9297 214.449 78.6328 214.609 78.375C214.77 78.1133 214.973 77.9102 215.219 77.7656C215.469 77.6172 215.766 77.543 216.109 77.543C216.188 77.543 216.277 77.5527 216.379 77.5723C216.48 77.5879 216.551 77.6055 216.59 77.625ZM217.188 80.9004V80.7656C217.188 80.3086 217.254 79.8848 217.387 79.4941C217.52 79.0996 217.711 78.7578 217.961 78.4688C218.211 78.1758 218.514 77.9492 218.869 77.7891C219.225 77.625 219.623 77.543 220.064 77.543C220.51 77.543 220.91 77.625 221.266 77.7891C221.625 77.9492 221.93 78.1758 222.18 78.4688C222.434 78.7578 222.627 79.0996 222.76 79.4941C222.893 79.8848 222.959 80.3086 222.959 80.7656V80.9004C222.959 81.3574 222.893 81.7812 222.76 82.1719C222.627 82.5625 222.434 82.9043 222.18 83.1973C221.93 83.4863 221.627 83.7129 221.271 83.877C220.92 84.0371 220.521 84.1172 220.076 84.1172C219.631 84.1172 219.23 84.0371 218.875 83.877C218.52 83.7129 218.215 83.4863 217.961 83.1973C217.711 82.9043 217.52 82.5625 217.387 82.1719C217.254 81.7812 217.188 81.3574 217.188 80.9004ZM218.271 80.7656V80.9004C218.271 81.2168 218.309 81.5156 218.383 81.7969C218.457 82.0742 218.568 82.3203 218.717 82.5352C218.869 82.75 219.059 82.9199 219.285 83.0449C219.512 83.166 219.775 83.2266 220.076 83.2266C220.373 83.2266 220.633 83.166 220.855 83.0449C221.082 82.9199 221.27 82.75 221.418 82.5352C221.566 82.3203 221.678 82.0742 221.752 81.7969C221.83 81.5156 221.869 81.2168 221.869 80.9004V80.7656C221.869 80.4531 221.83 80.1582 221.752 79.8809C221.678 79.5996 221.564 79.3516 221.412 79.1367C221.264 78.918 221.076 78.7461 220.85 78.6211C220.627 78.4961 220.365 78.4336 220.064 78.4336C219.768 78.4336 219.506 78.4961 219.279 78.6211C219.057 78.7461 218.869 78.918 218.717 79.1367C218.568 79.3516 218.457 79.5996 218.383 79.8809C218.309 80.1582 218.271 80.4531 218.271 80.7656ZM225.402 79.0137V84H224.318V77.6602H225.344L225.402 79.0137ZM225.145 80.5898L224.693 80.5723C224.697 80.1387 224.762 79.7383 224.887 79.3711C225.012 79 225.188 78.6777 225.414 78.4043C225.641 78.1309 225.91 77.9199 226.223 77.7715C226.539 77.6191 226.889 77.543 227.271 77.543C227.584 77.543 227.865 77.5859 228.115 77.6719C228.365 77.7539 228.578 77.8867 228.754 78.0703C228.934 78.2539 229.07 78.4922 229.164 78.7852C229.258 79.0742 229.305 79.4277 229.305 79.8457V84H228.215V79.834C228.215 79.502 228.166 79.2363 228.068 79.0371C227.971 78.834 227.828 78.6875 227.641 78.5977C227.453 78.5039 227.223 78.457 226.949 78.457C226.68 78.457 226.434 78.5137 226.211 78.627C225.992 78.7402 225.803 78.8965 225.643 79.0957C225.486 79.2949 225.363 79.5234 225.273 79.7812C225.188 80.0352 225.145 80.3047 225.145 80.5898ZM233.605 77.6602V78.4922H230.178V77.6602H233.605ZM231.338 76.1191H232.422V82.4297C232.422 82.6445 232.455 82.8066 232.521 82.916C232.588 83.0254 232.674 83.0977 232.779 83.1328C232.885 83.168 232.998 83.1855 233.119 83.1855C233.209 83.1855 233.303 83.1777 233.4 83.1621C233.502 83.1426 233.578 83.127 233.629 83.1152L233.635 84C233.549 84.0273 233.436 84.0527 233.295 84.0762C233.158 84.1035 232.992 84.1172 232.797 84.1172C232.531 84.1172 232.287 84.0645 232.064 83.959C231.842 83.8535 231.664 83.6777 231.531 83.4316C231.402 83.1816 231.338 82.8457 231.338 82.4238V76.1191ZM234.473 80.9004V80.7656C234.473 80.3086 234.539 79.8848 234.672 79.4941C234.805 79.0996 234.996 78.7578 235.246 78.4688C235.496 78.1758 235.799 77.9492 236.154 77.7891C236.51 77.625 236.908 77.543 237.35 77.543C237.795 77.543 238.195 77.625 238.551 77.7891C238.91 77.9492 239.215 78.1758 239.465 78.4688C239.719 78.7578 239.912 79.0996 240.045 79.4941C240.178 79.8848 240.244 80.3086 240.244 80.7656V80.9004C240.244 81.3574 240.178 81.7812 240.045 82.1719C239.912 82.5625 239.719 82.9043 239.465 83.1973C239.215 83.4863 238.912 83.7129 238.557 83.877C238.205 84.0371 237.807 84.1172 237.361 84.1172C236.916 84.1172 236.516 84.0371 236.16 83.877C235.805 83.7129 235.5 83.4863 235.246 83.1973C234.996 82.9043 234.805 82.5625 234.672 82.1719C234.539 81.7812 234.473 81.3574 234.473 80.9004ZM235.557 80.7656V80.9004C235.557 81.2168 235.594 81.5156 235.668 81.7969C235.742 82.0742 235.854 82.3203 236.002 82.5352C236.154 82.75 236.344 82.9199 236.57 83.0449C236.797 83.166 237.061 83.2266 237.361 83.2266C237.658 83.2266 237.918 83.166 238.141 83.0449C238.367 82.9199 238.555 82.75 238.703 82.5352C238.852 82.3203 238.963 82.0742 239.037 81.7969C239.115 81.5156 239.154 81.2168 239.154 80.9004V80.7656C239.154 80.4531 239.115 80.1582 239.037 79.8809C238.963 79.5996 238.85 79.3516 238.697 79.1367C238.549 78.918 238.361 78.7461 238.135 78.6211C237.912 78.4961 237.65 78.4336 237.35 78.4336C237.053 78.4336 236.791 78.4961 236.564 78.6211C236.342 78.7461 236.154 78.918 236.002 79.1367C235.854 79.3516 235.742 79.5996 235.668 79.8809C235.594 80.1582 235.557 80.4531 235.557 80.7656ZM242.588 82.7109V83.584C242.588 83.9395 242.498 84.3145 242.318 84.709C242.139 85.1074 241.887 85.4395 241.562 85.7051L240.947 85.2773C241.072 85.1055 241.178 84.9297 241.264 84.75C241.35 84.5742 241.414 84.3906 241.457 84.1992C241.504 84.0117 241.527 83.8125 241.527 83.6016V82.7109H242.588ZM252.262 81.2871H253.387C253.328 81.8262 253.174 82.3086 252.924 82.7344C252.674 83.1602 252.32 83.498 251.863 83.748C251.406 83.9941 250.836 84.1172 250.152 84.1172C249.652 84.1172 249.197 84.0234 248.787 83.8359C248.381 83.6484 248.031 83.3828 247.738 83.0391C247.445 82.6914 247.219 82.2754 247.059 81.791C246.902 81.3027 246.824 80.7598 246.824 80.1621V79.3125C246.824 78.7148 246.902 78.1738 247.059 77.6895C247.219 77.2012 247.447 76.7832 247.744 76.4355C248.045 76.0879 248.406 75.8203 248.828 75.6328C249.25 75.4453 249.725 75.3516 250.252 75.3516C250.896 75.3516 251.441 75.4727 251.887 75.7148C252.332 75.957 252.678 76.293 252.924 76.7227C253.174 77.1484 253.328 77.6426 253.387 78.2051H252.262C252.207 77.8066 252.105 77.4648 251.957 77.1797C251.809 76.8906 251.598 76.668 251.324 76.5117C251.051 76.3555 250.693 76.2773 250.252 76.2773C249.873 76.2773 249.539 76.3496 249.25 76.4941C248.965 76.6387 248.725 76.8438 248.529 77.1094C248.338 77.375 248.193 77.6934 248.096 78.0645C247.998 78.4355 247.949 78.8477 247.949 79.3008V80.1621C247.949 80.5801 247.992 80.9727 248.078 81.3398C248.168 81.707 248.303 82.0293 248.482 82.3066C248.662 82.584 248.891 82.8027 249.168 82.9629C249.445 83.1191 249.773 83.1973 250.152 83.1973C250.633 83.1973 251.016 83.1211 251.301 82.9688C251.586 82.8164 251.801 82.5977 251.945 82.3125C252.094 82.0273 252.199 81.6855 252.262 81.2871ZM258.502 82.916V79.6523C258.502 79.4023 258.451 79.1855 258.35 79.002C258.252 78.8145 258.104 78.6699 257.904 78.5684C257.705 78.4668 257.459 78.416 257.166 78.416C256.893 78.416 256.652 78.4629 256.445 78.5566C256.242 78.6504 256.082 78.7734 255.965 78.9258C255.852 79.0781 255.795 79.2422 255.795 79.418H254.711C254.711 79.1914 254.77 78.9668 254.887 78.7441C255.004 78.5215 255.172 78.3203 255.391 78.1406C255.613 77.957 255.879 77.8125 256.188 77.707C256.5 77.5977 256.848 77.543 257.23 77.543C257.691 77.543 258.098 77.6211 258.449 77.7773C258.805 77.9336 259.082 78.1699 259.281 78.4863C259.484 78.7988 259.586 79.1914 259.586 79.6641V82.6172C259.586 82.8281 259.604 83.0527 259.639 83.291C259.678 83.5293 259.734 83.7344 259.809 83.9062V84H258.678C258.623 83.875 258.58 83.709 258.549 83.502C258.518 83.291 258.502 83.0957 258.502 82.916ZM258.689 80.1562L258.701 80.918H257.605C257.297 80.918 257.021 80.9434 256.779 80.9941C256.537 81.041 256.334 81.1133 256.17 81.2109C256.006 81.3086 255.881 81.4316 255.795 81.5801C255.709 81.7246 255.666 81.8945 255.666 82.0898C255.666 82.2891 255.711 82.4707 255.801 82.6348C255.891 82.7988 256.025 82.9297 256.205 83.0273C256.389 83.1211 256.613 83.168 256.879 83.168C257.211 83.168 257.504 83.0977 257.758 82.957C258.012 82.8164 258.213 82.6445 258.361 82.4414C258.514 82.2383 258.596 82.041 258.607 81.8496L259.07 82.3711C259.043 82.5352 258.969 82.7168 258.848 82.916C258.727 83.1152 258.564 83.3066 258.361 83.4902C258.162 83.6699 257.924 83.8203 257.646 83.9414C257.373 84.0586 257.064 84.1172 256.721 84.1172C256.291 84.1172 255.914 84.0332 255.59 83.8652C255.27 83.6973 255.02 83.4727 254.84 83.1914C254.664 82.9062 254.576 82.5879 254.576 82.2363C254.576 81.8965 254.643 81.5977 254.775 81.3398C254.908 81.0781 255.1 80.8613 255.35 80.6895C255.6 80.5137 255.9 80.3809 256.252 80.291C256.604 80.2012 256.996 80.1562 257.43 80.1562H258.689ZM262.375 79.0137V84H261.291V77.6602H262.316L262.375 79.0137ZM262.117 80.5898L261.666 80.5723C261.67 80.1387 261.734 79.7383 261.859 79.3711C261.984 79 262.16 78.6777 262.387 78.4043C262.613 78.1309 262.883 77.9199 263.195 77.7715C263.512 77.6191 263.861 77.543 264.244 77.543C264.557 77.543 264.838 77.5859 265.088 77.6719C265.338 77.7539 265.551 77.8867 265.727 78.0703C265.906 78.2539 266.043 78.4922 266.137 78.7852C266.23 79.0742 266.277 79.4277 266.277 79.8457V84H265.188V79.834C265.188 79.502 265.139 79.2363 265.041 79.0371C264.943 78.834 264.801 78.6875 264.613 78.5977C264.426 78.5039 264.195 78.457 263.922 78.457C263.652 78.457 263.406 78.5137 263.184 78.627C262.965 78.7402 262.775 78.8965 262.615 79.0957C262.459 79.2949 262.336 79.5234 262.246 79.7812C262.16 80.0352 262.117 80.3047 262.117 80.5898ZM271.662 82.916V79.6523C271.662 79.4023 271.611 79.1855 271.51 79.002C271.412 78.8145 271.264 78.6699 271.064 78.5684C270.865 78.4668 270.619 78.416 270.326 78.416C270.053 78.416 269.812 78.4629 269.605 78.5566C269.402 78.6504 269.242 78.7734 269.125 78.9258C269.012 79.0781 268.955 79.2422 268.955 79.418H267.871C267.871 79.1914 267.93 78.9668 268.047 78.7441C268.164 78.5215 268.332 78.3203 268.551 78.1406C268.773 77.957 269.039 77.8125 269.348 77.707C269.66 77.5977 270.008 77.543 270.391 77.543C270.852 77.543 271.258 77.6211 271.609 77.7773C271.965 77.9336 272.242 78.1699 272.441 78.4863C272.645 78.7988 272.746 79.1914 272.746 79.6641V82.6172C272.746 82.8281 272.764 83.0527 272.799 83.291C272.838 83.5293 272.895 83.7344 272.969 83.9062V84H271.838C271.783 83.875 271.74 83.709 271.709 83.502C271.678 83.291 271.662 83.0957 271.662 82.916ZM271.85 80.1562L271.861 80.918H270.766C270.457 80.918 270.182 80.9434 269.939 80.9941C269.697 81.041 269.494 81.1133 269.33 81.2109C269.166 81.3086 269.041 81.4316 268.955 81.5801C268.869 81.7246 268.826 81.8945 268.826 82.0898C268.826 82.2891 268.871 82.4707 268.961 82.6348C269.051 82.7988 269.186 82.9297 269.365 83.0273C269.549 83.1211 269.773 83.168 270.039 83.168C270.371 83.168 270.664 83.0977 270.918 82.957C271.172 82.8164 271.373 82.6445 271.521 82.4414C271.674 82.2383 271.756 82.041 271.768 81.8496L272.23 82.3711C272.203 82.5352 272.129 82.7168 272.008 82.916C271.887 83.1152 271.725 83.3066 271.521 83.4902C271.322 83.6699 271.084 83.8203 270.807 83.9414C270.533 84.0586 270.225 84.1172 269.881 84.1172C269.451 84.1172 269.074 84.0332 268.75 83.8652C268.43 83.6973 268.18 83.4727 268 83.1914C267.824 82.9062 267.736 82.5879 267.736 82.2363C267.736 81.8965 267.803 81.5977 267.936 81.3398C268.068 81.0781 268.26 80.8613 268.51 80.6895C268.76 80.5137 269.061 80.3809 269.412 80.291C269.764 80.2012 270.156 80.1562 270.59 80.1562H271.85ZM278.447 82.7695V75H279.537V84H278.541L278.447 82.7695ZM274.182 80.9004V80.7773C274.182 80.293 274.24 79.8535 274.357 79.459C274.479 79.0605 274.648 78.7188 274.867 78.4336C275.09 78.1484 275.354 77.9297 275.658 77.7773C275.967 77.6211 276.311 77.543 276.689 77.543C277.088 77.543 277.436 77.6133 277.732 77.7539C278.033 77.8906 278.287 78.0918 278.494 78.3574C278.705 78.6191 278.871 78.9355 278.992 79.3066C279.113 79.6777 279.197 80.0977 279.244 80.5664V81.1055C279.201 81.5703 279.117 81.9883 278.992 82.3594C278.871 82.7305 278.705 83.0469 278.494 83.3086C278.287 83.5703 278.033 83.7715 277.732 83.9121C277.432 84.0488 277.08 84.1172 276.678 84.1172C276.307 84.1172 275.967 84.0371 275.658 83.877C275.354 83.7168 275.09 83.4922 274.867 83.2031C274.648 82.9141 274.479 82.5742 274.357 82.1836C274.24 81.7891 274.182 81.3613 274.182 80.9004ZM275.271 80.7773V80.9004C275.271 81.2168 275.303 81.5137 275.365 81.791C275.432 82.0684 275.533 82.3125 275.67 82.5234C275.807 82.7344 275.98 82.9004 276.191 83.0215C276.402 83.1387 276.654 83.1973 276.947 83.1973C277.307 83.1973 277.602 83.1211 277.832 82.9688C278.066 82.8164 278.254 82.6152 278.395 82.3652C278.535 82.1152 278.645 81.8438 278.723 81.5508V80.1387C278.676 79.9238 278.607 79.7168 278.518 79.5176C278.432 79.3145 278.318 79.1348 278.178 78.9785C278.041 78.8184 277.871 78.6914 277.668 78.5977C277.469 78.5039 277.232 78.457 276.959 78.457C276.662 78.457 276.406 78.5195 276.191 78.6445C275.98 78.7656 275.807 78.9336 275.67 79.1484C275.533 79.3594 275.432 79.6055 275.365 79.8867C275.303 80.1641 275.271 80.4609 275.271 80.7773ZM284.963 82.916V79.6523C284.963 79.4023 284.912 79.1855 284.811 79.002C284.713 78.8145 284.564 78.6699 284.365 78.5684C284.166 78.4668 283.92 78.416 283.627 78.416C283.354 78.416 283.113 78.4629 282.906 78.5566C282.703 78.6504 282.543 78.7734 282.426 78.9258C282.312 79.0781 282.256 79.2422 282.256 79.418H281.172C281.172 79.1914 281.23 78.9668 281.348 78.7441C281.465 78.5215 281.633 78.3203 281.852 78.1406C282.074 77.957 282.34 77.8125 282.648 77.707C282.961 77.5977 283.309 77.543 283.691 77.543C284.152 77.543 284.559 77.6211 284.91 77.7773C285.266 77.9336 285.543 78.1699 285.742 78.4863C285.945 78.7988 286.047 79.1914 286.047 79.6641V82.6172C286.047 82.8281 286.064 83.0527 286.1 83.291C286.139 83.5293 286.195 83.7344 286.27 83.9062V84H285.139C285.084 83.875 285.041 83.709 285.01 83.502C284.979 83.291 284.963 83.0957 284.963 82.916ZM285.15 80.1562L285.162 80.918H284.066C283.758 80.918 283.482 80.9434 283.24 80.9941C282.998 81.041 282.795 81.1133 282.631 81.2109C282.467 81.3086 282.342 81.4316 282.256 81.5801C282.17 81.7246 282.127 81.8945 282.127 82.0898C282.127 82.2891 282.172 82.4707 282.262 82.6348C282.352 82.7988 282.486 82.9297 282.666 83.0273C282.85 83.1211 283.074 83.168 283.34 83.168C283.672 83.168 283.965 83.0977 284.219 82.957C284.473 82.8164 284.674 82.6445 284.822 82.4414C284.975 82.2383 285.057 82.041 285.068 81.8496L285.531 82.3711C285.504 82.5352 285.43 82.7168 285.309 82.916C285.188 83.1152 285.025 83.3066 284.822 83.4902C284.623 83.6699 284.385 83.8203 284.107 83.9414C283.834 84.0586 283.525 84.1172 283.182 84.1172C282.752 84.1172 282.375 84.0332 282.051 83.8652C281.73 83.6973 281.48 83.4727 281.301 83.1914C281.125 82.9062 281.037 82.5879 281.037 82.2363C281.037 81.8965 281.104 81.5977 281.236 81.3398C281.369 81.0781 281.561 80.8613 281.811 80.6895C282.061 80.5137 282.361 80.3809 282.713 80.291C283.064 80.2012 283.457 80.1562 283.891 80.1562H285.15Z" fill="black"/>
<g opacity="0.65">
<path d="M84.6875 79.625C84.9479 79.625 85.1692 79.5338 85.3513 79.3513C85.5338 79.1692 85.625 78.9479 85.625 78.6875C85.625 78.4271 85.5338 78.2058 85.3513 78.0237C85.1692 77.8412 84.9479 77.75 84.6875 77.75C84.4271 77.75 84.2058 77.8412 84.0237 78.0237C83.8412 78.2058 83.75 78.4271 83.75 78.6875C83.75 78.9479 83.8412 79.1692 84.0237 79.3513C84.2058 79.5338 84.4271 79.625 84.6875 79.625ZM84.6875 85.0938C85.9896 83.9583 86.9921 82.8229 87.695 81.6875C88.3983 80.5521 88.75 79.5937 88.75 78.8125C88.75 77.5833 88.3569 76.5781 87.5706 75.7969C86.784 75.0156 85.8229 74.625 84.6875 74.625C83.5521 74.625 82.5913 75.0156 81.805 75.7969C81.0183 76.5781 80.625 77.5833 80.625 78.8125C80.625 79.5937 80.9767 80.5521 81.68 81.6875C82.3829 82.8229 83.3854 83.9583 84.6875 85.0938ZM84.6875 85.9531C83.1042 84.5469 81.9271 83.2448 81.1562 82.0469C80.3854 80.849 80 79.7708 80 78.8125C80 77.3437 80.4715 76.1746 81.4144 75.305C82.3569 74.435 83.4479 74 84.6875 74C85.9271 74 87.0183 74.435 87.9613 75.305C88.9038 76.1746 89.375 77.3437 89.375 78.8125C89.375 79.7708 88.9896 80.849 88.2187 82.0469C87.4479 83.2448 86.2708 84.5469 84.6875 85.9531Z" fill="#1C1B1F"/>
</g>
<mask id="mask0_105_473" style="mask-type:alpha" maskUnits="userSpaceOnUse" x="78" y="90" width="20" height="20">
<rect x="78" y="90" width="20" height="20" fill="#D9D9D9"/>
</mask>
<g mask="url(#mask0_105_473)">
<path d="M84.1042 106.604L85.1458 102.167L81.7083 99.2083L86.2292 98.8125L88 94.625L89.7708 98.8125L94.2917 99.2083L90.8542 102.167L91.8958 106.604L88 104.25L84.1042 106.604Z" fill="#CEC609"/>
</g>
<mask id="mask1_105_473" style="mask-type:alpha" maskUnits="userSpaceOnUse" x="92" y="90" width="20" height="20">
<rect x="92" y="90" width="20" height="20" fill="#D9D9D9"/>
</mask>
<g mask="url(#mask1_105_473)">
<path d="M98.1042 106.604L99.1458 102.167L95.7083 99.2083L100.229 98.8125L102 94.625L103.771 98.8125L108.292 99.2083L104.854 102.167L105.896 106.604L102 104.25L98.1042 106.604Z" fill="#CEC609"/>
</g>
<path d="M112.104 106.604L113.146 102.167L109.708 99.2083L114.229 98.8125L116 94.625L117.771 98.8125L122.292 99.2083L118.854 102.167L119.896 106.604L116 104.25L112.104 106.604Z" fill="#CEC609"/>
<mask id="mask2_105_473" style="mask-type:alpha" maskUnits="userSpaceOnUse" x="120" y="90" width="20" height="20">
<rect x="120" y="90" width="20" height="20" fill="#D9D9D9"/>
</mask>
<g mask="url(#mask2_105_473)">
<path d="M126.104 106.604L127.146 102.167L123.708 99.2083L128.229 98.8125L130 94.625L131.771 98.8125L136.292 99.2083L132.854 102.167L133.896 106.604L130 104.25L126.104 106.604Z" fill="#CEC609"/>
</g>
<path d="M144 96.7708V103.271L146.625 104.875L145.937 101.875L148.25 99.875L145.208 99.6042L144 96.7708ZM140.104 106.604L141.146 102.167L137.708 99.2083L142.229 98.8125L144 94.625L145.771 98.8125L150.292 99.2083L146.854 102.167L147.896 106.604L144 104.25L140.104 106.604Z" fill="#CEC609"/>
<rect x="286" y="95" width="65" height="17" rx="8.5" fill="#488AA8"/>
<path opacity="0.65" d="M299.586 103.675H297.784L297.774 102.918H299.41C299.68 102.918 299.916 102.872 300.118 102.781C300.32 102.69 300.476 102.56 300.587 102.391C300.701 102.218 300.758 102.013 300.758 101.775C300.758 101.515 300.707 101.303 300.606 101.141C300.509 100.975 300.357 100.854 300.152 100.779C299.951 100.701 299.693 100.662 299.381 100.662H297.994V107H297.052V99.8906H299.381C299.745 99.8906 300.071 99.9281 300.357 100.003C300.644 100.075 300.886 100.188 301.085 100.345C301.287 100.498 301.44 100.693 301.544 100.931C301.648 101.168 301.7 101.453 301.7 101.785C301.7 102.078 301.625 102.343 301.476 102.581C301.326 102.815 301.118 103.007 300.851 103.157C300.587 103.307 300.278 103.403 299.923 103.445L299.586 103.675ZM299.542 107H297.413L297.945 106.233H299.542C299.841 106.233 300.095 106.181 300.304 106.077C300.515 105.973 300.676 105.826 300.787 105.638C300.898 105.446 300.953 105.219 300.953 104.959C300.953 104.695 300.906 104.467 300.812 104.275C300.717 104.083 300.569 103.935 300.367 103.831C300.165 103.727 299.905 103.675 299.586 103.675H298.243L298.253 102.918H300.089L300.289 103.191C300.631 103.221 300.921 103.318 301.158 103.484C301.396 103.647 301.576 103.855 301.7 104.109C301.827 104.363 301.891 104.643 301.891 104.949C301.891 105.392 301.793 105.766 301.598 106.072C301.406 106.375 301.134 106.606 300.782 106.766C300.431 106.922 300.017 107 299.542 107ZM302.906 104.417V104.305C302.906 103.924 302.962 103.571 303.072 103.245C303.183 102.916 303.342 102.632 303.551 102.391C303.759 102.146 304.011 101.958 304.308 101.824C304.604 101.688 304.936 101.619 305.304 101.619C305.675 101.619 306.008 101.688 306.305 101.824C306.604 101.958 306.858 102.146 307.066 102.391C307.278 102.632 307.439 102.916 307.55 103.245C307.66 103.571 307.716 103.924 307.716 104.305V104.417C307.716 104.798 307.66 105.151 307.55 105.477C307.439 105.802 307.278 106.087 307.066 106.331C306.858 106.572 306.606 106.761 306.31 106.897C306.017 107.031 305.685 107.098 305.313 107.098C304.942 107.098 304.609 107.031 304.312 106.897C304.016 106.761 303.762 106.572 303.551 106.331C303.342 106.087 303.183 105.802 303.072 105.477C302.962 105.151 302.906 104.798 302.906 104.417ZM303.81 104.305V104.417C303.81 104.681 303.84 104.93 303.902 105.164C303.964 105.395 304.057 105.6 304.181 105.779C304.308 105.958 304.465 106.1 304.654 106.204C304.843 106.305 305.063 106.355 305.313 106.355C305.561 106.355 305.777 106.305 305.963 106.204C306.152 106.1 306.308 105.958 306.432 105.779C306.555 105.6 306.648 105.395 306.71 105.164C306.775 104.93 306.808 104.681 306.808 104.417V104.305C306.808 104.044 306.775 103.799 306.71 103.567C306.648 103.333 306.554 103.126 306.427 102.947C306.303 102.765 306.147 102.622 305.958 102.518C305.772 102.413 305.554 102.361 305.304 102.361C305.056 102.361 304.838 102.413 304.649 102.518C304.464 102.622 304.308 102.765 304.181 102.947C304.057 103.126 303.964 103.333 303.902 103.567C303.84 103.799 303.81 104.044 303.81 104.305ZM308.609 104.417V104.305C308.609 103.924 308.665 103.571 308.775 103.245C308.886 102.916 309.046 102.632 309.254 102.391C309.462 102.146 309.715 101.958 310.011 101.824C310.307 101.688 310.639 101.619 311.007 101.619C311.378 101.619 311.712 101.688 312.008 101.824C312.307 101.958 312.561 102.146 312.77 102.391C312.981 102.632 313.142 102.916 313.253 103.245C313.364 103.571 313.419 103.924 313.419 104.305V104.417C313.419 104.798 313.364 105.151 313.253 105.477C313.142 105.802 312.981 106.087 312.77 106.331C312.561 106.572 312.309 106.761 312.013 106.897C311.72 107.031 311.388 107.098 311.017 107.098C310.646 107.098 310.312 107.031 310.016 106.897C309.719 106.761 309.465 106.572 309.254 106.331C309.046 106.087 308.886 105.802 308.775 105.477C308.665 105.151 308.609 104.798 308.609 104.417ZM309.513 104.305V104.417C309.513 104.681 309.544 104.93 309.605 105.164C309.667 105.395 309.76 105.6 309.884 105.779C310.011 105.958 310.169 106.1 310.357 106.204C310.546 106.305 310.766 106.355 311.017 106.355C311.264 106.355 311.48 106.305 311.666 106.204C311.855 106.1 312.011 105.958 312.135 105.779C312.258 105.6 312.351 105.395 312.413 105.164C312.478 104.93 312.511 104.681 312.511 104.417V104.305C312.511 104.044 312.478 103.799 312.413 103.567C312.351 103.333 312.257 103.126 312.13 102.947C312.006 102.765 311.85 102.622 311.661 102.518C311.476 102.413 311.257 102.361 311.007 102.361C310.759 102.361 310.541 102.413 310.353 102.518C310.167 102.622 310.011 102.765 309.884 102.947C309.76 103.126 309.667 103.333 309.605 103.567C309.544 103.799 309.513 104.044 309.513 104.305ZM315.46 99.5V107H314.552V99.5H315.46ZM318.688 101.717L316.383 104.183L315.094 105.521L315.021 104.559L315.943 103.455L317.584 101.717H318.688ZM317.862 107L315.978 104.48L316.446 103.675L318.927 107H317.862ZM327.706 99.8906V107H326.759L323.18 101.517V107H322.237V99.8906H323.18L326.773 105.389V99.8906H327.706ZM329 104.417V104.305C329 103.924 329.055 103.571 329.166 103.245C329.277 102.916 329.436 102.632 329.645 102.391C329.853 102.146 330.105 101.958 330.401 101.824C330.698 101.688 331.03 101.619 331.397 101.619C331.769 101.619 332.102 101.688 332.398 101.824C332.698 101.958 332.952 102.146 333.16 102.391C333.372 102.632 333.533 102.916 333.644 103.245C333.754 103.571 333.81 103.924 333.81 104.305V104.417C333.81 104.798 333.754 105.151 333.644 105.477C333.533 105.802 333.372 106.087 333.16 106.331C332.952 106.572 332.7 106.761 332.403 106.897C332.11 107.031 331.778 107.098 331.407 107.098C331.036 107.098 330.702 107.031 330.406 106.897C330.11 106.761 329.856 106.572 329.645 106.331C329.436 106.087 329.277 105.802 329.166 105.477C329.055 105.151 329 104.798 329 104.417ZM329.903 104.305V104.417C329.903 104.681 329.934 104.93 329.996 105.164C330.058 105.395 330.151 105.6 330.274 105.779C330.401 105.958 330.559 106.1 330.748 106.204C330.937 106.305 331.157 106.355 331.407 106.355C331.655 106.355 331.871 106.305 332.057 106.204C332.245 106.1 332.402 105.958 332.525 105.779C332.649 105.6 332.742 105.395 332.804 105.164C332.869 104.93 332.901 104.681 332.901 104.417V104.305C332.901 104.044 332.869 103.799 332.804 103.567C332.742 103.333 332.647 103.126 332.521 102.947C332.397 102.765 332.241 102.622 332.052 102.518C331.866 102.413 331.648 102.361 331.397 102.361C331.15 102.361 330.932 102.413 330.743 102.518C330.558 102.622 330.401 102.765 330.274 102.947C330.151 103.126 330.058 103.333 329.996 103.567C329.934 103.799 329.903 104.044 329.903 104.305ZM336.28 106.062L337.638 101.717H338.233L338.116 102.581L336.734 107H336.153L336.28 106.062ZM335.367 101.717L336.524 106.111L336.607 107H335.997L334.464 101.717H335.367ZM339.532 106.077L340.636 101.717H341.534L340.001 107H339.396L339.532 106.077ZM338.365 101.717L339.693 105.989L339.845 107H339.269L337.848 102.571L337.73 101.717H338.365Z" fill="white"/>
<path d="M25.3438 54.8333C27.1146 53.5139 29.0417 52.4722 31.125 51.7083C33.2083 50.9444 35.4306 50.5625 37.7917 50.5625C40.1528 50.5625 42.375 50.9444 44.4583 51.7083C46.5417 52.4722 48.4688 53.5139 50.2396 54.8333C51.5243 53.4097 52.5486 51.7604 53.3125 49.8854C54.0764 48.0104 54.4583 45.9792 54.4583 43.7917C54.4583 39.1736 52.8354 35.241 49.5896 31.9938C46.3424 28.7479 42.4097 27.125 37.7917 27.125C33.1736 27.125 29.2417 28.7479 25.9958 31.9938C22.7486 35.241 21.125 39.1736 21.125 43.7917C21.125 45.9792 21.5069 48.0104 22.2708 49.8854C23.0347 51.7604 24.059 53.4097 25.3438 54.8333ZM37.7917 45.3542C35.8819 45.3542 34.2764 44.7028 32.975 43.4C31.6722 42.0986 31.0208 40.4931 31.0208 38.5833C31.0208 36.6736 31.6722 35.0681 32.975 33.7667C34.2764 32.4639 35.8819 31.8125 37.7917 31.8125C39.7014 31.8125 41.3069 32.4639 42.6083 33.7667C43.9111 35.0681 44.5625 36.6736 44.5625 38.5833C44.5625 40.4931 43.9111 42.0986 42.6083 43.4C41.3069 44.7028 39.7014 45.3542 37.7917 45.3542ZM37.7917 63.5833C35.0486 63.5833 32.4708 63.0625 30.0583 62.0208C27.6444 60.9792 25.5521 59.5729 23.7813 57.8021C22.0104 56.0313 20.6042 53.9389 19.5625 51.525C18.5208 49.1125 18 46.5347 18 43.7917C18 41.0486 18.5208 38.4701 19.5625 36.0563C20.6042 33.6438 22.0104 31.5521 23.7813 29.7813C25.5521 28.0104 27.6444 26.6042 30.0583 25.5625C32.4708 24.5208 35.0486 24 37.7917 24C40.5347 24 43.1132 24.5208 45.5271 25.5625C47.9396 26.6042 50.0313 28.0104 51.8021 29.7813C53.5729 31.5521 54.9792 33.6438 56.0208 36.0563C57.0625 38.4701 57.5833 41.0486 57.5833 43.7917C57.5833 46.5347 57.0625 49.1125 56.0208 51.525C54.9792 53.9389 53.5729 56.0313 51.8021 57.8021C50.0313 59.5729 47.9396 60.9792 45.5271 62.0208C43.1132 63.0625 40.5347 63.5833 37.7917 63.5833ZM37.7917 60.4583C39.6667 60.4583 41.4813 60.1542 43.2354 59.5458C44.9882 58.9389 46.5417 58.0972 47.8958 57.0208C46.5417 55.9792 45.0049 55.1632 43.2854 54.5729C41.5674 53.9826 39.7361 53.6875 37.7917 53.6875C35.8472 53.6875 34.016 53.9743 32.2979 54.5479C30.5785 55.1201 29.0417 55.9444 27.6875 57.0208C29.0417 58.0972 30.5951 58.9389 32.3479 59.5458C34.1021 60.1542 35.9167 60.4583 37.7917 60.4583ZM37.7917 42.2292C38.8333 42.2292 39.7014 41.8819 40.3958 41.1875C41.0903 40.4931 41.4375 39.625 41.4375 38.5833C41.4375 37.5417 41.0903 36.6736 40.3958 35.9792C39.7014 35.2847 38.8333 34.9375 37.7917 34.9375C36.75 34.9375 35.8819 35.2847 35.1875 35.9792C34.4931 36.6736 34.1458 37.5417 34.1458 38.5833C34.1458 39.625 34.4931 40.4931 35.1875 41.1875C35.8819 41.8819 36.75 42.2292 37.7917 42.2292Z" fill="#488AA8"/>
</svg>
