<svg width="368" height="134" viewBox="0 0 368 134" fill="none" xmlns="http://www.w3.org/2000/svg">
<rect width="368" height="134" rx="15" fill="#F2F6F6"/>
<path d="M83.9922 39H80.9551L80.9746 37.0566H83.9922C84.8711 37.0566 85.6068 36.8646 86.1992 36.4805C86.7982 36.0964 87.2474 35.5462 87.5469 34.8301C87.8529 34.1139 88.0059 33.2611 88.0059 32.2715V31.5C88.0059 30.7318 87.918 30.0514 87.7422 29.459C87.5729 28.8665 87.319 28.3685 86.9805 27.9648C86.6484 27.5612 86.2383 27.2552 85.75 27.0469C85.2682 26.8385 84.7116 26.7344 84.0801 26.7344H80.8965V24.7812H84.0801C85.0241 24.7812 85.8867 24.9408 86.668 25.2598C87.4492 25.5723 88.123 26.0247 88.6895 26.6172C89.2624 27.2096 89.7018 27.9193 90.0078 28.7461C90.3138 29.5729 90.4668 30.4974 90.4668 31.5195V32.2715C90.4668 33.2936 90.3138 34.2181 90.0078 35.0449C89.7018 35.8717 89.2624 36.5814 88.6895 37.1738C88.1165 37.7598 87.4329 38.2122 86.6387 38.5312C85.8509 38.8438 84.9688 39 83.9922 39ZM82.3125 24.7812V39H79.8613V24.7812H82.3125ZM95.0566 30.4453V39H92.7031V28.4336H94.9492L95.0566 30.4453ZM98.2891 28.3652L98.2695 30.5527C98.1263 30.5267 97.9701 30.5072 97.8008 30.4941C97.638 30.4811 97.4753 30.4746 97.3125 30.4746C96.9089 30.4746 96.554 30.5332 96.248 30.6504C95.9421 30.7611 95.6849 30.9238 95.4766 31.1387C95.2747 31.347 95.1185 31.6009 95.0078 31.9004C94.8971 32.1999 94.832 32.5352 94.8125 32.9062L94.2754 32.9453C94.2754 32.2812 94.3405 31.666 94.4707 31.0996C94.6009 30.5332 94.7962 30.0352 95.0566 29.6055C95.3236 29.1758 95.6556 28.8405 96.0527 28.5996C96.4564 28.3587 96.9219 28.2383 97.4492 28.2383C97.5924 28.2383 97.7454 28.2513 97.9082 28.2773C98.0775 28.3034 98.2044 28.3327 98.2891 28.3652ZM98.4746 37.8281C98.4746 37.4635 98.5983 37.1576 98.8457 36.9102C99.0931 36.6562 99.4284 36.5293 99.8516 36.5293C100.281 36.5293 100.617 36.6562 100.857 36.9102C101.105 37.1576 101.229 37.4635 101.229 37.8281C101.229 38.1927 101.105 38.4987 100.857 38.7461C100.617 38.9935 100.281 39.1172 99.8516 39.1172C99.4284 39.1172 99.0931 38.9935 98.8457 38.7461C98.5983 38.4987 98.4746 38.1927 98.4746 37.8281ZM120.076 31.7344V37.1641C119.874 37.431 119.559 37.724 119.129 38.043C118.706 38.3555 118.143 38.6257 117.439 38.8535C116.736 39.0814 115.861 39.1953 114.812 39.1953C113.921 39.1953 113.104 39.0456 112.361 38.7461C111.619 38.4401 110.978 37.9941 110.438 37.4082C109.904 36.8223 109.49 36.1094 109.197 35.2695C108.904 34.4232 108.758 33.4596 108.758 32.3789V31.3926C108.758 30.3184 108.891 29.3613 109.158 28.5215C109.432 27.6751 109.822 26.959 110.33 26.373C110.838 25.7871 111.45 25.3444 112.166 25.0449C112.889 24.7389 113.706 24.5859 114.617 24.5859C115.783 24.5859 116.746 24.7812 117.508 25.1719C118.276 25.556 118.868 26.0898 119.285 26.7734C119.702 27.457 119.965 28.2383 120.076 29.1172H117.674C117.596 28.6224 117.443 28.1797 117.215 27.7891C116.993 27.3984 116.674 27.0924 116.258 26.8711C115.848 26.6432 115.314 26.5293 114.656 26.5293C114.09 26.5293 113.592 26.6367 113.162 26.8516C112.732 27.0664 112.374 27.3822 112.088 27.7988C111.808 28.2155 111.596 28.7233 111.453 29.3223C111.31 29.9212 111.238 30.6048 111.238 31.373V32.3789C111.238 33.1602 111.32 33.8535 111.482 34.459C111.652 35.0645 111.893 35.5755 112.205 35.9922C112.524 36.4089 112.911 36.7246 113.367 36.9395C113.823 37.1478 114.337 37.252 114.91 37.252C115.47 37.252 115.929 37.2064 116.287 37.1152C116.645 37.0176 116.928 36.9036 117.137 36.7734C117.352 36.6367 117.518 36.5065 117.635 36.3828V33.5605H114.676V31.7344H120.076ZM124.92 30.4453V39H122.566V28.4336H124.812L124.92 30.4453ZM128.152 28.3652L128.133 30.5527C127.99 30.5267 127.833 30.5072 127.664 30.4941C127.501 30.4811 127.339 30.4746 127.176 30.4746C126.772 30.4746 126.417 30.5332 126.111 30.6504C125.805 30.7611 125.548 30.9238 125.34 31.1387C125.138 31.347 124.982 31.6009 124.871 31.9004C124.76 32.1999 124.695 32.5352 124.676 32.9062L124.139 32.9453C124.139 32.2812 124.204 31.666 124.334 31.0996C124.464 30.5332 124.66 30.0352 124.92 29.6055C125.187 29.1758 125.519 28.8405 125.916 28.5996C126.32 28.3587 126.785 28.2383 127.312 28.2383C127.456 28.2383 127.609 28.2513 127.771 28.2773C127.941 28.3034 128.068 28.3327 128.152 28.3652ZM134.09 39.1953C133.309 39.1953 132.602 39.0684 131.971 38.8145C131.346 38.554 130.812 38.1927 130.369 37.7305C129.933 37.2682 129.598 36.7246 129.363 36.0996C129.129 35.4746 129.012 34.8008 129.012 34.0781V33.6875C129.012 32.8607 129.132 32.112 129.373 31.4414C129.614 30.7708 129.949 30.1979 130.379 29.7227C130.809 29.2409 131.316 28.873 131.902 28.6191C132.488 28.3652 133.123 28.2383 133.807 28.2383C134.562 28.2383 135.223 28.3652 135.789 28.6191C136.355 28.873 136.824 29.2311 137.195 29.6934C137.573 30.1491 137.853 30.6927 138.035 31.3242C138.224 31.9557 138.318 32.6523 138.318 33.4141V34.4199H130.154V32.7305H135.994V32.5449C135.981 32.1217 135.896 31.7246 135.74 31.3535C135.59 30.9824 135.359 30.6829 135.047 30.4551C134.734 30.2272 134.318 30.1133 133.797 30.1133C133.406 30.1133 133.058 30.1979 132.752 30.3672C132.452 30.5299 132.202 30.7676 132 31.0801C131.798 31.3926 131.642 31.7702 131.531 32.2129C131.427 32.6491 131.375 33.1406 131.375 33.6875V34.0781C131.375 34.5404 131.437 34.9701 131.561 35.3672C131.691 35.7578 131.88 36.0996 132.127 36.3926C132.374 36.6855 132.674 36.9167 133.025 37.0859C133.377 37.2487 133.777 37.3301 134.227 37.3301C134.793 37.3301 135.298 37.2161 135.74 36.9883C136.183 36.7604 136.567 36.4382 136.893 36.0215L138.133 37.2227C137.905 37.5547 137.609 37.8737 137.244 38.1797C136.88 38.4792 136.434 38.7233 135.906 38.9121C135.385 39.1009 134.78 39.1953 134.09 39.1953ZM144.812 39.1953C144.031 39.1953 143.325 39.0684 142.693 38.8145C142.068 38.554 141.535 38.1927 141.092 37.7305C140.656 37.2682 140.32 36.7246 140.086 36.0996C139.852 35.4746 139.734 34.8008 139.734 34.0781V33.6875C139.734 32.8607 139.855 32.112 140.096 31.4414C140.337 30.7708 140.672 30.1979 141.102 29.7227C141.531 29.2409 142.039 28.873 142.625 28.6191C143.211 28.3652 143.846 28.2383 144.529 28.2383C145.285 28.2383 145.945 28.3652 146.512 28.6191C147.078 28.873 147.547 29.2311 147.918 29.6934C148.296 30.1491 148.576 30.6927 148.758 31.3242C148.947 31.9557 149.041 32.6523 149.041 33.4141V34.4199H140.877V32.7305H146.717V32.5449C146.704 32.1217 146.619 31.7246 146.463 31.3535C146.313 30.9824 146.082 30.6829 145.77 30.4551C145.457 30.2272 145.04 30.1133 144.52 30.1133C144.129 30.1133 143.781 30.1979 143.475 30.3672C143.175 30.5299 142.924 30.7676 142.723 31.0801C142.521 31.3926 142.365 31.7702 142.254 32.2129C142.15 32.6491 142.098 33.1406 142.098 33.6875V34.0781C142.098 34.5404 142.16 34.9701 142.283 35.3672C142.413 35.7578 142.602 36.0996 142.85 36.3926C143.097 36.6855 143.396 36.9167 143.748 37.0859C144.1 37.2487 144.5 37.3301 144.949 37.3301C145.516 37.3301 146.02 37.2161 146.463 36.9883C146.906 36.7604 147.29 36.4382 147.615 36.0215L148.855 37.2227C148.628 37.5547 148.331 37.8737 147.967 38.1797C147.602 38.4792 147.156 38.7233 146.629 38.9121C146.108 39.1009 145.503 39.1953 144.812 39.1953ZM153.211 30.6895V39H150.857V28.4336H153.074L153.211 30.6895ZM152.791 33.3262L152.029 33.3164C152.036 32.5677 152.14 31.8809 152.342 31.2559C152.55 30.6309 152.837 30.0938 153.201 29.6445C153.572 29.1953 154.015 28.8503 154.529 28.6094C155.044 28.362 155.617 28.2383 156.248 28.2383C156.756 28.2383 157.215 28.3099 157.625 28.4531C158.042 28.5898 158.396 28.8145 158.689 29.127C158.989 29.4395 159.217 29.8464 159.373 30.3477C159.529 30.8424 159.607 31.4512 159.607 32.1738V39H157.244V32.1641C157.244 31.6562 157.169 31.2559 157.02 30.9629C156.876 30.6634 156.665 30.4518 156.385 30.3281C156.111 30.1979 155.77 30.1328 155.359 30.1328C154.956 30.1328 154.594 30.2174 154.275 30.3867C153.956 30.556 153.686 30.7871 153.465 31.0801C153.25 31.373 153.084 31.7116 152.967 32.0957C152.85 32.4798 152.791 32.89 152.791 33.3262ZM170.789 35.8066L173.621 24.7812H175.105L174.939 27.623L171.912 39H170.369L170.789 35.8066ZM168.67 24.7812L170.965 35.7188L171.17 39H169.529L166.238 24.7812H168.67ZM178.318 35.6895L180.584 24.7812H183.025L179.734 39H178.094L178.318 35.6895ZM175.682 24.7812L178.484 35.8359L178.895 39H177.352L174.373 27.623L174.217 24.7812H175.682ZM187.127 28.4336V39H184.764V28.4336H187.127ZM184.607 25.6602C184.607 25.3021 184.725 25.0059 184.959 24.7715C185.2 24.5306 185.532 24.4102 185.955 24.4102C186.372 24.4102 186.701 24.5306 186.941 24.7715C187.182 25.0059 187.303 25.3021 187.303 25.6602C187.303 26.0117 187.182 26.3047 186.941 26.5391C186.701 26.7734 186.372 26.8906 185.955 26.8906C185.532 26.8906 185.2 26.7734 184.959 26.5391C184.725 26.3047 184.607 26.0117 184.607 25.6602ZM192.225 24V39H189.861V24H192.225ZM201.248 36.8125V24H203.611V39H201.473L201.248 36.8125ZM194.373 33.834V33.6289C194.373 32.8281 194.467 32.099 194.656 31.4414C194.845 30.7773 195.118 30.2077 195.477 29.7324C195.835 29.2507 196.271 28.8828 196.785 28.6289C197.299 28.3685 197.879 28.2383 198.523 28.2383C199.161 28.2383 199.721 28.362 200.203 28.6094C200.685 28.8568 201.095 29.2116 201.434 29.6738C201.772 30.1296 202.042 30.6764 202.244 31.3145C202.446 31.946 202.589 32.6491 202.674 33.4238V34.0781C202.589 34.8333 202.446 35.5234 202.244 36.1484C202.042 36.7734 201.772 37.3138 201.434 37.7695C201.095 38.2253 200.682 38.5768 200.193 38.8242C199.712 39.0716 199.148 39.1953 198.504 39.1953C197.866 39.1953 197.29 39.0618 196.775 38.7949C196.268 38.528 195.835 38.1536 195.477 37.6719C195.118 37.1901 194.845 36.6237 194.656 35.9727C194.467 35.3151 194.373 34.6022 194.373 33.834ZM196.727 33.6289V33.834C196.727 34.3158 196.769 34.765 196.854 35.1816C196.945 35.5983 197.085 35.9661 197.273 36.2852C197.462 36.5977 197.706 36.8451 198.006 37.0273C198.312 37.2031 198.676 37.291 199.1 37.291C199.633 37.291 200.073 37.1738 200.418 36.9395C200.763 36.7051 201.033 36.3893 201.229 35.9922C201.43 35.5885 201.567 35.1393 201.639 34.6445V32.877C201.6 32.4928 201.518 32.1348 201.395 31.8027C201.277 31.4707 201.118 31.181 200.916 30.9336C200.714 30.6797 200.464 30.4844 200.164 30.3477C199.871 30.2044 199.523 30.1328 199.119 30.1328C198.689 30.1328 198.325 30.224 198.025 30.4062C197.726 30.5885 197.479 30.8392 197.283 31.1582C197.094 31.4772 196.954 31.8483 196.863 32.2715C196.772 32.6947 196.727 33.1471 196.727 33.6289ZM210.73 39.1953C209.949 39.1953 209.243 39.0684 208.611 38.8145C207.986 38.554 207.452 38.1927 207.01 37.7305C206.574 37.2682 206.238 36.7246 206.004 36.0996C205.77 35.4746 205.652 34.8008 205.652 34.0781V33.6875C205.652 32.8607 205.773 32.112 206.014 31.4414C206.255 30.7708 206.59 30.1979 207.02 29.7227C207.449 29.2409 207.957 28.873 208.543 28.6191C209.129 28.3652 209.764 28.2383 210.447 28.2383C211.202 28.2383 211.863 28.3652 212.43 28.6191C212.996 28.873 213.465 29.2311 213.836 29.6934C214.214 30.1491 214.493 30.6927 214.676 31.3242C214.865 31.9557 214.959 32.6523 214.959 33.4141V34.4199H206.795V32.7305H212.635V32.5449C212.622 32.1217 212.537 31.7246 212.381 31.3535C212.231 30.9824 212 30.6829 211.688 30.4551C211.375 30.2272 210.958 30.1133 210.438 30.1133C210.047 30.1133 209.699 30.1979 209.393 30.3672C209.093 30.5299 208.842 30.7676 208.641 31.0801C208.439 31.3926 208.283 31.7702 208.172 32.2129C208.068 32.6491 208.016 33.1406 208.016 33.6875V34.0781C208.016 34.5404 208.077 34.9701 208.201 35.3672C208.331 35.7578 208.52 36.0996 208.768 36.3926C209.015 36.6855 209.314 36.9167 209.666 37.0859C210.018 37.2487 210.418 37.3301 210.867 37.3301C211.434 37.3301 211.938 37.2161 212.381 36.9883C212.824 36.7604 213.208 36.4382 213.533 36.0215L214.773 37.2227C214.546 37.5547 214.249 37.8737 213.885 38.1797C213.52 38.4792 213.074 38.7233 212.547 38.9121C212.026 39.1009 211.421 39.1953 210.73 39.1953Z" fill="black"/>
<path opacity="0.65" d="M87.8223 54.4688V63H86.6855L82.3906 56.4199V63H81.2598V54.4688H82.3906L86.7031 61.0664V54.4688H87.8223ZM93.541 61.5352V56.6602H94.6309V63H93.5938L93.541 61.5352ZM93.7461 60.1992L94.1973 60.1875C94.1973 60.6094 94.1523 61 94.0625 61.3594C93.9766 61.7148 93.8359 62.0234 93.6406 62.2852C93.4453 62.5469 93.1895 62.752 92.873 62.9004C92.5566 63.0449 92.1719 63.1172 91.7188 63.1172C91.4102 63.1172 91.127 63.0723 90.8691 62.9824C90.6152 62.8926 90.3965 62.7539 90.2129 62.5664C90.0293 62.3789 89.8867 62.1348 89.7852 61.834C89.6875 61.5332 89.6387 61.1719 89.6387 60.75V56.6602H90.7227V60.7617C90.7227 61.0469 90.7539 61.2832 90.8164 61.4707C90.8828 61.6543 90.9707 61.8008 91.0801 61.9102C91.1934 62.0156 91.3184 62.0898 91.4551 62.1328C91.5957 62.1758 91.7402 62.1973 91.8887 62.1973C92.3496 62.1973 92.7148 62.1094 92.9844 61.9336C93.2539 61.7539 93.4473 61.5137 93.5645 61.2129C93.6855 60.9082 93.7461 60.5703 93.7461 60.1992ZM98.9375 56.6602V57.4922H95.5098V56.6602H98.9375ZM96.6699 55.1191H97.7539V61.4297C97.7539 61.6445 97.7871 61.8066 97.8535 61.916C97.9199 62.0254 98.0059 62.0977 98.1113 62.1328C98.2168 62.168 98.3301 62.1855 98.4512 62.1855C98.541 62.1855 98.6348 62.1777 98.7324 62.1621C98.834 62.1426 98.9102 62.127 98.9609 62.1152L98.9668 63C98.8809 63.0273 98.7676 63.0527 98.627 63.0762C98.4902 63.1035 98.3242 63.1172 98.1289 63.1172C97.8633 63.1172 97.6191 63.0645 97.3965 62.959C97.1738 62.8535 96.9961 62.6777 96.8633 62.4316C96.7344 62.1816 96.6699 61.8457 96.6699 61.4238V55.1191ZM101.293 57.6562V63H100.209V56.6602H101.264L101.293 57.6562ZM103.273 56.625L103.268 57.6328C103.178 57.6133 103.092 57.6016 103.01 57.5977C102.932 57.5898 102.842 57.5859 102.74 57.5859C102.49 57.5859 102.27 57.625 102.078 57.7031C101.887 57.7812 101.725 57.8906 101.592 58.0312C101.459 58.1719 101.354 58.3398 101.275 58.5352C101.201 58.7266 101.152 58.9375 101.129 59.168L100.824 59.3438C100.824 58.9609 100.861 58.6016 100.936 58.2656C101.014 57.9297 101.133 57.6328 101.293 57.375C101.453 57.1133 101.656 56.9102 101.902 56.7656C102.152 56.6172 102.449 56.543 102.793 56.543C102.871 56.543 102.961 56.5527 103.062 56.5723C103.164 56.5879 103.234 56.6055 103.273 56.625ZM105.453 56.6602V63H104.363V56.6602H105.453ZM104.281 54.9785C104.281 54.8027 104.334 54.6543 104.439 54.5332C104.549 54.4121 104.709 54.3516 104.92 54.3516C105.127 54.3516 105.285 54.4121 105.395 54.5332C105.508 54.6543 105.564 54.8027 105.564 54.9785C105.564 55.1465 105.508 55.291 105.395 55.4121C105.285 55.5293 105.127 55.5879 104.92 55.5879C104.709 55.5879 104.549 55.5293 104.439 55.4121C104.334 55.291 104.281 55.1465 104.281 54.9785ZM109.848 56.6602V57.4922H106.42V56.6602H109.848ZM107.58 55.1191H108.664V61.4297C108.664 61.6445 108.697 61.8066 108.764 61.916C108.83 62.0254 108.916 62.0977 109.021 62.1328C109.127 62.168 109.24 62.1855 109.361 62.1855C109.451 62.1855 109.545 62.1777 109.643 62.1621C109.744 62.1426 109.82 62.127 109.871 62.1152L109.877 63C109.791 63.0273 109.678 63.0527 109.537 63.0762C109.4 63.1035 109.234 63.1172 109.039 63.1172C108.773 63.1172 108.529 63.0645 108.307 62.959C108.084 62.8535 107.906 62.6777 107.773 62.4316C107.645 62.1816 107.58 61.8457 107.58 61.4238V55.1191ZM112.297 56.6602V63H111.207V56.6602H112.297ZM111.125 54.9785C111.125 54.8027 111.178 54.6543 111.283 54.5332C111.393 54.4121 111.553 54.3516 111.764 54.3516C111.971 54.3516 112.129 54.4121 112.238 54.5332C112.352 54.6543 112.408 54.8027 112.408 54.9785C112.408 55.1465 112.352 55.291 112.238 55.4121C112.129 55.5293 111.971 55.5879 111.764 55.5879C111.553 55.5879 111.393 55.5293 111.283 55.4121C111.178 55.291 111.125 55.1465 111.125 54.9785ZM113.75 59.9004V59.7656C113.75 59.3086 113.816 58.8848 113.949 58.4941C114.082 58.0996 114.273 57.7578 114.523 57.4688C114.773 57.1758 115.076 56.9492 115.432 56.7891C115.787 56.625 116.186 56.543 116.627 56.543C117.072 56.543 117.473 56.625 117.828 56.7891C118.188 56.9492 118.492 57.1758 118.742 57.4688C118.996 57.7578 119.189 58.0996 119.322 58.4941C119.455 58.8848 119.521 59.3086 119.521 59.7656V59.9004C119.521 60.3574 119.455 60.7812 119.322 61.1719C119.189 61.5625 118.996 61.9043 118.742 62.1973C118.492 62.4863 118.189 62.7129 117.834 62.877C117.482 63.0371 117.084 63.1172 116.639 63.1172C116.193 63.1172 115.793 63.0371 115.438 62.877C115.082 62.7129 114.777 62.4863 114.523 62.1973C114.273 61.9043 114.082 61.5625 113.949 61.1719C113.816 60.7812 113.75 60.3574 113.75 59.9004ZM114.834 59.7656V59.9004C114.834 60.2168 114.871 60.5156 114.945 60.7969C115.02 61.0742 115.131 61.3203 115.279 61.5352C115.432 61.75 115.621 61.9199 115.848 62.0449C116.074 62.166 116.338 62.2266 116.639 62.2266C116.936 62.2266 117.195 62.166 117.418 62.0449C117.645 61.9199 117.832 61.75 117.98 61.5352C118.129 61.3203 118.24 61.0742 118.314 60.7969C118.393 60.5156 118.432 60.2168 118.432 59.9004V59.7656C118.432 59.4531 118.393 59.1582 118.314 58.8809C118.24 58.5996 118.127 58.3516 117.975 58.1367C117.826 57.918 117.639 57.7461 117.412 57.6211C117.189 57.4961 116.928 57.4336 116.627 57.4336C116.33 57.4336 116.068 57.4961 115.842 57.6211C115.619 57.7461 115.432 57.918 115.279 58.1367C115.131 58.3516 115.02 58.5996 114.945 58.8809C114.871 59.1582 114.834 59.4531 114.834 59.7656ZM121.965 58.0137V63H120.881V56.6602H121.906L121.965 58.0137ZM121.707 59.5898L121.256 59.5723C121.26 59.1387 121.324 58.7383 121.449 58.3711C121.574 58 121.75 57.6777 121.977 57.4043C122.203 57.1309 122.473 56.9199 122.785 56.7715C123.102 56.6191 123.451 56.543 123.834 56.543C124.146 56.543 124.428 56.5859 124.678 56.6719C124.928 56.7539 125.141 56.8867 125.316 57.0703C125.496 57.2539 125.633 57.4922 125.727 57.7852C125.82 58.0742 125.867 58.4277 125.867 58.8457V63H124.777V58.834C124.777 58.502 124.729 58.2363 124.631 58.0371C124.533 57.834 124.391 57.6875 124.203 57.5977C124.016 57.5039 123.785 57.457 123.512 57.457C123.242 57.457 122.996 57.5137 122.773 57.627C122.555 57.7402 122.365 57.8965 122.205 58.0957C122.049 58.2949 121.926 58.5234 121.836 58.7812C121.75 59.0352 121.707 59.3047 121.707 59.5898ZM128.691 56.6602V63H127.602V56.6602H128.691ZM127.52 54.9785C127.52 54.8027 127.572 54.6543 127.678 54.5332C127.787 54.4121 127.947 54.3516 128.158 54.3516C128.365 54.3516 128.523 54.4121 128.633 54.5332C128.746 54.6543 128.803 54.8027 128.803 54.9785C128.803 55.1465 128.746 55.291 128.633 55.4121C128.523 55.5293 128.365 55.5879 128.158 55.5879C127.947 55.5879 127.787 55.5293 127.678 55.4121C127.572 55.291 127.52 55.1465 127.52 54.9785ZM134.123 61.3184C134.123 61.1621 134.088 61.0176 134.018 60.8848C133.951 60.748 133.812 60.625 133.602 60.5156C133.395 60.4023 133.082 60.3047 132.664 60.2227C132.312 60.1484 131.994 60.0605 131.709 59.959C131.428 59.8574 131.188 59.7344 130.988 59.5898C130.793 59.4453 130.643 59.2754 130.537 59.0801C130.432 58.8848 130.379 58.6562 130.379 58.3945C130.379 58.1445 130.434 57.9082 130.543 57.6855C130.656 57.4629 130.814 57.2656 131.018 57.0938C131.225 56.9219 131.473 56.7871 131.762 56.6895C132.051 56.5918 132.373 56.543 132.729 56.543C133.236 56.543 133.67 56.6328 134.029 56.8125C134.389 56.9922 134.664 57.2324 134.855 57.5332C135.047 57.8301 135.143 58.1602 135.143 58.5234H134.059C134.059 58.3477 134.006 58.1777 133.9 58.0137C133.799 57.8457 133.648 57.707 133.449 57.5977C133.254 57.4883 133.014 57.4336 132.729 57.4336C132.428 57.4336 132.184 57.4805 131.996 57.5742C131.812 57.6641 131.678 57.7793 131.592 57.9199C131.51 58.0605 131.469 58.209 131.469 58.3652C131.469 58.4824 131.488 58.5879 131.527 58.6816C131.57 58.7715 131.645 58.8555 131.75 58.9336C131.855 59.0078 132.004 59.0781 132.195 59.1445C132.387 59.2109 132.631 59.2773 132.928 59.3438C133.447 59.4609 133.875 59.6016 134.211 59.7656C134.547 59.9297 134.797 60.1309 134.961 60.3691C135.125 60.6074 135.207 60.8965 135.207 61.2363C135.207 61.5137 135.148 61.7676 135.031 61.998C134.918 62.2285 134.752 62.4277 134.533 62.5957C134.318 62.7598 134.061 62.8887 133.76 62.9824C133.463 63.0723 133.129 63.1172 132.758 63.1172C132.199 63.1172 131.727 63.0176 131.34 62.8184C130.953 62.6191 130.66 62.3613 130.461 62.0449C130.262 61.7285 130.162 61.3945 130.162 61.043H131.252C131.268 61.3398 131.354 61.5762 131.51 61.752C131.666 61.9238 131.857 62.0469 132.084 62.1211C132.311 62.1914 132.535 62.2266 132.758 62.2266C133.055 62.2266 133.303 62.1875 133.502 62.1094C133.705 62.0312 133.859 61.9238 133.965 61.7871C134.07 61.6504 134.123 61.4941 134.123 61.3184ZM139.285 56.6602V57.4922H135.857V56.6602H139.285ZM137.018 55.1191H138.102V61.4297C138.102 61.6445 138.135 61.8066 138.201 61.916C138.268 62.0254 138.354 62.0977 138.459 62.1328C138.564 62.168 138.678 62.1855 138.799 62.1855C138.889 62.1855 138.982 62.1777 139.08 62.1621C139.182 62.1426 139.258 62.127 139.309 62.1152L139.314 63C139.229 63.0273 139.115 63.0527 138.975 63.0762C138.838 63.1035 138.672 63.1172 138.477 63.1172C138.211 63.1172 137.967 63.0645 137.744 62.959C137.521 62.8535 137.344 62.6777 137.211 62.4316C137.082 62.1816 137.018 61.8457 137.018 61.4238V55.1191Z" fill="black"/>
<path opacity="0.65" d="M316.789 61.1094V62H311.205V61.2207L314 58.1094C314.344 57.7266 314.609 57.4023 314.797 57.1367C314.988 56.8672 315.121 56.627 315.195 56.416C315.273 56.2012 315.312 55.9824 315.312 55.7598C315.312 55.4785 315.254 55.2246 315.137 54.998C315.023 54.7676 314.855 54.584 314.633 54.4473C314.41 54.3105 314.141 54.2422 313.824 54.2422C313.445 54.2422 313.129 54.3164 312.875 54.4648C312.625 54.6094 312.438 54.8125 312.312 55.0742C312.188 55.3359 312.125 55.6367 312.125 55.9766H311.041C311.041 55.4961 311.146 55.0566 311.357 54.6582C311.568 54.2598 311.881 53.9434 312.295 53.709C312.709 53.4707 313.219 53.3516 313.824 53.3516C314.363 53.3516 314.824 53.4473 315.207 53.6387C315.59 53.8262 315.883 54.0918 316.086 54.4355C316.293 54.7754 316.396 55.1738 316.396 55.6309C316.396 55.8809 316.354 56.1348 316.268 56.3926C316.186 56.6465 316.07 56.9004 315.922 57.1543C315.777 57.4082 315.607 57.6582 315.412 57.9043C315.221 58.1504 315.016 58.3926 314.797 58.6309L312.512 61.1094H316.789ZM318.084 61.4258C318.084 61.2422 318.141 61.0879 318.254 60.9629C318.371 60.834 318.539 60.7695 318.758 60.7695C318.977 60.7695 319.143 60.834 319.256 60.9629C319.373 61.0879 319.432 61.2422 319.432 61.4258C319.432 61.6055 319.373 61.7578 319.256 61.8828C319.143 62.0078 318.977 62.0703 318.758 62.0703C318.539 62.0703 318.371 62.0078 318.254 61.8828C318.141 61.7578 318.084 61.6055 318.084 61.4258ZM322.695 57.2012H323.469C323.848 57.2012 324.16 57.1387 324.406 57.0137C324.656 56.8848 324.842 56.7109 324.963 56.4922C325.088 56.2695 325.15 56.0195 325.15 55.7422C325.15 55.4141 325.096 55.1387 324.986 54.916C324.877 54.6934 324.713 54.5254 324.494 54.4121C324.275 54.2988 323.998 54.2422 323.662 54.2422C323.357 54.2422 323.088 54.3027 322.854 54.4238C322.623 54.541 322.441 54.709 322.309 54.9277C322.18 55.1465 322.115 55.4043 322.115 55.7012H321.031C321.031 55.2676 321.141 54.873 321.359 54.5176C321.578 54.1621 321.885 53.8789 322.279 53.668C322.678 53.457 323.139 53.3516 323.662 53.3516C324.178 53.3516 324.629 53.4434 325.016 53.627C325.402 53.8066 325.703 54.0762 325.918 54.4355C326.133 54.791 326.24 55.2344 326.24 55.7656C326.24 55.9805 326.189 56.2109 326.088 56.457C325.99 56.6992 325.836 56.9258 325.625 57.1367C325.418 57.3477 325.148 57.5215 324.816 57.6582C324.484 57.791 324.086 57.8574 323.621 57.8574H322.695V57.2012ZM322.695 58.0918V57.4414H323.621C324.164 57.4414 324.613 57.5059 324.969 57.6348C325.324 57.7637 325.604 57.9355 325.807 58.1504C326.014 58.3652 326.158 58.6016 326.24 58.8594C326.326 59.1133 326.369 59.3672 326.369 59.6211C326.369 60.0195 326.301 60.373 326.164 60.6816C326.031 60.9902 325.842 61.252 325.596 61.4668C325.354 61.6816 325.068 61.8438 324.74 61.9531C324.412 62.0625 324.055 62.1172 323.668 62.1172C323.297 62.1172 322.947 62.0645 322.619 61.959C322.295 61.8535 322.008 61.7012 321.758 61.502C321.508 61.2988 321.312 61.0508 321.172 60.7578C321.031 60.4609 320.961 60.123 320.961 59.7441H322.045C322.045 60.041 322.109 60.3008 322.238 60.5234C322.371 60.7461 322.559 60.9199 322.801 61.0449C323.047 61.166 323.336 61.2266 323.668 61.2266C324 61.2266 324.285 61.1699 324.523 61.0566C324.766 60.9395 324.951 60.7637 325.08 60.5293C325.213 60.2949 325.279 60 325.279 59.6445C325.279 59.2891 325.205 58.998 325.057 58.7715C324.908 58.541 324.697 58.3711 324.424 58.2617C324.154 58.1484 323.836 58.0918 323.469 58.0918H322.695ZM329.445 57.2012H330.219C330.598 57.2012 330.91 57.1387 331.156 57.0137C331.406 56.8848 331.592 56.7109 331.713 56.4922C331.838 56.2695 331.9 56.0195 331.9 55.7422C331.9 55.4141 331.846 55.1387 331.736 54.916C331.627 54.6934 331.463 54.5254 331.244 54.4121C331.025 54.2988 330.748 54.2422 330.412 54.2422C330.107 54.2422 329.838 54.3027 329.604 54.4238C329.373 54.541 329.191 54.709 329.059 54.9277C328.93 55.1465 328.865 55.4043 328.865 55.7012H327.781C327.781 55.2676 327.891 54.873 328.109 54.5176C328.328 54.1621 328.635 53.8789 329.029 53.668C329.428 53.457 329.889 53.3516 330.412 53.3516C330.928 53.3516 331.379 53.4434 331.766 53.627C332.152 53.8066 332.453 54.0762 332.668 54.4355C332.883 54.791 332.99 55.2344 332.99 55.7656C332.99 55.9805 332.939 56.2109 332.838 56.457C332.74 56.6992 332.586 56.9258 332.375 57.1367C332.168 57.3477 331.898 57.5215 331.566 57.6582C331.234 57.791 330.836 57.8574 330.371 57.8574H329.445V57.2012ZM329.445 58.0918V57.4414H330.371C330.914 57.4414 331.363 57.5059 331.719 57.6348C332.074 57.7637 332.354 57.9355 332.557 58.1504C332.764 58.3652 332.908 58.6016 332.99 58.8594C333.076 59.1133 333.119 59.3672 333.119 59.6211C333.119 60.0195 333.051 60.373 332.914 60.6816C332.781 60.9902 332.592 61.252 332.346 61.4668C332.104 61.6816 331.818 61.8438 331.49 61.9531C331.162 62.0625 330.805 62.1172 330.418 62.1172C330.047 62.1172 329.697 62.0645 329.369 61.959C329.045 61.8535 328.758 61.7012 328.508 61.502C328.258 61.2988 328.062 61.0508 327.922 60.7578C327.781 60.4609 327.711 60.123 327.711 59.7441H328.795C328.795 60.041 328.859 60.3008 328.988 60.5234C329.121 60.7461 329.309 60.9199 329.551 61.0449C329.797 61.166 330.086 61.2266 330.418 61.2266C330.75 61.2266 331.035 61.1699 331.273 61.0566C331.516 60.9395 331.701 60.7637 331.83 60.5293C331.963 60.2949 332.029 60 332.029 59.6445C332.029 59.2891 331.955 58.998 331.807 58.7715C331.658 58.541 331.447 58.3711 331.174 58.2617C330.904 58.1484 330.586 58.0918 330.219 58.0918H329.445ZM335.82 53V62H334.73V53H335.82ZM339.693 55.6602L336.928 58.6191L335.381 60.2246L335.293 59.0703L336.4 57.7461L338.369 55.6602H339.693ZM338.703 62L336.441 58.9766L337.004 58.0098L339.98 62H338.703ZM341.891 56.9199V62H340.801V55.6602H341.832L341.891 56.9199ZM341.668 58.5898L341.164 58.5723C341.168 58.1387 341.225 57.7383 341.334 57.3711C341.443 57 341.605 56.6777 341.82 56.4043C342.035 56.1309 342.303 55.9199 342.623 55.7715C342.943 55.6191 343.314 55.543 343.736 55.543C344.033 55.543 344.307 55.5859 344.557 55.6719C344.807 55.7539 345.023 55.8848 345.207 56.0645C345.391 56.2441 345.533 56.4746 345.635 56.7559C345.736 57.0371 345.787 57.377 345.787 57.7754V62H344.703V57.8281C344.703 57.4961 344.646 57.2305 344.533 57.0312C344.424 56.832 344.268 56.6875 344.064 56.5977C343.861 56.5039 343.623 56.457 343.35 56.457C343.029 56.457 342.762 56.5137 342.547 56.627C342.332 56.7402 342.16 56.8965 342.031 57.0957C341.902 57.2949 341.809 57.5234 341.75 57.7812C341.695 58.0352 341.668 58.3047 341.668 58.5898ZM345.775 57.9922L345.049 58.2148C345.053 57.8672 345.109 57.5332 345.219 57.2129C345.332 56.8926 345.494 56.6074 345.705 56.3574C345.92 56.1074 346.184 55.9102 346.496 55.7656C346.809 55.6172 347.166 55.543 347.568 55.543C347.908 55.543 348.209 55.5879 348.471 55.6777C348.736 55.7676 348.959 55.9062 349.139 56.0938C349.322 56.2773 349.461 56.5137 349.555 56.8027C349.648 57.0918 349.695 57.4355 349.695 57.834V62H348.605V57.8223C348.605 57.4668 348.549 57.1914 348.436 56.9961C348.326 56.7969 348.17 56.6582 347.967 56.5801C347.768 56.498 347.529 56.457 347.252 56.457C347.014 56.457 346.803 56.498 346.619 56.5801C346.436 56.6621 346.281 56.7754 346.156 56.9199C346.031 57.0605 345.936 57.2227 345.869 57.4062C345.807 57.5898 345.775 57.7852 345.775 57.9922Z" fill="black"/>
<path opacity="0.65" d="M97.3457 75.4219V84H96.2617V76.7754L94.0762 77.5723V76.5938L97.1758 75.4219H97.3457ZM105.912 81.6914C105.912 82.2109 105.791 82.6523 105.549 83.0156C105.311 83.375 104.986 83.6484 104.576 83.8359C104.17 84.0234 103.711 84.1172 103.199 84.1172C102.688 84.1172 102.227 84.0234 101.816 83.8359C101.406 83.6484 101.082 83.375 100.844 83.0156C100.605 82.6523 100.486 82.2109 100.486 81.6914C100.486 81.3516 100.551 81.041 100.68 80.7598C100.812 80.4746 100.998 80.2266 101.236 80.0156C101.479 79.8047 101.764 79.6426 102.092 79.5293C102.424 79.4121 102.789 79.3535 103.188 79.3535C103.711 79.3535 104.178 79.4551 104.588 79.6582C104.998 79.8574 105.32 80.1328 105.555 80.4844C105.793 80.8359 105.912 81.2383 105.912 81.6914ZM104.822 81.668C104.822 81.3516 104.754 81.0723 104.617 80.8301C104.48 80.584 104.289 80.3926 104.043 80.2559C103.797 80.1191 103.512 80.0508 103.188 80.0508C102.855 80.0508 102.568 80.1191 102.326 80.2559C102.088 80.3926 101.902 80.584 101.77 80.8301C101.637 81.0723 101.57 81.3516 101.57 81.668C101.57 81.9961 101.635 82.2773 101.764 82.5117C101.896 82.7422 102.084 82.9199 102.326 83.0449C102.572 83.166 102.863 83.2266 103.199 83.2266C103.535 83.2266 103.824 83.166 104.066 83.0449C104.309 82.9199 104.494 82.7422 104.623 82.5117C104.756 82.2773 104.822 81.9961 104.822 81.668ZM105.713 77.6895C105.713 78.1035 105.604 78.4766 105.385 78.8086C105.166 79.1406 104.867 79.4023 104.488 79.5938C104.109 79.7852 103.68 79.8809 103.199 79.8809C102.711 79.8809 102.275 79.7852 101.893 79.5938C101.514 79.4023 101.217 79.1406 101.002 78.8086C100.787 78.4766 100.68 78.1035 100.68 77.6895C100.68 77.1934 100.787 76.7715 101.002 76.4238C101.221 76.0762 101.52 75.8105 101.898 75.627C102.277 75.4434 102.709 75.3516 103.193 75.3516C103.682 75.3516 104.115 75.4434 104.494 75.627C104.873 75.8105 105.17 76.0762 105.385 76.4238C105.604 76.7715 105.713 77.1934 105.713 77.6895ZM104.629 77.707C104.629 77.4219 104.568 77.1699 104.447 76.9512C104.326 76.7324 104.158 76.5605 103.943 76.4355C103.729 76.3066 103.479 76.2422 103.193 76.2422C102.908 76.2422 102.658 76.3027 102.443 76.4238C102.232 76.541 102.066 76.709 101.945 76.9277C101.828 77.1465 101.77 77.4062 101.77 77.707C101.77 78 101.828 78.2559 101.945 78.4746C102.066 78.6934 102.234 78.8633 102.449 78.9844C102.664 79.1055 102.914 79.166 103.199 79.166C103.484 79.166 103.732 79.1055 103.943 78.9844C104.158 78.8633 104.326 78.6934 104.447 78.4746C104.568 78.2559 104.629 78 104.629 77.707ZM108.654 79.9395L107.787 79.7168L108.215 75.4688H112.592V76.4707H109.135L108.877 78.791C109.033 78.7012 109.23 78.6172 109.469 78.5391C109.711 78.4609 109.988 78.4219 110.301 78.4219C110.695 78.4219 111.049 78.4902 111.361 78.627C111.674 78.7598 111.939 78.9512 112.158 79.2012C112.381 79.4512 112.551 79.752 112.668 80.1035C112.785 80.4551 112.844 80.8477 112.844 81.2812C112.844 81.6914 112.787 82.0684 112.674 82.4121C112.564 82.7559 112.398 83.0566 112.176 83.3145C111.953 83.5684 111.672 83.7656 111.332 83.9062C110.996 84.0469 110.6 84.1172 110.143 84.1172C109.799 84.1172 109.473 84.0703 109.164 83.9766C108.859 83.8789 108.586 83.7324 108.344 83.5371C108.105 83.3379 107.91 83.0918 107.758 82.7988C107.609 82.502 107.516 82.1543 107.477 81.7559H108.508C108.555 82.0762 108.648 82.3457 108.789 82.5645C108.93 82.7832 109.113 82.9492 109.34 83.0625C109.57 83.1719 109.838 83.2266 110.143 83.2266C110.4 83.2266 110.629 83.1816 110.828 83.0918C111.027 83.002 111.195 82.873 111.332 82.7051C111.469 82.5371 111.572 82.334 111.643 82.0957C111.717 81.8574 111.754 81.5898 111.754 81.293C111.754 81.0234 111.717 80.7734 111.643 80.543C111.568 80.3125 111.457 80.1113 111.309 79.9395C111.164 79.7676 110.986 79.6348 110.775 79.541C110.564 79.4434 110.322 79.3945 110.049 79.3945C109.686 79.3945 109.41 79.4434 109.223 79.541C109.039 79.6387 108.85 79.7715 108.654 79.9395ZM120.449 76.2246L117.625 84H116.471L119.723 75.4688H120.467L120.449 76.2246ZM122.816 84L119.986 76.2246L119.969 75.4688H120.713L123.977 84H122.816ZM122.67 80.8418V81.7676H117.877V80.8418H122.67ZM127.504 77.6602V78.4922H124.076V77.6602H127.504ZM125.236 76.1191H126.32V82.4297C126.32 82.6445 126.354 82.8066 126.42 82.916C126.486 83.0254 126.572 83.0977 126.678 83.1328C126.783 83.168 126.896 83.1855 127.018 83.1855C127.107 83.1855 127.201 83.1777 127.299 83.1621C127.4 83.1426 127.477 83.127 127.527 83.1152L127.533 84C127.447 84.0273 127.334 84.0527 127.193 84.0762C127.057 84.1035 126.891 84.1172 126.695 84.1172C126.43 84.1172 126.186 84.0645 125.963 83.959C125.74 83.8535 125.562 83.6777 125.43 83.4316C125.301 83.1816 125.236 82.8457 125.236 82.4238V76.1191ZM131.43 77.6602V78.4922H128.002V77.6602H131.43ZM129.162 76.1191H130.246V82.4297C130.246 82.6445 130.279 82.8066 130.346 82.916C130.412 83.0254 130.498 83.0977 130.604 83.1328C130.709 83.168 130.822 83.1855 130.943 83.1855C131.033 83.1855 131.127 83.1777 131.225 83.1621C131.326 83.1426 131.402 83.127 131.453 83.1152L131.459 84C131.373 84.0273 131.26 84.0527 131.119 84.0762C130.982 84.1035 130.816 84.1172 130.621 84.1172C130.355 84.1172 130.111 84.0645 129.889 83.959C129.666 83.8535 129.488 83.6777 129.355 83.4316C129.227 83.1816 129.162 82.8457 129.162 82.4238V76.1191ZM136.439 82.916V79.6523C136.439 79.4023 136.389 79.1855 136.287 79.002C136.189 78.8145 136.041 78.6699 135.842 78.5684C135.643 78.4668 135.396 78.416 135.104 78.416C134.83 78.416 134.59 78.4629 134.383 78.5566C134.18 78.6504 134.02 78.7734 133.902 78.9258C133.789 79.0781 133.732 79.2422 133.732 79.418H132.648C132.648 79.1914 132.707 78.9668 132.824 78.7441C132.941 78.5215 133.109 78.3203 133.328 78.1406C133.551 77.957 133.816 77.8125 134.125 77.707C134.438 77.5977 134.785 77.543 135.168 77.543C135.629 77.543 136.035 77.6211 136.387 77.7773C136.742 77.9336 137.02 78.1699 137.219 78.4863C137.422 78.7988 137.523 79.1914 137.523 79.6641V82.6172C137.523 82.8281 137.541 83.0527 137.576 83.291C137.615 83.5293 137.672 83.7344 137.746 83.9062V84H136.615C136.561 83.875 136.518 83.709 136.486 83.502C136.455 83.291 136.439 83.0957 136.439 82.916ZM136.627 80.1562L136.639 80.918H135.543C135.234 80.918 134.959 80.9434 134.717 80.9941C134.475 81.041 134.271 81.1133 134.107 81.2109C133.943 81.3086 133.818 81.4316 133.732 81.5801C133.646 81.7246 133.604 81.8945 133.604 82.0898C133.604 82.2891 133.648 82.4707 133.738 82.6348C133.828 82.7988 133.963 82.9297 134.143 83.0273C134.326 83.1211 134.551 83.168 134.816 83.168C135.148 83.168 135.441 83.0977 135.695 82.957C135.949 82.8164 136.15 82.6445 136.299 82.4414C136.451 82.2383 136.533 82.041 136.545 81.8496L137.008 82.3711C136.98 82.5352 136.906 82.7168 136.785 82.916C136.664 83.1152 136.502 83.3066 136.299 83.4902C136.1 83.6699 135.861 83.8203 135.584 83.9414C135.311 84.0586 135.002 84.1172 134.658 84.1172C134.229 84.1172 133.852 84.0332 133.527 83.8652C133.207 83.6973 132.957 83.4727 132.777 83.1914C132.602 82.9062 132.514 82.5879 132.514 82.2363C132.514 81.8965 132.58 81.5977 132.713 81.3398C132.846 81.0781 133.037 80.8613 133.287 80.6895C133.537 80.5137 133.838 80.3809 134.189 80.291C134.541 80.2012 134.934 80.1562 135.367 80.1562H136.627ZM140.834 82.875L142.463 77.6602H143.178L143.037 78.6973L141.379 84H140.682L140.834 82.875ZM139.738 77.6602L141.127 82.9336L141.227 84H140.494L138.654 77.6602H139.738ZM144.736 82.8926L146.061 77.6602H147.139L145.299 84H144.572L144.736 82.8926ZM143.336 77.6602L144.93 82.7871L145.111 84H144.42L142.715 78.6855L142.574 77.6602H143.336ZM151.99 82.916V79.6523C151.99 79.4023 151.939 79.1855 151.838 79.002C151.74 78.8145 151.592 78.6699 151.393 78.5684C151.193 78.4668 150.947 78.416 150.654 78.416C150.381 78.416 150.141 78.4629 149.934 78.5566C149.73 78.6504 149.57 78.7734 149.453 78.9258C149.34 79.0781 149.283 79.2422 149.283 79.418H148.199C148.199 79.1914 148.258 78.9668 148.375 78.7441C148.492 78.5215 148.66 78.3203 148.879 78.1406C149.102 77.957 149.367 77.8125 149.676 77.707C149.988 77.5977 150.336 77.543 150.719 77.543C151.18 77.543 151.586 77.6211 151.938 77.7773C152.293 77.9336 152.57 78.1699 152.77 78.4863C152.973 78.7988 153.074 79.1914 153.074 79.6641V82.6172C153.074 82.8281 153.092 83.0527 153.127 83.291C153.166 83.5293 153.223 83.7344 153.297 83.9062V84H152.166C152.111 83.875 152.068 83.709 152.037 83.502C152.006 83.291 151.99 83.0957 151.99 82.916ZM152.178 80.1562L152.189 80.918H151.094C150.785 80.918 150.51 80.9434 150.268 80.9941C150.025 81.041 149.822 81.1133 149.658 81.2109C149.494 81.3086 149.369 81.4316 149.283 81.5801C149.197 81.7246 149.154 81.8945 149.154 82.0898C149.154 82.2891 149.199 82.4707 149.289 82.6348C149.379 82.7988 149.514 82.9297 149.693 83.0273C149.877 83.1211 150.102 83.168 150.367 83.168C150.699 83.168 150.992 83.0977 151.246 82.957C151.5 82.8164 151.701 82.6445 151.85 82.4414C152.002 82.2383 152.084 82.041 152.096 81.8496L152.559 82.3711C152.531 82.5352 152.457 82.7168 152.336 82.916C152.215 83.1152 152.053 83.3066 151.85 83.4902C151.65 83.6699 151.412 83.8203 151.135 83.9414C150.861 84.0586 150.553 84.1172 150.209 84.1172C149.779 84.1172 149.402 84.0332 149.078 83.8652C148.758 83.6973 148.508 83.4727 148.328 83.1914C148.152 82.9062 148.064 82.5879 148.064 82.2363C148.064 81.8965 148.131 81.5977 148.264 81.3398C148.396 81.0781 148.588 80.8613 148.838 80.6895C149.088 80.5137 149.389 80.3809 149.74 80.291C150.092 80.2012 150.484 80.1562 150.918 80.1562H152.178ZM156.467 83.3438L158.23 77.6602H159.391L156.848 84.9785C156.789 85.1348 156.711 85.3027 156.613 85.4824C156.52 85.666 156.398 85.8398 156.25 86.0039C156.102 86.168 155.922 86.3008 155.711 86.4023C155.504 86.5078 155.256 86.5605 154.967 86.5605C154.881 86.5605 154.771 86.5488 154.639 86.5254C154.506 86.502 154.412 86.4824 154.357 86.4668L154.352 85.5879C154.383 85.5918 154.432 85.5957 154.498 85.5996C154.568 85.6074 154.617 85.6113 154.645 85.6113C154.891 85.6113 155.1 85.5781 155.271 85.5117C155.443 85.4492 155.588 85.3418 155.705 85.1895C155.826 85.041 155.93 84.8359 156.016 84.5742L156.467 83.3438ZM155.172 77.6602L156.818 82.582L157.1 83.7246L156.32 84.123L153.988 77.6602H155.172ZM168.057 81.8438C168.057 81.6445 168.025 81.4688 167.963 81.3164C167.904 81.1602 167.799 81.0195 167.646 80.8945C167.498 80.7695 167.291 80.6504 167.025 80.5371C166.764 80.4238 166.432 80.3086 166.029 80.1914C165.607 80.0664 165.227 79.9277 164.887 79.7754C164.547 79.6191 164.256 79.4414 164.014 79.2422C163.771 79.043 163.586 78.8145 163.457 78.5566C163.328 78.2988 163.264 78.0039 163.264 77.6719C163.264 77.3398 163.332 77.0332 163.469 76.752C163.605 76.4707 163.801 76.2266 164.055 76.0195C164.312 75.8086 164.619 75.6445 164.975 75.5273C165.33 75.4102 165.727 75.3516 166.164 75.3516C166.805 75.3516 167.348 75.4746 167.793 75.7207C168.242 75.9629 168.584 76.2812 168.818 76.6758C169.053 77.0664 169.17 77.4844 169.17 77.9297H168.045C168.045 77.6094 167.977 77.3262 167.84 77.0801C167.703 76.8301 167.496 76.6348 167.219 76.4941C166.941 76.3496 166.59 76.2773 166.164 76.2773C165.762 76.2773 165.43 76.3379 165.168 76.459C164.906 76.5801 164.711 76.7441 164.582 76.9512C164.457 77.1582 164.395 77.3945 164.395 77.6602C164.395 77.8398 164.432 78.0039 164.506 78.1523C164.584 78.2969 164.703 78.4316 164.863 78.5566C165.027 78.6816 165.234 78.7969 165.484 78.9023C165.738 79.0078 166.041 79.1094 166.393 79.207C166.877 79.3438 167.295 79.4961 167.646 79.6641C167.998 79.832 168.287 80.0215 168.514 80.2324C168.744 80.4395 168.914 80.6758 169.023 80.9414C169.137 81.2031 169.193 81.5 169.193 81.832C169.193 82.1797 169.123 82.4941 168.982 82.7754C168.842 83.0566 168.641 83.2969 168.379 83.4961C168.117 83.6953 167.803 83.8496 167.436 83.959C167.072 84.0645 166.666 84.1172 166.217 84.1172C165.822 84.1172 165.434 84.0625 165.051 83.9531C164.672 83.8438 164.326 83.6797 164.014 83.4609C163.705 83.2422 163.457 82.9727 163.27 82.6523C163.086 82.3281 162.994 81.9531 162.994 81.5273H164.119C164.119 81.8203 164.176 82.0723 164.289 82.2832C164.402 82.4902 164.557 82.6621 164.752 82.7988C164.951 82.9355 165.176 83.0371 165.426 83.1035C165.68 83.166 165.943 83.1973 166.217 83.1973C166.611 83.1973 166.945 83.1426 167.219 83.0332C167.492 82.9238 167.699 82.7676 167.84 82.5645C167.984 82.3613 168.057 82.1211 168.057 81.8438ZM173.125 77.6602V78.4922H169.697V77.6602H173.125ZM170.857 76.1191H171.941V82.4297C171.941 82.6445 171.975 82.8066 172.041 82.916C172.107 83.0254 172.193 83.0977 172.299 83.1328C172.404 83.168 172.518 83.1855 172.639 83.1855C172.729 83.1855 172.822 83.1777 172.92 83.1621C173.021 83.1426 173.098 83.127 173.148 83.1152L173.154 84C173.068 84.0273 172.955 84.0527 172.814 84.0762C172.678 84.1035 172.512 84.1172 172.316 84.1172C172.051 84.1172 171.807 84.0645 171.584 83.959C171.361 83.8535 171.184 83.6777 171.051 83.4316C170.922 83.1816 170.857 82.8457 170.857 82.4238V76.1191ZM175.48 78.6562V84H174.396V77.6602H175.451L175.48 78.6562ZM177.461 77.625L177.455 78.6328C177.365 78.6133 177.279 78.6016 177.197 78.5977C177.119 78.5898 177.029 78.5859 176.928 78.5859C176.678 78.5859 176.457 78.625 176.266 78.7031C176.074 78.7812 175.912 78.8906 175.779 79.0312C175.646 79.1719 175.541 79.3398 175.463 79.5352C175.389 79.7266 175.34 79.9375 175.316 80.168L175.012 80.3438C175.012 79.9609 175.049 79.6016 175.123 79.2656C175.201 78.9297 175.32 78.6328 175.48 78.375C175.641 78.1133 175.844 77.9102 176.09 77.7656C176.34 77.6172 176.637 77.543 176.98 77.543C177.059 77.543 177.148 77.5527 177.25 77.5723C177.352 77.5879 177.422 77.6055 177.461 77.625ZM180.977 84.1172C180.535 84.1172 180.135 84.043 179.775 83.8945C179.42 83.7422 179.113 83.5293 178.855 83.2559C178.602 82.9824 178.406 82.6582 178.27 82.2832C178.133 81.9082 178.064 81.498 178.064 81.0527V80.8066C178.064 80.291 178.141 79.832 178.293 79.4297C178.445 79.0234 178.652 78.6797 178.914 78.3984C179.176 78.1172 179.473 77.9043 179.805 77.7598C180.137 77.6152 180.48 77.543 180.836 77.543C181.289 77.543 181.68 77.6211 182.008 77.7773C182.34 77.9336 182.611 78.1523 182.822 78.4336C183.033 78.7109 183.189 79.0391 183.291 79.418C183.393 79.793 183.443 80.2031 183.443 80.6484V81.1348H178.709V80.25H182.359V80.168C182.344 79.8867 182.285 79.6133 182.184 79.3477C182.086 79.082 181.93 78.8633 181.715 78.6914C181.5 78.5195 181.207 78.4336 180.836 78.4336C180.59 78.4336 180.363 78.4863 180.156 78.5918C179.949 78.6934 179.771 78.8457 179.623 79.0488C179.475 79.252 179.359 79.5 179.277 79.793C179.195 80.0859 179.154 80.4238 179.154 80.8066V81.0527C179.154 81.3535 179.195 81.6367 179.277 81.9023C179.363 82.1641 179.486 82.3945 179.646 82.5938C179.811 82.793 180.008 82.9492 180.238 83.0625C180.473 83.1758 180.738 83.2324 181.035 83.2324C181.418 83.2324 181.742 83.1543 182.008 82.998C182.273 82.8418 182.506 82.6328 182.705 82.3711L183.361 82.8926C183.225 83.0996 183.051 83.2969 182.84 83.4844C182.629 83.6719 182.369 83.8242 182.061 83.9414C181.756 84.0586 181.395 84.1172 180.977 84.1172ZM187.34 84.1172C186.898 84.1172 186.498 84.043 186.139 83.8945C185.783 83.7422 185.477 83.5293 185.219 83.2559C184.965 82.9824 184.77 82.6582 184.633 82.2832C184.496 81.9082 184.428 81.498 184.428 81.0527V80.8066C184.428 80.291 184.504 79.832 184.656 79.4297C184.809 79.0234 185.016 78.6797 185.277 78.3984C185.539 78.1172 185.836 77.9043 186.168 77.7598C186.5 77.6152 186.844 77.543 187.199 77.543C187.652 77.543 188.043 77.6211 188.371 77.7773C188.703 77.9336 188.975 78.1523 189.186 78.4336C189.396 78.7109 189.553 79.0391 189.654 79.418C189.756 79.793 189.807 80.2031 189.807 80.6484V81.1348H185.072V80.25H188.723V80.168C188.707 79.8867 188.648 79.6133 188.547 79.3477C188.449 79.082 188.293 78.8633 188.078 78.6914C187.863 78.5195 187.57 78.4336 187.199 78.4336C186.953 78.4336 186.727 78.4863 186.52 78.5918C186.312 78.6934 186.135 78.8457 185.986 79.0488C185.838 79.252 185.723 79.5 185.641 79.793C185.559 80.0859 185.518 80.4238 185.518 80.8066V81.0527C185.518 81.3535 185.559 81.6367 185.641 81.9023C185.727 82.1641 185.85 82.3945 186.01 82.5938C186.174 82.793 186.371 82.9492 186.602 83.0625C186.836 83.1758 187.102 83.2324 187.398 83.2324C187.781 83.2324 188.105 83.1543 188.371 82.998C188.637 82.8418 188.869 82.6328 189.068 82.3711L189.725 82.8926C189.588 83.0996 189.414 83.2969 189.203 83.4844C188.992 83.6719 188.732 83.8242 188.424 83.9414C188.119 84.0586 187.758 84.1172 187.34 84.1172ZM193.727 77.6602V78.4922H190.299V77.6602H193.727ZM191.459 76.1191H192.543V82.4297C192.543 82.6445 192.576 82.8066 192.643 82.916C192.709 83.0254 192.795 83.0977 192.9 83.1328C193.006 83.168 193.119 83.1855 193.24 83.1855C193.33 83.1855 193.424 83.1777 193.521 83.1621C193.623 83.1426 193.699 83.127 193.75 83.1152L193.756 84C193.67 84.0273 193.557 84.0527 193.416 84.0762C193.279 84.1035 193.113 84.1172 192.918 84.1172C192.652 84.1172 192.408 84.0645 192.186 83.959C191.963 83.8535 191.785 83.6777 191.652 83.4316C191.523 83.1816 191.459 82.8457 191.459 82.4238V76.1191ZM195.982 82.7109V83.584C195.982 83.9395 195.893 84.3145 195.713 84.709C195.533 85.1074 195.281 85.4395 194.957 85.7051L194.342 85.2773C194.467 85.1055 194.572 84.9297 194.658 84.75C194.744 84.5742 194.809 84.3906 194.852 84.1992C194.898 84.0117 194.922 83.8125 194.922 83.6016V82.7109H195.982ZM203.424 75.4688V84H202.311V75.4688H203.424ZM206.166 75.4688V76.3945H199.574V75.4688H206.166ZM206.395 80.9004V80.7656C206.395 80.3086 206.461 79.8848 206.594 79.4941C206.727 79.0996 206.918 78.7578 207.168 78.4688C207.418 78.1758 207.721 77.9492 208.076 77.7891C208.432 77.625 208.83 77.543 209.271 77.543C209.717 77.543 210.117 77.625 210.473 77.7891C210.832 77.9492 211.137 78.1758 211.387 78.4688C211.641 78.7578 211.834 79.0996 211.967 79.4941C212.1 79.8848 212.166 80.3086 212.166 80.7656V80.9004C212.166 81.3574 212.1 81.7812 211.967 82.1719C211.834 82.5625 211.641 82.9043 211.387 83.1973C211.137 83.4863 210.834 83.7129 210.479 83.877C210.127 84.0371 209.729 84.1172 209.283 84.1172C208.838 84.1172 208.438 84.0371 208.082 83.877C207.727 83.7129 207.422 83.4863 207.168 83.1973C206.918 82.9043 206.727 82.5625 206.594 82.1719C206.461 81.7812 206.395 81.3574 206.395 80.9004ZM207.479 80.7656V80.9004C207.479 81.2168 207.516 81.5156 207.59 81.7969C207.664 82.0742 207.775 82.3203 207.924 82.5352C208.076 82.75 208.266 82.9199 208.492 83.0449C208.719 83.166 208.982 83.2266 209.283 83.2266C209.58 83.2266 209.84 83.166 210.062 83.0449C210.289 82.9199 210.477 82.75 210.625 82.5352C210.773 82.3203 210.885 82.0742 210.959 81.7969C211.037 81.5156 211.076 81.2168 211.076 80.9004V80.7656C211.076 80.4531 211.037 80.1582 210.959 79.8809C210.885 79.5996 210.771 79.3516 210.619 79.1367C210.471 78.918 210.283 78.7461 210.057 78.6211C209.834 78.4961 209.572 78.4336 209.271 78.4336C208.975 78.4336 208.713 78.4961 208.486 78.6211C208.264 78.7461 208.076 78.918 207.924 79.1367C207.775 79.3516 207.664 79.5996 207.59 79.8809C207.516 80.1582 207.479 80.4531 207.479 80.7656ZM214.609 78.6562V84H213.525V77.6602H214.58L214.609 78.6562ZM216.59 77.625L216.584 78.6328C216.494 78.6133 216.408 78.6016 216.326 78.5977C216.248 78.5898 216.158 78.5859 216.057 78.5859C215.807 78.5859 215.586 78.625 215.395 78.7031C215.203 78.7812 215.041 78.8906 214.908 79.0312C214.775 79.1719 214.67 79.3398 214.592 79.5352C214.518 79.7266 214.469 79.9375 214.445 80.168L214.141 80.3438C214.141 79.9609 214.178 79.6016 214.252 79.2656C214.33 78.9297 214.449 78.6328 214.609 78.375C214.77 78.1133 214.973 77.9102 215.219 77.7656C215.469 77.6172 215.766 77.543 216.109 77.543C216.188 77.543 216.277 77.5527 216.379 77.5723C216.48 77.5879 216.551 77.6055 216.59 77.625ZM217.188 80.9004V80.7656C217.188 80.3086 217.254 79.8848 217.387 79.4941C217.52 79.0996 217.711 78.7578 217.961 78.4688C218.211 78.1758 218.514 77.9492 218.869 77.7891C219.225 77.625 219.623 77.543 220.064 77.543C220.51 77.543 220.91 77.625 221.266 77.7891C221.625 77.9492 221.93 78.1758 222.18 78.4688C222.434 78.7578 222.627 79.0996 222.76 79.4941C222.893 79.8848 222.959 80.3086 222.959 80.7656V80.9004C222.959 81.3574 222.893 81.7812 222.76 82.1719C222.627 82.5625 222.434 82.9043 222.18 83.1973C221.93 83.4863 221.627 83.7129 221.271 83.877C220.92 84.0371 220.521 84.1172 220.076 84.1172C219.631 84.1172 219.23 84.0371 218.875 83.877C218.52 83.7129 218.215 83.4863 217.961 83.1973C217.711 82.9043 217.52 82.5625 217.387 82.1719C217.254 81.7812 217.188 81.3574 217.188 80.9004ZM218.271 80.7656V80.9004C218.271 81.2168 218.309 81.5156 218.383 81.7969C218.457 82.0742 218.568 82.3203 218.717 82.5352C218.869 82.75 219.059 82.9199 219.285 83.0449C219.512 83.166 219.775 83.2266 220.076 83.2266C220.373 83.2266 220.633 83.166 220.855 83.0449C221.082 82.9199 221.27 82.75 221.418 82.5352C221.566 82.3203 221.678 82.0742 221.752 81.7969C221.83 81.5156 221.869 81.2168 221.869 80.9004V80.7656C221.869 80.4531 221.83 80.1582 221.752 79.8809C221.678 79.5996 221.564 79.3516 221.412 79.1367C221.264 78.918 221.076 78.7461 220.85 78.6211C220.627 78.4961 220.365 78.4336 220.064 78.4336C219.768 78.4336 219.506 78.4961 219.279 78.6211C219.057 78.7461 218.869 78.918 218.717 79.1367C218.568 79.3516 218.457 79.5996 218.383 79.8809C218.309 80.1582 218.271 80.4531 218.271 80.7656ZM225.402 79.0137V84H224.318V77.6602H225.344L225.402 79.0137ZM225.145 80.5898L224.693 80.5723C224.697 80.1387 224.762 79.7383 224.887 79.3711C225.012 79 225.188 78.6777 225.414 78.4043C225.641 78.1309 225.91 77.9199 226.223 77.7715C226.539 77.6191 226.889 77.543 227.271 77.543C227.584 77.543 227.865 77.5859 228.115 77.6719C228.365 77.7539 228.578 77.8867 228.754 78.0703C228.934 78.2539 229.07 78.4922 229.164 78.7852C229.258 79.0742 229.305 79.4277 229.305 79.8457V84H228.215V79.834C228.215 79.502 228.166 79.2363 228.068 79.0371C227.971 78.834 227.828 78.6875 227.641 78.5977C227.453 78.5039 227.223 78.457 226.949 78.457C226.68 78.457 226.434 78.5137 226.211 78.627C225.992 78.7402 225.803 78.8965 225.643 79.0957C225.486 79.2949 225.363 79.5234 225.273 79.7812C225.188 80.0352 225.145 80.3047 225.145 80.5898ZM233.605 77.6602V78.4922H230.178V77.6602H233.605ZM231.338 76.1191H232.422V82.4297C232.422 82.6445 232.455 82.8066 232.521 82.916C232.588 83.0254 232.674 83.0977 232.779 83.1328C232.885 83.168 232.998 83.1855 233.119 83.1855C233.209 83.1855 233.303 83.1777 233.4 83.1621C233.502 83.1426 233.578 83.127 233.629 83.1152L233.635 84C233.549 84.0273 233.436 84.0527 233.295 84.0762C233.158 84.1035 232.992 84.1172 232.797 84.1172C232.531 84.1172 232.287 84.0645 232.064 83.959C231.842 83.8535 231.664 83.6777 231.531 83.4316C231.402 83.1816 231.338 82.8457 231.338 82.4238V76.1191ZM234.473 80.9004V80.7656C234.473 80.3086 234.539 79.8848 234.672 79.4941C234.805 79.0996 234.996 78.7578 235.246 78.4688C235.496 78.1758 235.799 77.9492 236.154 77.7891C236.51 77.625 236.908 77.543 237.35 77.543C237.795 77.543 238.195 77.625 238.551 77.7891C238.91 77.9492 239.215 78.1758 239.465 78.4688C239.719 78.7578 239.912 79.0996 240.045 79.4941C240.178 79.8848 240.244 80.3086 240.244 80.7656V80.9004C240.244 81.3574 240.178 81.7812 240.045 82.1719C239.912 82.5625 239.719 82.9043 239.465 83.1973C239.215 83.4863 238.912 83.7129 238.557 83.877C238.205 84.0371 237.807 84.1172 237.361 84.1172C236.916 84.1172 236.516 84.0371 236.16 83.877C235.805 83.7129 235.5 83.4863 235.246 83.1973C234.996 82.9043 234.805 82.5625 234.672 82.1719C234.539 81.7812 234.473 81.3574 234.473 80.9004ZM235.557 80.7656V80.9004C235.557 81.2168 235.594 81.5156 235.668 81.7969C235.742 82.0742 235.854 82.3203 236.002 82.5352C236.154 82.75 236.344 82.9199 236.57 83.0449C236.797 83.166 237.061 83.2266 237.361 83.2266C237.658 83.2266 237.918 83.166 238.141 83.0449C238.367 82.9199 238.555 82.75 238.703 82.5352C238.852 82.3203 238.963 82.0742 239.037 81.7969C239.115 81.5156 239.154 81.2168 239.154 80.9004V80.7656C239.154 80.4531 239.115 80.1582 239.037 79.8809C238.963 79.5996 238.85 79.3516 238.697 79.1367C238.549 78.918 238.361 78.7461 238.135 78.6211C237.912 78.4961 237.65 78.4336 237.35 78.4336C237.053 78.4336 236.791 78.4961 236.564 78.6211C236.342 78.7461 236.154 78.918 236.002 79.1367C235.854 79.3516 235.742 79.5996 235.668 79.8809C235.594 80.1582 235.557 80.4531 235.557 80.7656ZM242.588 82.7109V83.584C242.588 83.9395 242.498 84.3145 242.318 84.709C242.139 85.1074 241.887 85.4395 241.562 85.7051L240.947 85.2773C241.072 85.1055 241.178 84.9297 241.264 84.75C241.35 84.5742 241.414 84.3906 241.457 84.1992C241.504 84.0117 241.527 83.8125 241.527 83.6016V82.7109H242.588ZM252.262 81.2871H253.387C253.328 81.8262 253.174 82.3086 252.924 82.7344C252.674 83.1602 252.32 83.498 251.863 83.748C251.406 83.9941 250.836 84.1172 250.152 84.1172C249.652 84.1172 249.197 84.0234 248.787 83.8359C248.381 83.6484 248.031 83.3828 247.738 83.0391C247.445 82.6914 247.219 82.2754 247.059 81.791C246.902 81.3027 246.824 80.7598 246.824 80.1621V79.3125C246.824 78.7148 246.902 78.1738 247.059 77.6895C247.219 77.2012 247.447 76.7832 247.744 76.4355C248.045 76.0879 248.406 75.8203 248.828 75.6328C249.25 75.4453 249.725 75.3516 250.252 75.3516C250.896 75.3516 251.441 75.4727 251.887 75.7148C252.332 75.957 252.678 76.293 252.924 76.7227C253.174 77.1484 253.328 77.6426 253.387 78.2051H252.262C252.207 77.8066 252.105 77.4648 251.957 77.1797C251.809 76.8906 251.598 76.668 251.324 76.5117C251.051 76.3555 250.693 76.2773 250.252 76.2773C249.873 76.2773 249.539 76.3496 249.25 76.4941C248.965 76.6387 248.725 76.8438 248.529 77.1094C248.338 77.375 248.193 77.6934 248.096 78.0645C247.998 78.4355 247.949 78.8477 247.949 79.3008V80.1621C247.949 80.5801 247.992 80.9727 248.078 81.3398C248.168 81.707 248.303 82.0293 248.482 82.3066C248.662 82.584 248.891 82.8027 249.168 82.9629C249.445 83.1191 249.773 83.1973 250.152 83.1973C250.633 83.1973 251.016 83.1211 251.301 82.9688C251.586 82.8164 251.801 82.5977 251.945 82.3125C252.094 82.0273 252.199 81.6855 252.262 81.2871ZM258.502 82.916V79.6523C258.502 79.4023 258.451 79.1855 258.35 79.002C258.252 78.8145 258.104 78.6699 257.904 78.5684C257.705 78.4668 257.459 78.416 257.166 78.416C256.893 78.416 256.652 78.4629 256.445 78.5566C256.242 78.6504 256.082 78.7734 255.965 78.9258C255.852 79.0781 255.795 79.2422 255.795 79.418H254.711C254.711 79.1914 254.77 78.9668 254.887 78.7441C255.004 78.5215 255.172 78.3203 255.391 78.1406C255.613 77.957 255.879 77.8125 256.188 77.707C256.5 77.5977 256.848 77.543 257.23 77.543C257.691 77.543 258.098 77.6211 258.449 77.7773C258.805 77.9336 259.082 78.1699 259.281 78.4863C259.484 78.7988 259.586 79.1914 259.586 79.6641V82.6172C259.586 82.8281 259.604 83.0527 259.639 83.291C259.678 83.5293 259.734 83.7344 259.809 83.9062V84H258.678C258.623 83.875 258.58 83.709 258.549 83.502C258.518 83.291 258.502 83.0957 258.502 82.916ZM258.689 80.1562L258.701 80.918H257.605C257.297 80.918 257.021 80.9434 256.779 80.9941C256.537 81.041 256.334 81.1133 256.17 81.2109C256.006 81.3086 255.881 81.4316 255.795 81.5801C255.709 81.7246 255.666 81.8945 255.666 82.0898C255.666 82.2891 255.711 82.4707 255.801 82.6348C255.891 82.7988 256.025 82.9297 256.205 83.0273C256.389 83.1211 256.613 83.168 256.879 83.168C257.211 83.168 257.504 83.0977 257.758 82.957C258.012 82.8164 258.213 82.6445 258.361 82.4414C258.514 82.2383 258.596 82.041 258.607 81.8496L259.07 82.3711C259.043 82.5352 258.969 82.7168 258.848 82.916C258.727 83.1152 258.564 83.3066 258.361 83.4902C258.162 83.6699 257.924 83.8203 257.646 83.9414C257.373 84.0586 257.064 84.1172 256.721 84.1172C256.291 84.1172 255.914 84.0332 255.59 83.8652C255.27 83.6973 255.02 83.4727 254.84 83.1914C254.664 82.9062 254.576 82.5879 254.576 82.2363C254.576 81.8965 254.643 81.5977 254.775 81.3398C254.908 81.0781 255.1 80.8613 255.35 80.6895C255.6 80.5137 255.9 80.3809 256.252 80.291C256.604 80.2012 256.996 80.1562 257.43 80.1562H258.689ZM262.375 79.0137V84H261.291V77.6602H262.316L262.375 79.0137ZM262.117 80.5898L261.666 80.5723C261.67 80.1387 261.734 79.7383 261.859 79.3711C261.984 79 262.16 78.6777 262.387 78.4043C262.613 78.1309 262.883 77.9199 263.195 77.7715C263.512 77.6191 263.861 77.543 264.244 77.543C264.557 77.543 264.838 77.5859 265.088 77.6719C265.338 77.7539 265.551 77.8867 265.727 78.0703C265.906 78.2539 266.043 78.4922 266.137 78.7852C266.23 79.0742 266.277 79.4277 266.277 79.8457V84H265.188V79.834C265.188 79.502 265.139 79.2363 265.041 79.0371C264.943 78.834 264.801 78.6875 264.613 78.5977C264.426 78.5039 264.195 78.457 263.922 78.457C263.652 78.457 263.406 78.5137 263.184 78.627C262.965 78.7402 262.775 78.8965 262.615 79.0957C262.459 79.2949 262.336 79.5234 262.246 79.7812C262.16 80.0352 262.117 80.3047 262.117 80.5898ZM271.662 82.916V79.6523C271.662 79.4023 271.611 79.1855 271.51 79.002C271.412 78.8145 271.264 78.6699 271.064 78.5684C270.865 78.4668 270.619 78.416 270.326 78.416C270.053 78.416 269.812 78.4629 269.605 78.5566C269.402 78.6504 269.242 78.7734 269.125 78.9258C269.012 79.0781 268.955 79.2422 268.955 79.418H267.871C267.871 79.1914 267.93 78.9668 268.047 78.7441C268.164 78.5215 268.332 78.3203 268.551 78.1406C268.773 77.957 269.039 77.8125 269.348 77.707C269.66 77.5977 270.008 77.543 270.391 77.543C270.852 77.543 271.258 77.6211 271.609 77.7773C271.965 77.9336 272.242 78.1699 272.441 78.4863C272.645 78.7988 272.746 79.1914 272.746 79.6641V82.6172C272.746 82.8281 272.764 83.0527 272.799 83.291C272.838 83.5293 272.895 83.7344 272.969 83.9062V84H271.838C271.783 83.875 271.74 83.709 271.709 83.502C271.678 83.291 271.662 83.0957 271.662 82.916ZM271.85 80.1562L271.861 80.918H270.766C270.457 80.918 270.182 80.9434 269.939 80.9941C269.697 81.041 269.494 81.1133 269.33 81.2109C269.166 81.3086 269.041 81.4316 268.955 81.5801C268.869 81.7246 268.826 81.8945 268.826 82.0898C268.826 82.2891 268.871 82.4707 268.961 82.6348C269.051 82.7988 269.186 82.9297 269.365 83.0273C269.549 83.1211 269.773 83.168 270.039 83.168C270.371 83.168 270.664 83.0977 270.918 82.957C271.172 82.8164 271.373 82.6445 271.521 82.4414C271.674 82.2383 271.756 82.041 271.768 81.8496L272.23 82.3711C272.203 82.5352 272.129 82.7168 272.008 82.916C271.887 83.1152 271.725 83.3066 271.521 83.4902C271.322 83.6699 271.084 83.8203 270.807 83.9414C270.533 84.0586 270.225 84.1172 269.881 84.1172C269.451 84.1172 269.074 84.0332 268.75 83.8652C268.43 83.6973 268.18 83.4727 268 83.1914C267.824 82.9062 267.736 82.5879 267.736 82.2363C267.736 81.8965 267.803 81.5977 267.936 81.3398C268.068 81.0781 268.26 80.8613 268.51 80.6895C268.76 80.5137 269.061 80.3809 269.412 80.291C269.764 80.2012 270.156 80.1562 270.59 80.1562H271.85ZM278.447 82.7695V75H279.537V84H278.541L278.447 82.7695ZM274.182 80.9004V80.7773C274.182 80.293 274.24 79.8535 274.357 79.459C274.479 79.0605 274.648 78.7188 274.867 78.4336C275.09 78.1484 275.354 77.9297 275.658 77.7773C275.967 77.6211 276.311 77.543 276.689 77.543C277.088 77.543 277.436 77.6133 277.732 77.7539C278.033 77.8906 278.287 78.0918 278.494 78.3574C278.705 78.6191 278.871 78.9355 278.992 79.3066C279.113 79.6777 279.197 80.0977 279.244 80.5664V81.1055C279.201 81.5703 279.117 81.9883 278.992 82.3594C278.871 82.7305 278.705 83.0469 278.494 83.3086C278.287 83.5703 278.033 83.7715 277.732 83.9121C277.432 84.0488 277.08 84.1172 276.678 84.1172C276.307 84.1172 275.967 84.0371 275.658 83.877C275.354 83.7168 275.09 83.4922 274.867 83.2031C274.648 82.9141 274.479 82.5742 274.357 82.1836C274.24 81.7891 274.182 81.3613 274.182 80.9004ZM275.271 80.7773V80.9004C275.271 81.2168 275.303 81.5137 275.365 81.791C275.432 82.0684 275.533 82.3125 275.67 82.5234C275.807 82.7344 275.98 82.9004 276.191 83.0215C276.402 83.1387 276.654 83.1973 276.947 83.1973C277.307 83.1973 277.602 83.1211 277.832 82.9688C278.066 82.8164 278.254 82.6152 278.395 82.3652C278.535 82.1152 278.645 81.8438 278.723 81.5508V80.1387C278.676 79.9238 278.607 79.7168 278.518 79.5176C278.432 79.3145 278.318 79.1348 278.178 78.9785C278.041 78.8184 277.871 78.6914 277.668 78.5977C277.469 78.5039 277.232 78.457 276.959 78.457C276.662 78.457 276.406 78.5195 276.191 78.6445C275.98 78.7656 275.807 78.9336 275.67 79.1484C275.533 79.3594 275.432 79.6055 275.365 79.8867C275.303 80.1641 275.271 80.4609 275.271 80.7773ZM284.963 82.916V79.6523C284.963 79.4023 284.912 79.1855 284.811 79.002C284.713 78.8145 284.564 78.6699 284.365 78.5684C284.166 78.4668 283.92 78.416 283.627 78.416C283.354 78.416 283.113 78.4629 282.906 78.5566C282.703 78.6504 282.543 78.7734 282.426 78.9258C282.312 79.0781 282.256 79.2422 282.256 79.418H281.172C281.172 79.1914 281.23 78.9668 281.348 78.7441C281.465 78.5215 281.633 78.3203 281.852 78.1406C282.074 77.957 282.34 77.8125 282.648 77.707C282.961 77.5977 283.309 77.543 283.691 77.543C284.152 77.543 284.559 77.6211 284.91 77.7773C285.266 77.9336 285.543 78.1699 285.742 78.4863C285.945 78.7988 286.047 79.1914 286.047 79.6641V82.6172C286.047 82.8281 286.064 83.0527 286.1 83.291C286.139 83.5293 286.195 83.7344 286.27 83.9062V84H285.139C285.084 83.875 285.041 83.709 285.01 83.502C284.979 83.291 284.963 83.0957 284.963 82.916ZM285.15 80.1562L285.162 80.918H284.066C283.758 80.918 283.482 80.9434 283.24 80.9941C282.998 81.041 282.795 81.1133 282.631 81.2109C282.467 81.3086 282.342 81.4316 282.256 81.5801C282.17 81.7246 282.127 81.8945 282.127 82.0898C282.127 82.2891 282.172 82.4707 282.262 82.6348C282.352 82.7988 282.486 82.9297 282.666 83.0273C282.85 83.1211 283.074 83.168 283.34 83.168C283.672 83.168 283.965 83.0977 284.219 82.957C284.473 82.8164 284.674 82.6445 284.822 82.4414C284.975 82.2383 285.057 82.041 285.068 81.8496L285.531 82.3711C285.504 82.5352 285.43 82.7168 285.309 82.916C285.188 83.1152 285.025 83.3066 284.822 83.4902C284.623 83.6699 284.385 83.8203 284.107 83.9414C283.834 84.0586 283.525 84.1172 283.182 84.1172C282.752 84.1172 282.375 84.0332 282.051 83.8652C281.73 83.6973 281.48 83.4727 281.301 83.1914C281.125 82.9062 281.037 82.5879 281.037 82.2363C281.037 81.8965 281.104 81.5977 281.236 81.3398C281.369 81.0781 281.561 80.8613 281.811 80.6895C282.061 80.5137 282.361 80.3809 282.713 80.291C283.064 80.2012 283.457 80.1562 283.891 80.1562H285.15Z" fill="black"/>
<g opacity="0.65">
<path d="M84.6875 79.625C84.9479 79.625 85.1692 79.5338 85.3513 79.3513C85.5338 79.1692 85.625 78.9479 85.625 78.6875C85.625 78.4271 85.5338 78.2058 85.3513 78.0237C85.1692 77.8412 84.9479 77.75 84.6875 77.75C84.4271 77.75 84.2058 77.8412 84.0237 78.0237C83.8412 78.2058 83.75 78.4271 83.75 78.6875C83.75 78.9479 83.8412 79.1692 84.0237 79.3513C84.2058 79.5338 84.4271 79.625 84.6875 79.625ZM84.6875 85.0938C85.9896 83.9583 86.9921 82.8229 87.695 81.6875C88.3983 80.5521 88.75 79.5937 88.75 78.8125C88.75 77.5833 88.3569 76.5781 87.5706 75.7969C86.784 75.0156 85.8229 74.625 84.6875 74.625C83.5521 74.625 82.5913 75.0156 81.805 75.7969C81.0183 76.5781 80.625 77.5833 80.625 78.8125C80.625 79.5937 80.9767 80.5521 81.68 81.6875C82.3829 82.8229 83.3854 83.9583 84.6875 85.0938ZM84.6875 85.9531C83.1042 84.5469 81.9271 83.2448 81.1562 82.0469C80.3854 80.849 80 79.7708 80 78.8125C80 77.3437 80.4715 76.1746 81.4144 75.305C82.3569 74.435 83.4479 74 84.6875 74C85.9271 74 87.0183 74.435 87.9613 75.305C88.9038 76.1746 89.375 77.3437 89.375 78.8125C89.375 79.7708 88.9896 80.849 88.2187 82.0469C87.4479 83.2448 86.2708 84.5469 84.6875 85.9531Z" fill="#1C1B1F"/>
</g>
<mask id="mask0_105_477" style="mask-type:alpha" maskUnits="userSpaceOnUse" x="78" y="90" width="20" height="20">
<rect x="78" y="90" width="20" height="20" fill="#D9D9D9"/>
</mask>
<g mask="url(#mask0_105_477)">
<path d="M84.1042 106.604L85.1458 102.167L81.7083 99.2083L86.2292 98.8125L88 94.625L89.7708 98.8125L94.2917 99.2083L90.8542 102.167L91.8958 106.604L88 104.25L84.1042 106.604Z" fill="#CEC609"/>
</g>
<mask id="mask1_105_477" style="mask-type:alpha" maskUnits="userSpaceOnUse" x="92" y="90" width="20" height="20">
<rect x="92" y="90" width="20" height="20" fill="#D9D9D9"/>
</mask>
<g mask="url(#mask1_105_477)">
<path d="M98.1042 106.604L99.1458 102.167L95.7083 99.2083L100.229 98.8125L102 94.625L103.771 98.8125L108.292 99.2083L104.854 102.167L105.896 106.604L102 104.25L98.1042 106.604Z" fill="#CEC609"/>
</g>
<path d="M112.104 106.604L113.146 102.167L109.708 99.2083L114.229 98.8125L116 94.625L117.771 98.8125L122.292 99.2083L118.854 102.167L119.896 106.604L116 104.25L112.104 106.604Z" fill="#CEC609"/>
<mask id="mask2_105_477" style="mask-type:alpha" maskUnits="userSpaceOnUse" x="120" y="90" width="20" height="20">
<rect x="120" y="90" width="20" height="20" fill="#D9D9D9"/>
</mask>
<g mask="url(#mask2_105_477)">
<path d="M126.104 106.604L127.146 102.167L123.708 99.2083L128.229 98.8125L130 94.625L131.771 98.8125L136.292 99.2083L132.854 102.167L133.896 106.604L130 104.25L126.104 106.604Z" fill="#CEC609"/>
</g>
<path d="M144 96.7708V103.271L146.625 104.875L145.937 101.875L148.25 99.875L145.208 99.6042L144 96.7708ZM140.104 106.604L141.146 102.167L137.708 99.2083L142.229 98.8125L144 94.625L145.771 98.8125L150.292 99.2083L146.854 102.167L147.896 106.604L144 104.25L140.104 106.604Z" fill="#CEC609"/>
<rect x="286" y="95" width="65" height="17" rx="8.5" fill="#488AA8"/>
<path opacity="0.65" d="M299.586 103.675H297.784L297.774 102.918H299.41C299.68 102.918 299.916 102.872 300.118 102.781C300.32 102.69 300.476 102.56 300.587 102.391C300.701 102.218 300.758 102.013 300.758 101.775C300.758 101.515 300.707 101.303 300.606 101.141C300.509 100.975 300.357 100.854 300.152 100.779C299.951 100.701 299.693 100.662 299.381 100.662H297.994V107H297.052V99.8906H299.381C299.745 99.8906 300.071 99.9281 300.357 100.003C300.644 100.075 300.886 100.188 301.085 100.345C301.287 100.498 301.44 100.693 301.544 100.931C301.648 101.168 301.7 101.453 301.7 101.785C301.7 102.078 301.625 102.343 301.476 102.581C301.326 102.815 301.118 103.007 300.851 103.157C300.587 103.307 300.278 103.403 299.923 103.445L299.586 103.675ZM299.542 107H297.413L297.945 106.233H299.542C299.841 106.233 300.095 106.181 300.304 106.077C300.515 105.973 300.676 105.826 300.787 105.638C300.898 105.446 300.953 105.219 300.953 104.959C300.953 104.695 300.906 104.467 300.812 104.275C300.717 104.083 300.569 103.935 300.367 103.831C300.165 103.727 299.905 103.675 299.586 103.675H298.243L298.253 102.918H300.089L300.289 103.191C300.631 103.221 300.921 103.318 301.158 103.484C301.396 103.647 301.576 103.855 301.7 104.109C301.827 104.363 301.891 104.643 301.891 104.949C301.891 105.392 301.793 105.766 301.598 106.072C301.406 106.375 301.134 106.606 300.782 106.766C300.431 106.922 300.017 107 299.542 107ZM302.906 104.417V104.305C302.906 103.924 302.962 103.571 303.072 103.245C303.183 102.916 303.342 102.632 303.551 102.391C303.759 102.146 304.011 101.958 304.308 101.824C304.604 101.688 304.936 101.619 305.304 101.619C305.675 101.619 306.008 101.688 306.305 101.824C306.604 101.958 306.858 102.146 307.066 102.391C307.278 102.632 307.439 102.916 307.55 103.245C307.66 103.571 307.716 103.924 307.716 104.305V104.417C307.716 104.798 307.66 105.151 307.55 105.477C307.439 105.802 307.278 106.087 307.066 106.331C306.858 106.572 306.606 106.761 306.31 106.897C306.017 107.031 305.685 107.098 305.313 107.098C304.942 107.098 304.609 107.031 304.312 106.897C304.016 106.761 303.762 106.572 303.551 106.331C303.342 106.087 303.183 105.802 303.072 105.477C302.962 105.151 302.906 104.798 302.906 104.417ZM303.81 104.305V104.417C303.81 104.681 303.84 104.93 303.902 105.164C303.964 105.395 304.057 105.6 304.181 105.779C304.308 105.958 304.465 106.1 304.654 106.204C304.843 106.305 305.063 106.355 305.313 106.355C305.561 106.355 305.777 106.305 305.963 106.204C306.152 106.1 306.308 105.958 306.432 105.779C306.555 105.6 306.648 105.395 306.71 105.164C306.775 104.93 306.808 104.681 306.808 104.417V104.305C306.808 104.044 306.775 103.799 306.71 103.567C306.648 103.333 306.554 103.126 306.427 102.947C306.303 102.765 306.147 102.622 305.958 102.518C305.772 102.413 305.554 102.361 305.304 102.361C305.056 102.361 304.838 102.413 304.649 102.518C304.464 102.622 304.308 102.765 304.181 102.947C304.057 103.126 303.964 103.333 303.902 103.567C303.84 103.799 303.81 104.044 303.81 104.305ZM308.609 104.417V104.305C308.609 103.924 308.665 103.571 308.775 103.245C308.886 102.916 309.046 102.632 309.254 102.391C309.462 102.146 309.715 101.958 310.011 101.824C310.307 101.688 310.639 101.619 311.007 101.619C311.378 101.619 311.712 101.688 312.008 101.824C312.307 101.958 312.561 102.146 312.77 102.391C312.981 102.632 313.142 102.916 313.253 103.245C313.364 103.571 313.419 103.924 313.419 104.305V104.417C313.419 104.798 313.364 105.151 313.253 105.477C313.142 105.802 312.981 106.087 312.77 106.331C312.561 106.572 312.309 106.761 312.013 106.897C311.72 107.031 311.388 107.098 311.017 107.098C310.646 107.098 310.312 107.031 310.016 106.897C309.719 106.761 309.465 106.572 309.254 106.331C309.046 106.087 308.886 105.802 308.775 105.477C308.665 105.151 308.609 104.798 308.609 104.417ZM309.513 104.305V104.417C309.513 104.681 309.544 104.93 309.605 105.164C309.667 105.395 309.76 105.6 309.884 105.779C310.011 105.958 310.169 106.1 310.357 106.204C310.546 106.305 310.766 106.355 311.017 106.355C311.264 106.355 311.48 106.305 311.666 106.204C311.855 106.1 312.011 105.958 312.135 105.779C312.258 105.6 312.351 105.395 312.413 105.164C312.478 104.93 312.511 104.681 312.511 104.417V104.305C312.511 104.044 312.478 103.799 312.413 103.567C312.351 103.333 312.257 103.126 312.13 102.947C312.006 102.765 311.85 102.622 311.661 102.518C311.476 102.413 311.257 102.361 311.007 102.361C310.759 102.361 310.541 102.413 310.353 102.518C310.167 102.622 310.011 102.765 309.884 102.947C309.76 103.126 309.667 103.333 309.605 103.567C309.544 103.799 309.513 104.044 309.513 104.305ZM315.46 99.5V107H314.552V99.5H315.46ZM318.688 101.717L316.383 104.183L315.094 105.521L315.021 104.559L315.943 103.455L317.584 101.717H318.688ZM317.862 107L315.978 104.48L316.446 103.675L318.927 107H317.862ZM327.706 99.8906V107H326.759L323.18 101.517V107H322.237V99.8906H323.18L326.773 105.389V99.8906H327.706ZM329 104.417V104.305C329 103.924 329.055 103.571 329.166 103.245C329.277 102.916 329.436 102.632 329.645 102.391C329.853 102.146 330.105 101.958 330.401 101.824C330.698 101.688 331.03 101.619 331.397 101.619C331.769 101.619 332.102 101.688 332.398 101.824C332.698 101.958 332.952 102.146 333.16 102.391C333.372 102.632 333.533 102.916 333.644 103.245C333.754 103.571 333.81 103.924 333.81 104.305V104.417C333.81 104.798 333.754 105.151 333.644 105.477C333.533 105.802 333.372 106.087 333.16 106.331C332.952 106.572 332.7 106.761 332.403 106.897C332.11 107.031 331.778 107.098 331.407 107.098C331.036 107.098 330.702 107.031 330.406 106.897C330.11 106.761 329.856 106.572 329.645 106.331C329.436 106.087 329.277 105.802 329.166 105.477C329.055 105.151 329 104.798 329 104.417ZM329.903 104.305V104.417C329.903 104.681 329.934 104.93 329.996 105.164C330.058 105.395 330.151 105.6 330.274 105.779C330.401 105.958 330.559 106.1 330.748 106.204C330.937 106.305 331.157 106.355 331.407 106.355C331.655 106.355 331.871 106.305 332.057 106.204C332.245 106.1 332.402 105.958 332.525 105.779C332.649 105.6 332.742 105.395 332.804 105.164C332.869 104.93 332.901 104.681 332.901 104.417V104.305C332.901 104.044 332.869 103.799 332.804 103.567C332.742 103.333 332.647 103.126 332.521 102.947C332.397 102.765 332.241 102.622 332.052 102.518C331.866 102.413 331.648 102.361 331.397 102.361C331.15 102.361 330.932 102.413 330.743 102.518C330.558 102.622 330.401 102.765 330.274 102.947C330.151 103.126 330.058 103.333 329.996 103.567C329.934 103.799 329.903 104.044 329.903 104.305ZM336.28 106.062L337.638 101.717H338.233L338.116 102.581L336.734 107H336.153L336.28 106.062ZM335.367 101.717L336.524 106.111L336.607 107H335.997L334.464 101.717H335.367ZM339.532 106.077L340.636 101.717H341.534L340.001 107H339.396L339.532 106.077ZM338.365 101.717L339.693 105.989L339.845 107H339.269L337.848 102.571L337.73 101.717H338.365Z" fill="white"/>
<path d="M25.3438 54.8333C27.1146 53.5139 29.0417 52.4722 31.125 51.7083C33.2083 50.9444 35.4306 50.5625 37.7917 50.5625C40.1528 50.5625 42.375 50.9444 44.4583 51.7083C46.5417 52.4722 48.4688 53.5139 50.2396 54.8333C51.5243 53.4097 52.5486 51.7604 53.3125 49.8854C54.0764 48.0104 54.4583 45.9792 54.4583 43.7917C54.4583 39.1736 52.8354 35.241 49.5896 31.9938C46.3424 28.7479 42.4097 27.125 37.7917 27.125C33.1736 27.125 29.2417 28.7479 25.9958 31.9938C22.7486 35.241 21.125 39.1736 21.125 43.7917C21.125 45.9792 21.5069 48.0104 22.2708 49.8854C23.0347 51.7604 24.059 53.4097 25.3438 54.8333ZM37.7917 45.3542C35.8819 45.3542 34.2764 44.7028 32.975 43.4C31.6722 42.0986 31.0208 40.4931 31.0208 38.5833C31.0208 36.6736 31.6722 35.0681 32.975 33.7667C34.2764 32.4639 35.8819 31.8125 37.7917 31.8125C39.7014 31.8125 41.3069 32.4639 42.6083 33.7667C43.9111 35.0681 44.5625 36.6736 44.5625 38.5833C44.5625 40.4931 43.9111 42.0986 42.6083 43.4C41.3069 44.7028 39.7014 45.3542 37.7917 45.3542ZM37.7917 63.5833C35.0486 63.5833 32.4708 63.0625 30.0583 62.0208C27.6444 60.9792 25.5521 59.5729 23.7813 57.8021C22.0104 56.0313 20.6042 53.9389 19.5625 51.525C18.5208 49.1125 18 46.5347 18 43.7917C18 41.0486 18.5208 38.4701 19.5625 36.0563C20.6042 33.6438 22.0104 31.5521 23.7813 29.7813C25.5521 28.0104 27.6444 26.6042 30.0583 25.5625C32.4708 24.5208 35.0486 24 37.7917 24C40.5347 24 43.1132 24.5208 45.5271 25.5625C47.9396 26.6042 50.0313 28.0104 51.8021 29.7813C53.5729 31.5521 54.9792 33.6438 56.0208 36.0563C57.0625 38.4701 57.5833 41.0486 57.5833 43.7917C57.5833 46.5347 57.0625 49.1125 56.0208 51.525C54.9792 53.9389 53.5729 56.0313 51.8021 57.8021C50.0313 59.5729 47.9396 60.9792 45.5271 62.0208C43.1132 63.0625 40.5347 63.5833 37.7917 63.5833ZM37.7917 60.4583C39.6667 60.4583 41.4813 60.1542 43.2354 59.5458C44.9882 58.9389 46.5417 58.0972 47.8958 57.0208C46.5417 55.9792 45.0049 55.1632 43.2854 54.5729C41.5674 53.9826 39.7361 53.6875 37.7917 53.6875C35.8472 53.6875 34.016 53.9743 32.2979 54.5479C30.5785 55.1201 29.0417 55.9444 27.6875 57.0208C29.0417 58.0972 30.5951 58.9389 32.3479 59.5458C34.1021 60.1542 35.9167 60.4583 37.7917 60.4583ZM37.7917 42.2292C38.8333 42.2292 39.7014 41.8819 40.3958 41.1875C41.0903 40.4931 41.4375 39.625 41.4375 38.5833C41.4375 37.5417 41.0903 36.6736 40.3958 35.9792C39.7014 35.2847 38.8333 34.9375 37.7917 34.9375C36.75 34.9375 35.8819 35.2847 35.1875 35.9792C34.4931 36.6736 34.1458 37.5417 34.1458 38.5833C34.1458 39.625 34.4931 40.4931 35.1875 41.1875C35.8819 41.8819 36.75 42.2292 37.7917 42.2292Z" fill="#488AA8"/>
</svg>
