<svg width="368" height="134" viewBox="0 0 368 134" fill="none" xmlns="http://www.w3.org/2000/svg">
<path opacity="0.65" d="M316.789 61.1094V62H311.205V61.2207L314 58.1094C314.344 57.7266 314.609 57.4023 314.797 57.1367C314.988 56.8672 315.121 56.627 315.195 56.416C315.273 56.2012 315.312 55.9824 315.312 55.7598C315.312 55.4785 315.254 55.2246 315.137 54.998C315.023 54.7676 314.855 54.584 314.633 54.4473C314.41 54.3105 314.141 54.2422 313.824 54.2422C313.445 54.2422 313.129 54.3164 312.875 54.4648C312.625 54.6094 312.438 54.8125 312.312 55.0742C312.188 55.3359 312.125 55.6367 312.125 55.9766H311.041C311.041 55.4961 311.146 55.0566 311.357 54.6582C311.568 54.2598 311.881 53.9434 312.295 53.709C312.709 53.4707 313.219 53.3516 313.824 53.3516C314.363 53.3516 314.824 53.4473 315.207 53.6387C315.59 53.8262 315.883 54.0918 316.086 54.4355C316.293 54.7754 316.396 55.1738 316.396 55.6309C316.396 55.8809 316.354 56.1348 316.268 56.3926C316.186 56.6465 316.07 56.9004 315.922 57.1543C315.777 57.4082 315.607 57.6582 315.412 57.9043C315.221 58.1504 315.016 58.3926 314.797 58.6309L312.512 61.1094H316.789ZM318.084 61.4258C318.084 61.2422 318.141 61.0879 318.254 60.9629C318.371 60.834 318.539 60.7695 318.758 60.7695C318.977 60.7695 319.143 60.834 319.256 60.9629C319.373 61.0879 319.432 61.2422 319.432 61.4258C319.432 61.6055 319.373 61.7578 319.256 61.8828C319.143 62.0078 318.977 62.0703 318.758 62.0703C318.539 62.0703 318.371 62.0078 318.254 61.8828C318.141 61.7578 318.084 61.6055 318.084 61.4258ZM322.695 57.2012H323.469C323.848 57.2012 324.16 57.1387 324.406 57.0137C324.656 56.8848 324.842 56.7109 324.963 56.4922C325.088 56.2695 325.15 56.0195 325.15 55.7422C325.15 55.4141 325.096 55.1387 324.986 54.916C324.877 54.6934 324.713 54.5254 324.494 54.4121C324.275 54.2988 323.998 54.2422 323.662 54.2422C323.357 54.2422 323.088 54.3027 322.854 54.4238C322.623 54.541 322.441 54.709 322.309 54.9277C322.18 55.1465 322.115 55.4043 322.115 55.7012H321.031C321.031 55.2676 321.141 54.873 321.359 54.5176C321.578 54.1621 321.885 53.8789 322.279 53.668C322.678 53.457 323.139 53.3516 323.662 53.3516C324.178 53.3516 324.629 53.4434 325.016 53.627C325.402 53.8066 325.703 54.0762 325.918 54.4355C326.133 54.791 326.24 55.2344 326.24 55.7656C326.24 55.9805 326.189 56.2109 326.088 56.457C325.99 56.6992 325.836 56.9258 325.625 57.1367C325.418 57.3477 325.148 57.5215 324.816 57.6582C324.484 57.791 324.086 57.8574 323.621 57.8574H322.695V57.2012ZM322.695 58.0918V57.4414H323.621C324.164 57.4414 324.613 57.5059 324.969 57.6348C325.324 57.7637 325.604 57.9355 325.807 58.1504C326.014 58.3652 326.158 58.6016 326.24 58.8594C326.326 59.1133 326.369 59.3672 326.369 59.6211C326.369 60.0195 326.301 60.373 326.164 60.6816C326.031 60.9902 325.842 61.252 325.596 61.4668C325.354 61.6816 325.068 61.8438 324.74 61.9531C324.412 62.0625 324.055 62.1172 323.668 62.1172C323.297 62.1172 322.947 62.0645 322.619 61.959C322.295 61.8535 322.008 61.7012 321.758 61.502C321.508 61.2988 321.312 61.0508 321.172 60.7578C321.031 60.4609 320.961 60.123 320.961 59.7441H322.045C322.045 60.041 322.109 60.3008 322.238 60.5234C322.371 60.7461 322.559 60.9199 322.801 61.0449C323.047 61.166 323.336 61.2266 323.668 61.2266C324 61.2266 324.285 61.1699 324.523 61.0566C324.766 60.9395 324.951 60.7637 325.08 60.5293C325.213 60.2949 325.279 60 325.279 59.6445C325.279 59.2891 325.205 58.998 325.057 58.7715C324.908 58.541 324.697 58.3711 324.424 58.2617C324.154 58.1484 323.836 58.0918 323.469 58.0918H322.695ZM329.445 57.2012H330.219C330.598 57.2012 330.91 57.1387 331.156 57.0137C331.406 56.8848 331.592 56.7109 331.713 56.4922C331.838 56.2695 331.9 56.0195 331.9 55.7422C331.9 55.4141 331.846 55.1387 331.736 54.916C331.627 54.6934 331.463 54.5254 331.244 54.4121C331.025 54.2988 330.748 54.2422 330.412 54.2422C330.107 54.2422 329.838 54.3027 329.604 54.4238C329.373 54.541 329.191 54.709 329.059 54.9277C328.93 55.1465 328.865 55.4043 328.865 55.7012H327.781C327.781 55.2676 327.891 54.873 328.109 54.5176C328.328 54.1621 328.635 53.8789 329.029 53.668C329.428 53.457 329.889 53.3516 330.412 53.3516C330.928 53.3516 331.379 53.4434 331.766 53.627C332.152 53.8066 332.453 54.0762 332.668 54.4355C332.883 54.791 332.99 55.2344 332.99 55.7656C332.99 55.9805 332.939 56.2109 332.838 56.457C332.74 56.6992 332.586 56.9258 332.375 57.1367C332.168 57.3477 331.898 57.5215 331.566 57.6582C331.234 57.791 330.836 57.8574 330.371 57.8574H329.445V57.2012ZM329.445 58.0918V57.4414H330.371C330.914 57.4414 331.363 57.5059 331.719 57.6348C332.074 57.7637 332.354 57.9355 332.557 58.1504C332.764 58.3652 332.908 58.6016 332.99 58.8594C333.076 59.1133 333.119 59.3672 333.119 59.6211C333.119 60.0195 333.051 60.373 332.914 60.6816C332.781 60.9902 332.592 61.252 332.346 61.4668C332.104 61.6816 331.818 61.8438 331.49 61.9531C331.162 62.0625 330.805 62.1172 330.418 62.1172C330.047 62.1172 329.697 62.0645 329.369 61.959C329.045 61.8535 328.758 61.7012 328.508 61.502C328.258 61.2988 328.062 61.0508 327.922 60.7578C327.781 60.4609 327.711 60.123 327.711 59.7441H328.795C328.795 60.041 328.859 60.3008 328.988 60.5234C329.121 60.7461 329.309 60.9199 329.551 61.0449C329.797 61.166 330.086 61.2266 330.418 61.2266C330.75 61.2266 331.035 61.1699 331.273 61.0566C331.516 60.9395 331.701 60.7637 331.83 60.5293C331.963 60.2949 332.029 60 332.029 59.6445C332.029 59.2891 331.955 58.998 331.807 58.7715C331.658 58.541 331.447 58.3711 331.174 58.2617C330.904 58.1484 330.586 58.0918 330.219 58.0918H329.445ZM335.82 53V62H334.73V53H335.82ZM339.693 55.6602L336.928 58.6191L335.381 60.2246L335.293 59.0703L336.4 57.7461L338.369 55.6602H339.693ZM338.703 62L336.441 58.9766L337.004 58.0098L339.98 62H338.703ZM341.891 56.9199V62H340.801V55.6602H341.832L341.891 56.9199ZM341.668 58.5898L341.164 58.5723C341.168 58.1387 341.225 57.7383 341.334 57.3711C341.443 57 341.605 56.6777 341.82 56.4043C342.035 56.1309 342.303 55.9199 342.623 55.7715C342.943 55.6191 343.314 55.543 343.736 55.543C344.033 55.543 344.307 55.5859 344.557 55.6719C344.807 55.7539 345.023 55.8848 345.207 56.0645C345.391 56.2441 345.533 56.4746 345.635 56.7559C345.736 57.0371 345.787 57.377 345.787 57.7754V62H344.703V57.8281C344.703 57.4961 344.646 57.2305 344.533 57.0312C344.424 56.832 344.268 56.6875 344.064 56.5977C343.861 56.5039 343.623 56.457 343.35 56.457C343.029 56.457 342.762 56.5137 342.547 56.627C342.332 56.7402 342.16 56.8965 342.031 57.0957C341.902 57.2949 341.809 57.5234 341.75 57.7812C341.695 58.0352 341.668 58.3047 341.668 58.5898ZM345.775 57.9922L345.049 58.2148C345.053 57.8672 345.109 57.5332 345.219 57.2129C345.332 56.8926 345.494 56.6074 345.705 56.3574C345.92 56.1074 346.184 55.9102 346.496 55.7656C346.809 55.6172 347.166 55.543 347.568 55.543C347.908 55.543 348.209 55.5879 348.471 55.6777C348.736 55.7676 348.959 55.9062 349.139 56.0938C349.322 56.2773 349.461 56.5137 349.555 56.8027C349.648 57.0918 349.695 57.4355 349.695 57.834V62H348.605V57.8223C348.605 57.4668 348.549 57.1914 348.436 56.9961C348.326 56.7969 348.17 56.6582 347.967 56.5801C347.768 56.498 347.529 56.457 347.252 56.457C347.014 56.457 346.803 56.498 346.619 56.5801C346.436 56.6621 346.281 56.7754 346.156 56.9199C346.031 57.0605 345.936 57.2227 345.869 57.4062C345.807 57.5898 345.775 57.7852 345.775 57.9922Z" fill="black"/>
<rect x="286" y="95" width="65" height="17" rx="8.5" fill="#488AA8"/>
<path opacity="0.65" d="M299.586 103.675H297.784L297.774 102.918H299.41C299.68 102.918 299.916 102.872 300.118 102.781C300.32 102.69 300.476 102.56 300.587 102.391C300.701 102.218 300.758 102.013 300.758 101.775C300.758 101.515 300.707 101.303 300.606 101.141C300.509 100.975 300.357 100.854 300.152 100.779C299.951 100.701 299.693 100.662 299.381 100.662H297.994V107H297.052V99.8906H299.381C299.745 99.8906 300.071 99.9281 300.357 100.003C300.644 100.075 300.886 100.188 301.085 100.345C301.287 100.498 301.44 100.693 301.544 100.931C301.648 101.168 301.7 101.453 301.7 101.785C301.7 102.078 301.625 102.343 301.476 102.581C301.326 102.815 301.118 103.007 300.851 103.157C300.587 103.307 300.278 103.403 299.923 103.445L299.586 103.675ZM299.542 107H297.413L297.945 106.233H299.542C299.841 106.233 300.095 106.181 300.304 106.077C300.515 105.973 300.676 105.826 300.787 105.638C300.898 105.446 300.953 105.219 300.953 104.959C300.953 104.695 300.906 104.467 300.812 104.275C300.717 104.083 300.569 103.935 300.367 103.831C300.165 103.727 299.905 103.675 299.586 103.675H298.243L298.253 102.918H300.089L300.289 103.191C300.631 103.221 300.921 103.318 301.158 103.484C301.396 103.647 301.576 103.855 301.7 104.109C301.827 104.363 301.891 104.643 301.891 104.949C301.891 105.392 301.793 105.766 301.598 106.072C301.406 106.375 301.134 106.606 300.782 106.766C300.431 106.922 300.017 107 299.542 107ZM302.906 104.417V104.305C302.906 103.924 302.962 103.571 303.072 103.245C303.183 102.916 303.342 102.632 303.551 102.391C303.759 102.146 304.011 101.958 304.308 101.824C304.604 101.688 304.936 101.619 305.304 101.619C305.675 101.619 306.008 101.688 306.305 101.824C306.604 101.958 306.858 102.146 307.066 102.391C307.278 102.632 307.439 102.916 307.55 103.245C307.66 103.571 307.716 103.924 307.716 104.305V104.417C307.716 104.798 307.66 105.151 307.55 105.477C307.439 105.802 307.278 106.087 307.066 106.331C306.858 106.572 306.606 106.761 306.31 106.897C306.017 107.031 305.685 107.098 305.313 107.098C304.942 107.098 304.609 107.031 304.312 106.897C304.016 106.761 303.762 106.572 303.551 106.331C303.342 106.087 303.183 105.802 303.072 105.477C302.962 105.151 302.906 104.798 302.906 104.417ZM303.81 104.305V104.417C303.81 104.681 303.84 104.93 303.902 105.164C303.964 105.395 304.057 105.6 304.181 105.779C304.308 105.958 304.465 106.1 304.654 106.204C304.843 106.305 305.063 106.355 305.313 106.355C305.561 106.355 305.777 106.305 305.963 106.204C306.152 106.1 306.308 105.958 306.432 105.779C306.555 105.6 306.648 105.395 306.71 105.164C306.775 104.93 306.808 104.681 306.808 104.417V104.305C306.808 104.044 306.775 103.799 306.71 103.567C306.648 103.333 306.554 103.126 306.427 102.947C306.303 102.765 306.147 102.622 305.958 102.518C305.772 102.413 305.554 102.361 305.304 102.361C305.056 102.361 304.838 102.413 304.649 102.518C304.464 102.622 304.308 102.765 304.181 102.947C304.057 103.126 303.964 103.333 303.902 103.567C303.84 103.799 303.81 104.044 303.81 104.305ZM308.609 104.417V104.305C308.609 103.924 308.665 103.571 308.775 103.245C308.886 102.916 309.046 102.632 309.254 102.391C309.462 102.146 309.715 101.958 310.011 101.824C310.307 101.688 310.639 101.619 311.007 101.619C311.378 101.619 311.712 101.688 312.008 101.824C312.307 101.958 312.561 102.146 312.77 102.391C312.981 102.632 313.142 102.916 313.253 103.245C313.364 103.571 313.419 103.924 313.419 104.305V104.417C313.419 104.798 313.364 105.151 313.253 105.477C313.142 105.802 312.981 106.087 312.77 106.331C312.561 106.572 312.309 106.761 312.013 106.897C311.72 107.031 311.388 107.098 311.017 107.098C310.646 107.098 310.312 107.031 310.016 106.897C309.719 106.761 309.465 106.572 309.254 106.331C309.046 106.087 308.886 105.802 308.775 105.477C308.665 105.151 308.609 104.798 308.609 104.417ZM309.513 104.305V104.417C309.513 104.681 309.544 104.93 309.605 105.164C309.667 105.395 309.76 105.6 309.884 105.779C310.011 105.958 310.169 106.1 310.357 106.204C310.546 106.305 310.766 106.355 311.017 106.355C311.264 106.355 311.48 106.305 311.666 106.204C311.855 106.1 312.011 105.958 312.135 105.779C312.258 105.6 312.351 105.395 312.413 105.164C312.478 104.93 312.511 104.681 312.511 104.417V104.305C312.511 104.044 312.478 103.799 312.413 103.567C312.351 103.333 312.257 103.126 312.13 102.947C312.006 102.765 311.85 102.622 311.661 102.518C311.476 102.413 311.257 102.361 311.007 102.361C310.759 102.361 310.541 102.413 310.353 102.518C310.167 102.622 310.011 102.765 309.884 102.947C309.76 103.126 309.667 103.333 309.605 103.567C309.544 103.799 309.513 104.044 309.513 104.305ZM315.46 99.5V107H314.552V99.5H315.46ZM318.688 101.717L316.383 104.183L315.094 105.521L315.021 104.559L315.943 103.455L317.584 101.717H318.688ZM317.862 107L315.978 104.48L316.446 103.675L318.927 107H317.862ZM327.706 99.8906V107H326.759L323.18 101.517V107H322.237V99.8906H323.18L326.773 105.389V99.8906H327.706ZM329 104.417V104.305C329 103.924 329.055 103.571 329.166 103.245C329.277 102.916 329.436 102.632 329.645 102.391C329.853 102.146 330.105 101.958 330.401 101.824C330.698 101.688 331.03 101.619 331.397 101.619C331.769 101.619 332.102 101.688 332.398 101.824C332.698 101.958 332.952 102.146 333.16 102.391C333.372 102.632 333.533 102.916 333.644 103.245C333.754 103.571 333.81 103.924 333.81 104.305V104.417C333.81 104.798 333.754 105.151 333.644 105.477C333.533 105.802 333.372 106.087 333.16 106.331C332.952 106.572 332.7 106.761 332.403 106.897C332.11 107.031 331.778 107.098 331.407 107.098C331.036 107.098 330.702 107.031 330.406 106.897C330.11 106.761 329.856 106.572 329.645 106.331C329.436 106.087 329.277 105.802 329.166 105.477C329.055 105.151 329 104.798 329 104.417ZM329.903 104.305V104.417C329.903 104.681 329.934 104.93 329.996 105.164C330.058 105.395 330.151 105.6 330.274 105.779C330.401 105.958 330.559 106.1 330.748 106.204C330.937 106.305 331.157 106.355 331.407 106.355C331.655 106.355 331.871 106.305 332.057 106.204C332.245 106.1 332.402 105.958 332.525 105.779C332.649 105.6 332.742 105.395 332.804 105.164C332.869 104.93 332.901 104.681 332.901 104.417V104.305C332.901 104.044 332.869 103.799 332.804 103.567C332.742 103.333 332.647 103.126 332.521 102.947C332.397 102.765 332.241 102.622 332.052 102.518C331.866 102.413 331.648 102.361 331.397 102.361C331.15 102.361 330.932 102.413 330.743 102.518C330.558 102.622 330.401 102.765 330.274 102.947C330.151 103.126 330.058 103.333 329.996 103.567C329.934 103.799 329.903 104.044 329.903 104.305ZM336.28 106.062L337.638 101.717H338.233L338.116 102.581L336.734 107H336.153L336.28 106.062ZM335.367 101.717L336.524 106.111L336.607 107H335.997L334.464 101.717H335.367ZM339.532 106.077L340.636 101.717H341.534L340.001 107H339.396L339.532 106.077ZM338.365 101.717L339.693 105.989L339.845 107H339.269L337.848 102.571L337.73 101.717H338.365Z" fill="white"/>
<rect width="368" height="134" rx="15" fill="#F2F6F6"/>
<path d="M83.8594 39H80.8223L80.8418 37.0566H83.8594C84.7383 37.0566 85.474 36.8646 86.0664 36.4805C86.6654 36.0964 87.1146 35.5462 87.4141 34.8301C87.7201 34.1139 87.873 33.2611 87.873 32.2715V31.5C87.873 30.7318 87.7852 30.0514 87.6094 29.459C87.4401 28.8665 87.1862 28.3685 86.8477 27.9648C86.5156 27.5612 86.1055 27.2552 85.6172 27.0469C85.1354 26.8385 84.5788 26.7344 83.9473 26.7344H80.7637V24.7812H83.9473C84.8913 24.7812 85.7539 24.9408 86.5352 25.2598C87.3164 25.5723 87.9902 26.0247 88.5566 26.6172C89.1296 27.2096 89.569 27.9193 89.875 28.7461C90.181 29.5729 90.334 30.4974 90.334 31.5195V32.2715C90.334 33.2936 90.181 34.2181 89.875 35.0449C89.569 35.8717 89.1296 36.5814 88.5566 37.1738C87.9837 37.7598 87.3001 38.2122 86.5059 38.5312C85.7181 38.8438 84.8359 39 83.8594 39ZM82.1797 24.7812V39H79.7285V24.7812H82.1797ZM94.9238 30.4453V39H92.5703V28.4336H94.8164L94.9238 30.4453ZM98.1562 28.3652L98.1367 30.5527C97.9935 30.5267 97.8372 30.5072 97.668 30.4941C97.5052 30.4811 97.3424 30.4746 97.1797 30.4746C96.776 30.4746 96.4212 30.5332 96.1152 30.6504C95.8092 30.7611 95.5521 30.9238 95.3438 31.1387C95.1419 31.347 94.9857 31.6009 94.875 31.9004C94.7643 32.1999 94.6992 32.5352 94.6797 32.9062L94.1426 32.9453C94.1426 32.2812 94.2077 31.666 94.3379 31.0996C94.4681 30.5332 94.6634 30.0352 94.9238 29.6055C95.1908 29.1758 95.5228 28.8405 95.9199 28.5996C96.3236 28.3587 96.7891 28.2383 97.3164 28.2383C97.4596 28.2383 97.6126 28.2513 97.7754 28.2773C97.9447 28.3034 98.0716 28.3327 98.1562 28.3652ZM98.3418 37.8281C98.3418 37.4635 98.4655 37.1576 98.7129 36.9102C98.9603 36.6562 99.2956 36.5293 99.7188 36.5293C100.148 36.5293 100.484 36.6562 100.725 36.9102C100.972 37.1576 101.096 37.4635 101.096 37.8281C101.096 38.1927 100.972 38.4987 100.725 38.7461C100.484 38.9935 100.148 39.1172 99.7188 39.1172C99.2956 39.1172 98.9603 38.9935 98.7129 38.7461C98.4655 38.4987 98.3418 38.1927 98.3418 37.8281ZM114.875 34.7324V24.7812H117.316V34.7324C117.316 35.6764 117.115 36.4805 116.711 37.1445C116.307 37.8086 115.757 38.3164 115.061 38.668C114.364 39.0195 113.573 39.1953 112.688 39.1953C111.783 39.1953 110.979 39.0423 110.275 38.7363C109.579 38.4303 109.032 37.9616 108.635 37.3301C108.238 36.6986 108.039 35.8978 108.039 34.9277H110.5C110.5 35.4876 110.588 35.9401 110.764 36.2852C110.946 36.6237 111.2 36.8711 111.525 37.0273C111.857 37.1771 112.245 37.252 112.688 37.252C113.111 37.252 113.485 37.1576 113.811 36.9688C114.143 36.7734 114.403 36.4902 114.592 36.1191C114.781 35.7415 114.875 35.2793 114.875 34.7324ZM119.455 33.834V33.6094C119.455 32.8477 119.566 32.1413 119.787 31.4902C120.008 30.8327 120.327 30.263 120.744 29.7812C121.167 29.293 121.682 28.9154 122.287 28.6484C122.899 28.375 123.589 28.2383 124.357 28.2383C125.132 28.2383 125.822 28.375 126.428 28.6484C127.04 28.9154 127.557 29.293 127.98 29.7812C128.404 30.263 128.726 30.8327 128.947 31.4902C129.169 32.1413 129.279 32.8477 129.279 33.6094V33.834C129.279 34.5957 129.169 35.3021 128.947 35.9531C128.726 36.6042 128.404 37.1738 127.98 37.6621C127.557 38.1439 127.043 38.5215 126.438 38.7949C125.832 39.0618 125.145 39.1953 124.377 39.1953C123.602 39.1953 122.909 39.0618 122.297 38.7949C121.691 38.5215 121.177 38.1439 120.754 37.6621C120.331 37.1738 120.008 36.6042 119.787 35.9531C119.566 35.3021 119.455 34.5957 119.455 33.834ZM121.809 33.6094V33.834C121.809 34.3092 121.857 34.7585 121.955 35.1816C122.053 35.6048 122.206 35.9759 122.414 36.2949C122.622 36.6139 122.889 36.8646 123.215 37.0469C123.54 37.2292 123.928 37.3203 124.377 37.3203C124.813 37.3203 125.191 37.2292 125.51 37.0469C125.835 36.8646 126.102 36.6139 126.311 36.2949C126.519 35.9759 126.672 35.6048 126.77 35.1816C126.874 34.7585 126.926 34.3092 126.926 33.834V33.6094C126.926 33.1406 126.874 32.6979 126.77 32.2812C126.672 31.8581 126.516 31.4837 126.301 31.1582C126.092 30.8327 125.826 30.5788 125.5 30.3965C125.181 30.2077 124.8 30.1133 124.357 30.1133C123.915 30.1133 123.531 30.2077 123.205 30.3965C122.886 30.5788 122.622 30.8327 122.414 31.1582C122.206 31.4837 122.053 31.8581 121.955 32.2812C121.857 32.6979 121.809 33.1406 121.809 33.6094ZM135.91 39.1953C135.129 39.1953 134.423 39.0684 133.791 38.8145C133.166 38.554 132.632 38.1927 132.189 37.7305C131.753 37.2682 131.418 36.7246 131.184 36.0996C130.949 35.4746 130.832 34.8008 130.832 34.0781V33.6875C130.832 32.8607 130.952 32.112 131.193 31.4414C131.434 30.7708 131.77 30.1979 132.199 29.7227C132.629 29.2409 133.137 28.873 133.723 28.6191C134.309 28.3652 134.943 28.2383 135.627 28.2383C136.382 28.2383 137.043 28.3652 137.609 28.6191C138.176 28.873 138.645 29.2311 139.016 29.6934C139.393 30.1491 139.673 30.6927 139.855 31.3242C140.044 31.9557 140.139 32.6523 140.139 33.4141V34.4199H131.975V32.7305H137.814V32.5449C137.801 32.1217 137.717 31.7246 137.561 31.3535C137.411 30.9824 137.18 30.6829 136.867 30.4551C136.555 30.2272 136.138 30.1133 135.617 30.1133C135.227 30.1133 134.878 30.1979 134.572 30.3672C134.273 30.5299 134.022 30.7676 133.82 31.0801C133.618 31.3926 133.462 31.7702 133.352 32.2129C133.247 32.6491 133.195 33.1406 133.195 33.6875V34.0781C133.195 34.5404 133.257 34.9701 133.381 35.3672C133.511 35.7578 133.7 36.0996 133.947 36.3926C134.195 36.6855 134.494 36.9167 134.846 37.0859C135.197 37.2487 135.598 37.3301 136.047 37.3301C136.613 37.3301 137.118 37.2161 137.561 36.9883C138.003 36.7604 138.387 36.4382 138.713 36.0215L139.953 37.2227C139.725 37.5547 139.429 37.8737 139.064 38.1797C138.7 38.4792 138.254 38.7233 137.727 38.9121C137.206 39.1009 136.6 39.1953 135.91 39.1953ZM152.59 33.6973H148.889V31.7539H152.59C153.234 31.7539 153.755 31.6497 154.152 31.4414C154.549 31.2331 154.839 30.9466 155.021 30.582C155.21 30.2109 155.305 29.7878 155.305 29.3125C155.305 28.8633 155.21 28.4434 155.021 28.0527C154.839 27.6556 154.549 27.3366 154.152 27.0957C153.755 26.8548 153.234 26.7344 152.59 26.7344H149.641V39H147.189V24.7812H152.59C153.69 24.7812 154.624 24.9766 155.393 25.3672C156.167 25.7513 156.757 26.2852 157.16 26.9688C157.564 27.6458 157.766 28.4206 157.766 29.293C157.766 30.2109 157.564 30.9987 157.16 31.6562C156.757 32.3138 156.167 32.8184 155.393 33.1699C154.624 33.5215 153.69 33.6973 152.59 33.6973ZM162.248 24V39H159.885V24H162.248ZM170.783 36.8809V31.8418C170.783 31.4642 170.715 31.1387 170.578 30.8652C170.441 30.5918 170.233 30.3802 169.953 30.2305C169.68 30.0807 169.335 30.0059 168.918 30.0059C168.534 30.0059 168.202 30.071 167.922 30.2012C167.642 30.3314 167.424 30.5072 167.268 30.7285C167.111 30.9499 167.033 31.2005 167.033 31.4805H164.689C164.689 31.0638 164.79 30.6602 164.992 30.2695C165.194 29.8789 165.487 29.5306 165.871 29.2246C166.255 28.9186 166.714 28.6777 167.248 28.502C167.782 28.3262 168.381 28.2383 169.045 28.2383C169.839 28.2383 170.542 28.3717 171.154 28.6387C171.773 28.9056 172.258 29.3092 172.609 29.8496C172.967 30.3835 173.146 31.054 173.146 31.8613V36.5586C173.146 37.0404 173.179 37.4733 173.244 37.8574C173.316 38.235 173.417 38.5638 173.547 38.8438V39H171.135C171.024 38.7461 170.936 38.4238 170.871 38.0332C170.812 37.6361 170.783 37.252 170.783 36.8809ZM171.125 32.5742L171.145 34.0293H169.455C169.019 34.0293 168.635 34.0716 168.303 34.1562C167.971 34.2344 167.694 34.3516 167.473 34.5078C167.251 34.6641 167.085 34.8529 166.975 35.0742C166.864 35.2956 166.809 35.5462 166.809 35.8262C166.809 36.1061 166.874 36.3633 167.004 36.5977C167.134 36.8255 167.323 37.0046 167.57 37.1348C167.824 37.265 168.13 37.3301 168.488 37.3301C168.97 37.3301 169.39 37.2324 169.748 37.0371C170.113 36.8353 170.399 36.5911 170.607 36.3047C170.816 36.0117 170.926 35.735 170.939 35.4746L171.701 36.5195C171.623 36.7865 171.49 37.0729 171.301 37.3789C171.112 37.6849 170.865 37.9779 170.559 38.2578C170.259 38.5312 169.898 38.7559 169.475 38.9316C169.058 39.1074 168.576 39.1953 168.029 39.1953C167.339 39.1953 166.724 39.0586 166.184 38.7852C165.643 38.5052 165.22 38.1309 164.914 37.6621C164.608 37.1868 164.455 36.6497 164.455 36.0508C164.455 35.4909 164.559 34.9961 164.768 34.5664C164.982 34.1302 165.295 33.7656 165.705 33.4727C166.122 33.1797 166.63 32.9583 167.229 32.8086C167.827 32.6523 168.511 32.5742 169.279 32.5742H171.125ZM180.451 28.4336V30.1523H174.494V28.4336H180.451ZM176.213 25.8457H178.566V36.0801C178.566 36.4056 178.612 36.6562 178.703 36.832C178.801 37.0013 178.934 37.1152 179.104 37.1738C179.273 37.2324 179.471 37.2617 179.699 37.2617C179.862 37.2617 180.018 37.252 180.168 37.2324C180.318 37.2129 180.438 37.1934 180.529 37.1738L180.539 38.9707C180.344 39.0293 180.116 39.0814 179.855 39.127C179.602 39.1725 179.309 39.1953 178.977 39.1953C178.436 39.1953 177.958 39.1009 177.541 38.9121C177.124 38.7168 176.799 38.401 176.564 37.9648C176.33 37.5286 176.213 36.9492 176.213 36.2266V25.8457ZM187.111 28.4336V30.1523H181.154V28.4336H187.111ZM182.873 25.8457H185.227V36.0801C185.227 36.4056 185.272 36.6562 185.363 36.832C185.461 37.0013 185.594 37.1152 185.764 37.1738C185.933 37.2324 186.132 37.2617 186.359 37.2617C186.522 37.2617 186.678 37.252 186.828 37.2324C186.978 37.2129 187.098 37.1934 187.189 37.1738L187.199 38.9707C187.004 39.0293 186.776 39.0814 186.516 39.127C186.262 39.1725 185.969 39.1953 185.637 39.1953C185.096 39.1953 184.618 39.1009 184.201 38.9121C183.785 38.7168 183.459 38.401 183.225 37.9648C182.99 37.5286 182.873 36.9492 182.873 36.2266V25.8457Z" fill="black"/>
<path opacity="0.65" d="M88.3867 58.752V61.875C88.2812 62.0312 88.1133 62.207 87.8828 62.4023C87.6523 62.5938 87.334 62.7617 86.9277 62.9062C86.5254 63.0469 86.0059 63.1172 85.3691 63.1172C84.8496 63.1172 84.3711 63.0273 83.9336 62.8477C83.5 62.6641 83.123 62.3984 82.8027 62.0508C82.4863 61.6992 82.2402 61.2734 82.0645 60.7734C81.8926 60.2695 81.8066 59.6992 81.8066 59.0625V58.4004C81.8066 57.7637 81.8809 57.1953 82.0293 56.6953C82.1816 56.1953 82.4043 55.7715 82.6973 55.4238C82.9902 55.0723 83.3496 54.8066 83.7754 54.627C84.2012 54.4434 84.6895 54.3516 85.2402 54.3516C85.8926 54.3516 86.4375 54.4648 86.875 54.6914C87.3164 54.9141 87.6602 55.2227 87.9062 55.6172C88.1562 56.0117 88.3164 56.4609 88.3867 56.9648H87.2559C87.2051 56.6562 87.1035 56.375 86.9512 56.1211C86.8027 55.8672 86.5898 55.6641 86.3125 55.5117C86.0352 55.3555 85.6777 55.2773 85.2402 55.2773C84.8457 55.2773 84.5039 55.3496 84.2148 55.4941C83.9258 55.6387 83.6875 55.8457 83.5 56.1152C83.3125 56.3848 83.1719 56.7109 83.0781 57.0938C82.9883 57.4766 82.9434 57.9082 82.9434 58.3887V59.0625C82.9434 59.5547 83 59.9941 83.1133 60.3809C83.2305 60.7676 83.3965 61.0977 83.6113 61.3711C83.8262 61.6406 84.082 61.8457 84.3789 61.9863C84.6797 62.127 85.0117 62.1973 85.375 62.1973C85.7773 62.1973 86.1035 62.1641 86.3535 62.0977C86.6035 62.0273 86.7988 61.9453 86.9395 61.8516C87.0801 61.7539 87.1875 61.6621 87.2617 61.5762V59.666H85.2871V58.752H88.3867ZM92.7285 63.1172C92.2871 63.1172 91.8867 63.043 91.5273 62.8945C91.1719 62.7422 90.8652 62.5293 90.6074 62.2559C90.3535 61.9824 90.1582 61.6582 90.0215 61.2832C89.8848 60.9082 89.8164 60.498 89.8164 60.0527V59.8066C89.8164 59.291 89.8926 58.832 90.0449 58.4297C90.1973 58.0234 90.4043 57.6797 90.666 57.3984C90.9277 57.1172 91.2246 56.9043 91.5566 56.7598C91.8887 56.6152 92.2324 56.543 92.5879 56.543C93.041 56.543 93.4316 56.6211 93.7598 56.7773C94.0918 56.9336 94.3633 57.1523 94.5742 57.4336C94.7852 57.7109 94.9414 58.0391 95.043 58.418C95.1445 58.793 95.1953 59.2031 95.1953 59.6484V60.1348H90.4609V59.25H94.1113V59.168C94.0957 58.8867 94.0371 58.6133 93.9355 58.3477C93.8379 58.082 93.6816 57.8633 93.4668 57.6914C93.252 57.5195 92.959 57.4336 92.5879 57.4336C92.3418 57.4336 92.1152 57.4863 91.9082 57.5918C91.7012 57.6934 91.5234 57.8457 91.375 58.0488C91.2266 58.252 91.1113 58.5 91.0293 58.793C90.9473 59.0859 90.9062 59.4238 90.9062 59.8066V60.0527C90.9062 60.3535 90.9473 60.6367 91.0293 60.9023C91.1152 61.1641 91.2383 61.3945 91.3984 61.5938C91.5625 61.793 91.7598 61.9492 91.9902 62.0625C92.2246 62.1758 92.4902 62.2324 92.7871 62.2324C93.1699 62.2324 93.4941 62.1543 93.7598 61.998C94.0254 61.8418 94.2578 61.6328 94.457 61.3711L95.1133 61.8926C94.9766 62.0996 94.8027 62.2969 94.5918 62.4844C94.3809 62.6719 94.1211 62.8242 93.8125 62.9414C93.5078 63.0586 93.1465 63.1172 92.7285 63.1172ZM97.5449 58.0137V63H96.4609V56.6602H97.4863L97.5449 58.0137ZM97.2871 59.5898L96.8359 59.5723C96.8398 59.1387 96.9043 58.7383 97.0293 58.3711C97.1543 58 97.3301 57.6777 97.5566 57.4043C97.7832 57.1309 98.0527 56.9199 98.3652 56.7715C98.6816 56.6191 99.0312 56.543 99.4141 56.543C99.7266 56.543 100.008 56.5859 100.258 56.6719C100.508 56.7539 100.721 56.8867 100.896 57.0703C101.076 57.2539 101.213 57.4922 101.307 57.7852C101.4 58.0742 101.447 58.4277 101.447 58.8457V63H100.357V58.834C100.357 58.502 100.309 58.2363 100.211 58.0371C100.113 57.834 99.9707 57.6875 99.7832 57.5977C99.5957 57.5039 99.3652 57.457 99.0918 57.457C98.8223 57.457 98.5762 57.5137 98.3535 57.627C98.1348 57.7402 97.9453 57.8965 97.7852 58.0957C97.6289 58.2949 97.5059 58.5234 97.416 58.7812C97.3301 59.0352 97.2871 59.3047 97.2871 59.5898ZM105.725 63.1172C105.283 63.1172 104.883 63.043 104.523 62.8945C104.168 62.7422 103.861 62.5293 103.604 62.2559C103.35 61.9824 103.154 61.6582 103.018 61.2832C102.881 60.9082 102.812 60.498 102.812 60.0527V59.8066C102.812 59.291 102.889 58.832 103.041 58.4297C103.193 58.0234 103.4 57.6797 103.662 57.3984C103.924 57.1172 104.221 56.9043 104.553 56.7598C104.885 56.6152 105.229 56.543 105.584 56.543C106.037 56.543 106.428 56.6211 106.756 56.7773C107.088 56.9336 107.359 57.1523 107.57 57.4336C107.781 57.7109 107.938 58.0391 108.039 58.418C108.141 58.793 108.191 59.2031 108.191 59.6484V60.1348H103.457V59.25H107.107V59.168C107.092 58.8867 107.033 58.6133 106.932 58.3477C106.834 58.082 106.678 57.8633 106.463 57.6914C106.248 57.5195 105.955 57.4336 105.584 57.4336C105.338 57.4336 105.111 57.4863 104.904 57.5918C104.697 57.6934 104.52 57.8457 104.371 58.0488C104.223 58.252 104.107 58.5 104.025 58.793C103.943 59.0859 103.902 59.4238 103.902 59.8066V60.0527C103.902 60.3535 103.943 60.6367 104.025 60.9023C104.111 61.1641 104.234 61.3945 104.395 61.5938C104.559 61.793 104.756 61.9492 104.986 62.0625C105.221 62.1758 105.486 62.2324 105.783 62.2324C106.166 62.2324 106.49 62.1543 106.756 61.998C107.021 61.8418 107.254 61.6328 107.453 61.3711L108.109 61.8926C107.973 62.0996 107.799 62.2969 107.588 62.4844C107.377 62.6719 107.117 62.8242 106.809 62.9414C106.504 63.0586 106.143 63.1172 105.725 63.1172ZM110.541 57.6562V63H109.457V56.6602H110.512L110.541 57.6562ZM112.521 56.625L112.516 57.6328C112.426 57.6133 112.34 57.6016 112.258 57.5977C112.18 57.5898 112.09 57.5859 111.988 57.5859C111.738 57.5859 111.518 57.625 111.326 57.7031C111.135 57.7812 110.973 57.8906 110.84 58.0312C110.707 58.1719 110.602 58.3398 110.523 58.5352C110.449 58.7266 110.4 58.9375 110.377 59.168L110.072 59.3438C110.072 58.9609 110.109 58.6016 110.184 58.2656C110.262 57.9297 110.381 57.6328 110.541 57.375C110.701 57.1133 110.904 56.9102 111.15 56.7656C111.4 56.6172 111.697 56.543 112.041 56.543C112.119 56.543 112.209 56.5527 112.311 56.5723C112.412 56.5879 112.482 56.6055 112.521 56.625ZM117.027 61.916V58.6523C117.027 58.4023 116.977 58.1855 116.875 58.002C116.777 57.8145 116.629 57.6699 116.43 57.5684C116.23 57.4668 115.984 57.416 115.691 57.416C115.418 57.416 115.178 57.4629 114.971 57.5566C114.768 57.6504 114.607 57.7734 114.49 57.9258C114.377 58.0781 114.32 58.2422 114.32 58.418H113.236C113.236 58.1914 113.295 57.9668 113.412 57.7441C113.529 57.5215 113.697 57.3203 113.916 57.1406C114.139 56.957 114.404 56.8125 114.713 56.707C115.025 56.5977 115.373 56.543 115.756 56.543C116.217 56.543 116.623 56.6211 116.975 56.7773C117.33 56.9336 117.607 57.1699 117.807 57.4863C118.01 57.7988 118.111 58.1914 118.111 58.6641V61.6172C118.111 61.8281 118.129 62.0527 118.164 62.291C118.203 62.5293 118.26 62.7344 118.334 62.9062V63H117.203C117.148 62.875 117.105 62.709 117.074 62.502C117.043 62.291 117.027 62.0957 117.027 61.916ZM117.215 59.1562L117.227 59.918H116.131C115.822 59.918 115.547 59.9434 115.305 59.9941C115.062 60.041 114.859 60.1133 114.695 60.2109C114.531 60.3086 114.406 60.4316 114.32 60.5801C114.234 60.7246 114.191 60.8945 114.191 61.0898C114.191 61.2891 114.236 61.4707 114.326 61.6348C114.416 61.7988 114.551 61.9297 114.73 62.0273C114.914 62.1211 115.139 62.168 115.404 62.168C115.736 62.168 116.029 62.0977 116.283 61.957C116.537 61.8164 116.738 61.6445 116.887 61.4414C117.039 61.2383 117.121 61.041 117.133 60.8496L117.596 61.3711C117.568 61.5352 117.494 61.7168 117.373 61.916C117.252 62.1152 117.09 62.3066 116.887 62.4902C116.688 62.6699 116.449 62.8203 116.172 62.9414C115.898 63.0586 115.59 63.1172 115.246 63.1172C114.816 63.1172 114.439 63.0332 114.115 62.8652C113.795 62.6973 113.545 62.4727 113.365 62.1914C113.189 61.9062 113.102 61.5879 113.102 61.2363C113.102 60.8965 113.168 60.5977 113.301 60.3398C113.434 60.0781 113.625 59.8613 113.875 59.6895C114.125 59.5137 114.426 59.3809 114.777 59.291C115.129 59.2012 115.521 59.1562 115.955 59.1562H117.215ZM120.994 54V63H119.904V54H120.994Z" fill="black"/>
<path opacity="0.65" d="M97.3457 75.4219V84H96.2617V76.7754L94.0762 77.5723V76.5938L97.1758 75.4219H97.3457ZM105.912 81.6914C105.912 82.2109 105.791 82.6523 105.549 83.0156C105.311 83.375 104.986 83.6484 104.576 83.8359C104.17 84.0234 103.711 84.1172 103.199 84.1172C102.688 84.1172 102.227 84.0234 101.816 83.8359C101.406 83.6484 101.082 83.375 100.844 83.0156C100.605 82.6523 100.486 82.2109 100.486 81.6914C100.486 81.3516 100.551 81.041 100.68 80.7598C100.812 80.4746 100.998 80.2266 101.236 80.0156C101.479 79.8047 101.764 79.6426 102.092 79.5293C102.424 79.4121 102.789 79.3535 103.188 79.3535C103.711 79.3535 104.178 79.4551 104.588 79.6582C104.998 79.8574 105.32 80.1328 105.555 80.4844C105.793 80.8359 105.912 81.2383 105.912 81.6914ZM104.822 81.668C104.822 81.3516 104.754 81.0723 104.617 80.8301C104.48 80.584 104.289 80.3926 104.043 80.2559C103.797 80.1191 103.512 80.0508 103.188 80.0508C102.855 80.0508 102.568 80.1191 102.326 80.2559C102.088 80.3926 101.902 80.584 101.77 80.8301C101.637 81.0723 101.57 81.3516 101.57 81.668C101.57 81.9961 101.635 82.2773 101.764 82.5117C101.896 82.7422 102.084 82.9199 102.326 83.0449C102.572 83.166 102.863 83.2266 103.199 83.2266C103.535 83.2266 103.824 83.166 104.066 83.0449C104.309 82.9199 104.494 82.7422 104.623 82.5117C104.756 82.2773 104.822 81.9961 104.822 81.668ZM105.713 77.6895C105.713 78.1035 105.604 78.4766 105.385 78.8086C105.166 79.1406 104.867 79.4023 104.488 79.5938C104.109 79.7852 103.68 79.8809 103.199 79.8809C102.711 79.8809 102.275 79.7852 101.893 79.5938C101.514 79.4023 101.217 79.1406 101.002 78.8086C100.787 78.4766 100.68 78.1035 100.68 77.6895C100.68 77.1934 100.787 76.7715 101.002 76.4238C101.221 76.0762 101.52 75.8105 101.898 75.627C102.277 75.4434 102.709 75.3516 103.193 75.3516C103.682 75.3516 104.115 75.4434 104.494 75.627C104.873 75.8105 105.17 76.0762 105.385 76.4238C105.604 76.7715 105.713 77.1934 105.713 77.6895ZM104.629 77.707C104.629 77.4219 104.568 77.1699 104.447 76.9512C104.326 76.7324 104.158 76.5605 103.943 76.4355C103.729 76.3066 103.479 76.2422 103.193 76.2422C102.908 76.2422 102.658 76.3027 102.443 76.4238C102.232 76.541 102.066 76.709 101.945 76.9277C101.828 77.1465 101.77 77.4062 101.77 77.707C101.77 78 101.828 78.2559 101.945 78.4746C102.066 78.6934 102.234 78.8633 102.449 78.9844C102.664 79.1055 102.914 79.166 103.199 79.166C103.484 79.166 103.732 79.1055 103.943 78.9844C104.158 78.8633 104.326 78.6934 104.447 78.4746C104.568 78.2559 104.629 78 104.629 77.707ZM108.654 79.9395L107.787 79.7168L108.215 75.4688H112.592V76.4707H109.135L108.877 78.791C109.033 78.7012 109.23 78.6172 109.469 78.5391C109.711 78.4609 109.988 78.4219 110.301 78.4219C110.695 78.4219 111.049 78.4902 111.361 78.627C111.674 78.7598 111.939 78.9512 112.158 79.2012C112.381 79.4512 112.551 79.752 112.668 80.1035C112.785 80.4551 112.844 80.8477 112.844 81.2812C112.844 81.6914 112.787 82.0684 112.674 82.4121C112.564 82.7559 112.398 83.0566 112.176 83.3145C111.953 83.5684 111.672 83.7656 111.332 83.9062C110.996 84.0469 110.6 84.1172 110.143 84.1172C109.799 84.1172 109.473 84.0703 109.164 83.9766C108.859 83.8789 108.586 83.7324 108.344 83.5371C108.105 83.3379 107.91 83.0918 107.758 82.7988C107.609 82.502 107.516 82.1543 107.477 81.7559H108.508C108.555 82.0762 108.648 82.3457 108.789 82.5645C108.93 82.7832 109.113 82.9492 109.34 83.0625C109.57 83.1719 109.838 83.2266 110.143 83.2266C110.4 83.2266 110.629 83.1816 110.828 83.0918C111.027 83.002 111.195 82.873 111.332 82.7051C111.469 82.5371 111.572 82.334 111.643 82.0957C111.717 81.8574 111.754 81.5898 111.754 81.293C111.754 81.0234 111.717 80.7734 111.643 80.543C111.568 80.3125 111.457 80.1113 111.309 79.9395C111.164 79.7676 110.986 79.6348 110.775 79.541C110.564 79.4434 110.322 79.3945 110.049 79.3945C109.686 79.3945 109.41 79.4434 109.223 79.541C109.039 79.6387 108.85 79.7715 108.654 79.9395ZM120.449 76.2246L117.625 84H116.471L119.723 75.4688H120.467L120.449 76.2246ZM122.816 84L119.986 76.2246L119.969 75.4688H120.713L123.977 84H122.816ZM122.67 80.8418V81.7676H117.877V80.8418H122.67ZM127.504 77.6602V78.4922H124.076V77.6602H127.504ZM125.236 76.1191H126.32V82.4297C126.32 82.6445 126.354 82.8066 126.42 82.916C126.486 83.0254 126.572 83.0977 126.678 83.1328C126.783 83.168 126.896 83.1855 127.018 83.1855C127.107 83.1855 127.201 83.1777 127.299 83.1621C127.4 83.1426 127.477 83.127 127.527 83.1152L127.533 84C127.447 84.0273 127.334 84.0527 127.193 84.0762C127.057 84.1035 126.891 84.1172 126.695 84.1172C126.43 84.1172 126.186 84.0645 125.963 83.959C125.74 83.8535 125.562 83.6777 125.43 83.4316C125.301 83.1816 125.236 82.8457 125.236 82.4238V76.1191ZM131.43 77.6602V78.4922H128.002V77.6602H131.43ZM129.162 76.1191H130.246V82.4297C130.246 82.6445 130.279 82.8066 130.346 82.916C130.412 83.0254 130.498 83.0977 130.604 83.1328C130.709 83.168 130.822 83.1855 130.943 83.1855C131.033 83.1855 131.127 83.1777 131.225 83.1621C131.326 83.1426 131.402 83.127 131.453 83.1152L131.459 84C131.373 84.0273 131.26 84.0527 131.119 84.0762C130.982 84.1035 130.816 84.1172 130.621 84.1172C130.355 84.1172 130.111 84.0645 129.889 83.959C129.666 83.8535 129.488 83.6777 129.355 83.4316C129.227 83.1816 129.162 82.8457 129.162 82.4238V76.1191ZM136.439 82.916V79.6523C136.439 79.4023 136.389 79.1855 136.287 79.002C136.189 78.8145 136.041 78.6699 135.842 78.5684C135.643 78.4668 135.396 78.416 135.104 78.416C134.83 78.416 134.59 78.4629 134.383 78.5566C134.18 78.6504 134.02 78.7734 133.902 78.9258C133.789 79.0781 133.732 79.2422 133.732 79.418H132.648C132.648 79.1914 132.707 78.9668 132.824 78.7441C132.941 78.5215 133.109 78.3203 133.328 78.1406C133.551 77.957 133.816 77.8125 134.125 77.707C134.438 77.5977 134.785 77.543 135.168 77.543C135.629 77.543 136.035 77.6211 136.387 77.7773C136.742 77.9336 137.02 78.1699 137.219 78.4863C137.422 78.7988 137.523 79.1914 137.523 79.6641V82.6172C137.523 82.8281 137.541 83.0527 137.576 83.291C137.615 83.5293 137.672 83.7344 137.746 83.9062V84H136.615C136.561 83.875 136.518 83.709 136.486 83.502C136.455 83.291 136.439 83.0957 136.439 82.916ZM136.627 80.1562L136.639 80.918H135.543C135.234 80.918 134.959 80.9434 134.717 80.9941C134.475 81.041 134.271 81.1133 134.107 81.2109C133.943 81.3086 133.818 81.4316 133.732 81.5801C133.646 81.7246 133.604 81.8945 133.604 82.0898C133.604 82.2891 133.648 82.4707 133.738 82.6348C133.828 82.7988 133.963 82.9297 134.143 83.0273C134.326 83.1211 134.551 83.168 134.816 83.168C135.148 83.168 135.441 83.0977 135.695 82.957C135.949 82.8164 136.15 82.6445 136.299 82.4414C136.451 82.2383 136.533 82.041 136.545 81.8496L137.008 82.3711C136.98 82.5352 136.906 82.7168 136.785 82.916C136.664 83.1152 136.502 83.3066 136.299 83.4902C136.1 83.6699 135.861 83.8203 135.584 83.9414C135.311 84.0586 135.002 84.1172 134.658 84.1172C134.229 84.1172 133.852 84.0332 133.527 83.8652C133.207 83.6973 132.957 83.4727 132.777 83.1914C132.602 82.9062 132.514 82.5879 132.514 82.2363C132.514 81.8965 132.58 81.5977 132.713 81.3398C132.846 81.0781 133.037 80.8613 133.287 80.6895C133.537 80.5137 133.838 80.3809 134.189 80.291C134.541 80.2012 134.934 80.1562 135.367 80.1562H136.627ZM140.834 82.875L142.463 77.6602H143.178L143.037 78.6973L141.379 84H140.682L140.834 82.875ZM139.738 77.6602L141.127 82.9336L141.227 84H140.494L138.654 77.6602H139.738ZM144.736 82.8926L146.061 77.6602H147.139L145.299 84H144.572L144.736 82.8926ZM143.336 77.6602L144.93 82.7871L145.111 84H144.42L142.715 78.6855L142.574 77.6602H143.336ZM151.99 82.916V79.6523C151.99 79.4023 151.939 79.1855 151.838 79.002C151.74 78.8145 151.592 78.6699 151.393 78.5684C151.193 78.4668 150.947 78.416 150.654 78.416C150.381 78.416 150.141 78.4629 149.934 78.5566C149.73 78.6504 149.57 78.7734 149.453 78.9258C149.34 79.0781 149.283 79.2422 149.283 79.418H148.199C148.199 79.1914 148.258 78.9668 148.375 78.7441C148.492 78.5215 148.66 78.3203 148.879 78.1406C149.102 77.957 149.367 77.8125 149.676 77.707C149.988 77.5977 150.336 77.543 150.719 77.543C151.18 77.543 151.586 77.6211 151.938 77.7773C152.293 77.9336 152.57 78.1699 152.77 78.4863C152.973 78.7988 153.074 79.1914 153.074 79.6641V82.6172C153.074 82.8281 153.092 83.0527 153.127 83.291C153.166 83.5293 153.223 83.7344 153.297 83.9062V84H152.166C152.111 83.875 152.068 83.709 152.037 83.502C152.006 83.291 151.99 83.0957 151.99 82.916ZM152.178 80.1562L152.189 80.918H151.094C150.785 80.918 150.51 80.9434 150.268 80.9941C150.025 81.041 149.822 81.1133 149.658 81.2109C149.494 81.3086 149.369 81.4316 149.283 81.5801C149.197 81.7246 149.154 81.8945 149.154 82.0898C149.154 82.2891 149.199 82.4707 149.289 82.6348C149.379 82.7988 149.514 82.9297 149.693 83.0273C149.877 83.1211 150.102 83.168 150.367 83.168C150.699 83.168 150.992 83.0977 151.246 82.957C151.5 82.8164 151.701 82.6445 151.85 82.4414C152.002 82.2383 152.084 82.041 152.096 81.8496L152.559 82.3711C152.531 82.5352 152.457 82.7168 152.336 82.916C152.215 83.1152 152.053 83.3066 151.85 83.4902C151.65 83.6699 151.412 83.8203 151.135 83.9414C150.861 84.0586 150.553 84.1172 150.209 84.1172C149.779 84.1172 149.402 84.0332 149.078 83.8652C148.758 83.6973 148.508 83.4727 148.328 83.1914C148.152 82.9062 148.064 82.5879 148.064 82.2363C148.064 81.8965 148.131 81.5977 148.264 81.3398C148.396 81.0781 148.588 80.8613 148.838 80.6895C149.088 80.5137 149.389 80.3809 149.74 80.291C150.092 80.2012 150.484 80.1562 150.918 80.1562H152.178ZM156.467 83.3438L158.23 77.6602H159.391L156.848 84.9785C156.789 85.1348 156.711 85.3027 156.613 85.4824C156.52 85.666 156.398 85.8398 156.25 86.0039C156.102 86.168 155.922 86.3008 155.711 86.4023C155.504 86.5078 155.256 86.5605 154.967 86.5605C154.881 86.5605 154.771 86.5488 154.639 86.5254C154.506 86.502 154.412 86.4824 154.357 86.4668L154.352 85.5879C154.383 85.5918 154.432 85.5957 154.498 85.5996C154.568 85.6074 154.617 85.6113 154.645 85.6113C154.891 85.6113 155.1 85.5781 155.271 85.5117C155.443 85.4492 155.588 85.3418 155.705 85.1895C155.826 85.041 155.93 84.8359 156.016 84.5742L156.467 83.3438ZM155.172 77.6602L156.818 82.582L157.1 83.7246L156.32 84.123L153.988 77.6602H155.172ZM168.057 81.8438C168.057 81.6445 168.025 81.4688 167.963 81.3164C167.904 81.1602 167.799 81.0195 167.646 80.8945C167.498 80.7695 167.291 80.6504 167.025 80.5371C166.764 80.4238 166.432 80.3086 166.029 80.1914C165.607 80.0664 165.227 79.9277 164.887 79.7754C164.547 79.6191 164.256 79.4414 164.014 79.2422C163.771 79.043 163.586 78.8145 163.457 78.5566C163.328 78.2988 163.264 78.0039 163.264 77.6719C163.264 77.3398 163.332 77.0332 163.469 76.752C163.605 76.4707 163.801 76.2266 164.055 76.0195C164.312 75.8086 164.619 75.6445 164.975 75.5273C165.33 75.4102 165.727 75.3516 166.164 75.3516C166.805 75.3516 167.348 75.4746 167.793 75.7207C168.242 75.9629 168.584 76.2812 168.818 76.6758C169.053 77.0664 169.17 77.4844 169.17 77.9297H168.045C168.045 77.6094 167.977 77.3262 167.84 77.0801C167.703 76.8301 167.496 76.6348 167.219 76.4941C166.941 76.3496 166.59 76.2773 166.164 76.2773C165.762 76.2773 165.43 76.3379 165.168 76.459C164.906 76.5801 164.711 76.7441 164.582 76.9512C164.457 77.1582 164.395 77.3945 164.395 77.6602C164.395 77.8398 164.432 78.0039 164.506 78.1523C164.584 78.2969 164.703 78.4316 164.863 78.5566C165.027 78.6816 165.234 78.7969 165.484 78.9023C165.738 79.0078 166.041 79.1094 166.393 79.207C166.877 79.3438 167.295 79.4961 167.646 79.6641C167.998 79.832 168.287 80.0215 168.514 80.2324C168.744 80.4395 168.914 80.6758 169.023 80.9414C169.137 81.2031 169.193 81.5 169.193 81.832C169.193 82.1797 169.123 82.4941 168.982 82.7754C168.842 83.0566 168.641 83.2969 168.379 83.4961C168.117 83.6953 167.803 83.8496 167.436 83.959C167.072 84.0645 166.666 84.1172 166.217 84.1172C165.822 84.1172 165.434 84.0625 165.051 83.9531C164.672 83.8438 164.326 83.6797 164.014 83.4609C163.705 83.2422 163.457 82.9727 163.27 82.6523C163.086 82.3281 162.994 81.9531 162.994 81.5273H164.119C164.119 81.8203 164.176 82.0723 164.289 82.2832C164.402 82.4902 164.557 82.6621 164.752 82.7988C164.951 82.9355 165.176 83.0371 165.426 83.1035C165.68 83.166 165.943 83.1973 166.217 83.1973C166.611 83.1973 166.945 83.1426 167.219 83.0332C167.492 82.9238 167.699 82.7676 167.84 82.5645C167.984 82.3613 168.057 82.1211 168.057 81.8438ZM173.125 77.6602V78.4922H169.697V77.6602H173.125ZM170.857 76.1191H171.941V82.4297C171.941 82.6445 171.975 82.8066 172.041 82.916C172.107 83.0254 172.193 83.0977 172.299 83.1328C172.404 83.168 172.518 83.1855 172.639 83.1855C172.729 83.1855 172.822 83.1777 172.92 83.1621C173.021 83.1426 173.098 83.127 173.148 83.1152L173.154 84C173.068 84.0273 172.955 84.0527 172.814 84.0762C172.678 84.1035 172.512 84.1172 172.316 84.1172C172.051 84.1172 171.807 84.0645 171.584 83.959C171.361 83.8535 171.184 83.6777 171.051 83.4316C170.922 83.1816 170.857 82.8457 170.857 82.4238V76.1191ZM175.48 78.6562V84H174.396V77.6602H175.451L175.48 78.6562ZM177.461 77.625L177.455 78.6328C177.365 78.6133 177.279 78.6016 177.197 78.5977C177.119 78.5898 177.029 78.5859 176.928 78.5859C176.678 78.5859 176.457 78.625 176.266 78.7031C176.074 78.7812 175.912 78.8906 175.779 79.0312C175.646 79.1719 175.541 79.3398 175.463 79.5352C175.389 79.7266 175.34 79.9375 175.316 80.168L175.012 80.3438C175.012 79.9609 175.049 79.6016 175.123 79.2656C175.201 78.9297 175.32 78.6328 175.48 78.375C175.641 78.1133 175.844 77.9102 176.09 77.7656C176.34 77.6172 176.637 77.543 176.98 77.543C177.059 77.543 177.148 77.5527 177.25 77.5723C177.352 77.5879 177.422 77.6055 177.461 77.625ZM180.977 84.1172C180.535 84.1172 180.135 84.043 179.775 83.8945C179.42 83.7422 179.113 83.5293 178.855 83.2559C178.602 82.9824 178.406 82.6582 178.27 82.2832C178.133 81.9082 178.064 81.498 178.064 81.0527V80.8066C178.064 80.291 178.141 79.832 178.293 79.4297C178.445 79.0234 178.652 78.6797 178.914 78.3984C179.176 78.1172 179.473 77.9043 179.805 77.7598C180.137 77.6152 180.48 77.543 180.836 77.543C181.289 77.543 181.68 77.6211 182.008 77.7773C182.34 77.9336 182.611 78.1523 182.822 78.4336C183.033 78.7109 183.189 79.0391 183.291 79.418C183.393 79.793 183.443 80.2031 183.443 80.6484V81.1348H178.709V80.25H182.359V80.168C182.344 79.8867 182.285 79.6133 182.184 79.3477C182.086 79.082 181.93 78.8633 181.715 78.6914C181.5 78.5195 181.207 78.4336 180.836 78.4336C180.59 78.4336 180.363 78.4863 180.156 78.5918C179.949 78.6934 179.771 78.8457 179.623 79.0488C179.475 79.252 179.359 79.5 179.277 79.793C179.195 80.0859 179.154 80.4238 179.154 80.8066V81.0527C179.154 81.3535 179.195 81.6367 179.277 81.9023C179.363 82.1641 179.486 82.3945 179.646 82.5938C179.811 82.793 180.008 82.9492 180.238 83.0625C180.473 83.1758 180.738 83.2324 181.035 83.2324C181.418 83.2324 181.742 83.1543 182.008 82.998C182.273 82.8418 182.506 82.6328 182.705 82.3711L183.361 82.8926C183.225 83.0996 183.051 83.2969 182.84 83.4844C182.629 83.6719 182.369 83.8242 182.061 83.9414C181.756 84.0586 181.395 84.1172 180.977 84.1172ZM187.34 84.1172C186.898 84.1172 186.498 84.043 186.139 83.8945C185.783 83.7422 185.477 83.5293 185.219 83.2559C184.965 82.9824 184.77 82.6582 184.633 82.2832C184.496 81.9082 184.428 81.498 184.428 81.0527V80.8066C184.428 80.291 184.504 79.832 184.656 79.4297C184.809 79.0234 185.016 78.6797 185.277 78.3984C185.539 78.1172 185.836 77.9043 186.168 77.7598C186.5 77.6152 186.844 77.543 187.199 77.543C187.652 77.543 188.043 77.6211 188.371 77.7773C188.703 77.9336 188.975 78.1523 189.186 78.4336C189.396 78.7109 189.553 79.0391 189.654 79.418C189.756 79.793 189.807 80.2031 189.807 80.6484V81.1348H185.072V80.25H188.723V80.168C188.707 79.8867 188.648 79.6133 188.547 79.3477C188.449 79.082 188.293 78.8633 188.078 78.6914C187.863 78.5195 187.57 78.4336 187.199 78.4336C186.953 78.4336 186.727 78.4863 186.52 78.5918C186.312 78.6934 186.135 78.8457 185.986 79.0488C185.838 79.252 185.723 79.5 185.641 79.793C185.559 80.0859 185.518 80.4238 185.518 80.8066V81.0527C185.518 81.3535 185.559 81.6367 185.641 81.9023C185.727 82.1641 185.85 82.3945 186.01 82.5938C186.174 82.793 186.371 82.9492 186.602 83.0625C186.836 83.1758 187.102 83.2324 187.398 83.2324C187.781 83.2324 188.105 83.1543 188.371 82.998C188.637 82.8418 188.869 82.6328 189.068 82.3711L189.725 82.8926C189.588 83.0996 189.414 83.2969 189.203 83.4844C188.992 83.6719 188.732 83.8242 188.424 83.9414C188.119 84.0586 187.758 84.1172 187.34 84.1172ZM193.727 77.6602V78.4922H190.299V77.6602H193.727ZM191.459 76.1191H192.543V82.4297C192.543 82.6445 192.576 82.8066 192.643 82.916C192.709 83.0254 192.795 83.0977 192.9 83.1328C193.006 83.168 193.119 83.1855 193.24 83.1855C193.33 83.1855 193.424 83.1777 193.521 83.1621C193.623 83.1426 193.699 83.127 193.75 83.1152L193.756 84C193.67 84.0273 193.557 84.0527 193.416 84.0762C193.279 84.1035 193.113 84.1172 192.918 84.1172C192.652 84.1172 192.408 84.0645 192.186 83.959C191.963 83.8535 191.785 83.6777 191.652 83.4316C191.523 83.1816 191.459 82.8457 191.459 82.4238V76.1191ZM195.982 82.7109V83.584C195.982 83.9395 195.893 84.3145 195.713 84.709C195.533 85.1074 195.281 85.4395 194.957 85.7051L194.342 85.2773C194.467 85.1055 194.572 84.9297 194.658 84.75C194.744 84.5742 194.809 84.3906 194.852 84.1992C194.898 84.0117 194.922 83.8125 194.922 83.6016V82.7109H195.982ZM203.424 75.4688V84H202.311V75.4688H203.424ZM206.166 75.4688V76.3945H199.574V75.4688H206.166ZM206.395 80.9004V80.7656C206.395 80.3086 206.461 79.8848 206.594 79.4941C206.727 79.0996 206.918 78.7578 207.168 78.4688C207.418 78.1758 207.721 77.9492 208.076 77.7891C208.432 77.625 208.83 77.543 209.271 77.543C209.717 77.543 210.117 77.625 210.473 77.7891C210.832 77.9492 211.137 78.1758 211.387 78.4688C211.641 78.7578 211.834 79.0996 211.967 79.4941C212.1 79.8848 212.166 80.3086 212.166 80.7656V80.9004C212.166 81.3574 212.1 81.7812 211.967 82.1719C211.834 82.5625 211.641 82.9043 211.387 83.1973C211.137 83.4863 210.834 83.7129 210.479 83.877C210.127 84.0371 209.729 84.1172 209.283 84.1172C208.838 84.1172 208.438 84.0371 208.082 83.877C207.727 83.7129 207.422 83.4863 207.168 83.1973C206.918 82.9043 206.727 82.5625 206.594 82.1719C206.461 81.7812 206.395 81.3574 206.395 80.9004ZM207.479 80.7656V80.9004C207.479 81.2168 207.516 81.5156 207.59 81.7969C207.664 82.0742 207.775 82.3203 207.924 82.5352C208.076 82.75 208.266 82.9199 208.492 83.0449C208.719 83.166 208.982 83.2266 209.283 83.2266C209.58 83.2266 209.84 83.166 210.062 83.0449C210.289 82.9199 210.477 82.75 210.625 82.5352C210.773 82.3203 210.885 82.0742 210.959 81.7969C211.037 81.5156 211.076 81.2168 211.076 80.9004V80.7656C211.076 80.4531 211.037 80.1582 210.959 79.8809C210.885 79.5996 210.771 79.3516 210.619 79.1367C210.471 78.918 210.283 78.7461 210.057 78.6211C209.834 78.4961 209.572 78.4336 209.271 78.4336C208.975 78.4336 208.713 78.4961 208.486 78.6211C208.264 78.7461 208.076 78.918 207.924 79.1367C207.775 79.3516 207.664 79.5996 207.59 79.8809C207.516 80.1582 207.479 80.4531 207.479 80.7656ZM214.609 78.6562V84H213.525V77.6602H214.58L214.609 78.6562ZM216.59 77.625L216.584 78.6328C216.494 78.6133 216.408 78.6016 216.326 78.5977C216.248 78.5898 216.158 78.5859 216.057 78.5859C215.807 78.5859 215.586 78.625 215.395 78.7031C215.203 78.7812 215.041 78.8906 214.908 79.0312C214.775 79.1719 214.67 79.3398 214.592 79.5352C214.518 79.7266 214.469 79.9375 214.445 80.168L214.141 80.3438C214.141 79.9609 214.178 79.6016 214.252 79.2656C214.33 78.9297 214.449 78.6328 214.609 78.375C214.77 78.1133 214.973 77.9102 215.219 77.7656C215.469 77.6172 215.766 77.543 216.109 77.543C216.188 77.543 216.277 77.5527 216.379 77.5723C216.48 77.5879 216.551 77.6055 216.59 77.625ZM217.188 80.9004V80.7656C217.188 80.3086 217.254 79.8848 217.387 79.4941C217.52 79.0996 217.711 78.7578 217.961 78.4688C218.211 78.1758 218.514 77.9492 218.869 77.7891C219.225 77.625 219.623 77.543 220.064 77.543C220.51 77.543 220.91 77.625 221.266 77.7891C221.625 77.9492 221.93 78.1758 222.18 78.4688C222.434 78.7578 222.627 79.0996 222.76 79.4941C222.893 79.8848 222.959 80.3086 222.959 80.7656V80.9004C222.959 81.3574 222.893 81.7812 222.76 82.1719C222.627 82.5625 222.434 82.9043 222.18 83.1973C221.93 83.4863 221.627 83.7129 221.271 83.877C220.92 84.0371 220.521 84.1172 220.076 84.1172C219.631 84.1172 219.23 84.0371 218.875 83.877C218.52 83.7129 218.215 83.4863 217.961 83.1973C217.711 82.9043 217.52 82.5625 217.387 82.1719C217.254 81.7812 217.188 81.3574 217.188 80.9004ZM218.271 80.7656V80.9004C218.271 81.2168 218.309 81.5156 218.383 81.7969C218.457 82.0742 218.568 82.3203 218.717 82.5352C218.869 82.75 219.059 82.9199 219.285 83.0449C219.512 83.166 219.775 83.2266 220.076 83.2266C220.373 83.2266 220.633 83.166 220.855 83.0449C221.082 82.9199 221.27 82.75 221.418 82.5352C221.566 82.3203 221.678 82.0742 221.752 81.7969C221.83 81.5156 221.869 81.2168 221.869 80.9004V80.7656C221.869 80.4531 221.83 80.1582 221.752 79.8809C221.678 79.5996 221.564 79.3516 221.412 79.1367C221.264 78.918 221.076 78.7461 220.85 78.6211C220.627 78.4961 220.365 78.4336 220.064 78.4336C219.768 78.4336 219.506 78.4961 219.279 78.6211C219.057 78.7461 218.869 78.918 218.717 79.1367C218.568 79.3516 218.457 79.5996 218.383 79.8809C218.309 80.1582 218.271 80.4531 218.271 80.7656ZM225.402 79.0137V84H224.318V77.6602H225.344L225.402 79.0137ZM225.145 80.5898L224.693 80.5723C224.697 80.1387 224.762 79.7383 224.887 79.3711C225.012 79 225.188 78.6777 225.414 78.4043C225.641 78.1309 225.91 77.9199 226.223 77.7715C226.539 77.6191 226.889 77.543 227.271 77.543C227.584 77.543 227.865 77.5859 228.115 77.6719C228.365 77.7539 228.578 77.8867 228.754 78.0703C228.934 78.2539 229.07 78.4922 229.164 78.7852C229.258 79.0742 229.305 79.4277 229.305 79.8457V84H228.215V79.834C228.215 79.502 228.166 79.2363 228.068 79.0371C227.971 78.834 227.828 78.6875 227.641 78.5977C227.453 78.5039 227.223 78.457 226.949 78.457C226.68 78.457 226.434 78.5137 226.211 78.627C225.992 78.7402 225.803 78.8965 225.643 79.0957C225.486 79.2949 225.363 79.5234 225.273 79.7812C225.188 80.0352 225.145 80.3047 225.145 80.5898ZM233.605 77.6602V78.4922H230.178V77.6602H233.605ZM231.338 76.1191H232.422V82.4297C232.422 82.6445 232.455 82.8066 232.521 82.916C232.588 83.0254 232.674 83.0977 232.779 83.1328C232.885 83.168 232.998 83.1855 233.119 83.1855C233.209 83.1855 233.303 83.1777 233.4 83.1621C233.502 83.1426 233.578 83.127 233.629 83.1152L233.635 84C233.549 84.0273 233.436 84.0527 233.295 84.0762C233.158 84.1035 232.992 84.1172 232.797 84.1172C232.531 84.1172 232.287 84.0645 232.064 83.959C231.842 83.8535 231.664 83.6777 231.531 83.4316C231.402 83.1816 231.338 82.8457 231.338 82.4238V76.1191ZM234.473 80.9004V80.7656C234.473 80.3086 234.539 79.8848 234.672 79.4941C234.805 79.0996 234.996 78.7578 235.246 78.4688C235.496 78.1758 235.799 77.9492 236.154 77.7891C236.51 77.625 236.908 77.543 237.35 77.543C237.795 77.543 238.195 77.625 238.551 77.7891C238.91 77.9492 239.215 78.1758 239.465 78.4688C239.719 78.7578 239.912 79.0996 240.045 79.4941C240.178 79.8848 240.244 80.3086 240.244 80.7656V80.9004C240.244 81.3574 240.178 81.7812 240.045 82.1719C239.912 82.5625 239.719 82.9043 239.465 83.1973C239.215 83.4863 238.912 83.7129 238.557 83.877C238.205 84.0371 237.807 84.1172 237.361 84.1172C236.916 84.1172 236.516 84.0371 236.16 83.877C235.805 83.7129 235.5 83.4863 235.246 83.1973C234.996 82.9043 234.805 82.5625 234.672 82.1719C234.539 81.7812 234.473 81.3574 234.473 80.9004ZM235.557 80.7656V80.9004C235.557 81.2168 235.594 81.5156 235.668 81.7969C235.742 82.0742 235.854 82.3203 236.002 82.5352C236.154 82.75 236.344 82.9199 236.57 83.0449C236.797 83.166 237.061 83.2266 237.361 83.2266C237.658 83.2266 237.918 83.166 238.141 83.0449C238.367 82.9199 238.555 82.75 238.703 82.5352C238.852 82.3203 238.963 82.0742 239.037 81.7969C239.115 81.5156 239.154 81.2168 239.154 80.9004V80.7656C239.154 80.4531 239.115 80.1582 239.037 79.8809C238.963 79.5996 238.85 79.3516 238.697 79.1367C238.549 78.918 238.361 78.7461 238.135 78.6211C237.912 78.4961 237.65 78.4336 237.35 78.4336C237.053 78.4336 236.791 78.4961 236.564 78.6211C236.342 78.7461 236.154 78.918 236.002 79.1367C235.854 79.3516 235.742 79.5996 235.668 79.8809C235.594 80.1582 235.557 80.4531 235.557 80.7656ZM242.588 82.7109V83.584C242.588 83.9395 242.498 84.3145 242.318 84.709C242.139 85.1074 241.887 85.4395 241.562 85.7051L240.947 85.2773C241.072 85.1055 241.178 84.9297 241.264 84.75C241.35 84.5742 241.414 84.3906 241.457 84.1992C241.504 84.0117 241.527 83.8125 241.527 83.6016V82.7109H242.588ZM252.262 81.2871H253.387C253.328 81.8262 253.174 82.3086 252.924 82.7344C252.674 83.1602 252.32 83.498 251.863 83.748C251.406 83.9941 250.836 84.1172 250.152 84.1172C249.652 84.1172 249.197 84.0234 248.787 83.8359C248.381 83.6484 248.031 83.3828 247.738 83.0391C247.445 82.6914 247.219 82.2754 247.059 81.791C246.902 81.3027 246.824 80.7598 246.824 80.1621V79.3125C246.824 78.7148 246.902 78.1738 247.059 77.6895C247.219 77.2012 247.447 76.7832 247.744 76.4355C248.045 76.0879 248.406 75.8203 248.828 75.6328C249.25 75.4453 249.725 75.3516 250.252 75.3516C250.896 75.3516 251.441 75.4727 251.887 75.7148C252.332 75.957 252.678 76.293 252.924 76.7227C253.174 77.1484 253.328 77.6426 253.387 78.2051H252.262C252.207 77.8066 252.105 77.4648 251.957 77.1797C251.809 76.8906 251.598 76.668 251.324 76.5117C251.051 76.3555 250.693 76.2773 250.252 76.2773C249.873 76.2773 249.539 76.3496 249.25 76.4941C248.965 76.6387 248.725 76.8438 248.529 77.1094C248.338 77.375 248.193 77.6934 248.096 78.0645C247.998 78.4355 247.949 78.8477 247.949 79.3008V80.1621C247.949 80.5801 247.992 80.9727 248.078 81.3398C248.168 81.707 248.303 82.0293 248.482 82.3066C248.662 82.584 248.891 82.8027 249.168 82.9629C249.445 83.1191 249.773 83.1973 250.152 83.1973C250.633 83.1973 251.016 83.1211 251.301 82.9688C251.586 82.8164 251.801 82.5977 251.945 82.3125C252.094 82.0273 252.199 81.6855 252.262 81.2871ZM258.502 82.916V79.6523C258.502 79.4023 258.451 79.1855 258.35 79.002C258.252 78.8145 258.104 78.6699 257.904 78.5684C257.705 78.4668 257.459 78.416 257.166 78.416C256.893 78.416 256.652 78.4629 256.445 78.5566C256.242 78.6504 256.082 78.7734 255.965 78.9258C255.852 79.0781 255.795 79.2422 255.795 79.418H254.711C254.711 79.1914 254.77 78.9668 254.887 78.7441C255.004 78.5215 255.172 78.3203 255.391 78.1406C255.613 77.957 255.879 77.8125 256.188 77.707C256.5 77.5977 256.848 77.543 257.23 77.543C257.691 77.543 258.098 77.6211 258.449 77.7773C258.805 77.9336 259.082 78.1699 259.281 78.4863C259.484 78.7988 259.586 79.1914 259.586 79.6641V82.6172C259.586 82.8281 259.604 83.0527 259.639 83.291C259.678 83.5293 259.734 83.7344 259.809 83.9062V84H258.678C258.623 83.875 258.58 83.709 258.549 83.502C258.518 83.291 258.502 83.0957 258.502 82.916ZM258.689 80.1562L258.701 80.918H257.605C257.297 80.918 257.021 80.9434 256.779 80.9941C256.537 81.041 256.334 81.1133 256.17 81.2109C256.006 81.3086 255.881 81.4316 255.795 81.5801C255.709 81.7246 255.666 81.8945 255.666 82.0898C255.666 82.2891 255.711 82.4707 255.801 82.6348C255.891 82.7988 256.025 82.9297 256.205 83.0273C256.389 83.1211 256.613 83.168 256.879 83.168C257.211 83.168 257.504 83.0977 257.758 82.957C258.012 82.8164 258.213 82.6445 258.361 82.4414C258.514 82.2383 258.596 82.041 258.607 81.8496L259.07 82.3711C259.043 82.5352 258.969 82.7168 258.848 82.916C258.727 83.1152 258.564 83.3066 258.361 83.4902C258.162 83.6699 257.924 83.8203 257.646 83.9414C257.373 84.0586 257.064 84.1172 256.721 84.1172C256.291 84.1172 255.914 84.0332 255.59 83.8652C255.27 83.6973 255.02 83.4727 254.84 83.1914C254.664 82.9062 254.576 82.5879 254.576 82.2363C254.576 81.8965 254.643 81.5977 254.775 81.3398C254.908 81.0781 255.1 80.8613 255.35 80.6895C255.6 80.5137 255.9 80.3809 256.252 80.291C256.604 80.2012 256.996 80.1562 257.43 80.1562H258.689ZM262.375 79.0137V84H261.291V77.6602H262.316L262.375 79.0137ZM262.117 80.5898L261.666 80.5723C261.67 80.1387 261.734 79.7383 261.859 79.3711C261.984 79 262.16 78.6777 262.387 78.4043C262.613 78.1309 262.883 77.9199 263.195 77.7715C263.512 77.6191 263.861 77.543 264.244 77.543C264.557 77.543 264.838 77.5859 265.088 77.6719C265.338 77.7539 265.551 77.8867 265.727 78.0703C265.906 78.2539 266.043 78.4922 266.137 78.7852C266.23 79.0742 266.277 79.4277 266.277 79.8457V84H265.188V79.834C265.188 79.502 265.139 79.2363 265.041 79.0371C264.943 78.834 264.801 78.6875 264.613 78.5977C264.426 78.5039 264.195 78.457 263.922 78.457C263.652 78.457 263.406 78.5137 263.184 78.627C262.965 78.7402 262.775 78.8965 262.615 79.0957C262.459 79.2949 262.336 79.5234 262.246 79.7812C262.16 80.0352 262.117 80.3047 262.117 80.5898ZM271.662 82.916V79.6523C271.662 79.4023 271.611 79.1855 271.51 79.002C271.412 78.8145 271.264 78.6699 271.064 78.5684C270.865 78.4668 270.619 78.416 270.326 78.416C270.053 78.416 269.812 78.4629 269.605 78.5566C269.402 78.6504 269.242 78.7734 269.125 78.9258C269.012 79.0781 268.955 79.2422 268.955 79.418H267.871C267.871 79.1914 267.93 78.9668 268.047 78.7441C268.164 78.5215 268.332 78.3203 268.551 78.1406C268.773 77.957 269.039 77.8125 269.348 77.707C269.66 77.5977 270.008 77.543 270.391 77.543C270.852 77.543 271.258 77.6211 271.609 77.7773C271.965 77.9336 272.242 78.1699 272.441 78.4863C272.645 78.7988 272.746 79.1914 272.746 79.6641V82.6172C272.746 82.8281 272.764 83.0527 272.799 83.291C272.838 83.5293 272.895 83.7344 272.969 83.9062V84H271.838C271.783 83.875 271.74 83.709 271.709 83.502C271.678 83.291 271.662 83.0957 271.662 82.916ZM271.85 80.1562L271.861 80.918H270.766C270.457 80.918 270.182 80.9434 269.939 80.9941C269.697 81.041 269.494 81.1133 269.33 81.2109C269.166 81.3086 269.041 81.4316 268.955 81.5801C268.869 81.7246 268.826 81.8945 268.826 82.0898C268.826 82.2891 268.871 82.4707 268.961 82.6348C269.051 82.7988 269.186 82.9297 269.365 83.0273C269.549 83.1211 269.773 83.168 270.039 83.168C270.371 83.168 270.664 83.0977 270.918 82.957C271.172 82.8164 271.373 82.6445 271.521 82.4414C271.674 82.2383 271.756 82.041 271.768 81.8496L272.23 82.3711C272.203 82.5352 272.129 82.7168 272.008 82.916C271.887 83.1152 271.725 83.3066 271.521 83.4902C271.322 83.6699 271.084 83.8203 270.807 83.9414C270.533 84.0586 270.225 84.1172 269.881 84.1172C269.451 84.1172 269.074 84.0332 268.75 83.8652C268.43 83.6973 268.18 83.4727 268 83.1914C267.824 82.9062 267.736 82.5879 267.736 82.2363C267.736 81.8965 267.803 81.5977 267.936 81.3398C268.068 81.0781 268.26 80.8613 268.51 80.6895C268.76 80.5137 269.061 80.3809 269.412 80.291C269.764 80.2012 270.156 80.1562 270.59 80.1562H271.85ZM278.447 82.7695V75H279.537V84H278.541L278.447 82.7695ZM274.182 80.9004V80.7773C274.182 80.293 274.24 79.8535 274.357 79.459C274.479 79.0605 274.648 78.7188 274.867 78.4336C275.09 78.1484 275.354 77.9297 275.658 77.7773C275.967 77.6211 276.311 77.543 276.689 77.543C277.088 77.543 277.436 77.6133 277.732 77.7539C278.033 77.8906 278.287 78.0918 278.494 78.3574C278.705 78.6191 278.871 78.9355 278.992 79.3066C279.113 79.6777 279.197 80.0977 279.244 80.5664V81.1055C279.201 81.5703 279.117 81.9883 278.992 82.3594C278.871 82.7305 278.705 83.0469 278.494 83.3086C278.287 83.5703 278.033 83.7715 277.732 83.9121C277.432 84.0488 277.08 84.1172 276.678 84.1172C276.307 84.1172 275.967 84.0371 275.658 83.877C275.354 83.7168 275.09 83.4922 274.867 83.2031C274.648 82.9141 274.479 82.5742 274.357 82.1836C274.24 81.7891 274.182 81.3613 274.182 80.9004ZM275.271 80.7773V80.9004C275.271 81.2168 275.303 81.5137 275.365 81.791C275.432 82.0684 275.533 82.3125 275.67 82.5234C275.807 82.7344 275.98 82.9004 276.191 83.0215C276.402 83.1387 276.654 83.1973 276.947 83.1973C277.307 83.1973 277.602 83.1211 277.832 82.9688C278.066 82.8164 278.254 82.6152 278.395 82.3652C278.535 82.1152 278.645 81.8438 278.723 81.5508V80.1387C278.676 79.9238 278.607 79.7168 278.518 79.5176C278.432 79.3145 278.318 79.1348 278.178 78.9785C278.041 78.8184 277.871 78.6914 277.668 78.5977C277.469 78.5039 277.232 78.457 276.959 78.457C276.662 78.457 276.406 78.5195 276.191 78.6445C275.98 78.7656 275.807 78.9336 275.67 79.1484C275.533 79.3594 275.432 79.6055 275.365 79.8867C275.303 80.1641 275.271 80.4609 275.271 80.7773ZM284.963 82.916V79.6523C284.963 79.4023 284.912 79.1855 284.811 79.002C284.713 78.8145 284.564 78.6699 284.365 78.5684C284.166 78.4668 283.92 78.416 283.627 78.416C283.354 78.416 283.113 78.4629 282.906 78.5566C282.703 78.6504 282.543 78.7734 282.426 78.9258C282.312 79.0781 282.256 79.2422 282.256 79.418H281.172C281.172 79.1914 281.23 78.9668 281.348 78.7441C281.465 78.5215 281.633 78.3203 281.852 78.1406C282.074 77.957 282.34 77.8125 282.648 77.707C282.961 77.5977 283.309 77.543 283.691 77.543C284.152 77.543 284.559 77.6211 284.91 77.7773C285.266 77.9336 285.543 78.1699 285.742 78.4863C285.945 78.7988 286.047 79.1914 286.047 79.6641V82.6172C286.047 82.8281 286.064 83.0527 286.1 83.291C286.139 83.5293 286.195 83.7344 286.27 83.9062V84H285.139C285.084 83.875 285.041 83.709 285.01 83.502C284.979 83.291 284.963 83.0957 284.963 82.916ZM285.15 80.1562L285.162 80.918H284.066C283.758 80.918 283.482 80.9434 283.24 80.9941C282.998 81.041 282.795 81.1133 282.631 81.2109C282.467 81.3086 282.342 81.4316 282.256 81.5801C282.17 81.7246 282.127 81.8945 282.127 82.0898C282.127 82.2891 282.172 82.4707 282.262 82.6348C282.352 82.7988 282.486 82.9297 282.666 83.0273C282.85 83.1211 283.074 83.168 283.34 83.168C283.672 83.168 283.965 83.0977 284.219 82.957C284.473 82.8164 284.674 82.6445 284.822 82.4414C284.975 82.2383 285.057 82.041 285.068 81.8496L285.531 82.3711C285.504 82.5352 285.43 82.7168 285.309 82.916C285.188 83.1152 285.025 83.3066 284.822 83.4902C284.623 83.6699 284.385 83.8203 284.107 83.9414C283.834 84.0586 283.525 84.1172 283.182 84.1172C282.752 84.1172 282.375 84.0332 282.051 83.8652C281.73 83.6973 281.48 83.4727 281.301 83.1914C281.125 82.9062 281.037 82.5879 281.037 82.2363C281.037 81.8965 281.104 81.5977 281.236 81.3398C281.369 81.0781 281.561 80.8613 281.811 80.6895C282.061 80.5137 282.361 80.3809 282.713 80.291C283.064 80.2012 283.457 80.1562 283.891 80.1562H285.15Z" fill="black"/>
<g opacity="0.65">
<path d="M84.6875 79.625C84.9479 79.625 85.1692 79.5338 85.3513 79.3513C85.5338 79.1692 85.625 78.9479 85.625 78.6875C85.625 78.4271 85.5338 78.2058 85.3513 78.0237C85.1692 77.8412 84.9479 77.75 84.6875 77.75C84.4271 77.75 84.2058 77.8412 84.0237 78.0237C83.8412 78.2058 83.75 78.4271 83.75 78.6875C83.75 78.9479 83.8412 79.1692 84.0237 79.3513C84.2058 79.5338 84.4271 79.625 84.6875 79.625ZM84.6875 85.0938C85.9896 83.9583 86.9921 82.8229 87.695 81.6875C88.3983 80.5521 88.75 79.5937 88.75 78.8125C88.75 77.5833 88.3569 76.5781 87.5706 75.7969C86.784 75.0156 85.8229 74.625 84.6875 74.625C83.5521 74.625 82.5913 75.0156 81.805 75.7969C81.0183 76.5781 80.625 77.5833 80.625 78.8125C80.625 79.5937 80.9767 80.5521 81.68 81.6875C82.3829 82.8229 83.3854 83.9583 84.6875 85.0938ZM84.6875 85.9531C83.1042 84.5469 81.9271 83.2448 81.1562 82.0469C80.3854 80.849 80 79.7708 80 78.8125C80 77.3437 80.4715 76.1746 81.4144 75.305C82.3569 74.435 83.4479 74 84.6875 74C85.9271 74 87.0183 74.435 87.9613 75.305C88.9038 76.1746 89.375 77.3437 89.375 78.8125C89.375 79.7708 88.9896 80.849 88.2187 82.0469C87.4479 83.2448 86.2708 84.5469 84.6875 85.9531Z" fill="#1C1B1F"/>
</g>
<mask id="mask0_105_476" style="mask-type:alpha" maskUnits="userSpaceOnUse" x="78" y="90" width="20" height="20">
<rect x="78" y="90" width="20" height="20" fill="#D9D9D9"/>
</mask>
<g mask="url(#mask0_105_476)">
<path d="M84.1042 106.604L85.1458 102.167L81.7083 99.2083L86.2292 98.8125L88 94.625L89.7708 98.8125L94.2917 99.2083L90.8542 102.167L91.8958 106.604L88 104.25L84.1042 106.604Z" fill="#CEC609"/>
</g>
<mask id="mask1_105_476" style="mask-type:alpha" maskUnits="userSpaceOnUse" x="92" y="90" width="20" height="20">
<rect x="92" y="90" width="20" height="20" fill="#D9D9D9"/>
</mask>
<g mask="url(#mask1_105_476)">
<path d="M98.1042 106.604L99.1458 102.167L95.7083 99.2083L100.229 98.8125L102 94.625L103.771 98.8125L108.292 99.2083L104.854 102.167L105.896 106.604L102 104.25L98.1042 106.604Z" fill="#CEC609"/>
</g>
<path d="M112.104 106.604L113.146 102.167L109.708 99.2083L114.229 98.8125L116 94.625L117.771 98.8125L122.292 99.2083L118.854 102.167L119.896 106.604L116 104.25L112.104 106.604Z" fill="#CEC609"/>
<mask id="mask2_105_476" style="mask-type:alpha" maskUnits="userSpaceOnUse" x="120" y="90" width="20" height="20">
<rect x="120" y="90" width="20" height="20" fill="#D9D9D9"/>
</mask>
<g mask="url(#mask2_105_476)">
<path d="M126.104 106.604L127.146 102.167L123.708 99.2083L128.229 98.8125L130 94.625L131.771 98.8125L136.292 99.2083L132.854 102.167L133.896 106.604L130 104.25L126.104 106.604Z" fill="#CEC609"/>
</g>
<path d="M144 96.7708V103.271L146.625 104.875L145.937 101.875L148.25 99.875L145.208 99.6042L144 96.7708ZM140.104 106.604L141.146 102.167L137.708 99.2083L142.229 98.8125L144 94.625L145.771 98.8125L150.292 99.2083L146.854 102.167L147.896 106.604L144 104.25L140.104 106.604Z" fill="#CEC609"/>
<path d="M25.3438 54.8333C27.1146 53.5139 29.0417 52.4722 31.125 51.7083C33.2083 50.9444 35.4306 50.5625 37.7917 50.5625C40.1528 50.5625 42.375 50.9444 44.4583 51.7083C46.5417 52.4722 48.4688 53.5139 50.2396 54.8333C51.5243 53.4097 52.5486 51.7604 53.3125 49.8854C54.0764 48.0104 54.4583 45.9792 54.4583 43.7917C54.4583 39.1736 52.8354 35.241 49.5896 31.9938C46.3424 28.7479 42.4097 27.125 37.7917 27.125C33.1736 27.125 29.2417 28.7479 25.9958 31.9938C22.7486 35.241 21.125 39.1736 21.125 43.7917C21.125 45.9792 21.5069 48.0104 22.2708 49.8854C23.0347 51.7604 24.059 53.4097 25.3438 54.8333ZM37.7917 45.3542C35.8819 45.3542 34.2764 44.7028 32.975 43.4C31.6722 42.0986 31.0208 40.4931 31.0208 38.5833C31.0208 36.6736 31.6722 35.0681 32.975 33.7667C34.2764 32.4639 35.8819 31.8125 37.7917 31.8125C39.7014 31.8125 41.3069 32.4639 42.6083 33.7667C43.9111 35.0681 44.5625 36.6736 44.5625 38.5833C44.5625 40.4931 43.9111 42.0986 42.6083 43.4C41.3069 44.7028 39.7014 45.3542 37.7917 45.3542ZM37.7917 63.5833C35.0486 63.5833 32.4708 63.0625 30.0583 62.0208C27.6444 60.9792 25.5521 59.5729 23.7813 57.8021C22.0104 56.0313 20.6042 53.9389 19.5625 51.525C18.5208 49.1125 18 46.5347 18 43.7917C18 41.0486 18.5208 38.4701 19.5625 36.0563C20.6042 33.6438 22.0104 31.5521 23.7813 29.7813C25.5521 28.0104 27.6444 26.6042 30.0583 25.5625C32.4708 24.5208 35.0486 24 37.7917 24C40.5347 24 43.1132 24.5208 45.5271 25.5625C47.9396 26.6042 50.0313 28.0104 51.8021 29.7813C53.5729 31.5521 54.9792 33.6438 56.0208 36.0563C57.0625 38.4701 57.5833 41.0486 57.5833 43.7917C57.5833 46.5347 57.0625 49.1125 56.0208 51.525C54.9792 53.9389 53.5729 56.0313 51.8021 57.8021C50.0313 59.5729 47.9396 60.9792 45.5271 62.0208C43.1132 63.0625 40.5347 63.5833 37.7917 63.5833ZM37.7917 60.4583C39.6667 60.4583 41.4813 60.1542 43.2354 59.5458C44.9882 58.9389 46.5417 58.0972 47.8958 57.0208C46.5417 55.9792 45.0049 55.1632 43.2854 54.5729C41.5674 53.9826 39.7361 53.6875 37.7917 53.6875C35.8472 53.6875 34.016 53.9743 32.2979 54.5479C30.5785 55.1201 29.0417 55.9444 27.6875 57.0208C29.0417 58.0972 30.5951 58.9389 32.3479 59.5458C34.1021 60.1542 35.9167 60.4583 37.7917 60.4583ZM37.7917 42.2292C38.8333 42.2292 39.7014 41.8819 40.3958 41.1875C41.0903 40.4931 41.4375 39.625 41.4375 38.5833C41.4375 37.5417 41.0903 36.6736 40.3958 35.9792C39.7014 35.2847 38.8333 34.9375 37.7917 34.9375C36.75 34.9375 35.8819 35.2847 35.1875 35.9792C34.4931 36.6736 34.1458 37.5417 34.1458 38.5833C34.1458 39.625 34.4931 40.4931 35.1875 41.1875C35.8819 41.8819 36.75 42.2292 37.7917 42.2292Z" fill="#488AA8"/>
</svg>
